*%FSLAX23Y23*%
*%MOIN*%
G01*
D11*
X10302Y5712D02*
Y5756D01*
X10317D01*
X10323Y5754D01*
X10328Y5750D01*
X10330Y5746D01*
X10332Y5739D01*
Y5729D01*
X10330Y5722D01*
X10328Y5718D01*
X10323Y5714D01*
X10317Y5712D01*
X10302D01*
X10359Y5756D02*
X10376Y5712D01*
X10342D02*
X10359Y5756D01*
X10348Y5726D02*
X10370D01*
X10402Y5712D02*
Y5756D01*
X10387D02*
X10417D01*
X10422D02*
X10450D01*
X10422D02*
Y5712D01*
X10450D01*
X10439Y5735D02*
X10422D01*
X10458Y5739D02*
X10460Y5741D01*
X10458Y5739D02*
X10460Y5737D01*
X10462Y5739D01*
X10460Y5741D01*
Y5716D02*
X10458Y5714D01*
X10460Y5712D01*
X10462Y5714D01*
X10460Y5716D01*
X9840Y5712D02*
Y5756D01*
X9859D01*
X9865Y5754D01*
X9867Y5752D01*
X9869Y5748D01*
Y5744D01*
X9867Y5739D01*
X9865Y5737D01*
X9859Y5735D01*
X9840D01*
X9854D02*
X9869Y5712D01*
X9880Y5756D02*
X9907D01*
X9880D02*
Y5712D01*
X9907D01*
X9897Y5735D02*
X9880D01*
X9915Y5756D02*
X9932Y5712D01*
X9949Y5756D01*
X9957Y5741D02*
X9955Y5739D01*
X9957Y5737D01*
X9959Y5739D01*
X9957Y5741D01*
Y5716D02*
X9955Y5714D01*
X9957Y5712D01*
X9959Y5714D01*
X9957Y5716D01*
X7221Y6008D02*
X7202D01*
X7221D02*
X7228Y6010D01*
X7230Y6012D01*
X7232Y6016D01*
Y6023D01*
X7230Y6027D01*
X7228Y6029D01*
X7221Y6031D01*
X7202D01*
Y5986D01*
X7242D02*
Y6031D01*
X7272D02*
Y5986D01*
Y6010D02*
X7242D01*
X7293Y6029D02*
X7297Y6031D01*
X7293Y6029D02*
X7289Y6025D01*
X7287Y6021D01*
X7284Y6014D01*
Y6004D01*
X7287Y5997D01*
X7289Y5993D01*
X7293Y5989D01*
X7297Y5986D01*
X7306D01*
X7310Y5989D01*
X7314Y5993D01*
X7317Y5997D01*
X7319Y6004D01*
Y6014D01*
X7317Y6021D01*
X7314Y6025D01*
X7310Y6029D01*
X7306Y6031D01*
X7297D01*
X7329D02*
Y5986D01*
X7359D02*
X7329Y6031D01*
X7359D02*
Y5986D01*
X7372Y6031D02*
X7400D01*
X7372D02*
Y5986D01*
X7400D01*
X7389Y6010D02*
X7372D01*
X7407Y6014D02*
X7409Y6016D01*
X7407Y6014D02*
X7409Y6012D01*
X7411Y6014D01*
X7409Y6016D01*
Y5991D02*
X7407Y5989D01*
X7409Y5986D01*
X7411Y5989D01*
X7409Y5991D01*
X7221Y5633D02*
X7202D01*
X7221D02*
X7228Y5635D01*
X7230Y5637D01*
X7232Y5641D01*
Y5648D01*
X7230Y5652D01*
X7228Y5654D01*
X7221Y5656D01*
X7202D01*
Y5612D01*
X7242D02*
Y5656D01*
X7272D02*
Y5612D01*
Y5635D02*
X7242D01*
X7293Y5654D02*
X7297Y5656D01*
X7293Y5654D02*
X7289Y5650D01*
X7287Y5646D01*
X7284Y5639D01*
Y5629D01*
X7287Y5622D01*
X7289Y5618D01*
X7293Y5614D01*
X7297Y5612D01*
X7306D01*
X7310Y5614D01*
X7314Y5618D01*
X7317Y5622D01*
X7319Y5629D01*
Y5639D01*
X7317Y5646D01*
X7314Y5650D01*
X7310Y5654D01*
X7306Y5656D01*
X7297D01*
X7329D02*
Y5612D01*
X7359D02*
X7329Y5656D01*
X7359D02*
Y5612D01*
X7372Y5656D02*
X7400D01*
X7372D02*
Y5612D01*
X7400D01*
X7389Y5635D02*
X7372D01*
X7407Y5639D02*
X7409Y5641D01*
X7407Y5639D02*
X7409Y5637D01*
X7411Y5639D01*
X7409Y5641D01*
Y5616D02*
X7407Y5614D01*
X7409Y5612D01*
X7411Y5614D01*
X7409Y5616D01*
X9042Y5479D02*
Y5434D01*
X9068D01*
X9107D02*
X9090Y5479D01*
X9073Y5434D01*
X9079Y5449D02*
X9100D01*
X9117Y5479D02*
X9135Y5458D01*
Y5434D01*
Y5458D02*
X9152Y5479D01*
X9157D02*
X9185D01*
X9157D02*
Y5434D01*
X9185D01*
X9175Y5458D02*
X9157D01*
X9193Y5479D02*
Y5434D01*
Y5479D02*
X9212D01*
X9219Y5477D01*
X9221Y5475D01*
X9223Y5470D01*
Y5466D01*
X9221Y5462D01*
X9219Y5460D01*
X9212Y5458D01*
X9193D01*
X9208D02*
X9223Y5434D01*
X9233Y5462D02*
X9235Y5464D01*
X9233Y5462D02*
X9235Y5460D01*
X9237Y5462D01*
X9235Y5464D01*
Y5438D02*
X9233Y5436D01*
X9235Y5434D01*
X9237Y5436D01*
X9235Y5438D01*
X7230Y6219D02*
X7202D01*
Y6174D01*
X7230D01*
X7219Y6198D02*
X7202D01*
X7237Y6219D02*
Y6174D01*
X7267D02*
X7237Y6219D01*
X7267D02*
Y6174D01*
X7312Y6208D02*
X7310Y6213D01*
X7305Y6217D01*
X7301Y6219D01*
X7293D01*
X7288Y6217D01*
X7284Y6213D01*
X7282Y6208D01*
X7280Y6202D01*
Y6191D01*
X7282Y6185D01*
X7284Y6180D01*
X7288Y6176D01*
X7293Y6174D01*
X7301D01*
X7305Y6176D01*
X7310Y6180D01*
X7312Y6185D01*
Y6191D01*
X7301D01*
X7322Y6174D02*
Y6219D01*
X7332D02*
Y6174D01*
X7362D02*
X7332Y6219D01*
X7362D02*
Y6174D01*
X7374Y6219D02*
X7402D01*
X7374D02*
Y6174D01*
X7402D01*
X7391Y6198D02*
X7374D01*
X7409Y6219D02*
X7437D01*
X7409D02*
Y6174D01*
X7437D01*
X7427Y6198D02*
X7409D01*
X7445Y6219D02*
Y6174D01*
Y6219D02*
X7464D01*
X7470Y6217D01*
X7473Y6215D01*
X7475Y6210D01*
Y6206D01*
X7473Y6202D01*
X7470Y6200D01*
X7464Y6198D01*
X7445D01*
X7460D02*
X7475Y6174D01*
X7485Y6202D02*
X7487Y6204D01*
X7485Y6202D02*
X7487Y6200D01*
X7489Y6202D01*
X7487Y6204D01*
Y6178D02*
X7485Y6176D01*
X7487Y6174D01*
X7489Y6176D01*
X7487Y6178D01*
X8102Y5733D02*
X8121D01*
X8128Y5735D01*
X8130Y5737D01*
X8132Y5741D01*
Y5748D01*
X8130Y5752D01*
X8128Y5754D01*
X8121Y5756D01*
X8102D01*
Y5712D01*
X8159Y5756D02*
X8176Y5712D01*
X8142D02*
X8159Y5756D01*
X8148Y5726D02*
X8170D01*
X8187Y5712D02*
Y5756D01*
X8206D01*
X8213Y5754D01*
X8215Y5752D01*
X8217Y5748D01*
Y5744D01*
X8215Y5739D01*
X8213Y5737D01*
X8206Y5735D01*
X8187D01*
X8202D02*
X8217Y5712D01*
X8242D02*
Y5756D01*
X8227D02*
X8257D01*
X8298D02*
Y5712D01*
X8328D02*
X8298Y5756D01*
X8328D02*
Y5712D01*
X8349Y5754D02*
X8353Y5756D01*
X8349Y5754D02*
X8344Y5750D01*
X8342Y5746D01*
X8340Y5739D01*
Y5729D01*
X8342Y5722D01*
X8344Y5718D01*
X8349Y5714D01*
X8353Y5712D01*
X8361D01*
X8366Y5714D01*
X8370Y5718D01*
X8372Y5722D01*
X8374Y5729D01*
Y5739D01*
X8372Y5746D01*
X8370Y5750D01*
X8366Y5754D01*
X8361Y5756D01*
X8353D01*
X8387Y5716D02*
X8385Y5714D01*
X8387Y5712D01*
X8389Y5714D01*
X8387Y5716D01*
X8399Y5739D02*
X8401Y5741D01*
X8399Y5739D02*
X8401Y5737D01*
X8403Y5739D01*
X8401Y5741D01*
Y5716D02*
X8399Y5714D01*
X8401Y5712D01*
X8403Y5714D01*
X8401Y5716D01*
X8104Y6186D02*
Y6231D01*
X8090D02*
X8119D01*
X8125D02*
Y6186D01*
X8149D02*
Y6231D01*
X8134D02*
X8164D01*
X8170D02*
Y6186D01*
X8195D01*
X8200Y6231D02*
X8228D01*
X8200D02*
Y6186D01*
X8228D01*
X8217Y6210D02*
X8200D01*
X8236Y6214D02*
X8238Y6216D01*
X8236Y6214D02*
X8238Y6212D01*
X8240Y6214D01*
X8238Y6216D01*
Y6191D02*
X8236Y6189D01*
X8238Y6186D01*
X8240Y6189D01*
X8238Y6191D01*
X7230Y5839D02*
X7202D01*
Y5794D01*
X7230D01*
X7219Y5818D02*
X7202D01*
X7237Y5839D02*
Y5794D01*
X7267D02*
X7237Y5839D01*
X7267D02*
Y5794D01*
X7312Y5828D02*
X7310Y5833D01*
X7305Y5837D01*
X7301Y5839D01*
X7293D01*
X7288Y5837D01*
X7284Y5833D01*
X7282Y5828D01*
X7280Y5822D01*
Y5811D01*
X7282Y5805D01*
X7284Y5800D01*
X7288Y5796D01*
X7293Y5794D01*
X7301D01*
X7305Y5796D01*
X7310Y5800D01*
X7312Y5805D01*
Y5811D01*
X7301D01*
X7322Y5794D02*
Y5839D01*
X7332D02*
Y5794D01*
X7362D02*
X7332Y5839D01*
X7362D02*
Y5794D01*
X7374Y5839D02*
X7402D01*
X7374D02*
Y5794D01*
X7402D01*
X7391Y5818D02*
X7374D01*
X7409Y5839D02*
X7437D01*
X7409D02*
Y5794D01*
X7437D01*
X7427Y5818D02*
X7409D01*
X7445Y5839D02*
Y5794D01*
Y5839D02*
X7464D01*
X7470Y5837D01*
X7473Y5835D01*
X7475Y5830D01*
Y5826D01*
X7473Y5822D01*
X7470Y5820D01*
X7464Y5818D01*
X7445D01*
X7460D02*
X7475Y5794D01*
X7485Y5822D02*
X7487Y5824D01*
X7485Y5822D02*
X7487Y5820D01*
X7489Y5822D01*
X7487Y5824D01*
Y5798D02*
X7485Y5796D01*
X7487Y5794D01*
X7489Y5796D01*
X7487Y5798D01*
X7202Y5479D02*
Y5434D01*
Y5479D02*
X7230D01*
X7219Y5458D02*
X7202D01*
X7235Y5479D02*
Y5434D01*
X7244D02*
Y5479D01*
Y5434D02*
X7270D01*
X7275Y5479D02*
X7303D01*
X7275D02*
Y5434D01*
X7303D01*
X7292Y5458D02*
X7275D01*
X7346Y5479D02*
Y5434D01*
X7376D02*
X7346Y5479D01*
X7376D02*
Y5434D01*
X7422D02*
X7405Y5479D01*
X7388Y5434D01*
X7395Y5449D02*
X7416D01*
X7433Y5434D02*
Y5479D01*
X7450Y5434D01*
X7467Y5479D01*
Y5434D01*
X7480Y5479D02*
X7508D01*
X7480D02*
Y5434D01*
X7508D01*
X7497Y5458D02*
X7480D01*
X7515Y5462D02*
X7518Y5464D01*
X7515Y5462D02*
X7518Y5460D01*
X7520Y5462D01*
X7518Y5464D01*
Y5438D02*
X7515Y5436D01*
X7518Y5434D01*
X7520Y5436D01*
X7518Y5438D01*
X10892Y5473D02*
X10894Y5468D01*
X10892Y5473D02*
X10888Y5477D01*
X10883Y5479D01*
X10875D01*
X10871Y5477D01*
X10866Y5473D01*
X10864Y5468D01*
X10862Y5462D01*
Y5451D01*
X10864Y5445D01*
X10866Y5440D01*
X10871Y5436D01*
X10875Y5434D01*
X10883D01*
X10888Y5436D01*
X10892Y5440D01*
X10894Y5445D01*
Y5451D01*
X10883D01*
X10904Y5479D02*
X10932D01*
X10904D02*
Y5434D01*
X10932D01*
X10922Y5458D02*
X10904D01*
X10940Y5479D02*
Y5434D01*
Y5479D02*
X10959D01*
X10965Y5477D01*
X10968Y5475D01*
X10970Y5470D01*
Y5466D01*
X10968Y5462D01*
X10965Y5460D01*
X10959Y5458D01*
X10940D01*
X10955D02*
X10970Y5434D01*
X10980D02*
Y5479D01*
X10999D01*
X11006Y5477D01*
X11008Y5475D01*
X11010Y5470D01*
Y5466D01*
X11008Y5462D01*
X11006Y5460D01*
X10999Y5458D01*
X10980D01*
X10999D02*
X11006Y5455D01*
X11008Y5453D01*
X11010Y5449D01*
Y5443D01*
X11008Y5438D01*
X11006Y5436D01*
X10999Y5434D01*
X10980D01*
X11020Y5479D02*
X11048D01*
X11020D02*
Y5434D01*
X11048D01*
X11037Y5458D02*
X11020D01*
X11055Y5479D02*
Y5434D01*
Y5479D02*
X11075D01*
X11081Y5477D01*
X11083Y5475D01*
X11085Y5470D01*
Y5466D01*
X11083Y5462D01*
X11081Y5460D01*
X11075Y5458D01*
X11055D01*
X11070D02*
X11085Y5434D01*
X11095Y5462D02*
X11097Y5464D01*
X11095Y5462D02*
X11097Y5460D01*
X11100Y5462D01*
X11097Y5464D01*
Y5438D02*
X11095Y5436D01*
X11097Y5434D01*
X11100Y5436D01*
X11097Y5438D01*
D12*
X7138Y7990D02*
Y8029D01*
Y7990D02*
X7098Y8029D01*
X7088D01*
X7078Y8019D01*
Y7999D01*
X7088Y7990D01*
X7128Y8049D02*
X7138Y8059D01*
Y8079D01*
X7128Y8089D01*
X7088D01*
X7078Y8079D01*
Y8059D01*
X7088Y8049D01*
X7098D01*
X7108Y8059D01*
Y8089D01*
X7078Y8109D02*
Y8149D01*
Y8109D02*
X7108D01*
X7098Y8129D01*
Y8139D01*
X7108Y8149D01*
X7128D01*
X7138Y8139D01*
Y8119D01*
X7128Y8109D01*
X7138Y8169D02*
Y8209D01*
Y8169D02*
X7098Y8209D01*
X7088D01*
X7078Y8199D01*
Y8179D01*
X7088Y8169D01*
X7128Y8229D02*
X7138D01*
X7128D02*
Y8239D01*
X7138D01*
Y8229D01*
X7078Y8279D02*
Y8319D01*
X7088D01*
X7128Y8279D01*
X7138D01*
X7078Y8339D02*
Y8379D01*
Y8339D02*
X7108D01*
X7098Y8359D01*
Y8369D01*
X7108Y8379D01*
X7128D01*
X7138Y8369D01*
Y8349D01*
X7128Y8339D01*
X7088Y8419D02*
X7078Y8439D01*
X7088Y8419D02*
X7108Y8399D01*
X7128D01*
X7138Y8409D01*
Y8429D01*
X7128Y8439D01*
X7118D01*
X7108Y8429D01*
Y8399D01*
X7118Y8519D02*
X7138Y8539D01*
X7118Y8519D02*
X7098D01*
X7078Y8539D01*
X7098Y8569D02*
X7138D01*
X7098D02*
Y8579D01*
X7108Y8589D01*
X7138D01*
X7108D01*
X7098Y8599D01*
X7108Y8609D01*
X7138D01*
Y8629D02*
Y8649D01*
Y8639D01*
X7098D01*
Y8629D01*
X7078Y8639D02*
X7079D01*
X7138Y8679D02*
Y8699D01*
Y8689D01*
X7078D01*
Y8679D01*
X7138Y8729D02*
X7118Y8749D01*
X7098D01*
X7078Y8729D01*
X8293Y6763D02*
X8332D01*
X8293D02*
X8332Y6803D01*
Y6813D01*
X8322Y6823D01*
X8302D01*
X8293Y6813D01*
X8352Y6773D02*
X8362Y6763D01*
X8382D01*
X8392Y6773D01*
Y6813D01*
X8382Y6823D01*
X8362D01*
X8352Y6813D01*
Y6803D01*
X8362Y6793D01*
X8392D01*
X8412Y6823D02*
X8452D01*
X8412D02*
Y6793D01*
X8432Y6803D01*
X8442D01*
X8452Y6793D01*
Y6773D01*
X8442Y6763D01*
X8422D01*
X8412Y6773D01*
X8472Y6763D02*
X8512D01*
X8472D02*
X8512Y6803D01*
Y6813D01*
X8502Y6823D01*
X8482D01*
X8472Y6813D01*
X8532Y6773D02*
Y6763D01*
Y6773D02*
X8542D01*
Y6763D01*
X8532D01*
X8582Y6823D02*
X8622D01*
Y6813D01*
X8582Y6773D01*
Y6763D01*
X8642Y6823D02*
X8682D01*
X8642D02*
Y6793D01*
X8662Y6803D01*
X8672D01*
X8682Y6793D01*
Y6773D01*
X8672Y6763D01*
X8652D01*
X8642Y6773D01*
X8722Y6813D02*
X8742Y6823D01*
X8722Y6813D02*
X8702Y6793D01*
Y6773D01*
X8712Y6763D01*
X8732D01*
X8742Y6773D01*
Y6783D01*
X8732Y6793D01*
X8702D01*
X8822Y6783D02*
X8842Y6763D01*
X8822Y6783D02*
Y6803D01*
X8842Y6823D01*
X8872Y6803D02*
Y6763D01*
Y6803D02*
X8882D01*
X8892Y6793D01*
Y6763D01*
Y6793D01*
X8902Y6803D01*
X8912Y6793D01*
Y6763D01*
X8932D02*
X8952D01*
X8942D01*
Y6803D01*
X8932D01*
X8942Y6823D02*
X8943D01*
X8982Y6763D02*
X9002D01*
X8992D01*
Y6823D01*
X8982D01*
X9032Y6763D02*
X9052Y6783D01*
Y6803D01*
X9032Y6823D01*
D14*
X10147Y8231D02*
Y8647D01*
Y8231D02*
X10105D01*
Y8647D01*
X9964Y8622D01*
Y8256D01*
X10105Y8231D01*
Y8647D02*
X10147D01*
Y8506D02*
X10139D01*
X10130D02*
X10122D01*
X10114D02*
X10105D01*
Y8372D02*
X10114D01*
X10122D02*
X10130D01*
X10139D02*
X10147D01*
Y8187D02*
Y7771D01*
X10105D01*
Y8187D01*
X9964Y8162D01*
Y7796D01*
X10105Y7771D01*
Y8187D02*
X10147D01*
Y8046D02*
X10139D01*
X10130D02*
X10122D01*
X10114D02*
X10105D01*
Y7912D02*
X10114D01*
X10122D02*
X10130D01*
X10139D02*
X10147D01*
D15*
X6927Y5299D02*
X6877D01*
X6727D02*
X6577D01*
X6577Y4999D02*
X6502D01*
X6477Y5224D02*
X6527D01*
X6516Y5232D02*
X6488D01*
X6492Y5236D02*
X6512D01*
X6522Y5228D02*
X6482D01*
X6498Y5239D02*
X6506D01*
X6702Y4999D02*
X6727D01*
X6502Y5299D02*
X6302D01*
X6427Y5399D02*
X6502D01*
Y5499D02*
X6427D01*
Y5599D02*
X6502D01*
Y5699D02*
X6427D01*
X6352Y5799D02*
X6502D01*
Y5899D02*
X6427D01*
Y5999D02*
X6502D01*
Y6099D02*
X6427D01*
Y6199D02*
X6502D01*
Y6299D02*
X6302D01*
X6427Y6399D02*
X6502D01*
Y6499D02*
X6427D01*
Y6599D02*
X6502D01*
Y6699D02*
X6427D01*
X6352Y6799D02*
X6502D01*
Y6899D02*
X6427D01*
Y6999D02*
X6502D01*
Y7099D02*
X6427D01*
Y7199D02*
X6502D01*
Y7299D02*
X6302D01*
X6427Y7399D02*
X6502D01*
Y7499D02*
X6427D01*
Y7599D02*
X6502D01*
Y7699D02*
X6427D01*
X6352Y7799D02*
X6502D01*
Y7899D02*
X6427D01*
Y7999D02*
X6502D01*
Y8099D02*
X6427D01*
Y8199D02*
X6502D01*
Y8299D02*
X6302D01*
X6427Y8399D02*
X6502D01*
Y8499D02*
X6427D01*
Y8599D02*
X6502D01*
Y8699D02*
X6427D01*
X6352Y8799D02*
X6502D01*
Y8899D02*
X6427D01*
Y8999D02*
X6502D01*
Y9099D02*
X6427D01*
Y9199D02*
X6502D01*
Y9299D02*
X6302D01*
X6427Y9399D02*
X6502D01*
Y9499D02*
X6427D01*
Y9599D02*
X6502D01*
Y9699D02*
X6427D01*
X6352Y9799D02*
X6502D01*
Y9899D02*
X6427D01*
Y9999D02*
X6502D01*
Y10099D02*
X6427D01*
Y10199D02*
X6502D01*
Y10299D02*
X6302D01*
X6427Y10399D02*
X6502D01*
Y10499D02*
X6427D01*
Y10599D02*
X6502D01*
Y10699D02*
X6427D01*
X6352Y10799D02*
X6502D01*
Y10899D02*
X6427D01*
Y10999D02*
X6502D01*
Y11099D02*
X6427D01*
Y11199D02*
X6502D01*
Y11299D02*
X6302D01*
X6802D02*
X6852D01*
X6802D02*
X6752D01*
X6727D02*
X6577D01*
X6877D02*
X6927D01*
X13677Y5299D02*
X13727D01*
X13877D02*
X13927D01*
X6802Y5224D02*
Y5074D01*
Y5374D02*
Y5424D01*
X6502Y5074D02*
Y4999D01*
X6727Y4974D02*
Y5024D01*
X6735Y5014D02*
Y4984D01*
X6502Y5199D02*
Y5224D01*
X6738Y5008D02*
Y4990D01*
X6732Y4980D02*
Y5018D01*
X6742Y5004D02*
Y4994D01*
X6802Y4999D02*
Y4799D01*
X6902Y4924D02*
Y4999D01*
X7002D02*
Y4924D01*
X7102D02*
Y4999D01*
X7202D02*
Y4924D01*
X7302Y4849D02*
Y4999D01*
X7402D02*
Y4924D01*
X7502D02*
Y4999D01*
X7602D02*
Y4924D01*
X7702D02*
Y4999D01*
X7802D02*
Y4799D01*
X7902Y4924D02*
Y4999D01*
X8002D02*
Y4924D01*
X8102D02*
Y4999D01*
X8202D02*
Y4924D01*
X8302Y4849D02*
Y4999D01*
X8402D02*
Y4924D01*
X8502D02*
Y4999D01*
X8602D02*
Y4924D01*
X8702D02*
Y4999D01*
X8802D02*
Y4799D01*
X8902Y4924D02*
Y4999D01*
X9002D02*
Y4924D01*
X9102D02*
Y4999D01*
X9202D02*
Y4924D01*
X9302Y4849D02*
Y4999D01*
X9402D02*
Y4924D01*
X9502D02*
Y4999D01*
X9602D02*
Y4924D01*
X9702D02*
Y4999D01*
X9802D02*
Y4799D01*
X9902Y4924D02*
Y4999D01*
X10002D02*
Y4924D01*
X10102D02*
Y4999D01*
X10202D02*
Y4924D01*
X10302Y4849D02*
Y4999D01*
X10402D02*
Y4924D01*
X10502D02*
Y4999D01*
X10602D02*
Y4924D01*
X10702D02*
Y4999D01*
X10802D02*
Y4799D01*
X10902Y4924D02*
Y4999D01*
X11002D02*
Y4924D01*
X11102D02*
Y4999D01*
X11202D02*
Y4924D01*
X11302Y4849D02*
Y4999D01*
X11402D02*
Y4924D01*
X11502D02*
Y4999D01*
X11602D02*
Y4924D01*
X11702D02*
Y4999D01*
X11802D02*
Y4799D01*
X11902Y4924D02*
Y4999D01*
X12002D02*
Y4924D01*
X12102D02*
Y4999D01*
X12202D02*
Y4924D01*
X12302Y4849D02*
Y4999D01*
X12402D02*
Y4924D01*
X12502D02*
Y4999D01*
X12602D02*
Y4924D01*
X12702D02*
Y4999D01*
X12802D02*
Y4799D01*
X12902Y4924D02*
Y4999D01*
X13002D02*
Y4924D01*
X13102D02*
Y4999D01*
X13202D02*
Y4924D01*
X13302Y4849D02*
Y4999D01*
X13402D02*
Y4924D01*
X13502D02*
Y4999D01*
X13602D02*
Y4924D01*
X13702D02*
Y4999D01*
X13802D02*
Y4799D01*
X6802Y11249D02*
Y11299D01*
Y11349D01*
Y11374D02*
Y11424D01*
Y11224D02*
Y11174D01*
X13802Y5424D02*
Y5374D01*
Y5224D02*
Y5074D01*
X6837Y5334D02*
X6802Y5299D01*
X6767Y5264D01*
X13767D02*
X13802Y5299D01*
X13837Y5334D01*
X6837Y5264D02*
X6802Y5299D01*
X6767Y5334D01*
X13802Y5299D02*
X13837Y5264D01*
X13802Y5299D02*
X13767Y5334D01*
X6802Y4999D02*
X6727Y4974D01*
Y5024D02*
X6802Y4999D01*
X6778D02*
X6735Y5014D01*
Y4984D02*
X6778Y4999D01*
X6527Y5224D02*
X6502Y5299D01*
X6477Y5224D01*
X6488Y5232D02*
X6502Y5275D01*
X6516Y5232D01*
X6492Y5236D02*
X6502Y5264D01*
X6512Y5236D01*
X6482Y5228D02*
X6502Y5286D01*
X6522Y5228D01*
X6498Y5239D02*
X6502Y5252D01*
X6506Y5239D01*
X6738Y5008D02*
X6766Y4999D01*
X6738Y4990D01*
X6732Y5018D02*
X6790Y4999D01*
X6732Y4980D01*
X6742Y5004D02*
X6755Y4999D01*
X6742Y4994D01*
X13852Y5299D02*
X13852Y5296D01*
X13852Y5292D01*
X13851Y5289D01*
X13850Y5286D01*
X13849Y5282D01*
X13848Y5279D01*
X13847Y5276D01*
X13845Y5273D01*
X13843Y5270D01*
X13841Y5268D01*
X13839Y5265D01*
X13836Y5263D01*
X13834Y5261D01*
X13831Y5258D01*
X13828Y5257D01*
X13826Y5255D01*
X13823Y5253D01*
X13819Y5252D01*
X13816Y5251D01*
X13813Y5250D01*
X13810Y5250D01*
X13806Y5249D01*
X13803Y5249D01*
X13799Y5249D01*
X13796Y5249D01*
X13793Y5250D01*
X13789Y5251D01*
X13786Y5252D01*
X13783Y5253D01*
X13780Y5254D01*
X13777Y5256D01*
X13774Y5257D01*
X13771Y5259D01*
X13769Y5262D01*
X13766Y5264D01*
X13764Y5266D01*
X13762Y5269D01*
X13760Y5272D01*
X13758Y5275D01*
X13757Y5278D01*
X13755Y5281D01*
X13754Y5284D01*
X13753Y5287D01*
X13753Y5291D01*
X13752Y5294D01*
X13752Y5297D01*
Y5301D01*
X13752Y5304D01*
X13753Y5307D01*
X13753Y5311D01*
X13754Y5314D01*
X13755Y5317D01*
X13757Y5320D01*
X13758Y5323D01*
X13760Y5326D01*
X13762Y5329D01*
X13764Y5332D01*
X13766Y5334D01*
X13769Y5336D01*
X13771Y5339D01*
X13774Y5341D01*
X13777Y5342D01*
X13780Y5344D01*
X13783Y5345D01*
X13786Y5346D01*
X13789Y5347D01*
X13793Y5348D01*
X13796Y5349D01*
X13799Y5349D01*
X13803Y5349D01*
X13806Y5349D01*
X13810Y5348D01*
X13813Y5348D01*
X13816Y5347D01*
X13819Y5346D01*
X13823Y5345D01*
X13826Y5343D01*
X13828Y5341D01*
X13831Y5340D01*
X13834Y5337D01*
X13836Y5335D01*
X13839Y5333D01*
X13841Y5330D01*
X13843Y5328D01*
X13845Y5325D01*
X13847Y5322D01*
X13848Y5319D01*
X13849Y5316D01*
X13850Y5312D01*
X13851Y5309D01*
X13852Y5306D01*
X13852Y5302D01*
X13852Y5299D01*
X13877D02*
X13877Y5296D01*
X13877Y5292D01*
X13876Y5289D01*
X13876Y5286D01*
X13875Y5282D01*
X13874Y5279D01*
X13873Y5276D01*
X13872Y5273D01*
X13871Y5270D01*
X13870Y5267D01*
X13868Y5264D01*
X13867Y5261D01*
X13865Y5258D01*
X13863Y5255D01*
X13861Y5253D01*
X13859Y5250D01*
X13856Y5247D01*
X13854Y5245D01*
X13852Y5243D01*
X13849Y5241D01*
X13846Y5239D01*
X13844Y5237D01*
X13841Y5235D01*
X13838Y5233D01*
X13835Y5232D01*
X13832Y5230D01*
X13829Y5229D01*
X13826Y5228D01*
X13823Y5227D01*
X13819Y5226D01*
X13816Y5225D01*
X13813Y5225D01*
X13810Y5224D01*
X13806Y5224D01*
X13803Y5224D01*
X13800Y5224D01*
X13796Y5224D01*
X13793Y5225D01*
X13790Y5225D01*
X13786Y5226D01*
X13783Y5226D01*
X13780Y5227D01*
X13777Y5228D01*
X13774Y5230D01*
X13770Y5231D01*
X13767Y5232D01*
X13765Y5234D01*
X13762Y5236D01*
X13759Y5238D01*
X13756Y5240D01*
X13754Y5242D01*
X13751Y5244D01*
X13749Y5246D01*
X13746Y5249D01*
X13744Y5251D01*
X13742Y5254D01*
X13740Y5257D01*
X13738Y5259D01*
X13737Y5262D01*
X13735Y5265D01*
X13734Y5268D01*
X13732Y5271D01*
X13731Y5274D01*
X13730Y5278D01*
X13729Y5281D01*
X13729Y5284D01*
X13728Y5287D01*
X13727Y5291D01*
X13727Y5294D01*
X13727Y5297D01*
Y5301D01*
X13727Y5304D01*
X13727Y5307D01*
X13728Y5311D01*
X13729Y5314D01*
X13729Y5317D01*
X13730Y5320D01*
X13731Y5324D01*
X13732Y5327D01*
X13734Y5330D01*
X13735Y5333D01*
X13737Y5336D01*
X13738Y5339D01*
X13740Y5341D01*
X13742Y5344D01*
X13744Y5347D01*
X13746Y5349D01*
X13749Y5352D01*
X13751Y5354D01*
X13754Y5356D01*
X13756Y5358D01*
X13759Y5360D01*
X13762Y5362D01*
X13765Y5364D01*
X13767Y5366D01*
X13770Y5367D01*
X13774Y5368D01*
X13777Y5370D01*
X13780Y5371D01*
X13783Y5372D01*
X13786Y5372D01*
X13790Y5373D01*
X13793Y5373D01*
X13796Y5374D01*
X13800Y5374D01*
X13803Y5374D01*
X13806Y5374D01*
X13810Y5374D01*
X13813Y5373D01*
X13816Y5373D01*
X13819Y5372D01*
X13823Y5371D01*
X13826Y5370D01*
X13829Y5369D01*
X13832Y5368D01*
X13835Y5366D01*
X13838Y5365D01*
X13841Y5363D01*
X13844Y5361D01*
X13846Y5359D01*
X13849Y5357D01*
X13852Y5355D01*
X13854Y5353D01*
X13856Y5351D01*
X13859Y5348D01*
X13861Y5345D01*
X13863Y5343D01*
X13865Y5340D01*
X13867Y5337D01*
X13868Y5334D01*
X13870Y5331D01*
X13871Y5328D01*
X13872Y5325D01*
X13873Y5322D01*
X13874Y5319D01*
X13875Y5316D01*
X13876Y5312D01*
X13876Y5309D01*
X13877Y5306D01*
X13877Y5302D01*
X13877Y5299D01*
X13805D02*
X13803Y5297D01*
X13801D01*
X13800Y5299D01*
X13801Y5301D01*
X13803D01*
X13805Y5299D01*
X13807D02*
X13806Y5296D01*
X13803Y5294D01*
X13800Y5295D01*
X13797Y5297D01*
Y5301D01*
X13800Y5303D01*
X13803Y5304D01*
X13806Y5302D01*
X13807Y5299D01*
X13822D02*
X13822Y5296D01*
X13821Y5293D01*
X13820Y5290D01*
X13818Y5287D01*
X13816Y5285D01*
X13813Y5283D01*
X13811Y5281D01*
X13808Y5280D01*
X13804Y5279D01*
X13801Y5279D01*
X13798Y5279D01*
X13795Y5280D01*
X13792Y5282D01*
X13789Y5283D01*
X13787Y5286D01*
X13785Y5288D01*
X13784Y5291D01*
X13783Y5294D01*
X13782Y5297D01*
Y5301D01*
X13783Y5304D01*
X13784Y5307D01*
X13785Y5310D01*
X13787Y5312D01*
X13789Y5314D01*
X13792Y5316D01*
X13795Y5318D01*
X13798Y5319D01*
X13801Y5319D01*
X13804Y5319D01*
X13808Y5318D01*
X13811Y5317D01*
X13813Y5315D01*
X13816Y5313D01*
X13818Y5311D01*
X13820Y5308D01*
X13821Y5305D01*
X13822Y5302D01*
X13822Y5299D01*
X13817D02*
X13817Y5296D01*
X13815Y5292D01*
X13814Y5289D01*
X13811Y5287D01*
X13808Y5285D01*
X13805Y5284D01*
X13801Y5284D01*
X13798Y5285D01*
X13795Y5286D01*
X13792Y5288D01*
X13789Y5291D01*
X13788Y5294D01*
X13787Y5297D01*
Y5301D01*
X13788Y5304D01*
X13789Y5307D01*
X13792Y5310D01*
X13795Y5312D01*
X13798Y5313D01*
X13801Y5314D01*
X13805Y5314D01*
X13808Y5313D01*
X13811Y5311D01*
X13814Y5309D01*
X13815Y5306D01*
X13817Y5302D01*
X13817Y5299D01*
X13812D02*
X13811Y5296D01*
X13810Y5293D01*
X13807Y5290D01*
X13804Y5289D01*
X13800D01*
X13797Y5290D01*
X13794Y5293D01*
X13793Y5296D01*
X13792Y5299D01*
X13793Y5302D01*
X13794Y5305D01*
X13797Y5308D01*
X13800Y5309D01*
X13804D01*
X13807Y5308D01*
X13810Y5305D01*
X13811Y5302D01*
X13812Y5299D01*
X6877Y11299D02*
X6877Y11296D01*
X6877Y11292D01*
X6876Y11289D01*
X6876Y11286D01*
X6875Y11282D01*
X6874Y11279D01*
X6873Y11276D01*
X6872Y11273D01*
X6871Y11270D01*
X6870Y11267D01*
X6868Y11264D01*
X6867Y11261D01*
X6865Y11258D01*
X6863Y11255D01*
X6861Y11253D01*
X6859Y11250D01*
X6856Y11247D01*
X6854Y11245D01*
X6852Y11243D01*
X6849Y11241D01*
X6846Y11239D01*
X6844Y11237D01*
X6841Y11235D01*
X6838Y11233D01*
X6835Y11232D01*
X6832Y11230D01*
X6829Y11229D01*
X6826Y11228D01*
X6823Y11227D01*
X6819Y11226D01*
X6816Y11225D01*
X6813Y11225D01*
X6810Y11224D01*
X6806Y11224D01*
X6803Y11224D01*
X6799Y11224D01*
X6796Y11224D01*
X6793Y11225D01*
X6790Y11225D01*
X6786Y11226D01*
X6783Y11226D01*
X6780Y11227D01*
X6777Y11228D01*
X6773Y11230D01*
X6770Y11231D01*
X6767Y11232D01*
X6764Y11234D01*
X6762Y11236D01*
X6759Y11238D01*
X6756Y11240D01*
X6754Y11242D01*
X6751Y11244D01*
X6749Y11246D01*
X6746Y11249D01*
X6744Y11251D01*
X6742Y11254D01*
X6740Y11257D01*
X6738Y11259D01*
X6737Y11262D01*
X6735Y11265D01*
X6734Y11268D01*
X6732Y11271D01*
X6731Y11274D01*
X6730Y11278D01*
X6729Y11281D01*
X6729Y11284D01*
X6728Y11287D01*
X6727Y11291D01*
X6727Y11294D01*
X6727Y11297D01*
Y11301D01*
X6727Y11304D01*
X6727Y11307D01*
X6728Y11311D01*
X6729Y11314D01*
X6729Y11317D01*
X6730Y11320D01*
X6731Y11324D01*
X6732Y11327D01*
X6734Y11330D01*
X6735Y11333D01*
X6737Y11336D01*
X6738Y11339D01*
X6740Y11341D01*
X6742Y11344D01*
X6744Y11347D01*
X6746Y11349D01*
X6749Y11352D01*
X6751Y11354D01*
X6754Y11356D01*
X6756Y11358D01*
X6759Y11360D01*
X6762Y11362D01*
X6764Y11364D01*
X6767Y11366D01*
X6770Y11367D01*
X6773Y11368D01*
X6777Y11370D01*
X6780Y11371D01*
X6783Y11372D01*
X6786Y11372D01*
X6790Y11373D01*
X6793Y11373D01*
X6796Y11374D01*
X6799Y11374D01*
X6803Y11374D01*
X6806Y11374D01*
X6810Y11374D01*
X6813Y11373D01*
X6816Y11373D01*
X6819Y11372D01*
X6823Y11371D01*
X6826Y11370D01*
X6829Y11369D01*
X6832Y11368D01*
X6835Y11366D01*
X6838Y11365D01*
X6841Y11363D01*
X6844Y11361D01*
X6846Y11359D01*
X6849Y11357D01*
X6852Y11355D01*
X6854Y11353D01*
X6856Y11351D01*
X6859Y11348D01*
X6861Y11345D01*
X6863Y11343D01*
X6865Y11340D01*
X6867Y11337D01*
X6868Y11334D01*
X6870Y11331D01*
X6871Y11328D01*
X6872Y11325D01*
X6873Y11322D01*
X6874Y11319D01*
X6875Y11316D01*
X6876Y11312D01*
X6876Y11309D01*
X6877Y11306D01*
X6877Y11302D01*
X6877Y11299D01*
X6804D02*
X6803Y11297D01*
X6801D01*
X6800Y11299D01*
X6801Y11301D01*
X6803D01*
X6804Y11299D01*
X6807D02*
X6806Y11296D01*
X6803Y11294D01*
X6800Y11295D01*
X6797Y11297D01*
Y11301D01*
X6800Y11303D01*
X6803Y11304D01*
X6806Y11302D01*
X6807Y11299D01*
X6812D02*
X6811Y11296D01*
X6810Y11293D01*
X6807Y11290D01*
X6804Y11289D01*
X6800D01*
X6797Y11290D01*
X6794Y11293D01*
X6793Y11296D01*
X6792Y11299D01*
X6793Y11302D01*
X6794Y11305D01*
X6797Y11308D01*
X6800Y11309D01*
X6804D01*
X6807Y11308D01*
X6810Y11305D01*
X6811Y11302D01*
X6812Y11299D01*
X6817D02*
X6817Y11296D01*
X6815Y11292D01*
X6813Y11289D01*
X6811Y11287D01*
X6808Y11285D01*
X6805Y11284D01*
X6801Y11284D01*
X6798Y11285D01*
X6794Y11286D01*
X6792Y11288D01*
X6789Y11291D01*
X6788Y11294D01*
X6787Y11297D01*
Y11301D01*
X6788Y11304D01*
X6789Y11307D01*
X6792Y11310D01*
X6794Y11312D01*
X6798Y11313D01*
X6801Y11314D01*
X6805Y11314D01*
X6808Y11313D01*
X6811Y11311D01*
X6813Y11309D01*
X6815Y11306D01*
X6817Y11302D01*
X6817Y11299D01*
X6822D02*
X6822Y11296D01*
X6821Y11293D01*
X6820Y11290D01*
X6818Y11287D01*
X6816Y11285D01*
X6813Y11283D01*
X6811Y11281D01*
X6808Y11280D01*
X6804Y11279D01*
X6801Y11279D01*
X6798Y11279D01*
X6795Y11280D01*
X6792Y11282D01*
X6789Y11284D01*
X6787Y11286D01*
X6785Y11288D01*
X6784Y11291D01*
X6783Y11294D01*
X6782Y11297D01*
Y11301D01*
X6783Y11304D01*
X6784Y11307D01*
X6785Y11310D01*
X6787Y11312D01*
X6789Y11314D01*
X6792Y11316D01*
X6795Y11318D01*
X6798Y11319D01*
X6801Y11319D01*
X6804Y11319D01*
X6808Y11318D01*
X6811Y11317D01*
X6813Y11315D01*
X6816Y11313D01*
X6818Y11311D01*
X6820Y11308D01*
X6821Y11305D01*
X6822Y11302D01*
X6822Y11299D01*
X6852D02*
X6852Y11296D01*
X6852Y11292D01*
X6851Y11289D01*
X6850Y11286D01*
X6849Y11282D01*
X6848Y11279D01*
X6847Y11276D01*
X6845Y11273D01*
X6843Y11270D01*
X6841Y11268D01*
X6839Y11265D01*
X6836Y11263D01*
X6834Y11261D01*
X6831Y11258D01*
X6828Y11257D01*
X6826Y11255D01*
X6822Y11253D01*
X6819Y11252D01*
X6816Y11251D01*
X6813Y11250D01*
X6810Y11250D01*
X6806Y11249D01*
X6803Y11249D01*
X6799Y11249D01*
X6796Y11249D01*
X6793Y11250D01*
X6789Y11251D01*
X6786Y11252D01*
X6783Y11253D01*
X6780Y11254D01*
X6777Y11256D01*
X6774Y11257D01*
X6771Y11259D01*
X6769Y11262D01*
X6766Y11264D01*
X6764Y11266D01*
X6762Y11269D01*
X6760Y11272D01*
X6758Y11275D01*
X6757Y11278D01*
X6755Y11281D01*
X6754Y11284D01*
X6753Y11287D01*
X6753Y11291D01*
X6752Y11294D01*
X6752Y11297D01*
Y11301D01*
X6752Y11304D01*
X6753Y11307D01*
X6753Y11311D01*
X6754Y11314D01*
X6755Y11317D01*
X6757Y11320D01*
X6758Y11323D01*
X6760Y11326D01*
X6762Y11329D01*
X6764Y11332D01*
X6766Y11334D01*
X6769Y11336D01*
X6771Y11339D01*
X6774Y11341D01*
X6777Y11342D01*
X6780Y11344D01*
X6783Y11345D01*
X6786Y11346D01*
X6789Y11347D01*
X6793Y11348D01*
X6796Y11349D01*
X6799Y11349D01*
X6803Y11349D01*
X6806Y11349D01*
X6810Y11348D01*
X6813Y11348D01*
X6816Y11347D01*
X6819Y11346D01*
X6822Y11345D01*
X6826Y11343D01*
X6828Y11341D01*
X6831Y11340D01*
X6834Y11337D01*
X6836Y11335D01*
X6839Y11333D01*
X6841Y11330D01*
X6843Y11328D01*
X6845Y11325D01*
X6847Y11322D01*
X6848Y11319D01*
X6849Y11316D01*
X6850Y11312D01*
X6851Y11309D01*
X6852Y11306D01*
X6852Y11302D01*
X6852Y11299D01*
X6852Y5299D02*
X6852Y5296D01*
X6852Y5292D01*
X6851Y5289D01*
X6850Y5286D01*
X6849Y5282D01*
X6848Y5279D01*
X6847Y5276D01*
X6845Y5273D01*
X6843Y5270D01*
X6841Y5268D01*
X6839Y5265D01*
X6836Y5263D01*
X6834Y5261D01*
X6831Y5258D01*
X6828Y5257D01*
X6826Y5255D01*
X6823Y5253D01*
X6819Y5252D01*
X6816Y5251D01*
X6813Y5250D01*
X6810Y5250D01*
X6806Y5249D01*
X6803Y5249D01*
X6799Y5249D01*
X6796Y5249D01*
X6793Y5250D01*
X6789Y5251D01*
X6786Y5252D01*
X6783Y5253D01*
X6780Y5254D01*
X6777Y5256D01*
X6774Y5257D01*
X6771Y5259D01*
X6769Y5262D01*
X6766Y5264D01*
X6764Y5266D01*
X6762Y5269D01*
X6760Y5272D01*
X6758Y5275D01*
X6757Y5278D01*
X6755Y5281D01*
X6754Y5284D01*
X6753Y5287D01*
X6753Y5291D01*
X6752Y5294D01*
X6752Y5297D01*
Y5301D01*
X6752Y5304D01*
X6753Y5307D01*
X6753Y5311D01*
X6754Y5314D01*
X6755Y5317D01*
X6757Y5320D01*
X6758Y5323D01*
X6760Y5326D01*
X6762Y5329D01*
X6764Y5332D01*
X6766Y5334D01*
X6769Y5336D01*
X6771Y5339D01*
X6774Y5341D01*
X6777Y5342D01*
X6780Y5344D01*
X6783Y5345D01*
X6786Y5346D01*
X6789Y5347D01*
X6793Y5348D01*
X6796Y5349D01*
X6799Y5349D01*
X6803Y5349D01*
X6806Y5349D01*
X6810Y5348D01*
X6813Y5348D01*
X6816Y5347D01*
X6819Y5346D01*
X6823Y5345D01*
X6826Y5343D01*
X6828Y5341D01*
X6831Y5340D01*
X6834Y5337D01*
X6836Y5335D01*
X6839Y5333D01*
X6841Y5330D01*
X6843Y5328D01*
X6845Y5325D01*
X6847Y5322D01*
X6848Y5319D01*
X6849Y5316D01*
X6850Y5312D01*
X6851Y5309D01*
X6852Y5306D01*
X6852Y5302D01*
X6852Y5299D01*
X6877D02*
X6877Y5296D01*
X6877Y5292D01*
X6876Y5289D01*
X6876Y5286D01*
X6875Y5282D01*
X6874Y5279D01*
X6873Y5276D01*
X6872Y5273D01*
X6871Y5270D01*
X6870Y5267D01*
X6868Y5264D01*
X6867Y5261D01*
X6865Y5258D01*
X6863Y5255D01*
X6861Y5253D01*
X6859Y5250D01*
X6856Y5247D01*
X6854Y5245D01*
X6852Y5243D01*
X6849Y5241D01*
X6846Y5239D01*
X6844Y5237D01*
X6841Y5235D01*
X6838Y5233D01*
X6835Y5232D01*
X6832Y5230D01*
X6829Y5229D01*
X6826Y5228D01*
X6823Y5227D01*
X6819Y5226D01*
X6816Y5225D01*
X6813Y5225D01*
X6810Y5224D01*
X6806Y5224D01*
X6803Y5224D01*
X6800Y5224D01*
X6796Y5224D01*
X6793Y5225D01*
X6790Y5225D01*
X6786Y5226D01*
X6783Y5226D01*
X6780Y5227D01*
X6777Y5228D01*
X6774Y5230D01*
X6770Y5231D01*
X6767Y5232D01*
X6765Y5234D01*
X6762Y5236D01*
X6759Y5238D01*
X6756Y5240D01*
X6754Y5242D01*
X6751Y5244D01*
X6749Y5246D01*
X6746Y5249D01*
X6744Y5251D01*
X6742Y5254D01*
X6740Y5257D01*
X6738Y5259D01*
X6737Y5262D01*
X6735Y5265D01*
X6734Y5268D01*
X6732Y5271D01*
X6731Y5274D01*
X6730Y5278D01*
X6729Y5281D01*
X6729Y5284D01*
X6728Y5287D01*
X6727Y5291D01*
X6727Y5294D01*
X6727Y5297D01*
Y5301D01*
X6727Y5304D01*
X6727Y5307D01*
X6728Y5311D01*
X6729Y5314D01*
X6729Y5317D01*
X6730Y5320D01*
X6731Y5324D01*
X6732Y5327D01*
X6734Y5330D01*
X6735Y5333D01*
X6737Y5336D01*
X6738Y5339D01*
X6740Y5341D01*
X6742Y5344D01*
X6744Y5347D01*
X6746Y5349D01*
X6749Y5352D01*
X6751Y5354D01*
X6754Y5356D01*
X6756Y5358D01*
X6759Y5360D01*
X6762Y5362D01*
X6765Y5364D01*
X6767Y5366D01*
X6770Y5367D01*
X6774Y5368D01*
X6777Y5370D01*
X6780Y5371D01*
X6783Y5372D01*
X6786Y5372D01*
X6790Y5373D01*
X6793Y5373D01*
X6796Y5374D01*
X6800Y5374D01*
X6803Y5374D01*
X6806Y5374D01*
X6810Y5374D01*
X6813Y5373D01*
X6816Y5373D01*
X6819Y5372D01*
X6823Y5371D01*
X6826Y5370D01*
X6829Y5369D01*
X6832Y5368D01*
X6835Y5366D01*
X6838Y5365D01*
X6841Y5363D01*
X6844Y5361D01*
X6846Y5359D01*
X6849Y5357D01*
X6852Y5355D01*
X6854Y5353D01*
X6856Y5351D01*
X6859Y5348D01*
X6861Y5345D01*
X6863Y5343D01*
X6865Y5340D01*
X6867Y5337D01*
X6868Y5334D01*
X6870Y5331D01*
X6871Y5328D01*
X6872Y5325D01*
X6873Y5322D01*
X6874Y5319D01*
X6875Y5316D01*
X6876Y5312D01*
X6876Y5309D01*
X6877Y5306D01*
X6877Y5302D01*
X6877Y5299D01*
X6805D02*
X6803Y5297D01*
X6801D01*
X6800Y5299D01*
X6801Y5301D01*
X6803D01*
X6805Y5299D01*
X6807D02*
X6806Y5296D01*
X6803Y5294D01*
X6800Y5295D01*
X6797Y5297D01*
Y5301D01*
X6800Y5303D01*
X6803Y5304D01*
X6806Y5302D01*
X6807Y5299D01*
X6822D02*
X6822Y5296D01*
X6821Y5293D01*
X6820Y5290D01*
X6818Y5287D01*
X6816Y5285D01*
X6813Y5283D01*
X6811Y5281D01*
X6808Y5280D01*
X6804Y5279D01*
X6801Y5279D01*
X6798Y5279D01*
X6795Y5280D01*
X6792Y5282D01*
X6789Y5283D01*
X6787Y5286D01*
X6785Y5288D01*
X6784Y5291D01*
X6783Y5294D01*
X6782Y5297D01*
Y5301D01*
X6783Y5304D01*
X6784Y5307D01*
X6785Y5310D01*
X6787Y5312D01*
X6789Y5314D01*
X6792Y5316D01*
X6795Y5318D01*
X6798Y5319D01*
X6801Y5319D01*
X6804Y5319D01*
X6808Y5318D01*
X6811Y5317D01*
X6813Y5315D01*
X6816Y5313D01*
X6818Y5311D01*
X6820Y5308D01*
X6821Y5305D01*
X6822Y5302D01*
X6822Y5299D01*
X6812D02*
X6811Y5296D01*
X6810Y5293D01*
X6807Y5290D01*
X6804Y5289D01*
X6800D01*
X6797Y5290D01*
X6794Y5293D01*
X6793Y5296D01*
X6792Y5299D01*
X6793Y5302D01*
X6794Y5305D01*
X6797Y5308D01*
X6800Y5309D01*
X6804D01*
X6807Y5308D01*
X6810Y5305D01*
X6811Y5302D01*
X6812Y5299D01*
X6817D02*
X6817Y5296D01*
X6815Y5292D01*
X6814Y5289D01*
X6811Y5287D01*
X6808Y5285D01*
X6805Y5284D01*
X6801Y5284D01*
X6798Y5285D01*
X6795Y5286D01*
X6792Y5288D01*
X6789Y5291D01*
X6788Y5294D01*
X6787Y5297D01*
Y5301D01*
X6788Y5304D01*
X6789Y5307D01*
X6792Y5310D01*
X6795Y5312D01*
X6798Y5313D01*
X6801Y5314D01*
X6805Y5314D01*
X6808Y5313D01*
X6811Y5311D01*
X6814Y5309D01*
X6815Y5306D01*
X6817Y5302D01*
X6817Y5299D01*
D16*
X11122Y5378D02*
X11126Y5383D01*
X11122Y5378D02*
X11126Y5374D01*
X11131Y5378D01*
X11126Y5383D01*
X11215Y5443D02*
X11210Y5451D01*
X11202Y5460D01*
X11193Y5464D01*
X11176D01*
X11167Y5460D01*
X11159Y5451D01*
X11155Y5443D01*
X11150Y5430D01*
Y5408D01*
X11155Y5395D01*
X11159Y5387D01*
X11167Y5378D01*
X11176Y5374D01*
X11193D01*
X11202Y5378D01*
X11210Y5387D01*
X11215Y5395D01*
Y5408D01*
X11193D01*
X11265Y5374D02*
Y5464D01*
X11295D02*
X11235D01*
X11323Y5460D02*
X11332Y5464D01*
X11323Y5460D02*
X11314Y5451D01*
X11310Y5443D01*
X11306Y5430D01*
Y5408D01*
X11310Y5395D01*
X11314Y5387D01*
X11323Y5378D01*
X11332Y5374D01*
X11349D01*
X11357Y5378D01*
X11366Y5387D01*
X11370Y5395D01*
X11374Y5408D01*
Y5430D01*
X11370Y5443D01*
X11366Y5451D01*
X11357Y5460D01*
X11349Y5464D01*
X11332D01*
X6128Y11326D02*
X6124Y11335D01*
X6111Y11339D01*
X6103D01*
X6090Y11335D01*
X6081Y11322D01*
X6077Y11300D01*
Y11279D01*
X6081Y11262D01*
X6090Y11253D01*
X6103Y11249D01*
X6107D01*
X6120Y11253D01*
X6128Y11262D01*
X6133Y11275D01*
Y11279D01*
X6128Y11292D01*
X6120Y11300D01*
X6107Y11305D01*
X6103D01*
X6090Y11300D01*
X6081Y11292D01*
X6077Y11279D01*
X6152Y11253D02*
X6157Y11258D01*
X6152Y11253D02*
X6157Y11249D01*
X6161Y11253D01*
X6157Y11258D01*
X6194Y11335D02*
X6206Y11339D01*
X6194Y11335D02*
X6185Y11322D01*
X6181Y11300D01*
Y11288D01*
X6185Y11266D01*
X6194Y11253D01*
X6206Y11249D01*
X6215D01*
X6228Y11253D01*
X6236Y11266D01*
X6241Y11288D01*
Y11300D01*
X6236Y11322D01*
X6228Y11335D01*
X6215Y11339D01*
X6206D01*
X6120Y9339D02*
X6077Y9279D01*
X6141D01*
X6120Y9249D02*
Y9339D01*
X6161Y9258D02*
X6157Y9253D01*
X6161Y9249D01*
X6166Y9253D01*
X6161Y9258D01*
X6198Y9335D02*
X6211Y9339D01*
X6198Y9335D02*
X6190Y9322D01*
X6185Y9300D01*
Y9288D01*
X6190Y9266D01*
X6198Y9253D01*
X6211Y9249D01*
X6220D01*
X6233Y9253D01*
X6241Y9266D01*
X6245Y9288D01*
Y9300D01*
X6241Y9322D01*
X6233Y9335D01*
X6220Y9339D01*
X6211D01*
X6081Y7322D02*
Y7318D01*
Y7322D02*
X6086Y7330D01*
X6090Y7335D01*
X6098Y7339D01*
X6116D01*
X6124Y7335D01*
X6128Y7330D01*
X6133Y7322D01*
Y7313D01*
X6128Y7305D01*
X6120Y7292D01*
X6077Y7249D01*
X6137D01*
X6157Y7253D02*
X6161Y7258D01*
X6157Y7253D02*
X6161Y7249D01*
X6166Y7253D01*
X6161Y7258D01*
X6198Y7335D02*
X6211Y7339D01*
X6198Y7335D02*
X6190Y7322D01*
X6185Y7300D01*
Y7288D01*
X6190Y7266D01*
X6198Y7253D01*
X6211Y7249D01*
X6220D01*
X6233Y7253D01*
X6241Y7266D01*
X6245Y7288D01*
Y7300D01*
X6241Y7322D01*
X6233Y7335D01*
X6220Y7339D01*
X6211D01*
X6215Y5339D02*
X6202Y5335D01*
X6194Y5322D01*
X6190Y5300D01*
Y5288D01*
X6194Y5266D01*
X6202Y5253D01*
X6215Y5249D01*
X6224D01*
X6237Y5253D01*
X6245Y5266D01*
X6249Y5288D01*
Y5300D01*
X6245Y5322D01*
X6237Y5335D01*
X6224Y5339D01*
X6215D01*
X6102Y6322D02*
X6111Y6326D01*
X6123Y6339D01*
Y6249D01*
X6168Y6253D02*
X6172Y6258D01*
X6168Y6253D02*
X6172Y6249D01*
X6177Y6253D01*
X6172Y6258D01*
X6209Y6335D02*
X6222Y6339D01*
X6209Y6335D02*
X6201Y6322D01*
X6196Y6300D01*
Y6288D01*
X6201Y6266D01*
X6209Y6253D01*
X6222Y6249D01*
X6231D01*
X6243Y6253D01*
X6252Y6266D01*
X6256Y6288D01*
Y6300D01*
X6252Y6322D01*
X6243Y6335D01*
X6231Y6339D01*
X6222D01*
X6133Y8339D02*
X6086D01*
X6107Y8305D02*
X6133Y8339D01*
X6120Y8305D02*
X6107D01*
X6120D02*
X6128Y8300D01*
X6133Y8296D01*
X6137Y8283D01*
Y8275D01*
X6133Y8262D01*
X6124Y8253D01*
X6111Y8249D01*
X6098D01*
X6086Y8253D01*
X6081Y8258D01*
X6077Y8266D01*
X6157Y8253D02*
X6161Y8258D01*
X6157Y8253D02*
X6161Y8249D01*
X6166Y8253D01*
X6161Y8258D01*
X6198Y8335D02*
X6211Y8339D01*
X6198Y8335D02*
X6190Y8322D01*
X6185Y8300D01*
Y8288D01*
X6190Y8266D01*
X6198Y8253D01*
X6211Y8249D01*
X6220D01*
X6233Y8253D01*
X6241Y8266D01*
X6245Y8288D01*
Y8300D01*
X6241Y8322D01*
X6233Y8335D01*
X6220Y8339D01*
X6211D01*
X6128Y10339D02*
X6086D01*
X6081Y10300D01*
X6086Y10305D01*
X6098Y10309D01*
X6111D01*
X6124Y10305D01*
X6133Y10296D01*
X6137Y10283D01*
Y10275D01*
X6133Y10262D01*
X6124Y10253D01*
X6111Y10249D01*
X6098D01*
X6086Y10253D01*
X6081Y10258D01*
X6077Y10266D01*
X6157Y10253D02*
X6161Y10258D01*
X6157Y10253D02*
X6161Y10249D01*
X6166Y10253D01*
X6161Y10258D01*
X6198Y10335D02*
X6211Y10339D01*
X6198Y10335D02*
X6190Y10322D01*
X6185Y10300D01*
Y10288D01*
X6190Y10266D01*
X6198Y10253D01*
X6211Y10249D01*
X6220D01*
X6233Y10253D01*
X6241Y10266D01*
X6245Y10288D01*
Y10300D01*
X6241Y10322D01*
X6233Y10335D01*
X6220Y10339D01*
X6211D01*
X13752Y4732D02*
X13842Y4689D01*
Y4749D01*
X13761Y4665D02*
X13756Y4669D01*
X13752Y4665D01*
X13756Y4660D01*
X13761Y4665D01*
X13838Y4628D02*
X13842Y4615D01*
X13838Y4628D02*
X13825Y4636D01*
X13803Y4641D01*
X13791D01*
X13769Y4636D01*
X13756Y4628D01*
X13752Y4615D01*
Y4606D01*
X13756Y4593D01*
X13769Y4585D01*
X13791Y4581D01*
X13803D01*
X13825Y4585D01*
X13838Y4593D01*
X13842Y4606D01*
Y4615D01*
X11842Y4698D02*
Y4740D01*
X11803Y4745D01*
X11808Y4740D01*
X11812Y4728D01*
Y4715D01*
X11808Y4702D01*
X11799Y4693D01*
X11786Y4689D01*
X11778D01*
X11765Y4693D01*
X11756Y4702D01*
X11752Y4715D01*
Y4728D01*
X11756Y4740D01*
X11761Y4745D01*
X11769Y4749D01*
X11756Y4669D02*
X11761Y4665D01*
X11756Y4669D02*
X11752Y4665D01*
X11756Y4660D01*
X11761Y4665D01*
X11838Y4628D02*
X11842Y4615D01*
X11838Y4628D02*
X11825Y4636D01*
X11803Y4641D01*
X11791D01*
X11769Y4636D01*
X11756Y4628D01*
X11752Y4615D01*
Y4606D01*
X11756Y4593D01*
X11769Y4585D01*
X11791Y4581D01*
X11803D01*
X11825Y4585D01*
X11838Y4593D01*
X11842Y4606D01*
Y4615D01*
X9842Y4693D02*
Y4740D01*
X9808Y4719D02*
X9842Y4693D01*
X9808Y4706D02*
Y4719D01*
Y4706D02*
X9803Y4698D01*
X9799Y4693D01*
X9786Y4689D01*
X9778D01*
X9765Y4693D01*
X9756Y4702D01*
X9752Y4715D01*
Y4728D01*
X9756Y4740D01*
X9761Y4745D01*
X9769Y4749D01*
X9756Y4669D02*
X9761Y4665D01*
X9756Y4669D02*
X9752Y4665D01*
X9756Y4660D01*
X9761Y4665D01*
X9838Y4628D02*
X9842Y4615D01*
X9838Y4628D02*
X9825Y4636D01*
X9803Y4641D01*
X9791D01*
X9769Y4636D01*
X9756Y4628D01*
X9752Y4615D01*
Y4606D01*
X9756Y4593D01*
X9769Y4585D01*
X9791Y4581D01*
X9803D01*
X9825Y4585D01*
X9838Y4593D01*
X9842Y4606D01*
Y4615D01*
X7829Y4740D02*
X7825Y4749D01*
X7829Y4740D02*
X7842Y4728D01*
X7752D01*
X7756Y4683D02*
X7761Y4679D01*
X7756Y4683D02*
X7752Y4679D01*
X7756Y4674D01*
X7761Y4679D01*
X7838Y4642D02*
X7842Y4629D01*
X7838Y4642D02*
X7825Y4650D01*
X7803Y4655D01*
X7791D01*
X7769Y4650D01*
X7756Y4642D01*
X7752Y4629D01*
Y4620D01*
X7756Y4608D01*
X7769Y4599D01*
X7791Y4595D01*
X7803D01*
X7825Y4599D01*
X7838Y4608D01*
X7842Y4620D01*
Y4629D01*
X6842Y4723D02*
X6838Y4736D01*
X6825Y4745D01*
X6803Y4749D01*
X6791D01*
X6769Y4745D01*
X6756Y4736D01*
X6752Y4723D01*
Y4715D01*
X6756Y4702D01*
X6769Y4693D01*
X6791Y4689D01*
X6803D01*
X6825Y4693D01*
X6838Y4702D01*
X6842Y4715D01*
Y4723D01*
X8821Y4745D02*
X8825D01*
X8833Y4740D01*
X8838Y4736D01*
X8842Y4728D01*
Y4710D01*
X8838Y4702D01*
X8833Y4698D01*
X8825Y4693D01*
X8816D01*
X8808Y4698D01*
X8795Y4706D01*
X8752Y4749D01*
Y4689D01*
X8756Y4669D02*
X8761Y4665D01*
X8756Y4669D02*
X8752Y4665D01*
X8756Y4660D01*
X8761Y4665D01*
X8838Y4628D02*
X8842Y4615D01*
X8838Y4628D02*
X8825Y4636D01*
X8803Y4641D01*
X8791D01*
X8769Y4636D01*
X8756Y4628D01*
X8752Y4615D01*
Y4606D01*
X8756Y4593D01*
X8769Y4585D01*
X8791Y4581D01*
X8803D01*
X8825Y4585D01*
X8838Y4593D01*
X8842Y4606D01*
Y4615D01*
X10782Y4749D02*
X10842Y4706D01*
X10782Y4685D02*
Y4749D01*
X10752Y4706D02*
X10842D01*
X10761Y4665D02*
X10756Y4669D01*
X10752Y4665D01*
X10756Y4660D01*
X10761Y4665D01*
X10838Y4628D02*
X10842Y4615D01*
X10838Y4628D02*
X10825Y4636D01*
X10803Y4641D01*
X10791D01*
X10769Y4636D01*
X10756Y4628D01*
X10752Y4615D01*
Y4606D01*
X10756Y4593D01*
X10769Y4585D01*
X10791Y4581D01*
X10803D01*
X10825Y4585D01*
X10838Y4593D01*
X10842Y4606D01*
Y4615D01*
X12829Y4698D02*
X12838Y4702D01*
X12842Y4715D01*
Y4723D01*
X12838Y4736D01*
X12825Y4745D01*
X12803Y4749D01*
X12782D01*
X12765Y4745D01*
X12756Y4736D01*
X12752Y4723D01*
Y4719D01*
X12756Y4706D01*
X12765Y4698D01*
X12778Y4693D01*
X12782D01*
X12795Y4698D01*
X12803Y4706D01*
X12808Y4719D01*
Y4723D01*
X12803Y4736D01*
X12795Y4745D01*
X12782Y4749D01*
X12756Y4674D02*
X12761Y4669D01*
X12756Y4674D02*
X12752Y4669D01*
X12756Y4665D01*
X12761Y4669D01*
X12838Y4632D02*
X12842Y4620D01*
X12838Y4632D02*
X12825Y4641D01*
X12803Y4645D01*
X12791D01*
X12769Y4641D01*
X12756Y4632D01*
X12752Y4620D01*
Y4611D01*
X12756Y4598D01*
X12769Y4590D01*
X12791Y4585D01*
X12803D01*
X12825Y4590D01*
X12838Y4598D01*
X12842Y4611D01*
Y4620D01*
X6674Y4949D02*
X6614Y5039D01*
X6674D02*
X6614Y4949D01*
X6499Y5127D02*
X6542Y5162D01*
X6499Y5127D02*
X6452D01*
X6499D02*
X6542Y5093D01*
X10531Y5705D02*
Y5709D01*
X10536Y5718D01*
X10540Y5722D01*
X10548Y5726D01*
X10566D01*
X10574Y5722D01*
X10578Y5718D01*
X10583Y5709D01*
Y5701D01*
X10578Y5692D01*
X10570Y5679D01*
X10527Y5636D01*
X10587D01*
X10611Y5705D02*
Y5709D01*
X10616Y5718D01*
X10620Y5722D01*
X10629Y5726D01*
X10646D01*
X10654Y5722D01*
X10659Y5718D01*
X10663Y5709D01*
Y5701D01*
X10659Y5692D01*
X10650Y5679D01*
X10607Y5636D01*
X10667D01*
X10687Y5675D02*
X10764D01*
X10825Y5726D02*
X10860Y5636D01*
X10791D02*
X10825Y5726D01*
X10847Y5666D02*
X10804D01*
X10880Y5696D02*
Y5607D01*
Y5684D02*
X10889Y5692D01*
X10898Y5696D01*
X10910D01*
X10919Y5692D01*
X10928Y5684D01*
X10932Y5671D01*
Y5662D01*
X10928Y5649D01*
X10919Y5641D01*
X10910Y5636D01*
X10898D01*
X10889Y5641D01*
X10880Y5649D01*
X10951Y5636D02*
Y5696D01*
X10955Y5684D02*
X10951Y5671D01*
X10955Y5684D02*
X10964Y5692D01*
X10973Y5696D01*
X10985D01*
X10994Y5675D02*
X11071D01*
X11102Y5705D02*
Y5709D01*
X11106Y5718D01*
X11110Y5722D01*
X11119Y5726D01*
X11136D01*
X11144Y5722D01*
X11149Y5718D01*
X11153Y5709D01*
Y5701D01*
X11149Y5692D01*
X11140Y5679D01*
X11097Y5636D01*
X11157D01*
X11190Y5722D02*
X11203Y5726D01*
X11190Y5722D02*
X11182Y5709D01*
X11177Y5688D01*
Y5675D01*
X11182Y5654D01*
X11190Y5641D01*
X11203Y5636D01*
X11212D01*
X11225Y5641D01*
X11233Y5654D01*
X11237Y5675D01*
Y5688D01*
X11233Y5709D01*
X11225Y5722D01*
X11212Y5726D01*
X11203D01*
X11270Y5722D02*
X11283Y5726D01*
X11270Y5722D02*
X11262Y5709D01*
X11258Y5688D01*
Y5675D01*
X11262Y5654D01*
X11270Y5641D01*
X11283Y5636D01*
X11292D01*
X11305Y5641D01*
X11313Y5654D01*
X11318Y5675D01*
Y5688D01*
X11313Y5709D01*
X11305Y5722D01*
X11292Y5726D01*
X11283D01*
X11342Y5709D02*
Y5705D01*
Y5709D02*
X11346Y5718D01*
X11351Y5722D01*
X11359Y5726D01*
X11376D01*
X11385Y5722D01*
X11389Y5718D01*
X11393Y5709D01*
Y5701D01*
X11389Y5692D01*
X11381Y5679D01*
X11338Y5636D01*
X11398D01*
X10622Y6014D02*
Y6104D01*
X10682D02*
Y6014D01*
Y6061D02*
X10622D01*
X10707Y6104D02*
X10763D01*
X10707D02*
Y6014D01*
X10763D01*
X10741Y6061D02*
X10707D01*
X10778Y6104D02*
Y6014D01*
Y6104D02*
X10816D01*
X10829Y6100D01*
X10833Y6095D01*
X10838Y6087D01*
Y6078D01*
X10833Y6070D01*
X10829Y6065D01*
X10816Y6061D01*
X10778D01*
X10808D02*
X10838Y6014D01*
X10858Y6104D02*
X10913D01*
X10858D02*
Y6014D01*
X10913D01*
X10892Y6061D02*
X10858D01*
X10622Y6174D02*
Y6264D01*
Y6174D02*
X10673D01*
X10700Y6260D02*
X10709Y6264D01*
X10700Y6260D02*
X10692Y6251D01*
X10688Y6243D01*
X10683Y6230D01*
Y6208D01*
X10688Y6195D01*
X10692Y6187D01*
X10700Y6178D01*
X10709Y6174D01*
X10726D01*
X10735Y6178D01*
X10743Y6187D01*
X10748Y6195D01*
X10752Y6208D01*
Y6230D01*
X10748Y6243D01*
X10743Y6251D01*
X10735Y6260D01*
X10726Y6264D01*
X10709D01*
X10833Y6251D02*
X10837Y6243D01*
X10833Y6251D02*
X10824Y6260D01*
X10816Y6264D01*
X10799D01*
X10790Y6260D01*
X10781Y6251D01*
X10777Y6243D01*
X10773Y6230D01*
Y6208D01*
X10777Y6195D01*
X10781Y6187D01*
X10790Y6178D01*
X10799Y6174D01*
X10816D01*
X10824Y6178D01*
X10833Y6187D01*
X10837Y6195D01*
Y6208D01*
X10816D01*
X10875Y6260D02*
X10883Y6264D01*
X10875Y6260D02*
X10866Y6251D01*
X10862Y6243D01*
X10858Y6230D01*
Y6208D01*
X10862Y6195D01*
X10866Y6187D01*
X10875Y6178D01*
X10883Y6174D01*
X10901D01*
X10909Y6178D01*
X10918Y6187D01*
X10922Y6195D01*
X10926Y6208D01*
Y6230D01*
X10922Y6243D01*
X10918Y6251D01*
X10909Y6260D01*
X10901Y6264D01*
X10883D01*
X10661Y6357D02*
X10622D01*
X10661D02*
X10673Y6361D01*
X10678Y6365D01*
X10682Y6374D01*
Y6387D01*
X10678Y6395D01*
X10673Y6400D01*
X10661Y6404D01*
X10622D01*
Y6314D01*
X10702D02*
Y6404D01*
Y6314D02*
X10754D01*
X10832D02*
X10798Y6404D01*
X10763Y6314D01*
X10776Y6344D02*
X10819D01*
X10913Y6391D02*
X10917Y6383D01*
X10913Y6391D02*
X10904Y6400D01*
X10896Y6404D01*
X10879D01*
X10870Y6400D01*
X10862Y6391D01*
X10857Y6383D01*
X10853Y6370D01*
Y6348D01*
X10857Y6335D01*
X10862Y6327D01*
X10870Y6318D01*
X10879Y6314D01*
X10896D01*
X10904Y6318D01*
X10913Y6327D01*
X10917Y6335D01*
X10943Y6404D02*
X10998D01*
X10943D02*
Y6314D01*
X10998D01*
X10977Y6361D02*
X10943D01*
X10040Y5726D02*
X10027Y5722D01*
X10019Y5709D01*
X10014Y5688D01*
Y5675D01*
X10019Y5654D01*
X10027Y5641D01*
X10040Y5636D01*
X10049D01*
X10062Y5641D01*
X10070Y5654D01*
X10074Y5675D01*
Y5688D01*
X10070Y5709D01*
X10062Y5722D01*
X10049Y5726D01*
X10040D01*
X10095Y5709D02*
X10103Y5714D01*
X10116Y5726D01*
Y5636D01*
X9312Y5464D02*
Y5374D01*
X9342Y5464D02*
X9282D01*
X9366Y5430D02*
X9374Y5434D01*
X9366Y5430D02*
X9357Y5421D01*
X9353Y5408D01*
Y5400D01*
X9357Y5387D01*
X9366Y5378D01*
X9374Y5374D01*
X9387D01*
X9396Y5378D01*
X9404Y5387D01*
X9408Y5400D01*
Y5408D01*
X9404Y5421D01*
X9396Y5430D01*
X9387Y5434D01*
X9374D01*
X9428D02*
Y5344D01*
Y5421D02*
X9437Y5430D01*
X9445Y5434D01*
X9458D01*
X9467Y5430D01*
X9475Y5421D01*
X9480Y5408D01*
Y5400D01*
X9475Y5387D01*
X9467Y5378D01*
X9458Y5374D01*
X9445D01*
X9437Y5378D01*
X9428Y5387D01*
X9587Y5460D02*
X9595Y5464D01*
X9587Y5460D02*
X9578Y5451D01*
X9574Y5443D01*
X9570Y5430D01*
Y5408D01*
X9574Y5395D01*
X9578Y5387D01*
X9587Y5378D01*
X9595Y5374D01*
X9612D01*
X9621Y5378D01*
X9629Y5387D01*
X9634Y5395D01*
X9638Y5408D01*
Y5430D01*
X9634Y5443D01*
X9629Y5451D01*
X9621Y5460D01*
X9612Y5464D01*
X9595D01*
X9659Y5434D02*
X9685Y5374D01*
X9710Y5434D01*
X9725Y5408D02*
X9776D01*
Y5417D01*
X9772Y5425D01*
X9768Y5430D01*
X9759Y5434D01*
X9746D01*
X9738Y5430D01*
X9729Y5421D01*
X9725Y5408D01*
Y5400D01*
X9729Y5387D01*
X9738Y5378D01*
X9746Y5374D01*
X9759D01*
X9768Y5378D01*
X9776Y5387D01*
X9796Y5374D02*
Y5434D01*
X9800Y5421D02*
X9796Y5408D01*
X9800Y5421D02*
X9809Y5430D01*
X9817Y5434D01*
X9830D01*
X9838Y5464D02*
Y5374D01*
X9908D02*
Y5434D01*
X9900Y5430D02*
X9908Y5421D01*
X9900Y5430D02*
X9891Y5434D01*
X9878D01*
X9870Y5430D01*
X9861Y5421D01*
X9857Y5408D01*
Y5400D01*
X9861Y5387D01*
X9870Y5378D01*
X9878Y5374D01*
X9891D01*
X9900Y5378D01*
X9908Y5387D01*
X9937Y5434D02*
X9962Y5374D01*
X9988Y5434D01*
X9962Y5374D02*
X9954Y5357D01*
X9945Y5348D01*
X9937Y5344D01*
X9932D01*
X7602Y5374D02*
Y5434D01*
X7606Y5421D02*
X7602Y5408D01*
X7606Y5421D02*
X7615Y5430D01*
X7623Y5434D01*
X7636D01*
X7657Y5430D02*
X7666Y5434D01*
X7657Y5430D02*
X7649Y5421D01*
X7644Y5408D01*
Y5400D01*
X7649Y5387D01*
X7657Y5378D01*
X7666Y5374D01*
X7679D01*
X7687Y5378D01*
X7696Y5387D01*
X7700Y5400D01*
Y5408D01*
X7696Y5421D01*
X7687Y5430D01*
X7679Y5434D01*
X7666D01*
X7720Y5464D02*
Y5374D01*
Y5421D02*
X7728Y5430D01*
X7737Y5434D01*
X7750D01*
X7758Y5430D01*
X7767Y5421D01*
X7771Y5408D01*
Y5400D01*
X7767Y5387D01*
X7758Y5378D01*
X7750Y5374D01*
X7737D01*
X7728Y5378D01*
X7720Y5387D01*
X7803Y5430D02*
X7812Y5434D01*
X7803Y5430D02*
X7795Y5421D01*
X7791Y5408D01*
Y5400D01*
X7795Y5387D01*
X7803Y5378D01*
X7812Y5374D01*
X7825D01*
X7833Y5378D01*
X7842Y5387D01*
X7846Y5400D01*
Y5408D01*
X7842Y5421D01*
X7833Y5430D01*
X7825Y5434D01*
X7812D01*
X7866Y5344D02*
X7934D01*
X7946Y5374D02*
Y5434D01*
X7959Y5430D02*
X7946Y5417D01*
X7959Y5430D02*
X7967Y5434D01*
X7980D01*
X7989Y5430D01*
X7993Y5417D01*
Y5374D01*
Y5417D02*
X8006Y5430D01*
X8015Y5434D01*
X8027D01*
X8036Y5430D01*
X8040Y5417D01*
Y5374D01*
X8120D02*
Y5434D01*
X8111Y5430D02*
X8120Y5421D01*
X8111Y5430D02*
X8103Y5434D01*
X8090D01*
X8081Y5430D01*
X8073Y5421D01*
X8069Y5408D01*
Y5400D01*
X8073Y5387D01*
X8081Y5378D01*
X8090Y5374D01*
X8103D01*
X8111Y5378D01*
X8120Y5387D01*
X8157Y5460D02*
X8153Y5464D01*
X8157Y5460D02*
X8161Y5464D01*
X8157Y5468D01*
X8153Y5464D01*
X8157Y5434D02*
Y5374D01*
X8177D02*
Y5434D01*
X8190Y5430D02*
X8177Y5417D01*
X8190Y5430D02*
X8198Y5434D01*
X8211D01*
X8220Y5430D01*
X8224Y5417D01*
Y5374D01*
X8248Y5344D02*
X8316D01*
X8345Y5374D02*
X8388Y5464D01*
X8328D01*
X8417D02*
X8459D01*
X8417D02*
X8412Y5425D01*
X8417Y5430D01*
X8429Y5434D01*
X8442D01*
X8455Y5430D01*
X8464Y5421D01*
X8468Y5408D01*
Y5400D01*
X8464Y5387D01*
X8455Y5378D01*
X8442Y5374D01*
X8429D01*
X8417Y5378D01*
X8412Y5383D01*
X8408Y5391D01*
X8488Y5374D02*
Y5434D01*
X8501Y5430D02*
X8488Y5417D01*
X8501Y5430D02*
X8510Y5434D01*
X8522D01*
X8531Y5430D01*
X8535Y5417D01*
Y5374D01*
Y5417D02*
X8548Y5430D01*
X8557Y5434D01*
X8570D01*
X8578Y5430D01*
X8582Y5417D01*
Y5374D01*
X8611D02*
Y5434D01*
X8623Y5430D02*
X8611Y5417D01*
X8623Y5430D02*
X8632Y5434D01*
X8645D01*
X8653Y5430D01*
X8658Y5417D01*
Y5374D01*
Y5417D02*
X8671Y5430D01*
X8679Y5434D01*
X8692D01*
X8701Y5430D01*
X8705Y5417D01*
Y5374D01*
X8733Y5378D02*
X8737Y5383D01*
X8733Y5378D02*
X8737Y5374D01*
X8742Y5378D01*
X8737Y5383D01*
X8761Y5344D02*
Y5434D01*
X8770Y5430D02*
X8761Y5421D01*
X8770Y5430D02*
X8779Y5434D01*
X8791D01*
X8800Y5430D01*
X8809Y5421D01*
X8813Y5408D01*
Y5400D01*
X8809Y5387D01*
X8800Y5378D01*
X8791Y5374D01*
X8779D01*
X8770Y5378D01*
X8761Y5387D01*
X8875Y5430D02*
X8884Y5421D01*
X8875Y5430D02*
X8866Y5434D01*
X8854D01*
X8845Y5430D01*
X8836Y5421D01*
X8832Y5408D01*
Y5400D01*
X8836Y5387D01*
X8845Y5378D01*
X8854Y5374D01*
X8866D01*
X8875Y5378D01*
X8884Y5387D01*
X8903Y5374D02*
Y5464D01*
X8911Y5430D02*
X8903Y5421D01*
X8911Y5430D02*
X8920Y5434D01*
X8933D01*
X8941Y5430D01*
X8950Y5421D01*
X8954Y5408D01*
Y5400D01*
X8950Y5387D01*
X8941Y5378D01*
X8933Y5374D01*
X8920D01*
X8911Y5378D01*
X8903Y5387D01*
X8783Y6114D02*
X8727D01*
Y6024D01*
X8783D01*
X8761Y6071D02*
X8727D01*
X8798Y6084D02*
Y6041D01*
X8802Y6028D01*
X8811Y6024D01*
X8823D01*
X8832Y6028D01*
X8845Y6041D01*
Y6024D02*
Y6084D01*
X8868D02*
Y6024D01*
Y6058D02*
X8873Y6071D01*
X8881Y6080D01*
X8890Y6084D01*
X8903D01*
X8924Y6080D02*
X8932Y6084D01*
X8924Y6080D02*
X8915Y6071D01*
X8911Y6058D01*
Y6050D01*
X8915Y6037D01*
X8924Y6028D01*
X8932Y6024D01*
X8945D01*
X8954Y6028D01*
X8962Y6037D01*
X8967Y6050D01*
Y6058D01*
X8962Y6071D01*
X8954Y6080D01*
X8945Y6084D01*
X8932D01*
X9029Y6080D02*
X9038Y6071D01*
X9029Y6080D02*
X9021Y6084D01*
X9008D01*
X8999Y6080D01*
X8991Y6071D01*
X8986Y6058D01*
Y6050D01*
X8991Y6037D01*
X8999Y6028D01*
X9008Y6024D01*
X9021D01*
X9029Y6028D01*
X9038Y6037D01*
X9108Y6024D02*
Y6084D01*
X9100Y6080D02*
X9108Y6071D01*
X9100Y6080D02*
X9091Y6084D01*
X9078D01*
X9070Y6080D01*
X9061Y6071D01*
X9057Y6058D01*
Y6050D01*
X9061Y6037D01*
X9070Y6028D01*
X9078Y6024D01*
X9091D01*
X9100Y6028D01*
X9108Y6037D01*
X9132Y6024D02*
Y6084D01*
X9137Y6071D02*
X9132Y6058D01*
X9137Y6071D02*
X9145Y6080D01*
X9154Y6084D01*
X9167D01*
X9226Y6114D02*
Y6024D01*
Y6071D02*
X9218Y6080D01*
X9209Y6084D01*
X9196D01*
X9188Y6080D01*
X9179Y6071D01*
X9175Y6058D01*
Y6050D01*
X9179Y6037D01*
X9188Y6028D01*
X9196Y6024D01*
X9209D01*
X9218Y6028D01*
X9226Y6037D01*
X9321Y6114D02*
X9355Y6024D01*
X9389Y6114D01*
X9401D02*
Y6024D01*
X9435D02*
X9401Y6114D01*
X9470D02*
X9435Y6024D01*
X9470D02*
Y6114D01*
X9495D02*
X9551D01*
X9495D02*
Y6024D01*
X9551D01*
X9530Y6071D02*
X9495D01*
X9637Y6114D02*
Y6024D01*
Y6071D02*
X9645Y6080D01*
X9654Y6084D01*
X9667D01*
X9675Y6080D01*
X9684Y6071D01*
X9688Y6058D01*
Y6050D01*
X9684Y6037D01*
X9675Y6028D01*
X9667Y6024D01*
X9654D01*
X9645Y6028D01*
X9637Y6037D01*
X9707Y6041D02*
Y6084D01*
Y6041D02*
X9712Y6028D01*
X9720Y6024D01*
X9733D01*
X9742Y6028D01*
X9754Y6041D01*
Y6024D02*
Y6084D01*
X9821Y6080D02*
X9825Y6071D01*
X9821Y6080D02*
X9808Y6084D01*
X9795D01*
X9782Y6080D01*
X9778Y6071D01*
X9782Y6063D01*
X9791Y6058D01*
X9812Y6054D01*
X9821Y6050D01*
X9825Y6041D01*
Y6037D01*
X9821Y6028D01*
X9808Y6024D01*
X9795D01*
X9782Y6028D01*
X9778Y6037D01*
X9940Y6114D02*
X9949D01*
X9940D02*
X9932Y6110D01*
X9928Y6097D01*
Y6024D01*
X9915Y6084D02*
X9945D01*
X9975Y6080D02*
X9983Y6084D01*
X9975Y6080D02*
X9966Y6071D01*
X9962Y6058D01*
Y6050D01*
X9966Y6037D01*
X9975Y6028D01*
X9983Y6024D01*
X9996D01*
X10005Y6028D01*
X10013Y6037D01*
X10018Y6050D01*
Y6058D01*
X10013Y6071D01*
X10005Y6080D01*
X9996Y6084D01*
X9983D01*
X10037D02*
Y6024D01*
Y6058D02*
X10042Y6071D01*
X10050Y6080D01*
X10059Y6084D01*
X10072D01*
X10080D02*
Y6024D01*
Y6067D02*
X10093Y6080D01*
X10101Y6084D01*
X10114D01*
X10123Y6080D01*
X10127Y6067D01*
Y6024D01*
Y6067D02*
X10140Y6080D01*
X10148Y6084D01*
X10161D01*
X10170Y6080D01*
X10174Y6067D01*
Y6024D01*
X10254D02*
Y6084D01*
X10245Y6080D02*
X10254Y6071D01*
X10245Y6080D02*
X10237Y6084D01*
X10224D01*
X10215Y6080D01*
X10207Y6071D01*
X10202Y6058D01*
Y6050D01*
X10207Y6037D01*
X10215Y6028D01*
X10224Y6024D01*
X10237D01*
X10245Y6028D01*
X10254Y6037D01*
X10291Y6041D02*
Y6114D01*
Y6041D02*
X10295Y6028D01*
X10303Y6024D01*
X10312D01*
X10308Y6084D02*
X10278D01*
D17*
X7672Y7829D02*
X7572D01*
Y7929D02*
X7672D01*
Y7129D01*
X7572D01*
Y7929D01*
X7252D02*
Y7129D01*
X7352D01*
Y7929D01*
X7252D01*
Y7829D02*
X7352D01*
X8182Y8774D02*
Y9374D01*
X7922D01*
Y8774D01*
X8027D01*
X8077D02*
X8182D01*
X7882Y7739D02*
X8682D01*
Y7239D02*
X7932D01*
X8682D02*
Y7739D01*
X7882D02*
Y7289D01*
X7812Y7989D02*
Y8214D01*
Y8264D02*
Y8489D01*
X9812D01*
Y7989D01*
X7812D01*
X8842Y7519D02*
Y7479D01*
X8822Y7499D02*
X8862D01*
X9322Y7479D02*
Y7519D01*
X9302Y7499D02*
X9342D01*
X8672Y6919D02*
X8642D01*
X9082Y7479D02*
Y7519D01*
X9062Y7499D02*
X9102D01*
X8038Y7161D02*
X7862D01*
Y6934D02*
X8038D01*
Y7161D01*
X7862D02*
Y6934D01*
X9172Y9659D02*
X9202D01*
X8438Y7161D02*
X8262D01*
Y6934D02*
X8438D01*
Y7161D01*
X8262D02*
Y6934D01*
X9432Y6999D02*
X9442Y6989D01*
X9432Y6999D02*
X9412D01*
X9402Y6989D01*
Y6979D01*
X9412Y6969D01*
X9432D01*
X9442Y6959D01*
Y6949D01*
X9432Y6939D01*
X9412D01*
X9402Y6949D01*
X9462Y6989D02*
X9472Y6999D01*
X9492D01*
X9502Y6989D01*
Y6979D01*
X9503D01*
X9502D02*
X9503D01*
X9502D02*
X9503D01*
X9502D02*
X9492Y6969D01*
X9482D01*
X9492D01*
X9502Y6959D01*
Y6949D01*
X9492Y6939D01*
X9472D01*
X9462Y6949D01*
X9802Y8779D02*
X9822D01*
X9812D02*
X9802D01*
X9812D02*
Y8729D01*
X9802Y8719D01*
X9792D01*
X9782Y8729D01*
X9872Y8719D02*
Y8779D01*
X9842Y8749D01*
X9882D01*
X8182Y7069D02*
X8172Y7079D01*
X8152D01*
X8142Y7069D01*
Y7059D01*
X8152Y7049D01*
X8172D01*
X8182Y7039D01*
Y7029D01*
X8172Y7019D01*
X8152D01*
X8142Y7029D01*
X8202Y7019D02*
X8222D01*
X8212D01*
Y7079D01*
X8213D01*
X8212D02*
X8202Y7069D01*
X7762D02*
X7752Y7079D01*
X7732D01*
X7722Y7069D01*
Y7059D01*
X7732Y7049D01*
X7752D01*
X7762Y7039D01*
Y7029D01*
X7752Y7019D01*
X7732D01*
X7722Y7029D01*
X7782Y7019D02*
X7822D01*
X7782D02*
X7822Y7059D01*
Y7069D01*
X7812Y7079D01*
X7792D01*
X7782Y7069D01*
X7377Y7439D02*
Y7499D01*
X7407D01*
X7417Y7489D01*
Y7469D01*
X7407Y7459D01*
X7377D01*
X7397D02*
X7417Y7439D01*
X7437D02*
X7457D01*
X7447D01*
Y7499D01*
X7448D01*
X7447D02*
X7437Y7489D01*
X7487D02*
X7497Y7499D01*
X7517D01*
X7527Y7489D01*
Y7449D01*
X7517Y7439D01*
X7497D01*
X7487Y7449D01*
Y7489D01*
X8582Y7239D02*
Y7179D01*
Y7239D02*
X8612D01*
X8622Y7229D01*
Y7209D01*
X8612Y7199D01*
X8582D01*
X8602D02*
X8622Y7179D01*
X8642D02*
X8662D01*
X8652D01*
Y7239D01*
X8653D01*
X8652D02*
X8642Y7229D01*
X8692D02*
X8702Y7239D01*
X8722D01*
X8732Y7229D01*
Y7219D01*
X8733D01*
X8732D02*
X8733D01*
X8732D02*
X8733D01*
X8732D02*
X8722Y7209D01*
X8712D01*
X8722D01*
X8732Y7199D01*
Y7189D01*
X8722Y7179D01*
X8702D01*
X8692Y7189D01*
X8802Y7009D02*
Y6949D01*
X8842D01*
X8862D02*
Y7009D01*
Y6949D02*
X8892D01*
X8902Y6959D01*
Y6999D01*
X8892Y7009D01*
X8862D01*
X8922Y6949D02*
X8962D01*
X8922D02*
X8962Y6989D01*
Y6999D01*
X8952Y7009D01*
X8932D01*
X8922Y6999D01*
X9142Y9459D02*
Y9519D01*
Y9459D02*
X9182D01*
X9202D02*
Y9519D01*
Y9459D02*
X9232D01*
X9242Y9469D01*
Y9509D01*
X9232Y9519D01*
X9202D01*
X9262Y9459D02*
X9282D01*
X9272D01*
Y9519D01*
X9273D01*
X9272D02*
X9262Y9509D01*
X8692Y7319D02*
X8682Y7309D01*
Y7289D01*
X8692Y7279D01*
X8732D01*
X8742Y7289D01*
Y7309D01*
X8732Y7319D01*
X8742Y7339D02*
Y7359D01*
Y7349D01*
X8682D01*
X8683D01*
X8682D02*
X8692Y7339D01*
X8682Y7389D02*
Y7429D01*
X8692D01*
X8732Y7389D01*
X8742D01*
X8922Y7309D02*
X8932Y7319D01*
X8922Y7309D02*
Y7289D01*
X8932Y7279D01*
X8972D01*
X8982Y7289D01*
Y7309D01*
X8972Y7319D01*
X8982Y7339D02*
Y7359D01*
Y7349D01*
X8922D01*
X8923D01*
X8922D02*
X8932Y7339D01*
Y7409D02*
X8922Y7429D01*
X8932Y7409D02*
X8952Y7389D01*
X8972D01*
X8982Y7399D01*
Y7419D01*
X8972Y7429D01*
X8962D01*
X8952Y7419D01*
Y7389D01*
X8742Y7599D02*
Y7659D01*
Y7599D02*
X8772D01*
X8782Y7609D01*
Y7649D01*
X8772Y7659D01*
X8742D01*
X8802D02*
X8842D01*
X8802D02*
Y7629D01*
X8822Y7639D01*
X8832D01*
X8842Y7629D01*
Y7609D01*
X8832Y7599D01*
X8812D01*
X8802Y7609D01*
X8742Y7739D02*
Y7799D01*
Y7739D02*
X8772D01*
X8782Y7749D01*
Y7789D01*
X8772Y7799D01*
X8742D01*
X8832D02*
Y7739D01*
X8802Y7769D02*
X8832Y7799D01*
X8842Y7769D02*
X8802D01*
X9172Y7319D02*
X9162Y7309D01*
Y7289D01*
X9172Y7279D01*
X9212D01*
X9222Y7289D01*
Y7309D01*
X9212Y7319D01*
X9222Y7339D02*
Y7359D01*
Y7349D01*
X9162D01*
X9163D01*
X9162D02*
X9172Y7339D01*
X9162Y7389D02*
Y7429D01*
Y7389D02*
X9192D01*
X9182Y7409D01*
Y7419D01*
X9192Y7429D01*
X9212D01*
X9222Y7419D01*
Y7399D01*
X9212Y7389D01*
X9932Y7219D02*
X9942Y7209D01*
X9932Y7219D02*
X9912D01*
X9902Y7209D01*
Y7169D01*
X9912Y7159D01*
X9932D01*
X9942Y7169D01*
X9962Y7159D02*
X9982D01*
X9972D01*
Y7219D01*
X9973D01*
X9972D02*
X9962Y7209D01*
X10042Y7219D02*
Y7159D01*
X10012Y7189D02*
X10042Y7219D01*
X10052Y7189D02*
X10012D01*
X10042Y7339D02*
X10062D01*
X10052D02*
X10042D01*
X10052D02*
Y7289D01*
X10042Y7279D01*
X10032D01*
X10022Y7289D01*
X10102Y7329D02*
X10122Y7339D01*
X10102Y7329D02*
X10082Y7309D01*
Y7289D01*
X10092Y7279D01*
X10112D01*
X10122Y7289D01*
Y7299D01*
X10112Y7309D01*
X10082D01*
X9942Y8159D02*
X9892D01*
X9882Y8149D01*
Y8129D01*
X9892Y8119D01*
X9942D01*
Y8069D02*
X9882D01*
X9912Y8099D02*
X9942Y8069D01*
X9912Y8059D02*
Y8099D01*
X9892Y8619D02*
X9942D01*
X9892D02*
X9882Y8609D01*
Y8589D01*
X9892Y8579D01*
X9942D01*
Y8559D02*
Y8519D01*
Y8559D02*
X9912D01*
X9922Y8539D01*
Y8529D01*
X9912Y8519D01*
X9892D01*
X9882Y8529D01*
Y8549D01*
X9892Y8559D01*
X8842Y8823D02*
X8802D01*
X8792Y8813D01*
Y8793D01*
X8802Y8783D01*
X8842D01*
X8852Y8793D01*
Y8813D01*
Y8823D02*
X8832Y8803D01*
X8852Y8813D02*
X8842Y8823D01*
X8802Y8843D02*
X8792Y8853D01*
Y8873D01*
X8802Y8883D01*
X8812D01*
X8813D01*
X8812D02*
X8813D01*
X8812D02*
X8813D01*
X8812D02*
X8822Y8873D01*
Y8863D01*
Y8873D01*
X8832Y8883D01*
X8842D01*
X8852Y8873D01*
Y8853D01*
X8842Y8843D01*
X8822Y8643D02*
X8762D01*
X8822D02*
Y8673D01*
X8812Y8683D01*
X8772D01*
X8762Y8673D01*
Y8643D01*
X8822Y8703D02*
Y8723D01*
Y8713D01*
X8762D01*
X8763D01*
X8762D02*
X8772Y8703D01*
X9082Y8579D02*
X9142D01*
X9082D02*
Y8609D01*
X9092Y8619D01*
X9112D01*
X9122Y8609D01*
Y8579D01*
Y8599D02*
X9142Y8619D01*
X9082Y8639D02*
Y8679D01*
X9092D01*
X9132Y8639D01*
X9142D01*
X8812Y9073D02*
X8772D01*
X8762Y9063D01*
Y9043D01*
X8772Y9033D01*
X8812D01*
X8822Y9043D01*
Y9063D01*
Y9073D02*
X8802Y9053D01*
X8822Y9063D02*
X8812Y9073D01*
X8822Y9093D02*
Y9113D01*
Y9103D01*
X8762D01*
X8763D01*
X8762D02*
X8772Y9093D01*
X8762Y9213D02*
X8822D01*
Y9243D01*
X8812Y9253D01*
X8772D01*
X8762Y9243D01*
Y9213D01*
X8772Y9273D02*
X8762Y9283D01*
Y9303D01*
X8772Y9313D01*
X8782D01*
X8783D01*
X8782D02*
X8783D01*
X8782D02*
X8783D01*
X8782D02*
X8792Y9303D01*
Y9293D01*
Y9303D01*
X8802Y9313D01*
X8812D01*
X8822Y9303D01*
Y9283D01*
X8812Y9273D01*
X9082Y8989D02*
X9142D01*
X9082D02*
Y9019D01*
X9092Y9029D01*
X9112D01*
X9122Y9019D01*
Y8989D01*
Y9009D02*
X9142Y9029D01*
X9082Y9049D02*
Y9089D01*
Y9049D02*
X9112D01*
X9102Y9069D01*
Y9079D01*
X9112Y9089D01*
X9132D01*
X9142Y9079D01*
Y9059D01*
X9132Y9049D01*
X9027Y9465D02*
X8987D01*
X9027D02*
X9037Y9475D01*
Y9495D01*
X9027Y9505D01*
X8987D01*
X8977Y9495D01*
Y9475D01*
Y9465D02*
X8997Y9485D01*
X8977Y9475D02*
X8987Y9465D01*
X8977Y9445D02*
Y9405D01*
Y9445D02*
X9017Y9405D01*
X9027D01*
X9037Y9415D01*
Y9435D01*
X9027Y9445D01*
X8742Y9559D02*
X8682D01*
Y9589D01*
X8692Y9599D01*
X8712D01*
X8722Y9589D01*
Y9559D01*
Y9579D02*
X8742Y9599D01*
X8692Y9639D02*
X8682Y9659D01*
X8692Y9639D02*
X8712Y9619D01*
X8732D01*
X8742Y9629D01*
Y9649D01*
X8732Y9659D01*
X8722D01*
X8712Y9649D01*
Y9619D01*
X8742Y9019D02*
X8682D01*
Y9049D01*
X8692Y9059D01*
X8712D01*
X8722Y9049D01*
Y9019D01*
Y9039D02*
X8742Y9059D01*
Y9079D02*
Y9099D01*
Y9089D01*
X8682D01*
X8683D01*
X8682D02*
X8692Y9079D01*
X7392Y9279D02*
X7382Y9289D01*
X7362D01*
X7352Y9279D01*
Y9239D01*
X7362Y9229D01*
X7382D01*
X7392Y9239D01*
X7412Y9229D02*
X7452D01*
X7412D02*
X7452Y9269D01*
Y9279D01*
X7442Y9289D01*
X7422D01*
X7412Y9279D01*
X7502Y9289D02*
Y9229D01*
X7472Y9259D02*
X7502Y9289D01*
X7512Y9259D02*
X7472D01*
X7711Y8963D02*
X7771D01*
X7711D02*
Y8993D01*
X7721Y9003D01*
X7741D01*
X7751Y8993D01*
Y8963D01*
Y8983D02*
X7771Y9003D01*
Y9023D02*
Y9043D01*
Y9033D01*
X7711D01*
X7712D01*
X7711D02*
X7721Y9023D01*
X7711Y9073D02*
Y9113D01*
Y9073D02*
X7741D01*
X7731Y9093D01*
Y9103D01*
X7741Y9113D01*
X7761D01*
X7771Y9103D01*
Y9083D01*
X7761Y9073D01*
X7412Y9219D02*
Y9279D01*
X7442D01*
X7452Y9269D01*
Y9249D01*
X7442Y9239D01*
X7412D01*
X7432D02*
X7452Y9219D01*
X7472D02*
X7492D01*
X7482D01*
Y9279D01*
X7483D01*
X7482D02*
X7472Y9269D01*
X7542D02*
X7562Y9279D01*
X7542Y9269D02*
X7522Y9249D01*
Y9229D01*
X7532Y9219D01*
X7552D01*
X7562Y9229D01*
Y9239D01*
X7552Y9249D01*
X7522D01*
X7448Y8808D02*
X7458Y8798D01*
X7448Y8808D02*
X7428D01*
X7418Y8798D01*
Y8758D01*
X7428Y8748D01*
X7448D01*
X7458Y8758D01*
X7478Y8748D02*
X7518D01*
X7478D02*
X7518Y8788D01*
Y8798D01*
X7508Y8808D01*
X7488D01*
X7478Y8798D01*
X7538D02*
X7548Y8808D01*
X7568D01*
X7578Y8798D01*
Y8788D01*
X7579D01*
X7578D02*
X7579D01*
X7578D02*
X7579D01*
X7578D02*
X7568Y8778D01*
X7558D01*
X7568D01*
X7578Y8768D01*
Y8758D01*
X7568Y8748D01*
X7548D01*
X7538Y8758D01*
X7822Y8629D02*
X7832Y8619D01*
X7852D01*
X7862Y8629D01*
Y8669D01*
X7852Y8679D01*
X7832D01*
X7822Y8669D01*
X7802Y8679D02*
X7782D01*
X7792D01*
Y8619D01*
X7793D01*
X7792D02*
X7802Y8629D01*
X7752D02*
X7742Y8619D01*
X7722D01*
X7712Y8629D01*
Y8639D01*
X7722Y8649D01*
X7712Y8659D01*
Y8669D01*
X7722Y8679D01*
X7742D01*
X7752Y8669D01*
Y8659D01*
X7742Y8649D01*
X7752Y8639D01*
Y8629D01*
X7742Y8649D02*
X7722D01*
X7472Y9029D02*
Y9089D01*
X7502D01*
X7512Y9079D01*
Y9059D01*
X7502Y9049D01*
X7472D01*
X7492D02*
X7512Y9029D01*
X7532D02*
X7572D01*
X7532D02*
X7572Y9069D01*
Y9079D01*
X7562Y9089D01*
X7542D01*
X7532Y9079D01*
X7592Y9029D02*
X7632D01*
X7592D02*
X7632Y9069D01*
Y9079D01*
X7622Y9089D01*
X7602D01*
X7592Y9079D01*
X7722Y8679D02*
X7782D01*
X7722D02*
Y8709D01*
X7732Y8719D01*
X7752D01*
X7762Y8709D01*
Y8679D01*
Y8699D02*
X7782Y8719D01*
Y8739D02*
Y8779D01*
Y8739D02*
X7742Y8779D01*
X7732D01*
X7722Y8769D01*
Y8749D01*
X7732Y8739D01*
X7782Y8799D02*
Y8819D01*
Y8809D01*
X7722D01*
X7723D01*
X7722D02*
X7732Y8799D01*
X7492Y8059D02*
X7482Y8049D01*
Y8029D01*
X7492Y8019D01*
X7532D01*
X7542Y8029D01*
Y8049D01*
X7532Y8059D01*
X7542Y8079D02*
Y8119D01*
Y8079D02*
X7502Y8119D01*
X7492D01*
X7482Y8109D01*
Y8089D01*
X7492Y8079D01*
X7282Y8239D02*
Y8259D01*
Y8249D02*
Y8239D01*
Y8249D02*
X7332D01*
X7342Y8239D01*
Y8229D01*
X7332Y8219D01*
X7282Y8279D02*
Y8319D01*
X7292D01*
X7332Y8279D01*
X7342D01*
X7182Y7179D02*
Y7159D01*
Y7169D01*
X7232D01*
X7242Y7159D01*
Y7149D01*
X7232Y7139D01*
X7192Y7199D02*
X7182Y7209D01*
Y7229D01*
X7192Y7239D01*
X7202D01*
X7203D01*
X7202D02*
X7203D01*
X7202D02*
X7203D01*
X7202D02*
X7212Y7229D01*
Y7219D01*
Y7229D01*
X7222Y7239D01*
X7232D01*
X7242Y7229D01*
Y7209D01*
X7232Y7199D01*
X7582Y7059D02*
Y7039D01*
Y7049D01*
X7632D01*
X7642Y7039D01*
Y7029D01*
X7632Y7019D01*
X7642Y7079D02*
Y7119D01*
Y7079D02*
X7602Y7119D01*
X7592D01*
X7582Y7109D01*
Y7089D01*
X7592Y7079D01*
X8492Y7819D02*
X8512D01*
X8492D02*
X8482Y7809D01*
Y7769D01*
X8492Y7759D01*
X8512D01*
X8522Y7769D01*
Y7809D01*
X8512Y7819D01*
X8572D02*
X8582Y7809D01*
X8572Y7819D02*
X8552D01*
X8542Y7809D01*
Y7799D01*
X8552Y7789D01*
X8572D01*
X8582Y7779D01*
Y7769D01*
X8572Y7759D01*
X8552D01*
X8542Y7769D01*
X8632Y7819D02*
X8642Y7809D01*
X8632Y7819D02*
X8612D01*
X8602Y7809D01*
Y7769D01*
X8612Y7759D01*
X8632D01*
X8642Y7769D01*
X8662Y7759D02*
X8682D01*
X8672D01*
Y7819D01*
X8673D01*
X8672D02*
X8662Y7809D01*
X8442Y8669D02*
X8452Y8679D01*
X8442Y8669D02*
Y8649D01*
X8452Y8639D01*
X8492D01*
X8502Y8649D01*
Y8669D01*
X8492Y8679D01*
X8502Y8699D02*
Y8739D01*
Y8699D02*
X8462Y8739D01*
X8452D01*
X8442Y8729D01*
Y8709D01*
X8452Y8699D01*
X8502Y8759D02*
Y8799D01*
Y8759D02*
X8462Y8799D01*
X8452D01*
X8442Y8789D01*
Y8769D01*
X8452Y8759D01*
X8402Y8639D02*
X8342D01*
Y8669D01*
X8352Y8679D01*
X8372D01*
X8382Y8669D01*
Y8639D01*
Y8659D02*
X8402Y8679D01*
Y8699D02*
Y8739D01*
Y8699D02*
X8362Y8739D01*
X8352D01*
X8342Y8729D01*
Y8709D01*
X8352Y8699D01*
X8342Y8789D02*
X8402D01*
X8372Y8759D02*
X8342Y8789D01*
X8372Y8799D02*
Y8759D01*
X8382Y9299D02*
X8322D01*
Y9329D01*
X8332Y9339D01*
X8352D01*
X8362Y9329D01*
Y9299D01*
Y9319D02*
X8382Y9339D01*
Y9359D02*
Y9399D01*
Y9359D02*
X8342Y9399D01*
X8332D01*
X8322Y9389D01*
Y9369D01*
X8332Y9359D01*
Y9419D02*
X8322Y9429D01*
Y9449D01*
X8332Y9459D01*
X8342D01*
X8343D01*
X8342D02*
X8343D01*
X8342D02*
X8343D01*
X8342D02*
X8352Y9449D01*
Y9439D01*
Y9449D01*
X8362Y9459D01*
X8372D01*
X8382Y9449D01*
Y9429D01*
X8372Y9419D01*
X8432Y9339D02*
X8422Y9329D01*
Y9309D01*
X8432Y9299D01*
X8472D01*
X8482Y9309D01*
Y9329D01*
X8472Y9339D01*
X8482Y9359D02*
Y9399D01*
Y9359D02*
X8442Y9399D01*
X8432D01*
X8422Y9389D01*
Y9369D01*
X8432Y9359D01*
X8482Y9419D02*
Y9439D01*
Y9429D01*
X8422D01*
X8423D01*
X8422D02*
X8432Y9419D01*
X8002Y8749D02*
Y8699D01*
Y8749D02*
X7992Y8759D01*
X7972D01*
X7962Y8749D01*
Y8699D01*
X7922Y8709D02*
X7902Y8699D01*
X7922Y8709D02*
X7942Y8729D01*
Y8749D01*
X7932Y8759D01*
X7912D01*
X7902Y8749D01*
Y8739D01*
X7912Y8729D01*
X7942D01*
X8582Y8699D02*
X8642D01*
X8582D02*
Y8729D01*
X8592Y8739D01*
X8612D01*
X8622Y8729D01*
Y8699D01*
Y8719D02*
X8642Y8739D01*
X8592Y8759D02*
X8582Y8769D01*
Y8789D01*
X8592Y8799D01*
X8602D01*
X8603D01*
X8602D02*
X8603D01*
X8602D02*
X8603D01*
X8602D02*
X8612Y8789D01*
Y8779D01*
Y8789D01*
X8622Y8799D01*
X8632D01*
X8642Y8789D01*
Y8769D01*
X8632Y8759D01*
X7792Y7999D02*
X7742D01*
X7792D02*
X7802Y8009D01*
Y8029D01*
X7792Y8039D01*
X7742D01*
X7802Y8059D02*
Y8099D01*
Y8059D02*
X7762Y8099D01*
X7752D01*
X7742Y8089D01*
Y8069D01*
X7752Y8059D01*
X9102Y9359D02*
Y9419D01*
X9132D01*
X9142Y9409D01*
Y9389D01*
X9132Y9379D01*
X9102D01*
X9122D02*
X9142Y9359D01*
X9162D02*
X9202D01*
X9162D02*
X9202Y9399D01*
Y9409D01*
X9192Y9419D01*
X9172D01*
X9162Y9409D01*
X9382Y9429D02*
X9442D01*
X9382D02*
Y9459D01*
X9392Y9469D01*
X9412D01*
X9422Y9459D01*
Y9429D01*
Y9449D02*
X9442Y9469D01*
Y9519D02*
X9382D01*
X9412Y9489D01*
Y9529D01*
X9652Y9719D02*
X9692D01*
X9652D02*
X9642Y9709D01*
Y9689D01*
X9652Y9679D01*
X9692D01*
X9702Y9689D01*
Y9709D01*
Y9719D02*
X9682Y9699D01*
X9702Y9709D02*
X9692Y9719D01*
X9702Y9769D02*
X9642D01*
X9672Y9739D01*
Y9779D01*
X9702Y9579D02*
X9642D01*
Y9549D01*
X9652Y9539D01*
X9692D01*
X9702Y9549D01*
Y9579D01*
X9642Y9519D02*
Y9479D01*
Y9519D02*
X9682Y9479D01*
X9692D01*
X9702Y9489D01*
Y9509D01*
X9692Y9519D01*
X9822Y9739D02*
X9882D01*
Y9709D01*
X9872Y9699D01*
X9852D01*
X9842Y9709D01*
Y9739D01*
Y9719D02*
X9822Y9699D01*
X9872Y9679D02*
X9882Y9669D01*
Y9649D01*
X9872Y9639D01*
X9862D01*
X9852Y9649D01*
X9842Y9639D01*
X9832D01*
X9822Y9649D01*
Y9669D01*
X9832Y9679D01*
X9842D01*
X9852Y9669D01*
X9862Y9679D01*
X9872D01*
X9852Y9669D02*
Y9649D01*
X8962Y9779D02*
X8942D01*
X8952D01*
Y9729D01*
X8942Y9719D01*
X8932D01*
X8922Y9729D01*
X8982Y9779D02*
X9022D01*
X8982D02*
Y9749D01*
X9002Y9759D01*
X9012D01*
X9022Y9749D01*
Y9729D01*
X9012Y9719D01*
X8992D01*
X8982Y9729D01*
X7363Y7890D02*
Y7830D01*
Y7890D02*
X7393D01*
X7403Y7880D01*
Y7860D01*
X7393Y7850D01*
X7363D01*
X7383D02*
X7403Y7830D01*
X7423Y7880D02*
X7433Y7890D01*
X7453D01*
X7463Y7880D01*
Y7870D01*
X7464D01*
X7463D02*
X7464D01*
X7463D02*
X7464D01*
X7463D02*
X7453Y7860D01*
X7443D01*
X7453D01*
X7463Y7850D01*
Y7840D01*
X7453Y7830D01*
X7433D01*
X7423Y7840D01*
X7483Y7880D02*
X7493Y7890D01*
X7513D01*
X7523Y7880D01*
Y7840D01*
X7513Y7830D01*
X7493D01*
X7483Y7840D01*
Y7880D01*
X7363Y7810D02*
Y7750D01*
Y7810D02*
X7393D01*
X7403Y7800D01*
Y7780D01*
X7393Y7770D01*
X7363D01*
X7383D02*
X7403Y7750D01*
X7423Y7800D02*
X7433Y7810D01*
X7453D01*
X7463Y7800D01*
Y7790D01*
X7464D01*
X7463D02*
X7464D01*
X7463D02*
X7464D01*
X7463D02*
X7453Y7780D01*
X7443D01*
X7453D01*
X7463Y7770D01*
Y7760D01*
X7453Y7750D01*
X7433D01*
X7423Y7760D01*
X7483Y7750D02*
X7503D01*
X7493D01*
Y7810D01*
X7494D01*
X7493D02*
X7483Y7800D01*
X7363Y7710D02*
Y7650D01*
Y7710D02*
X7393D01*
X7403Y7700D01*
Y7680D01*
X7393Y7670D01*
X7363D01*
X7383D02*
X7403Y7650D01*
X7423Y7700D02*
X7433Y7710D01*
X7453D01*
X7463Y7700D01*
Y7690D01*
X7464D01*
X7463D02*
X7464D01*
X7463D02*
X7464D01*
X7463D02*
X7453Y7680D01*
X7443D01*
X7453D01*
X7463Y7670D01*
Y7660D01*
X7453Y7650D01*
X7433D01*
X7423Y7660D01*
X7483Y7650D02*
X7523D01*
X7483D02*
X7523Y7690D01*
Y7700D01*
X7513Y7710D01*
X7493D01*
X7483Y7700D01*
X7363Y7610D02*
Y7550D01*
Y7610D02*
X7393D01*
X7403Y7600D01*
Y7580D01*
X7393Y7570D01*
X7363D01*
X7383D02*
X7403Y7550D01*
X7423Y7600D02*
X7433Y7610D01*
X7453D01*
X7463Y7600D01*
Y7590D01*
X7464D01*
X7463D02*
X7464D01*
X7463D02*
X7464D01*
X7463D02*
X7453Y7580D01*
X7443D01*
X7453D01*
X7463Y7570D01*
Y7560D01*
X7453Y7550D01*
X7433D01*
X7423Y7560D01*
X7483Y7600D02*
X7493Y7610D01*
X7513D01*
X7523Y7600D01*
Y7590D01*
X7524D01*
X7523D02*
X7524D01*
X7523D02*
X7524D01*
X7523D02*
X7513Y7580D01*
X7503D01*
X7513D01*
X7523Y7570D01*
Y7560D01*
X7513Y7550D01*
X7493D01*
X7483Y7560D01*
X8027Y8774D02*
X8027Y8777D01*
X8028Y8780D01*
X8029Y8784D01*
X8030Y8786D01*
X8032Y8789D01*
X8034Y8792D01*
X8037Y8794D01*
X8040Y8796D01*
X8042Y8797D01*
X8046Y8798D01*
X8049Y8799D01*
X8052Y8799D01*
X8055Y8799D01*
X8058Y8798D01*
X8062Y8797D01*
X8064Y8796D01*
X8067Y8794D01*
X8070Y8792D01*
X8072Y8789D01*
X8074Y8786D01*
X8075Y8784D01*
X8076Y8780D01*
X8077Y8777D01*
X8077Y8774D01*
X7880Y7289D02*
X7880Y7286D01*
X7880Y7282D01*
X7881Y7279D01*
X7882Y7276D01*
X7883Y7272D01*
X7884Y7269D01*
X7885Y7266D01*
X7887Y7263D01*
X7889Y7260D01*
X7891Y7257D01*
X7893Y7255D01*
X7895Y7252D01*
X7898Y7250D01*
X7900Y7248D01*
X7903Y7246D01*
X7906Y7244D01*
X7909Y7242D01*
X7912Y7241D01*
X7915Y7240D01*
X7919Y7239D01*
X7922Y7238D01*
X7925Y7237D01*
X7929Y7237D01*
X7932Y7237D01*
X7812Y8214D02*
X7815Y8214D01*
X7818Y8215D01*
X7822Y8216D01*
X7824Y8217D01*
X7827Y8219D01*
X7830Y8221D01*
X7832Y8224D01*
X7834Y8226D01*
X7835Y8229D01*
X7836Y8233D01*
X7837Y8236D01*
X7837Y8239D01*
X7837Y8242D01*
X7836Y8245D01*
X7835Y8249D01*
X7834Y8252D01*
X7832Y8254D01*
X7830Y8257D01*
X7827Y8259D01*
X7824Y8261D01*
X7822Y8262D01*
X7818Y8263D01*
X7815Y8264D01*
X7812Y8264D01*
X8942Y7359D02*
X8942Y7356D01*
X8942Y7352D01*
X8942Y7349D01*
X8941Y7346D01*
X8941Y7342D01*
X8940Y7339D01*
X8939Y7336D01*
X8938Y7333D01*
X8938Y7330D01*
X8937Y7326D01*
X8935Y7323D01*
X8934Y7320D01*
X8933Y7317D01*
X8931Y7314D01*
X8930Y7311D01*
X8928Y7308D01*
X8926Y7305D01*
X8925Y7303D01*
X8923Y7300D01*
X8921Y7297D01*
X8919Y7295D01*
X8916Y7292D01*
X8914Y7290D01*
X8912Y7287D01*
X8909Y7285D01*
X8907Y7283D01*
X8904Y7281D01*
X8902Y7279D01*
X8899Y7277D01*
X8896Y7275D01*
X8893Y7273D01*
X8891Y7272D01*
X8888Y7270D01*
X8885Y7269D01*
X8882Y7267D01*
X8879Y7266D01*
X8875Y7265D01*
X8872Y7264D01*
X8869Y7263D01*
X8866Y7262D01*
X8863Y7261D01*
X8859Y7261D01*
X8856Y7260D01*
X8853Y7260D01*
X8849Y7259D01*
X8846Y7259D01*
X8843Y7259D01*
X8840Y7259D01*
X8836Y7259D01*
X8833Y7259D01*
X8830Y7260D01*
X8826Y7260D01*
X8823Y7261D01*
X8820Y7262D01*
X8817Y7262D01*
X8813Y7263D01*
X8810Y7264D01*
X8807Y7265D01*
X8804Y7267D01*
X8801Y7268D01*
X8798Y7269D01*
X8795Y7271D01*
X8792Y7272D01*
X8789Y7274D01*
X8786Y7276D01*
X8784Y7278D01*
X8781Y7280D01*
X8778Y7282D01*
X8776Y7284D01*
X8773Y7286D01*
X8771Y7289D01*
X8769Y7291D01*
X8766Y7293D01*
X8764Y7296D01*
X8762Y7299D01*
X8760Y7301D01*
X8758Y7304D01*
X8757Y7307D01*
X8755Y7310D01*
X8753Y7313D01*
X8752Y7316D01*
X8751Y7319D01*
X8749Y7322D01*
X8748Y7325D01*
X8747Y7328D01*
X8746Y7331D01*
X8745Y7334D01*
X8744Y7338D01*
X8744Y7341D01*
X8743Y7344D01*
X8743Y7347D01*
X8742Y7351D01*
X8742Y7354D01*
X8742Y7357D01*
Y7361D01*
X8742Y7364D01*
X8742Y7367D01*
X8743Y7371D01*
X8743Y7374D01*
X8744Y7377D01*
X8744Y7380D01*
X8745Y7384D01*
X8746Y7387D01*
X8747Y7390D01*
X8748Y7393D01*
X8749Y7396D01*
X8751Y7399D01*
X8752Y7402D01*
X8753Y7405D01*
X8755Y7408D01*
X8757Y7411D01*
X8758Y7414D01*
X8760Y7417D01*
X8762Y7419D01*
X8764Y7422D01*
X8766Y7425D01*
X8769Y7427D01*
X8771Y7429D01*
X8773Y7432D01*
X8776Y7434D01*
X8778Y7436D01*
X8781Y7438D01*
X8784Y7440D01*
X8786Y7442D01*
X8789Y7444D01*
X8792Y7446D01*
X8795Y7447D01*
X8798Y7449D01*
X8801Y7450D01*
X8804Y7451D01*
X8807Y7453D01*
X8810Y7454D01*
X8813Y7455D01*
X8817Y7456D01*
X8820Y7456D01*
X8823Y7457D01*
X8826Y7458D01*
X8830Y7458D01*
X8833Y7459D01*
X8836Y7459D01*
X8840Y7459D01*
X8843Y7459D01*
X8846Y7459D01*
X8849Y7459D01*
X8853Y7458D01*
X8856Y7458D01*
X8859Y7457D01*
X8863Y7457D01*
X8866Y7456D01*
X8869Y7455D01*
X8872Y7454D01*
X8875Y7453D01*
X8879Y7452D01*
X8882Y7451D01*
X8885Y7449D01*
X8888Y7448D01*
X8891Y7446D01*
X8893Y7445D01*
X8896Y7443D01*
X8899Y7441D01*
X8902Y7439D01*
X8904Y7437D01*
X8907Y7435D01*
X8909Y7433D01*
X8912Y7431D01*
X8914Y7428D01*
X8916Y7426D01*
X8919Y7423D01*
X8921Y7421D01*
X8923Y7418D01*
X8925Y7415D01*
X8926Y7413D01*
X8928Y7410D01*
X8930Y7407D01*
X8931Y7404D01*
X8933Y7401D01*
X8934Y7398D01*
X8935Y7395D01*
X8937Y7392D01*
X8938Y7388D01*
X8938Y7385D01*
X8939Y7382D01*
X8940Y7379D01*
X8941Y7376D01*
X8941Y7372D01*
X8942Y7369D01*
X8942Y7366D01*
X8942Y7362D01*
X8942Y7359D01*
X9422D02*
X9422Y7356D01*
X9422Y7352D01*
X9422Y7349D01*
X9421Y7346D01*
X9421Y7342D01*
X9420Y7339D01*
X9419Y7336D01*
X9418Y7333D01*
X9418Y7330D01*
X9417Y7326D01*
X9415Y7323D01*
X9414Y7320D01*
X9413Y7317D01*
X9411Y7314D01*
X9410Y7311D01*
X9408Y7308D01*
X9406Y7305D01*
X9405Y7303D01*
X9403Y7300D01*
X9401Y7297D01*
X9399Y7295D01*
X9396Y7292D01*
X9394Y7290D01*
X9392Y7287D01*
X9389Y7285D01*
X9387Y7283D01*
X9384Y7281D01*
X9382Y7279D01*
X9379Y7277D01*
X9376Y7275D01*
X9373Y7273D01*
X9371Y7272D01*
X9368Y7270D01*
X9365Y7269D01*
X9362Y7267D01*
X9359Y7266D01*
X9355Y7265D01*
X9352Y7264D01*
X9349Y7263D01*
X9346Y7262D01*
X9343Y7261D01*
X9339Y7261D01*
X9336Y7260D01*
X9333Y7260D01*
X9329Y7259D01*
X9326Y7259D01*
X9323Y7259D01*
X9320Y7259D01*
X9316Y7259D01*
X9313Y7259D01*
X9310Y7260D01*
X9306Y7260D01*
X9303Y7261D01*
X9300Y7262D01*
X9297Y7262D01*
X9293Y7263D01*
X9290Y7264D01*
X9287Y7265D01*
X9284Y7267D01*
X9281Y7268D01*
X9278Y7269D01*
X9275Y7271D01*
X9272Y7272D01*
X9269Y7274D01*
X9266Y7276D01*
X9264Y7278D01*
X9261Y7280D01*
X9258Y7282D01*
X9256Y7284D01*
X9253Y7286D01*
X9251Y7289D01*
X9249Y7291D01*
X9246Y7293D01*
X9244Y7296D01*
X9242Y7299D01*
X9240Y7301D01*
X9238Y7304D01*
X9237Y7307D01*
X9235Y7310D01*
X9233Y7313D01*
X9232Y7316D01*
X9231Y7319D01*
X9229Y7322D01*
X9228Y7325D01*
X9227Y7328D01*
X9226Y7331D01*
X9225Y7334D01*
X9224Y7338D01*
X9224Y7341D01*
X9223Y7344D01*
X9223Y7347D01*
X9222Y7351D01*
X9222Y7354D01*
X9222Y7357D01*
Y7361D01*
X9222Y7364D01*
X9222Y7367D01*
X9223Y7371D01*
X9223Y7374D01*
X9224Y7377D01*
X9224Y7380D01*
X9225Y7384D01*
X9226Y7387D01*
X9227Y7390D01*
X9228Y7393D01*
X9229Y7396D01*
X9231Y7399D01*
X9232Y7402D01*
X9233Y7405D01*
X9235Y7408D01*
X9237Y7411D01*
X9238Y7414D01*
X9240Y7417D01*
X9242Y7419D01*
X9244Y7422D01*
X9246Y7425D01*
X9249Y7427D01*
X9251Y7429D01*
X9253Y7432D01*
X9256Y7434D01*
X9258Y7436D01*
X9261Y7438D01*
X9264Y7440D01*
X9266Y7442D01*
X9269Y7444D01*
X9272Y7446D01*
X9275Y7447D01*
X9278Y7449D01*
X9281Y7450D01*
X9284Y7451D01*
X9287Y7453D01*
X9290Y7454D01*
X9293Y7455D01*
X9297Y7456D01*
X9300Y7456D01*
X9303Y7457D01*
X9306Y7458D01*
X9310Y7458D01*
X9313Y7459D01*
X9316Y7459D01*
X9320Y7459D01*
X9323Y7459D01*
X9326Y7459D01*
X9329Y7459D01*
X9333Y7458D01*
X9336Y7458D01*
X9339Y7457D01*
X9343Y7457D01*
X9346Y7456D01*
X9349Y7455D01*
X9352Y7454D01*
X9355Y7453D01*
X9359Y7452D01*
X9362Y7451D01*
X9365Y7449D01*
X9368Y7448D01*
X9371Y7446D01*
X9373Y7445D01*
X9376Y7443D01*
X9379Y7441D01*
X9382Y7439D01*
X9384Y7437D01*
X9387Y7435D01*
X9389Y7433D01*
X9392Y7431D01*
X9394Y7428D01*
X9396Y7426D01*
X9399Y7423D01*
X9401Y7421D01*
X9403Y7418D01*
X9405Y7415D01*
X9406Y7413D01*
X9408Y7410D01*
X9410Y7407D01*
X9411Y7404D01*
X9413Y7401D01*
X9414Y7398D01*
X9415Y7395D01*
X9417Y7392D01*
X9418Y7388D01*
X9418Y7385D01*
X9419Y7382D01*
X9420Y7379D01*
X9421Y7376D01*
X9421Y7372D01*
X9422Y7369D01*
X9422Y7366D01*
X9422Y7362D01*
X9422Y7359D01*
X8642Y6919D02*
X8639Y6919D01*
X8635Y6920D01*
X8632Y6922D01*
X8629Y6924D01*
X8627Y6926D01*
X8625Y6929D01*
X8623Y6932D01*
X8622Y6936D01*
X8622Y6939D01*
X8672Y6919D02*
X8675Y6919D01*
X8679Y6920D01*
X8682Y6922D01*
X8685Y6924D01*
X8687Y6926D01*
X8689Y6929D01*
X8691Y6932D01*
X8692Y6936D01*
X8692Y6939D01*
X8700Y7018D02*
X8700Y7022D01*
X8701Y7025D01*
X8702Y7028D01*
X8704Y7031D01*
X8706Y7034D01*
X8708Y7036D01*
X8711Y7038D01*
X8714Y7039D01*
X8717Y7040D01*
X8720Y7041D01*
X8724D01*
X8727Y7040D01*
X8730Y7039D01*
X8733Y7038D01*
X8736Y7036D01*
X8738Y7034D01*
X8740Y7031D01*
X8742Y7028D01*
X8743Y7025D01*
X8744Y7022D01*
X8744Y7018D01*
X9182Y7359D02*
X9182Y7356D01*
X9182Y7352D01*
X9182Y7349D01*
X9181Y7346D01*
X9181Y7342D01*
X9180Y7339D01*
X9179Y7336D01*
X9178Y7333D01*
X9178Y7330D01*
X9177Y7326D01*
X9175Y7323D01*
X9174Y7320D01*
X9173Y7317D01*
X9171Y7314D01*
X9170Y7311D01*
X9168Y7308D01*
X9166Y7305D01*
X9165Y7303D01*
X9163Y7300D01*
X9161Y7297D01*
X9159Y7295D01*
X9156Y7292D01*
X9154Y7290D01*
X9152Y7287D01*
X9149Y7285D01*
X9147Y7283D01*
X9144Y7281D01*
X9142Y7279D01*
X9139Y7277D01*
X9136Y7275D01*
X9133Y7273D01*
X9131Y7272D01*
X9128Y7270D01*
X9125Y7269D01*
X9122Y7267D01*
X9119Y7266D01*
X9115Y7265D01*
X9112Y7264D01*
X9109Y7263D01*
X9106Y7262D01*
X9103Y7261D01*
X9099Y7261D01*
X9096Y7260D01*
X9093Y7260D01*
X9089Y7259D01*
X9086Y7259D01*
X9083Y7259D01*
X9080Y7259D01*
X9076Y7259D01*
X9073Y7259D01*
X9070Y7260D01*
X9066Y7260D01*
X9063Y7261D01*
X9060Y7262D01*
X9057Y7262D01*
X9053Y7263D01*
X9050Y7264D01*
X9047Y7265D01*
X9044Y7267D01*
X9041Y7268D01*
X9038Y7269D01*
X9035Y7271D01*
X9032Y7272D01*
X9029Y7274D01*
X9026Y7276D01*
X9024Y7278D01*
X9021Y7280D01*
X9018Y7282D01*
X9016Y7284D01*
X9013Y7286D01*
X9011Y7289D01*
X9009Y7291D01*
X9006Y7293D01*
X9004Y7296D01*
X9002Y7299D01*
X9000Y7301D01*
X8998Y7304D01*
X8997Y7307D01*
X8995Y7310D01*
X8993Y7313D01*
X8992Y7316D01*
X8991Y7319D01*
X8989Y7322D01*
X8988Y7325D01*
X8987Y7328D01*
X8986Y7331D01*
X8985Y7334D01*
X8984Y7338D01*
X8984Y7341D01*
X8983Y7344D01*
X8983Y7347D01*
X8982Y7351D01*
X8982Y7354D01*
X8982Y7357D01*
Y7361D01*
X8982Y7364D01*
X8982Y7367D01*
X8983Y7371D01*
X8983Y7374D01*
X8984Y7377D01*
X8984Y7380D01*
X8985Y7384D01*
X8986Y7387D01*
X8987Y7390D01*
X8988Y7393D01*
X8989Y7396D01*
X8991Y7399D01*
X8992Y7402D01*
X8993Y7405D01*
X8995Y7408D01*
X8997Y7411D01*
X8998Y7414D01*
X9000Y7417D01*
X9002Y7419D01*
X9004Y7422D01*
X9006Y7425D01*
X9009Y7427D01*
X9011Y7429D01*
X9013Y7432D01*
X9016Y7434D01*
X9018Y7436D01*
X9021Y7438D01*
X9024Y7440D01*
X9026Y7442D01*
X9029Y7444D01*
X9032Y7446D01*
X9035Y7447D01*
X9038Y7449D01*
X9041Y7450D01*
X9044Y7451D01*
X9047Y7453D01*
X9050Y7454D01*
X9053Y7455D01*
X9057Y7456D01*
X9060Y7456D01*
X9063Y7457D01*
X9066Y7458D01*
X9070Y7458D01*
X9073Y7459D01*
X9076Y7459D01*
X9080Y7459D01*
X9083Y7459D01*
X9086Y7459D01*
X9089Y7459D01*
X9093Y7458D01*
X9096Y7458D01*
X9099Y7457D01*
X9103Y7457D01*
X9106Y7456D01*
X9109Y7455D01*
X9112Y7454D01*
X9115Y7453D01*
X9119Y7452D01*
X9122Y7451D01*
X9125Y7449D01*
X9128Y7448D01*
X9131Y7446D01*
X9133Y7445D01*
X9136Y7443D01*
X9139Y7441D01*
X9142Y7439D01*
X9144Y7437D01*
X9147Y7435D01*
X9149Y7433D01*
X9152Y7431D01*
X9154Y7428D01*
X9156Y7426D01*
X9159Y7423D01*
X9161Y7421D01*
X9163Y7418D01*
X9165Y7415D01*
X9166Y7413D01*
X9168Y7410D01*
X9170Y7407D01*
X9171Y7404D01*
X9173Y7401D01*
X9174Y7398D01*
X9175Y7395D01*
X9177Y7392D01*
X9178Y7388D01*
X9178Y7385D01*
X9179Y7382D01*
X9180Y7379D01*
X9181Y7376D01*
X9181Y7372D01*
X9182Y7369D01*
X9182Y7366D01*
X9182Y7362D01*
X9182Y7359D01*
X9882Y7119D02*
X9882Y7116D01*
X9882Y7112D01*
X9882Y7109D01*
X9882Y7106D01*
X9881Y7102D01*
X9881Y7099D01*
X9881Y7096D01*
X9880Y7092D01*
X9880Y7089D01*
X9879Y7086D01*
X9879Y7083D01*
X9878Y7079D01*
X9877Y7076D01*
X9877Y7073D01*
X9876Y7070D01*
X9875Y7066D01*
X9874Y7063D01*
X9873Y7060D01*
X9872Y7057D01*
X9871Y7054D01*
X9870Y7051D01*
X9869Y7047D01*
X9868Y7044D01*
X9866Y7041D01*
X9865Y7038D01*
X9864Y7035D01*
X9862Y7032D01*
X9861Y7029D01*
X9859Y7026D01*
X9858Y7023D01*
X9856Y7020D01*
X9854Y7018D01*
X9853Y7015D01*
X9851Y7012D01*
X9849Y7009D01*
X9847Y7006D01*
X9845Y7004D01*
X9843Y7001D01*
X9841Y6998D01*
X9839Y6996D01*
X9837Y6993D01*
X9835Y6990D01*
X9833Y6988D01*
X9831Y6985D01*
X9829Y6983D01*
X9826Y6981D01*
X9824Y6978D01*
X9822Y6976D01*
X9819Y6974D01*
X9817Y6971D01*
X9814Y6969D01*
X9812Y6967D01*
X9809Y6965D01*
X9807Y6963D01*
X9804Y6961D01*
X9801Y6959D01*
X9799Y6957D01*
X9796Y6955D01*
X9793Y6953D01*
X9791Y6951D01*
X9788Y6949D01*
X9785Y6947D01*
X9782Y6946D01*
X9779Y6944D01*
X9776Y6943D01*
X9773Y6941D01*
X9770Y6940D01*
X9767Y6938D01*
X9764Y6937D01*
X9761Y6935D01*
X9758Y6934D01*
X9755Y6933D01*
X9752Y6932D01*
X9749Y6930D01*
X9746Y6929D01*
X9743Y6928D01*
X9739Y6927D01*
X9736Y6926D01*
X9733Y6926D01*
X9730Y6925D01*
X9727Y6924D01*
X9723Y6923D01*
X9720Y6923D01*
X9717Y6922D01*
X9713Y6921D01*
X9710Y6921D01*
X9707Y6921D01*
X9704Y6920D01*
X9700Y6920D01*
X9697Y6920D01*
X9694Y6919D01*
X9690Y6919D01*
X9687Y6919D01*
X9684Y6919D01*
X9680D01*
X9677Y6919D01*
X9674Y6919D01*
X9670Y6919D01*
X9667Y6920D01*
X9664Y6920D01*
X9660Y6920D01*
X9657Y6921D01*
X9654Y6921D01*
X9651Y6921D01*
X9647Y6922D01*
X9644Y6923D01*
X9641Y6923D01*
X9637Y6924D01*
X9634Y6925D01*
X9631Y6926D01*
X9628Y6926D01*
X9625Y6927D01*
X9621Y6928D01*
X9618Y6929D01*
X9615Y6930D01*
X9612Y6932D01*
X9609Y6933D01*
X9606Y6934D01*
X9603Y6935D01*
X9600Y6937D01*
X9597Y6938D01*
X9594Y6940D01*
X9591Y6941D01*
X9588Y6943D01*
X9585Y6944D01*
X9582Y6946D01*
X9579Y6947D01*
X9576Y6949D01*
X9573Y6951D01*
X9571Y6953D01*
X9568Y6955D01*
X9565Y6957D01*
X9563Y6959D01*
X9560Y6961D01*
X9557Y6963D01*
X9555Y6965D01*
X9552Y6967D01*
X9550Y6969D01*
X9547Y6971D01*
X9545Y6974D01*
X9542Y6976D01*
X9540Y6978D01*
X9538Y6981D01*
X9535Y6983D01*
X9533Y6985D01*
X9531Y6988D01*
X9529Y6990D01*
X9527Y6993D01*
X9525Y6996D01*
X9523Y6998D01*
X9521Y7001D01*
X9519Y7004D01*
X9517Y7006D01*
X9515Y7009D01*
X9513Y7012D01*
X9511Y7015D01*
X9510Y7018D01*
X9508Y7020D01*
X9506Y7023D01*
X9505Y7026D01*
X9503Y7029D01*
X9502Y7032D01*
X9500Y7035D01*
X9499Y7038D01*
X9498Y7041D01*
X9496Y7044D01*
X9495Y7047D01*
X9494Y7051D01*
X9493Y7054D01*
X9492Y7057D01*
X9491Y7060D01*
X9490Y7063D01*
X9489Y7066D01*
X9488Y7070D01*
X9487Y7073D01*
X9487Y7076D01*
X9486Y7079D01*
X9485Y7083D01*
X9485Y7086D01*
X9484Y7089D01*
X9484Y7092D01*
X9483Y7096D01*
X9483Y7099D01*
X9483Y7102D01*
X9482Y7106D01*
X9482Y7109D01*
X9482Y7112D01*
X9482Y7116D01*
X9482Y7119D01*
X9482Y7122D01*
X9482Y7126D01*
X9482Y7129D01*
X9482Y7132D01*
X9483Y7136D01*
X9483Y7139D01*
X9483Y7142D01*
X9484Y7146D01*
X9484Y7149D01*
X9485Y7152D01*
X9485Y7155D01*
X9486Y7159D01*
X9487Y7162D01*
X9487Y7165D01*
X9488Y7168D01*
X9489Y7172D01*
X9490Y7175D01*
X9491Y7178D01*
X9492Y7181D01*
X9493Y7184D01*
X9494Y7187D01*
X9495Y7191D01*
X9496Y7194D01*
X9498Y7197D01*
X9499Y7200D01*
X9500Y7203D01*
X9502Y7206D01*
X9503Y7209D01*
X9505Y7212D01*
X9506Y7215D01*
X9508Y7218D01*
X9510Y7220D01*
X9511Y7223D01*
X9513Y7226D01*
X9515Y7229D01*
X9517Y7232D01*
X9519Y7234D01*
X9521Y7237D01*
X9523Y7240D01*
X9525Y7242D01*
X9527Y7245D01*
X9529Y7248D01*
X9531Y7250D01*
X9533Y7253D01*
X9535Y7255D01*
X9538Y7257D01*
X9540Y7260D01*
X9542Y7262D01*
X9545Y7264D01*
X9547Y7267D01*
X9550Y7269D01*
X9552Y7271D01*
X9555Y7273D01*
X9557Y7275D01*
X9560Y7277D01*
X9563Y7279D01*
X9565Y7281D01*
X9568Y7283D01*
X9571Y7285D01*
X9573Y7287D01*
X9576Y7289D01*
X9579Y7291D01*
X9582Y7292D01*
X9585Y7294D01*
X9588Y7295D01*
X9591Y7297D01*
X9594Y7298D01*
X9597Y7300D01*
X9600Y7301D01*
X9603Y7303D01*
X9606Y7304D01*
X9609Y7305D01*
X9612Y7306D01*
X9615Y7308D01*
X9618Y7309D01*
X9621Y7310D01*
X9625Y7311D01*
X9628Y7312D01*
X9631Y7312D01*
X9634Y7313D01*
X9637Y7314D01*
X9641Y7315D01*
X9644Y7315D01*
X9647Y7316D01*
X9651Y7317D01*
X9654Y7317D01*
X9657Y7317D01*
X9660Y7318D01*
X9664Y7318D01*
X9667Y7318D01*
X9670Y7319D01*
X9674Y7319D01*
X9677Y7319D01*
X9680Y7319D01*
X9684D01*
X9687Y7319D01*
X9690Y7319D01*
X9694Y7319D01*
X9697Y7318D01*
X9700Y7318D01*
X9704Y7318D01*
X9707Y7317D01*
X9710Y7317D01*
X9713Y7317D01*
X9717Y7316D01*
X9720Y7315D01*
X9723Y7315D01*
X9727Y7314D01*
X9730Y7313D01*
X9733Y7312D01*
X9736Y7312D01*
X9739Y7311D01*
X9743Y7310D01*
X9746Y7309D01*
X9749Y7308D01*
X9752Y7306D01*
X9755Y7305D01*
X9758Y7304D01*
X9761Y7303D01*
X9764Y7301D01*
X9767Y7300D01*
X9770Y7298D01*
X9773Y7297D01*
X9776Y7295D01*
X9779Y7294D01*
X9782Y7292D01*
X9785Y7291D01*
X9788Y7289D01*
X9791Y7287D01*
X9793Y7285D01*
X9796Y7283D01*
X9799Y7281D01*
X9801Y7279D01*
X9804Y7277D01*
X9807Y7275D01*
X9809Y7273D01*
X9812Y7271D01*
X9814Y7269D01*
X9817Y7267D01*
X9819Y7264D01*
X9822Y7262D01*
X9824Y7260D01*
X9826Y7257D01*
X9829Y7255D01*
X9831Y7253D01*
X9833Y7250D01*
X9835Y7248D01*
X9837Y7245D01*
X9839Y7242D01*
X9841Y7240D01*
X9843Y7237D01*
X9845Y7234D01*
X9847Y7232D01*
X9849Y7229D01*
X9851Y7226D01*
X9853Y7223D01*
X9854Y7220D01*
X9856Y7218D01*
X9858Y7215D01*
X9859Y7212D01*
X9861Y7209D01*
X9862Y7206D01*
X9864Y7203D01*
X9865Y7200D01*
X9866Y7197D01*
X9868Y7194D01*
X9869Y7191D01*
X9870Y7187D01*
X9871Y7184D01*
X9872Y7181D01*
X9873Y7178D01*
X9874Y7175D01*
X9875Y7172D01*
X9876Y7168D01*
X9877Y7165D01*
X9877Y7162D01*
X9878Y7159D01*
X9879Y7155D01*
X9879Y7152D01*
X9880Y7149D01*
X9880Y7146D01*
X9881Y7142D01*
X9881Y7139D01*
X9881Y7136D01*
X9882Y7132D01*
X9882Y7129D01*
X9882Y7126D01*
X9882Y7122D01*
X9882Y7119D01*
X7898Y6989D02*
X7898Y6986D01*
X7896Y6983D01*
X7894Y6980D01*
X7891Y6979D01*
X7888Y6978D01*
X7885Y6978D01*
X7881Y6979D01*
X7879Y6981D01*
X7877Y6984D01*
X7876Y6987D01*
Y6991D01*
X7877Y6994D01*
X7879Y6997D01*
X7881Y6999D01*
X7885Y7000D01*
X7888Y7000D01*
X7891Y6999D01*
X7894Y6998D01*
X7896Y6995D01*
X7898Y6992D01*
X7898Y6989D01*
Y7109D02*
X7898Y7106D01*
X7896Y7103D01*
X7894Y7100D01*
X7891Y7099D01*
X7888Y7098D01*
X7885Y7098D01*
X7881Y7099D01*
X7879Y7101D01*
X7877Y7104D01*
X7876Y7107D01*
Y7111D01*
X7877Y7114D01*
X7879Y7117D01*
X7881Y7119D01*
X7885Y7120D01*
X7888Y7120D01*
X7891Y7119D01*
X7894Y7118D01*
X7896Y7115D01*
X7898Y7112D01*
X7898Y7109D01*
X8023Y6989D02*
X8023Y6986D01*
X8021Y6983D01*
X8019Y6980D01*
X8016Y6979D01*
X8013Y6978D01*
X8010Y6978D01*
X8006Y6979D01*
X8004Y6981D01*
X8002Y6984D01*
X8001Y6987D01*
Y6991D01*
X8002Y6994D01*
X8004Y6997D01*
X8006Y6999D01*
X8010Y7000D01*
X8013Y7000D01*
X8016Y6999D01*
X8019Y6998D01*
X8021Y6995D01*
X8023Y6992D01*
X8023Y6989D01*
Y7109D02*
X8023Y7106D01*
X8021Y7103D01*
X8019Y7100D01*
X8016Y7099D01*
X8013Y7098D01*
X8010Y7098D01*
X8006Y7099D01*
X8004Y7101D01*
X8002Y7104D01*
X8001Y7107D01*
Y7111D01*
X8002Y7114D01*
X8004Y7117D01*
X8006Y7119D01*
X8010Y7120D01*
X8013Y7120D01*
X8016Y7119D01*
X8019Y7118D01*
X8021Y7115D01*
X8023Y7112D01*
X8023Y7109D01*
X7976Y7049D02*
X7976Y7046D01*
X7975Y7042D01*
X7974Y7039D01*
X7973Y7036D01*
X7971Y7033D01*
X7969Y7030D01*
X7967Y7028D01*
X7964Y7026D01*
X7962Y7024D01*
X7959Y7022D01*
X7955Y7021D01*
X7952Y7020D01*
X7949Y7020D01*
X7945D01*
X7942Y7020D01*
X7939Y7021D01*
X7935Y7022D01*
X7932Y7024D01*
X7930Y7026D01*
X7927Y7028D01*
X7925Y7030D01*
X7923Y7033D01*
X7921Y7036D01*
X7920Y7039D01*
X7919Y7042D01*
X7918Y7046D01*
X7918Y7049D01*
X7918Y7052D01*
X7919Y7056D01*
X7920Y7059D01*
X7921Y7062D01*
X7923Y7065D01*
X7925Y7068D01*
X7927Y7070D01*
X7930Y7072D01*
X7932Y7074D01*
X7935Y7076D01*
X7939Y7077D01*
X7942Y7078D01*
X7945Y7078D01*
X7949D01*
X7952Y7078D01*
X7955Y7077D01*
X7959Y7076D01*
X7962Y7074D01*
X7964Y7072D01*
X7967Y7070D01*
X7969Y7068D01*
X7971Y7065D01*
X7973Y7062D01*
X7974Y7059D01*
X7975Y7056D01*
X7976Y7052D01*
X7976Y7049D01*
X9222Y9639D02*
X9222Y9642D01*
X9221Y9646D01*
X9219Y9649D01*
X9217Y9652D01*
X9215Y9654D01*
X9212Y9656D01*
X9209Y9658D01*
X9205Y9659D01*
X9202Y9659D01*
X9172D02*
X9169Y9659D01*
X9165Y9658D01*
X9162Y9656D01*
X9159Y9654D01*
X9157Y9652D01*
X9155Y9649D01*
X9153Y9646D01*
X9152Y9642D01*
X9152Y9639D01*
X9144Y9560D02*
X9144Y9556D01*
X9143Y9553D01*
X9142Y9550D01*
X9140Y9547D01*
X9138Y9544D01*
X9136Y9542D01*
X9133Y9540D01*
X9130Y9539D01*
X9127Y9538D01*
X9124Y9537D01*
X9120D01*
X9117Y9538D01*
X9114Y9539D01*
X9111Y9540D01*
X9108Y9542D01*
X9106Y9544D01*
X9104Y9547D01*
X9102Y9550D01*
X9101Y9553D01*
X9100Y9556D01*
X9100Y9560D01*
X8298Y6989D02*
X8298Y6986D01*
X8296Y6983D01*
X8294Y6980D01*
X8291Y6979D01*
X8288Y6978D01*
X8285Y6978D01*
X8281Y6979D01*
X8279Y6981D01*
X8277Y6984D01*
X8276Y6987D01*
Y6991D01*
X8277Y6994D01*
X8279Y6997D01*
X8281Y6999D01*
X8285Y7000D01*
X8288Y7000D01*
X8291Y6999D01*
X8294Y6998D01*
X8296Y6995D01*
X8298Y6992D01*
X8298Y6989D01*
Y7109D02*
X8298Y7106D01*
X8296Y7103D01*
X8294Y7100D01*
X8291Y7099D01*
X8288Y7098D01*
X8285Y7098D01*
X8281Y7099D01*
X8279Y7101D01*
X8277Y7104D01*
X8276Y7107D01*
Y7111D01*
X8277Y7114D01*
X8279Y7117D01*
X8281Y7119D01*
X8285Y7120D01*
X8288Y7120D01*
X8291Y7119D01*
X8294Y7118D01*
X8296Y7115D01*
X8298Y7112D01*
X8298Y7109D01*
X8423Y6989D02*
X8423Y6986D01*
X8421Y6983D01*
X8419Y6980D01*
X8416Y6979D01*
X8413Y6978D01*
X8410Y6978D01*
X8406Y6979D01*
X8404Y6981D01*
X8402Y6984D01*
X8401Y6987D01*
Y6991D01*
X8402Y6994D01*
X8404Y6997D01*
X8406Y6999D01*
X8410Y7000D01*
X8413Y7000D01*
X8416Y6999D01*
X8419Y6998D01*
X8421Y6995D01*
X8423Y6992D01*
X8423Y6989D01*
Y7109D02*
X8423Y7106D01*
X8421Y7103D01*
X8419Y7100D01*
X8416Y7099D01*
X8413Y7098D01*
X8410Y7098D01*
X8406Y7099D01*
X8404Y7101D01*
X8402Y7104D01*
X8401Y7107D01*
Y7111D01*
X8402Y7114D01*
X8404Y7117D01*
X8406Y7119D01*
X8410Y7120D01*
X8413Y7120D01*
X8416Y7119D01*
X8419Y7118D01*
X8421Y7115D01*
X8423Y7112D01*
X8423Y7109D01*
X8376Y7049D02*
X8376Y7046D01*
X8375Y7042D01*
X8374Y7039D01*
X8373Y7036D01*
X8371Y7033D01*
X8369Y7030D01*
X8367Y7028D01*
X8364Y7026D01*
X8362Y7024D01*
X8359Y7022D01*
X8355Y7021D01*
X8352Y7020D01*
X8349Y7020D01*
X8345D01*
X8342Y7020D01*
X8339Y7021D01*
X8335Y7022D01*
X8332Y7024D01*
X8330Y7026D01*
X8327Y7028D01*
X8325Y7030D01*
X8323Y7033D01*
X8321Y7036D01*
X8320Y7039D01*
X8319Y7042D01*
X8318Y7046D01*
X8318Y7049D01*
X8318Y7052D01*
X8319Y7056D01*
X8320Y7059D01*
X8321Y7062D01*
X8323Y7065D01*
X8325Y7068D01*
X8327Y7070D01*
X8330Y7072D01*
X8332Y7074D01*
X8335Y7076D01*
X8339Y7077D01*
X8342Y7078D01*
X8345Y7078D01*
X8349D01*
X8352Y7078D01*
X8355Y7077D01*
X8359Y7076D01*
X8362Y7074D01*
X8364Y7072D01*
X8367Y7070D01*
X8369Y7068D01*
X8371Y7065D01*
X8373Y7062D01*
X8374Y7059D01*
X8375Y7056D01*
X8376Y7052D01*
X8376Y7049D01*
X7276Y9739D02*
X7276Y9736D01*
X7275Y9732D01*
X7275Y9729D01*
X7274Y9726D01*
X7273Y9723D01*
X7272Y9720D01*
X7271Y9717D01*
X7269Y9714D01*
X7267Y9711D01*
X7265Y9708D01*
X7263Y9706D01*
X7261Y9703D01*
X7258Y9701D01*
X7256Y9699D01*
X7253Y9697D01*
X7250Y9696D01*
X7247Y9694D01*
X7244Y9693D01*
X7241Y9692D01*
X7237Y9691D01*
X7234Y9690D01*
X7231Y9690D01*
X7228Y9690D01*
X7224Y9690D01*
X7221Y9690D01*
X7218Y9691D01*
X7214Y9691D01*
X7211Y9692D01*
X7208Y9693D01*
X7205Y9695D01*
X7202Y9696D01*
X7199Y9698D01*
X7197Y9700D01*
X7194Y9702D01*
X7192Y9704D01*
X7189Y9707D01*
X7187Y9710D01*
X7185Y9712D01*
X7184Y9715D01*
X7182Y9718D01*
X7181Y9721D01*
X7180Y9724D01*
X7179Y9727D01*
X7178Y9731D01*
X7178Y9734D01*
X7178Y9737D01*
Y9741D01*
X7178Y9744D01*
X7178Y9747D01*
X7179Y9751D01*
X7180Y9754D01*
X7181Y9757D01*
X7182Y9760D01*
X7184Y9763D01*
X7185Y9766D01*
X7187Y9768D01*
X7189Y9771D01*
X7192Y9774D01*
X7194Y9776D01*
X7197Y9778D01*
X7199Y9780D01*
X7202Y9782D01*
X7205Y9783D01*
X7208Y9785D01*
X7211Y9786D01*
X7214Y9787D01*
X7218Y9787D01*
X7221Y9788D01*
X7224Y9788D01*
X7228Y9788D01*
X7231Y9788D01*
X7234Y9788D01*
X7237Y9787D01*
X7241Y9786D01*
X7244Y9785D01*
X7247Y9784D01*
X7250Y9782D01*
X7253Y9781D01*
X7256Y9779D01*
X7258Y9777D01*
X7261Y9775D01*
X7263Y9772D01*
X7265Y9770D01*
X7267Y9767D01*
X7269Y9764D01*
X7271Y9761D01*
X7272Y9758D01*
X7273Y9755D01*
X7274Y9752D01*
X7275Y9749D01*
X7275Y9746D01*
X7276Y9742D01*
X7276Y9739D01*
Y7574D02*
X7276Y7570D01*
X7275Y7567D01*
X7275Y7564D01*
X7274Y7561D01*
X7273Y7557D01*
X7272Y7554D01*
X7271Y7551D01*
X7269Y7548D01*
X7267Y7546D01*
X7265Y7543D01*
X7263Y7540D01*
X7261Y7538D01*
X7258Y7536D01*
X7256Y7534D01*
X7253Y7532D01*
X7250Y7530D01*
X7247Y7529D01*
X7244Y7527D01*
X7241Y7526D01*
X7237Y7526D01*
X7234Y7525D01*
X7231Y7525D01*
X7228Y7524D01*
X7224Y7524D01*
X7221Y7525D01*
X7218Y7525D01*
X7214Y7526D01*
X7211Y7527D01*
X7208Y7528D01*
X7205Y7529D01*
X7202Y7531D01*
X7199Y7533D01*
X7197Y7535D01*
X7194Y7537D01*
X7192Y7539D01*
X7189Y7542D01*
X7187Y7544D01*
X7185Y7547D01*
X7184Y7550D01*
X7182Y7553D01*
X7181Y7556D01*
X7180Y7559D01*
X7179Y7562D01*
X7178Y7565D01*
X7178Y7569D01*
X7178Y7572D01*
Y7575D01*
X7178Y7579D01*
X7178Y7582D01*
X7179Y7585D01*
X7180Y7588D01*
X7181Y7592D01*
X7182Y7595D01*
X7184Y7598D01*
X7185Y7600D01*
X7187Y7603D01*
X7189Y7606D01*
X7192Y7608D01*
X7194Y7610D01*
X7197Y7613D01*
X7199Y7615D01*
X7202Y7616D01*
X7205Y7618D01*
X7208Y7619D01*
X7211Y7620D01*
X7214Y7621D01*
X7218Y7622D01*
X7221Y7623D01*
X7224Y7623D01*
X7228Y7623D01*
X7231Y7623D01*
X7234Y7622D01*
X7237Y7622D01*
X7241Y7621D01*
X7244Y7620D01*
X7247Y7619D01*
X7250Y7617D01*
X7253Y7615D01*
X7256Y7614D01*
X7258Y7612D01*
X7261Y7609D01*
X7263Y7607D01*
X7265Y7604D01*
X7267Y7602D01*
X7269Y7599D01*
X7271Y7596D01*
X7272Y7593D01*
X7273Y7590D01*
X7274Y7587D01*
X7275Y7584D01*
X7275Y7580D01*
X7276Y7577D01*
X7276Y7574D01*
X10504D02*
X10504Y7570D01*
X10504Y7567D01*
X10503Y7564D01*
X10502Y7561D01*
X10502Y7557D01*
X10500Y7554D01*
X10499Y7551D01*
X10497Y7548D01*
X10495Y7546D01*
X10493Y7543D01*
X10491Y7540D01*
X10489Y7538D01*
X10486Y7536D01*
X10484Y7534D01*
X10481Y7532D01*
X10478Y7530D01*
X10475Y7529D01*
X10472Y7527D01*
X10469Y7526D01*
X10466Y7526D01*
X10463Y7525D01*
X10459Y7525D01*
X10456Y7524D01*
X10453Y7524D01*
X10449Y7525D01*
X10446Y7525D01*
X10443Y7526D01*
X10440Y7527D01*
X10436Y7528D01*
X10433Y7529D01*
X10430Y7531D01*
X10428Y7533D01*
X10425Y7535D01*
X10422Y7537D01*
X10420Y7539D01*
X10418Y7542D01*
X10416Y7544D01*
X10414Y7547D01*
X10412Y7550D01*
X10411Y7553D01*
X10409Y7556D01*
X10408Y7559D01*
X10407Y7562D01*
X10407Y7565D01*
X10406Y7569D01*
X10406Y7572D01*
Y7575D01*
X10406Y7579D01*
X10407Y7582D01*
X10407Y7585D01*
X10408Y7588D01*
X10409Y7592D01*
X10411Y7595D01*
X10412Y7598D01*
X10414Y7600D01*
X10416Y7603D01*
X10418Y7606D01*
X10420Y7608D01*
X10422Y7610D01*
X10425Y7613D01*
X10428Y7615D01*
X10430Y7616D01*
X10433Y7618D01*
X10436Y7619D01*
X10440Y7620D01*
X10443Y7621D01*
X10446Y7622D01*
X10449Y7623D01*
X10453Y7623D01*
X10456Y7623D01*
X10459Y7623D01*
X10463Y7622D01*
X10466Y7622D01*
X10469Y7621D01*
X10472Y7620D01*
X10475Y7619D01*
X10478Y7617D01*
X10481Y7615D01*
X10484Y7614D01*
X10486Y7612D01*
X10489Y7609D01*
X10491Y7607D01*
X10493Y7604D01*
X10495Y7602D01*
X10497Y7599D01*
X10499Y7596D01*
X10500Y7593D01*
X10502Y7590D01*
X10502Y7587D01*
X10503Y7584D01*
X10504Y7580D01*
X10504Y7577D01*
X10504Y7574D01*
Y9739D02*
X10504Y9736D01*
X10504Y9732D01*
X10503Y9729D01*
X10502Y9726D01*
X10502Y9723D01*
X10500Y9720D01*
X10499Y9717D01*
X10497Y9714D01*
X10495Y9711D01*
X10493Y9708D01*
X10491Y9706D01*
X10489Y9703D01*
X10486Y9701D01*
X10484Y9699D01*
X10481Y9697D01*
X10478Y9696D01*
X10475Y9694D01*
X10472Y9693D01*
X10469Y9692D01*
X10466Y9691D01*
X10463Y9690D01*
X10459Y9690D01*
X10456Y9690D01*
X10453Y9690D01*
X10449Y9690D01*
X10446Y9691D01*
X10443Y9691D01*
X10440Y9692D01*
X10436Y9693D01*
X10433Y9695D01*
X10430Y9696D01*
X10428Y9698D01*
X10425Y9700D01*
X10422Y9702D01*
X10420Y9704D01*
X10418Y9707D01*
X10416Y9710D01*
X10414Y9712D01*
X10412Y9715D01*
X10411Y9718D01*
X10409Y9721D01*
X10408Y9724D01*
X10407Y9727D01*
X10407Y9731D01*
X10406Y9734D01*
X10406Y9737D01*
Y9741D01*
X10406Y9744D01*
X10407Y9747D01*
X10407Y9751D01*
X10408Y9754D01*
X10409Y9757D01*
X10411Y9760D01*
X10412Y9763D01*
X10414Y9766D01*
X10416Y9768D01*
X10418Y9771D01*
X10420Y9774D01*
X10422Y9776D01*
X10425Y9778D01*
X10428Y9780D01*
X10430Y9782D01*
X10433Y9783D01*
X10436Y9785D01*
X10440Y9786D01*
X10443Y9787D01*
X10446Y9787D01*
X10449Y9788D01*
X10453Y9788D01*
X10456Y9788D01*
X10459Y9788D01*
X10463Y9788D01*
X10466Y9787D01*
X10469Y9786D01*
X10472Y9785D01*
X10475Y9784D01*
X10478Y9782D01*
X10481Y9781D01*
X10484Y9779D01*
X10486Y9777D01*
X10489Y9775D01*
X10491Y9772D01*
X10493Y9770D01*
X10495Y9767D01*
X10497Y9764D01*
X10499Y9761D01*
X10500Y9758D01*
X10502Y9755D01*
X10502Y9752D01*
X10503Y9749D01*
X10504Y9746D01*
X10504Y9742D01*
X10504Y9739D01*
X10155Y9852D02*
Y6899D01*
Y9852D02*
X7202D01*
Y6899D01*
X10155D01*
X7112Y9852D02*
X7092D01*
Y6899D02*
X7112D01*
X7122Y9792D02*
X7102Y9852D01*
X7082Y9792D01*
X7122Y6959D02*
X7102Y6899D01*
X7082Y6959D01*
X7102Y8771D02*
Y9852D01*
Y7980D02*
Y6899D01*
X10155Y6809D02*
Y6789D01*
X7202D02*
Y6809D01*
X10095Y6779D02*
X10155Y6799D01*
X10095Y6819D01*
X7262Y6779D02*
X7202Y6799D01*
X7262Y6819D01*
X9074Y6799D02*
X10155D01*
X8283D02*
X7202D01*
X7182Y9852D02*
X7102D01*
Y6899D02*
X7182D01*
X10155Y6879D02*
Y6799D01*
X7202D02*
Y6879D01*
Y5274D02*
X11402D01*
Y6574D02*
X7202D01*
X11502Y6474D02*
Y5374D01*
X7102D02*
Y6474D01*
X9890Y9333D02*
X9890Y9330D01*
X9890Y9327D01*
X9889Y9323D01*
X9889Y9320D01*
X9888Y9317D01*
X9887Y9314D01*
X9886Y9310D01*
X9885Y9307D01*
X9884Y9304D01*
X9882Y9301D01*
X9881Y9298D01*
X9879Y9296D01*
X9877Y9293D01*
X9876Y9290D01*
X9873Y9288D01*
X9871Y9285D01*
X9869Y9283D01*
X9867Y9280D01*
X9864Y9278D01*
X9861Y9276D01*
X9859Y9274D01*
X9856Y9273D01*
X9853Y9271D01*
X9850Y9269D01*
X9847Y9268D01*
X9844Y9267D01*
X9841Y9266D01*
X9838Y9265D01*
X9835Y9264D01*
X9831Y9263D01*
X9828Y9263D01*
X9825Y9263D01*
X9822Y9262D01*
X9818Y9262D01*
X9815Y9262D01*
X9812Y9263D01*
X9808Y9263D01*
X9805Y9264D01*
X9802Y9264D01*
X9799Y9265D01*
X9796Y9266D01*
X9793Y9267D01*
X9790Y9269D01*
X9787Y9270D01*
X9784Y9272D01*
X9781Y9273D01*
X9778Y9275D01*
X9776Y9277D01*
X9773Y9279D01*
X9771Y9282D01*
X9768Y9284D01*
X9766Y9286D01*
X9764Y9289D01*
X9762Y9291D01*
X9760Y9294D01*
X9758Y9297D01*
X9757Y9300D01*
X9755Y9303D01*
X9754Y9306D01*
X9753Y9309D01*
X9752Y9312D01*
X9751Y9315D01*
X9750Y9318D01*
X9749Y9322D01*
X9749Y9325D01*
X9748Y9328D01*
X9748Y9331D01*
Y9335D01*
X9748Y9338D01*
X9749Y9341D01*
X9749Y9345D01*
X9750Y9348D01*
X9751Y9351D01*
X9752Y9354D01*
X9753Y9357D01*
X9754Y9360D01*
X9755Y9363D01*
X9757Y9366D01*
X9758Y9369D01*
X9760Y9372D01*
X9762Y9375D01*
X9764Y9377D01*
X9766Y9380D01*
X9768Y9382D01*
X9771Y9385D01*
X9773Y9387D01*
X9776Y9389D01*
X9778Y9391D01*
X9781Y9393D01*
X9784Y9395D01*
X9787Y9396D01*
X9790Y9398D01*
X9793Y9399D01*
X9796Y9400D01*
X9799Y9401D01*
X9802Y9402D01*
X9805Y9403D01*
X9808Y9403D01*
X9812Y9404D01*
X9815Y9404D01*
X9818Y9404D01*
X9822Y9404D01*
X9825Y9404D01*
X9828Y9403D01*
X9831Y9403D01*
X9835Y9402D01*
X9838Y9401D01*
X9841Y9401D01*
X9844Y9399D01*
X9847Y9398D01*
X9850Y9397D01*
X9853Y9395D01*
X9856Y9394D01*
X9859Y9392D01*
X9861Y9390D01*
X9864Y9388D01*
X9867Y9386D01*
X9869Y9384D01*
X9871Y9381D01*
X9873Y9379D01*
X9876Y9376D01*
X9877Y9373D01*
X9879Y9371D01*
X9881Y9368D01*
X9882Y9365D01*
X9884Y9362D01*
X9885Y9359D01*
X9886Y9356D01*
X9887Y9353D01*
X9888Y9349D01*
X9889Y9346D01*
X9889Y9343D01*
X9890Y9340D01*
X9890Y9336D01*
X9890Y9333D01*
Y8875D02*
X9890Y8872D01*
X9890Y8868D01*
X9889Y8865D01*
X9889Y8862D01*
X9888Y8859D01*
X9887Y8855D01*
X9886Y8852D01*
X9885Y8849D01*
X9884Y8846D01*
X9882Y8843D01*
X9881Y8840D01*
X9879Y8837D01*
X9877Y8835D01*
X9876Y8832D01*
X9873Y8829D01*
X9871Y8827D01*
X9869Y8824D01*
X9867Y8822D01*
X9864Y8820D01*
X9861Y8818D01*
X9859Y8816D01*
X9856Y8814D01*
X9853Y8813D01*
X9850Y8811D01*
X9847Y8810D01*
X9844Y8809D01*
X9841Y8807D01*
X9838Y8807D01*
X9835Y8806D01*
X9831Y8805D01*
X9828Y8805D01*
X9825Y8804D01*
X9822Y8804D01*
X9818Y8804D01*
X9815Y8804D01*
X9812Y8804D01*
X9808Y8805D01*
X9805Y8805D01*
X9802Y8806D01*
X9799Y8807D01*
X9796Y8808D01*
X9793Y8809D01*
X9790Y8810D01*
X9787Y8812D01*
X9784Y8813D01*
X9781Y8815D01*
X9778Y8817D01*
X9776Y8819D01*
X9773Y8821D01*
X9771Y8823D01*
X9768Y8826D01*
X9766Y8828D01*
X9764Y8831D01*
X9762Y8833D01*
X9760Y8836D01*
X9758Y8839D01*
X9757Y8842D01*
X9755Y8845D01*
X9754Y8848D01*
X9753Y8851D01*
X9752Y8854D01*
X9751Y8857D01*
X9750Y8860D01*
X9749Y8863D01*
X9749Y8867D01*
X9748Y8870D01*
X9748Y8873D01*
Y8877D01*
X9748Y8880D01*
X9749Y8883D01*
X9749Y8886D01*
X9750Y8890D01*
X9751Y8893D01*
X9752Y8896D01*
X9753Y8899D01*
X9754Y8902D01*
X9755Y8905D01*
X9757Y8908D01*
X9758Y8911D01*
X9760Y8914D01*
X9762Y8917D01*
X9764Y8919D01*
X9766Y8922D01*
X9768Y8924D01*
X9771Y8926D01*
X9773Y8929D01*
X9776Y8931D01*
X9778Y8933D01*
X9781Y8935D01*
X9784Y8936D01*
X9787Y8938D01*
X9790Y8939D01*
X9793Y8941D01*
X9796Y8942D01*
X9799Y8943D01*
X9802Y8944D01*
X9805Y8944D01*
X9808Y8945D01*
X9812Y8945D01*
X9815Y8946D01*
X9818Y8946D01*
X9822Y8946D01*
X9825Y8945D01*
X9828Y8945D01*
X9831Y8945D01*
X9835Y8944D01*
X9838Y8943D01*
X9841Y8942D01*
X9844Y8941D01*
X9847Y8940D01*
X9850Y8939D01*
X9853Y8937D01*
X9856Y8935D01*
X9859Y8934D01*
X9861Y8932D01*
X9864Y8930D01*
X9867Y8928D01*
X9869Y8925D01*
X9871Y8923D01*
X9873Y8920D01*
X9876Y8918D01*
X9877Y8915D01*
X9879Y8912D01*
X9881Y8910D01*
X9882Y8907D01*
X9884Y8904D01*
X9885Y8901D01*
X9886Y8898D01*
X9887Y8894D01*
X9888Y8891D01*
X9889Y8888D01*
X9889Y8885D01*
X9890Y8881D01*
X9890Y8878D01*
X9890Y8875D01*
X7402Y7039D02*
X7402Y7036D01*
X7402Y7032D01*
X7401Y7029D01*
X7401Y7026D01*
X7400Y7023D01*
X7399Y7020D01*
X7398Y7016D01*
X7396Y7013D01*
X7395Y7010D01*
X7393Y7008D01*
X7391Y7005D01*
X7389Y7002D01*
X7387Y7000D01*
X7385Y6997D01*
X7383Y6995D01*
X7380Y6993D01*
X7378Y6991D01*
X7375Y6989D01*
X7372Y6987D01*
X7369Y6985D01*
X7366Y6984D01*
X7363Y6983D01*
X7360Y6982D01*
X7357Y6981D01*
X7354Y6980D01*
X7350Y6980D01*
X7347Y6979D01*
X7344Y6979D01*
X7340D01*
X7337Y6979D01*
X7334Y6980D01*
X7330Y6980D01*
X7327Y6981D01*
X7324Y6982D01*
X7321Y6983D01*
X7318Y6984D01*
X7315Y6985D01*
X7312Y6987D01*
X7309Y6989D01*
X7306Y6991D01*
X7304Y6993D01*
X7301Y6995D01*
X7299Y6997D01*
X7297Y7000D01*
X7295Y7002D01*
X7293Y7005D01*
X7291Y7008D01*
X7289Y7010D01*
X7288Y7013D01*
X7286Y7016D01*
X7285Y7020D01*
X7284Y7023D01*
X7283Y7026D01*
X7283Y7029D01*
X7282Y7032D01*
X7282Y7036D01*
X7282Y7039D01*
X7282Y7042D01*
X7282Y7046D01*
X7283Y7049D01*
X7283Y7052D01*
X7284Y7055D01*
X7285Y7058D01*
X7286Y7062D01*
X7288Y7065D01*
X7289Y7068D01*
X7291Y7070D01*
X7293Y7073D01*
X7295Y7076D01*
X7297Y7078D01*
X7299Y7081D01*
X7301Y7083D01*
X7304Y7085D01*
X7306Y7087D01*
X7309Y7089D01*
X7312Y7091D01*
X7315Y7093D01*
X7318Y7094D01*
X7321Y7095D01*
X7324Y7096D01*
X7327Y7097D01*
X7330Y7098D01*
X7334Y7098D01*
X7337Y7099D01*
X7340Y7099D01*
X7344D01*
X7347Y7099D01*
X7350Y7098D01*
X7354Y7098D01*
X7357Y7097D01*
X7360Y7096D01*
X7363Y7095D01*
X7366Y7094D01*
X7369Y7093D01*
X7372Y7091D01*
X7375Y7089D01*
X7378Y7087D01*
X7380Y7085D01*
X7383Y7083D01*
X7385Y7081D01*
X7387Y7078D01*
X7389Y7076D01*
X7391Y7073D01*
X7393Y7070D01*
X7395Y7068D01*
X7396Y7065D01*
X7398Y7062D01*
X7399Y7058D01*
X7400Y7055D01*
X7401Y7052D01*
X7401Y7049D01*
X7402Y7046D01*
X7402Y7042D01*
X7402Y7039D01*
X10082Y9719D02*
X10082Y9716D01*
X10082Y9712D01*
X10081Y9709D01*
X10081Y9706D01*
X10080Y9703D01*
X10079Y9700D01*
X10078Y9696D01*
X10076Y9693D01*
X10075Y9690D01*
X10073Y9688D01*
X10071Y9685D01*
X10069Y9682D01*
X10067Y9680D01*
X10065Y9677D01*
X10063Y9675D01*
X10060Y9673D01*
X10058Y9671D01*
X10055Y9669D01*
X10052Y9667D01*
X10049Y9665D01*
X10046Y9664D01*
X10043Y9663D01*
X10040Y9662D01*
X10037Y9661D01*
X10034Y9660D01*
X10030Y9660D01*
X10027Y9659D01*
X10024Y9659D01*
X10020D01*
X10017Y9659D01*
X10014Y9660D01*
X10010Y9660D01*
X10007Y9661D01*
X10004Y9662D01*
X10001Y9663D01*
X9998Y9664D01*
X9995Y9665D01*
X9992Y9667D01*
X9989Y9669D01*
X9986Y9671D01*
X9984Y9673D01*
X9981Y9675D01*
X9979Y9677D01*
X9977Y9680D01*
X9975Y9682D01*
X9973Y9685D01*
X9971Y9688D01*
X9969Y9690D01*
X9968Y9693D01*
X9966Y9696D01*
X9965Y9700D01*
X9964Y9703D01*
X9963Y9706D01*
X9963Y9709D01*
X9962Y9712D01*
X9962Y9716D01*
X9962Y9719D01*
X9962Y9722D01*
X9962Y9726D01*
X9963Y9729D01*
X9963Y9732D01*
X9964Y9735D01*
X9965Y9738D01*
X9966Y9742D01*
X9968Y9745D01*
X9969Y9748D01*
X9971Y9750D01*
X9973Y9753D01*
X9975Y9756D01*
X9977Y9758D01*
X9979Y9761D01*
X9981Y9763D01*
X9984Y9765D01*
X9986Y9767D01*
X9989Y9769D01*
X9992Y9771D01*
X9995Y9773D01*
X9998Y9774D01*
X10001Y9775D01*
X10004Y9776D01*
X10007Y9777D01*
X10010Y9778D01*
X10014Y9778D01*
X10017Y9779D01*
X10020Y9779D01*
X10024D01*
X10027Y9779D01*
X10030Y9778D01*
X10034Y9778D01*
X10037Y9777D01*
X10040Y9776D01*
X10043Y9775D01*
X10046Y9774D01*
X10049Y9773D01*
X10052Y9771D01*
X10055Y9769D01*
X10058Y9767D01*
X10060Y9765D01*
X10063Y9763D01*
X10065Y9761D01*
X10067Y9758D01*
X10069Y9756D01*
X10071Y9753D01*
X10073Y9750D01*
X10075Y9748D01*
X10076Y9745D01*
X10078Y9742D01*
X10079Y9738D01*
X10080Y9735D01*
X10081Y9732D01*
X10081Y9729D01*
X10082Y9726D01*
X10082Y9722D01*
X10082Y9719D01*
Y7039D02*
X10082Y7036D01*
X10082Y7032D01*
X10081Y7029D01*
X10081Y7026D01*
X10080Y7023D01*
X10079Y7020D01*
X10078Y7016D01*
X10076Y7013D01*
X10075Y7010D01*
X10073Y7008D01*
X10071Y7005D01*
X10069Y7002D01*
X10067Y7000D01*
X10065Y6997D01*
X10063Y6995D01*
X10060Y6993D01*
X10058Y6991D01*
X10055Y6989D01*
X10052Y6987D01*
X10049Y6985D01*
X10046Y6984D01*
X10043Y6983D01*
X10040Y6982D01*
X10037Y6981D01*
X10034Y6980D01*
X10030Y6980D01*
X10027Y6979D01*
X10024Y6979D01*
X10020D01*
X10017Y6979D01*
X10014Y6980D01*
X10010Y6980D01*
X10007Y6981D01*
X10004Y6982D01*
X10001Y6983D01*
X9998Y6984D01*
X9995Y6985D01*
X9992Y6987D01*
X9989Y6989D01*
X9986Y6991D01*
X9984Y6993D01*
X9981Y6995D01*
X9979Y6997D01*
X9977Y7000D01*
X9975Y7002D01*
X9973Y7005D01*
X9971Y7008D01*
X9969Y7010D01*
X9968Y7013D01*
X9966Y7016D01*
X9965Y7020D01*
X9964Y7023D01*
X9963Y7026D01*
X9963Y7029D01*
X9962Y7032D01*
X9962Y7036D01*
X9962Y7039D01*
X9962Y7042D01*
X9962Y7046D01*
X9963Y7049D01*
X9963Y7052D01*
X9964Y7055D01*
X9965Y7058D01*
X9966Y7062D01*
X9968Y7065D01*
X9969Y7068D01*
X9971Y7070D01*
X9973Y7073D01*
X9975Y7076D01*
X9977Y7078D01*
X9979Y7081D01*
X9981Y7083D01*
X9984Y7085D01*
X9986Y7087D01*
X9989Y7089D01*
X9992Y7091D01*
X9995Y7093D01*
X9998Y7094D01*
X10001Y7095D01*
X10004Y7096D01*
X10007Y7097D01*
X10010Y7098D01*
X10014Y7098D01*
X10017Y7099D01*
X10020Y7099D01*
X10024D01*
X10027Y7099D01*
X10030Y7098D01*
X10034Y7098D01*
X10037Y7097D01*
X10040Y7096D01*
X10043Y7095D01*
X10046Y7094D01*
X10049Y7093D01*
X10052Y7091D01*
X10055Y7089D01*
X10058Y7087D01*
X10060Y7085D01*
X10063Y7083D01*
X10065Y7081D01*
X10067Y7078D01*
X10069Y7076D01*
X10071Y7073D01*
X10073Y7070D01*
X10075Y7068D01*
X10076Y7065D01*
X10078Y7062D01*
X10079Y7058D01*
X10080Y7055D01*
X10081Y7052D01*
X10081Y7049D01*
X10082Y7046D01*
X10082Y7042D01*
X10082Y7039D01*
X7402Y9719D02*
X7402Y9716D01*
X7402Y9712D01*
X7401Y9709D01*
X7401Y9706D01*
X7400Y9703D01*
X7399Y9700D01*
X7398Y9696D01*
X7396Y9693D01*
X7395Y9690D01*
X7393Y9688D01*
X7391Y9685D01*
X7389Y9682D01*
X7387Y9680D01*
X7385Y9677D01*
X7383Y9675D01*
X7380Y9673D01*
X7378Y9671D01*
X7375Y9669D01*
X7372Y9667D01*
X7369Y9665D01*
X7366Y9664D01*
X7363Y9663D01*
X7360Y9662D01*
X7357Y9661D01*
X7354Y9660D01*
X7350Y9660D01*
X7347Y9659D01*
X7344Y9659D01*
X7340D01*
X7337Y9659D01*
X7334Y9660D01*
X7330Y9660D01*
X7327Y9661D01*
X7324Y9662D01*
X7321Y9663D01*
X7318Y9664D01*
X7315Y9665D01*
X7312Y9667D01*
X7309Y9669D01*
X7306Y9671D01*
X7304Y9673D01*
X7301Y9675D01*
X7299Y9677D01*
X7297Y9680D01*
X7295Y9682D01*
X7293Y9685D01*
X7291Y9688D01*
X7289Y9690D01*
X7288Y9693D01*
X7286Y9696D01*
X7285Y9700D01*
X7284Y9703D01*
X7283Y9706D01*
X7283Y9709D01*
X7282Y9712D01*
X7282Y9716D01*
X7282Y9719D01*
X7282Y9722D01*
X7282Y9726D01*
X7283Y9729D01*
X7283Y9732D01*
X7284Y9735D01*
X7285Y9738D01*
X7286Y9742D01*
X7288Y9745D01*
X7289Y9748D01*
X7291Y9750D01*
X7293Y9753D01*
X7295Y9756D01*
X7297Y9758D01*
X7299Y9761D01*
X7301Y9763D01*
X7304Y9765D01*
X7306Y9767D01*
X7309Y9769D01*
X7312Y9771D01*
X7315Y9773D01*
X7318Y9774D01*
X7321Y9775D01*
X7324Y9776D01*
X7327Y9777D01*
X7330Y9778D01*
X7334Y9778D01*
X7337Y9779D01*
X7340Y9779D01*
X7344D01*
X7347Y9779D01*
X7350Y9778D01*
X7354Y9778D01*
X7357Y9777D01*
X7360Y9776D01*
X7363Y9775D01*
X7366Y9774D01*
X7369Y9773D01*
X7372Y9771D01*
X7375Y9769D01*
X7378Y9767D01*
X7380Y9765D01*
X7383Y9763D01*
X7385Y9761D01*
X7387Y9758D01*
X7389Y9756D01*
X7391Y9753D01*
X7393Y9750D01*
X7395Y9748D01*
X7396Y9745D01*
X7398Y9742D01*
X7399Y9738D01*
X7400Y9735D01*
X7401Y9732D01*
X7401Y9729D01*
X7402Y9726D01*
X7402Y9722D01*
X7402Y9719D01*
X7202Y6574D02*
X7199Y6574D01*
X7195Y6574D01*
X7192Y6574D01*
X7189Y6573D01*
X7186Y6573D01*
X7182Y6572D01*
X7179Y6571D01*
X7176Y6571D01*
X7173Y6570D01*
X7170Y6569D01*
X7167Y6568D01*
X7164Y6566D01*
X7161Y6565D01*
X7158Y6564D01*
X7155Y6562D01*
X7152Y6561D01*
X7149Y6559D01*
X7146Y6557D01*
X7144Y6555D01*
X7141Y6553D01*
X7139Y6551D01*
X7136Y6549D01*
X7134Y6547D01*
X7131Y6545D01*
X7129Y6542D01*
X7127Y6540D01*
X7125Y6537D01*
X7123Y6535D01*
X7121Y6532D01*
X7119Y6530D01*
X7117Y6527D01*
X7115Y6524D01*
X7114Y6521D01*
X7112Y6518D01*
X7111Y6515D01*
X7110Y6512D01*
X7108Y6509D01*
X7107Y6506D01*
X7106Y6503D01*
X7105Y6500D01*
X7105Y6497D01*
X7104Y6494D01*
X7103Y6490D01*
X7103Y6487D01*
X7102Y6484D01*
X7102Y6481D01*
X7102Y6477D01*
X7102Y6474D01*
Y5375D02*
X7102Y5372D01*
X7102Y5368D01*
X7102Y5365D01*
X7103Y5362D01*
X7103Y5359D01*
X7104Y5356D01*
X7105Y5352D01*
X7105Y5349D01*
X7106Y5346D01*
X7107Y5343D01*
X7108Y5340D01*
X7110Y5337D01*
X7111Y5334D01*
X7112Y5331D01*
X7114Y5328D01*
X7115Y5325D01*
X7117Y5322D01*
X7119Y5319D01*
X7120Y5317D01*
X7122Y5314D01*
X7124Y5312D01*
X7127Y5309D01*
X7129Y5307D01*
X7131Y5304D01*
X7133Y5302D01*
X7136Y5300D01*
X7138Y5298D01*
X7141Y5296D01*
X7143Y5294D01*
X7146Y5292D01*
X7149Y5290D01*
X7151Y5288D01*
X7154Y5287D01*
X7157Y5285D01*
X7160Y5284D01*
X7163Y5282D01*
X7166Y5281D01*
X7169Y5280D01*
X7172Y5279D01*
X7175Y5278D01*
X7179Y5277D01*
X7182Y5276D01*
X7185Y5276D01*
X7188Y5275D01*
X7191Y5275D01*
X7195Y5274D01*
X7198Y5274D01*
X7201Y5274D01*
X11402Y5274D02*
X11405Y5274D01*
X11409Y5274D01*
X11412Y5274D01*
X11415Y5275D01*
X11418Y5275D01*
X11422Y5276D01*
X11425Y5277D01*
X11428Y5277D01*
X11431Y5278D01*
X11434Y5279D01*
X11437Y5280D01*
X11440Y5282D01*
X11443Y5283D01*
X11446Y5284D01*
X11449Y5286D01*
X11452Y5287D01*
X11455Y5289D01*
X11458Y5291D01*
X11460Y5293D01*
X11463Y5295D01*
X11465Y5297D01*
X11468Y5299D01*
X11470Y5301D01*
X11473Y5303D01*
X11475Y5306D01*
X11477Y5308D01*
X11479Y5311D01*
X11481Y5313D01*
X11483Y5316D01*
X11485Y5318D01*
X11487Y5321D01*
X11489Y5324D01*
X11490Y5327D01*
X11492Y5330D01*
X11493Y5333D01*
X11494Y5336D01*
X11496Y5339D01*
X11497Y5342D01*
X11498Y5345D01*
X11499Y5348D01*
X11499Y5351D01*
X11500Y5354D01*
X11501Y5358D01*
X11501Y5361D01*
X11502Y5364D01*
X11502Y5367D01*
X11502Y5371D01*
X11502Y5374D01*
Y6474D02*
X11502Y6477D01*
X11502Y6481D01*
X11502Y6484D01*
X11501Y6487D01*
X11501Y6490D01*
X11500Y6494D01*
X11499Y6497D01*
X11499Y6500D01*
X11498Y6503D01*
X11497Y6506D01*
X11496Y6509D01*
X11494Y6512D01*
X11493Y6515D01*
X11492Y6518D01*
X11490Y6521D01*
X11489Y6524D01*
X11487Y6527D01*
X11485Y6530D01*
X11483Y6532D01*
X11481Y6535D01*
X11479Y6537D01*
X11477Y6540D01*
X11475Y6542D01*
X11473Y6545D01*
X11470Y6547D01*
X11468Y6549D01*
X11465Y6551D01*
X11463Y6553D01*
X11460Y6555D01*
X11458Y6557D01*
X11455Y6559D01*
X11452Y6561D01*
X11449Y6562D01*
X11446Y6564D01*
X11443Y6565D01*
X11440Y6566D01*
X11437Y6568D01*
X11434Y6569D01*
X11431Y6570D01*
X11428Y6571D01*
X11425Y6571D01*
X11422Y6572D01*
X11418Y6573D01*
X11415Y6573D01*
X11412Y6574D01*
X11409Y6574D01*
X11405Y6574D01*
X11402Y6574D01*
D18*
X9147Y8824D02*
Y8899D01*
X9057D02*
Y8824D01*
Y8784D02*
Y8709D01*
X9147D02*
Y8784D01*
Y8899D02*
X9057D01*
Y8709D02*
X9147D01*
X7697Y8919D02*
Y9019D01*
X7462D02*
Y8919D01*
X7622Y9019D02*
X7697D01*
Y8919D02*
X7622D01*
X7537D02*
X7462D01*
Y9019D02*
X7537D01*
X7617Y9224D02*
X7692D01*
Y9314D02*
X7617D01*
X7577D02*
X7502D01*
Y9224D02*
X7577D01*
X7692D02*
Y9314D01*
X7502D02*
Y9224D01*
X7697Y8829D02*
X7787D01*
Y9019D02*
X7697D01*
X7787Y8904D02*
Y8829D01*
X7697D02*
Y8904D01*
Y8944D02*
Y9019D01*
X7787D02*
Y8944D01*
Y9299D02*
X7697D01*
Y9109D02*
X7787D01*
X7697Y9224D02*
Y9299D01*
X7787D02*
Y9224D01*
Y9184D02*
Y9109D01*
X7697D02*
Y9184D01*
X8822Y7719D02*
Y7639D01*
Y7719D02*
X9062D01*
Y7639D01*
X8822D01*
Y7539D02*
X9062D01*
Y7619D01*
X8822D01*
Y7539D01*
X8582Y7164D02*
Y7074D01*
X8772D02*
Y7164D01*
X8657Y7074D02*
X8582D01*
Y7164D02*
X8657D01*
X8697D02*
X8772D01*
Y7074D02*
X8697D01*
X8669Y6954D02*
X8640D01*
X9432Y7069D02*
Y7169D01*
X9382Y7119D02*
X9482D01*
X7367Y7334D02*
Y7424D01*
X7557D02*
Y7334D01*
X7442D02*
X7367D01*
Y7424D02*
X7442D01*
X7482D02*
X7557D01*
Y7334D02*
X7482D01*
X9697Y9749D02*
X9787D01*
Y9559D02*
X9697D01*
Y9674D02*
Y9749D01*
X9787D02*
Y9674D01*
Y9634D02*
Y9559D01*
X9697D02*
Y9634D01*
X8747Y9539D02*
X8657D01*
Y9349D02*
X8747D01*
X8657Y9464D02*
Y9539D01*
X8747D02*
Y9464D01*
Y9424D02*
Y9349D01*
X8657D02*
Y9424D01*
X9057Y9109D02*
X9147D01*
Y9299D02*
X9057D01*
X9147Y9184D02*
Y9109D01*
X9057D02*
Y9184D01*
Y9224D02*
Y9299D01*
X9147D02*
Y9224D01*
X9357Y9749D02*
X9447D01*
Y9559D02*
X9357D01*
Y9674D02*
Y9749D01*
X9447D02*
Y9674D01*
Y9634D02*
Y9559D01*
X9357D02*
Y9634D01*
X8747Y8899D02*
X8657D01*
Y8709D02*
X8747D01*
X8657Y8824D02*
Y8899D01*
X8747D02*
Y8824D01*
Y8784D02*
Y8709D01*
X8657D02*
Y8784D01*
X9282Y9434D02*
Y9524D01*
X9092D02*
Y9434D01*
X9207Y9524D02*
X9282D01*
Y9434D02*
X9207D01*
X9167D02*
X9092D01*
Y9524D02*
X9167D01*
X8747Y9299D02*
X8657D01*
Y9109D02*
X8747D01*
X8657Y9224D02*
Y9299D01*
X8747D02*
Y9224D01*
Y9184D02*
Y9109D01*
X8657D02*
Y9184D01*
X9517Y9774D02*
X9562D01*
Y9659D02*
X9517D01*
Y9754D02*
Y9774D01*
X9607Y9719D02*
Y9714D01*
X9517Y9679D02*
Y9659D01*
X8902Y8954D02*
X8857D01*
Y8839D02*
X8902D01*
X8857Y8934D02*
Y8954D01*
X8947Y8899D02*
Y8894D01*
X8857Y8859D02*
Y8839D01*
X8897Y9404D02*
X8942D01*
Y9519D02*
X8897D01*
X8942Y9424D02*
Y9404D01*
X8852Y9459D02*
Y9464D01*
X8942Y9499D02*
Y9519D01*
X8902Y9134D02*
X8857D01*
Y9019D02*
X8902D01*
X8857Y9114D02*
Y9134D01*
X8947Y9079D02*
Y9074D01*
X8857Y9039D02*
Y9019D01*
X9175Y9624D02*
X9204D01*
X8857Y9219D02*
Y9199D01*
X8947Y9254D02*
Y9259D01*
X8857Y9294D02*
Y9314D01*
Y9199D02*
X8902D01*
Y9314D02*
X8857D01*
X9607Y9559D02*
Y9579D01*
X9517Y9524D02*
Y9519D01*
X9607Y9484D02*
Y9464D01*
Y9579D02*
X9562D01*
Y9464D02*
X9607D01*
X8857Y8659D02*
Y8639D01*
X8947Y8694D02*
Y8699D01*
X8857Y8734D02*
Y8754D01*
Y8639D02*
X8902D01*
Y8754D02*
X8857D01*
X7567Y8339D02*
X7477D01*
Y8149D02*
X7567D01*
X7477Y8264D02*
Y8339D01*
X7567D02*
Y8264D01*
Y8224D02*
Y8149D01*
X7477D02*
Y8224D01*
X7617Y8594D02*
X7692D01*
Y8684D02*
X7617D01*
X7577D02*
X7502D01*
Y8594D02*
X7577D01*
X7692D02*
Y8684D01*
X7502D02*
Y8594D01*
X8417Y9089D02*
Y9164D01*
X8507D02*
Y9089D01*
Y9204D02*
Y9279D01*
X8417D02*
Y9204D01*
Y9089D02*
X8507D01*
Y9279D02*
X8417D01*
Y8884D02*
Y8809D01*
X8507D02*
Y8884D01*
Y8924D02*
Y8999D01*
X8417D02*
Y8924D01*
Y8809D02*
X8507D01*
Y8999D02*
X8417D01*
X7692Y8814D02*
X7617D01*
Y8904D02*
X7692D01*
X7577D02*
X7502D01*
Y8814D02*
X7577D01*
X7692D02*
Y8904D01*
X7502D02*
Y8814D01*
X7537Y9209D02*
X7462D01*
Y9109D02*
X7537D01*
X7622D02*
X7697D01*
Y9209D02*
X7622D01*
X7462D02*
Y9109D01*
X7697D02*
Y9209D01*
X8317Y9164D02*
Y9089D01*
X8407D02*
Y9164D01*
Y9204D02*
Y9279D01*
X8317D02*
Y9204D01*
Y9089D02*
X8407D01*
Y9279D02*
X8317D01*
Y8884D02*
Y8809D01*
X8407D02*
Y8884D01*
Y8924D02*
Y8999D01*
X8317D02*
Y8924D01*
Y8809D02*
X8407D01*
Y8999D02*
X8317D01*
X7367Y7824D02*
Y7734D01*
X7557D02*
Y7824D01*
X7442Y7734D02*
X7367D01*
Y7824D02*
X7442D01*
X7482D02*
X7557D01*
Y7734D02*
X7482D01*
X7367Y7724D02*
Y7634D01*
X7557D02*
Y7724D01*
X7442Y7634D02*
X7367D01*
Y7724D02*
X7442D01*
X7482D02*
X7557D01*
Y7634D02*
X7482D01*
X7367Y7624D02*
Y7534D01*
X7557D02*
Y7624D01*
X7442Y7534D02*
X7367D01*
Y7624D02*
X7442D01*
X7482D02*
X7557D01*
Y7534D02*
X7482D01*
X7367Y7524D02*
Y7434D01*
X7557D02*
Y7524D01*
X7442Y7434D02*
X7367D01*
Y7524D02*
X7442D01*
X7482D02*
X7557D01*
Y7434D02*
X7482D01*
D20*
X7352Y8349D02*
Y9549D01*
X7252D01*
Y8349D01*
X7352D01*
Y8449D02*
X7252D01*
X9425Y9406D02*
X10149D01*
Y8800D02*
X9425D01*
X10149D02*
Y9406D01*
X9425D02*
Y8800D01*
X9386Y6907D02*
X8858D01*
Y7175D01*
X9386D02*
Y6907D01*
X9189Y6734D02*
X9055D01*
Y6907D01*
X9189D02*
Y6734D01*
X9386Y7124D02*
X8858D01*
X9602Y7356D02*
Y7722D01*
X10149D01*
Y7356D02*
X9602D01*
X10149D02*
Y7722D01*
X10009D02*
Y7356D01*
X8872Y9689D02*
X7472D01*
X8872D02*
Y9789D01*
X7472D01*
Y9689D01*
X7572D02*
Y9789D01*
X7128Y9837D02*
X10553D01*
Y7475D02*
X7128D01*
Y9837D01*
X10553D02*
Y7475D01*
D22*
X10702Y5324D02*
X9027D01*
X8877D02*
X7202D01*
Y5524D02*
X8877D01*
X9027D02*
X10702D01*
X10852Y5324D02*
X11402D01*
Y5524D02*
X10852D01*
X10152Y6524D02*
X7202D01*
Y5574D02*
X7952D01*
Y5899D02*
X7202D01*
Y5949D02*
X7952D01*
Y6274D02*
X7202D01*
Y6324D02*
X10152D01*
Y6274D02*
X8102D01*
Y5799D02*
X9702D01*
Y5574D02*
X8102D01*
X9852D02*
X10152D01*
Y5799D02*
X9852D01*
X10302Y5574D02*
X11402D01*
Y6524D02*
X10302D01*
X10152Y5849D02*
X8102D01*
X10302D02*
X11402D01*
Y5799D02*
X10302D01*
X8927Y5474D02*
Y5374D01*
X8977D02*
Y5474D01*
X10752D02*
Y5374D01*
X10802D02*
Y5474D01*
X7152Y5624D02*
Y5849D01*
X8002D02*
Y5624D01*
X7152Y5999D02*
Y6224D01*
X8002D02*
Y5999D01*
X7152Y6374D02*
Y6474D01*
X10202D02*
Y6374D01*
Y6224D02*
Y5899D01*
X8052D02*
Y6224D01*
X9752Y5749D02*
Y5624D01*
X8052D02*
Y5749D01*
X9802D02*
Y5624D01*
X10202D02*
Y5749D01*
X11452Y5474D02*
Y5374D01*
Y5624D02*
Y5724D01*
X7152Y5474D02*
Y5374D01*
X10252Y5899D02*
Y6474D01*
X11452D02*
Y5899D01*
X10252Y5749D02*
Y5624D01*
X11403Y5799D02*
X11406Y5799D01*
X11409Y5799D01*
X11413Y5798D01*
X11416Y5797D01*
X11419Y5796D01*
X11422Y5795D01*
X11425Y5794D01*
X11428Y5792D01*
X11430Y5791D01*
X11433Y5789D01*
X11435Y5787D01*
X11438Y5785D01*
X11440Y5782D01*
X11442Y5780D01*
X11444Y5777D01*
X11445Y5774D01*
X11447Y5772D01*
X11448Y5769D01*
X11449Y5766D01*
X11450Y5763D01*
X11451Y5760D01*
X11452Y5756D01*
X11452Y5753D01*
X11452Y5750D01*
X10302Y5799D02*
X10299Y5799D01*
X10295Y5799D01*
X10292Y5798D01*
X10289Y5797D01*
X10286Y5796D01*
X10283Y5795D01*
X10280Y5794D01*
X10277Y5792D01*
X10274Y5791D01*
X10272Y5789D01*
X10269Y5787D01*
X10267Y5784D01*
X10264Y5782D01*
X10262Y5779D01*
X10260Y5777D01*
X10259Y5774D01*
X10257Y5771D01*
X10256Y5768D01*
X10255Y5765D01*
X10254Y5762D01*
X10253Y5759D01*
X10252Y5756D01*
X10252Y5752D01*
X10252Y5749D01*
X11402Y5849D02*
X11405Y5849D01*
X11409Y5849D01*
X11412Y5850D01*
X11415Y5851D01*
X11418Y5852D01*
X11421Y5853D01*
X11424Y5854D01*
X11427Y5856D01*
X11430Y5857D01*
X11432Y5859D01*
X11435Y5861D01*
X11437Y5864D01*
X11440Y5866D01*
X11442Y5869D01*
X11444Y5871D01*
X11445Y5874D01*
X11447Y5877D01*
X11448Y5880D01*
X11449Y5883D01*
X11450Y5886D01*
X11451Y5889D01*
X11452Y5892D01*
X11452Y5896D01*
X11452Y5899D01*
X10302Y5849D02*
X10299Y5849D01*
X10295Y5849D01*
X10292Y5850D01*
X10289Y5851D01*
X10286Y5852D01*
X10283Y5853D01*
X10280Y5854D01*
X10277Y5856D01*
X10274Y5857D01*
X10272Y5859D01*
X10269Y5861D01*
X10267Y5864D01*
X10264Y5866D01*
X10262Y5869D01*
X10260Y5871D01*
X10259Y5874D01*
X10257Y5877D01*
X10256Y5880D01*
X10255Y5883D01*
X10254Y5886D01*
X10253Y5889D01*
X10252Y5892D01*
X10252Y5896D01*
X10252Y5899D01*
X11401Y6524D02*
X11405Y6524D01*
X11408Y6524D01*
X11411Y6523D01*
X11414Y6523D01*
X11417Y6522D01*
X11421Y6521D01*
X11424Y6519D01*
X11427Y6518D01*
X11429Y6516D01*
X11432Y6514D01*
X11435Y6512D01*
X11437Y6510D01*
X11439Y6508D01*
X11441Y6505D01*
X11443Y6503D01*
X11445Y6500D01*
X11447Y6497D01*
X11448Y6494D01*
X11449Y6491D01*
X11450Y6488D01*
X11451Y6485D01*
X11452Y6482D01*
X11452Y6478D01*
X11452Y6475D01*
Y5624D02*
X11452Y5621D01*
X11452Y5617D01*
X11451Y5614D01*
X11450Y5611D01*
X11449Y5608D01*
X11448Y5605D01*
X11447Y5602D01*
X11445Y5599D01*
X11444Y5596D01*
X11442Y5594D01*
X11440Y5591D01*
X11437Y5589D01*
X11435Y5586D01*
X11432Y5584D01*
X11430Y5582D01*
X11427Y5581D01*
X11424Y5579D01*
X11421Y5578D01*
X11418Y5577D01*
X11415Y5576D01*
X11412Y5575D01*
X11409Y5574D01*
X11405Y5574D01*
X11402Y5574D01*
Y5524D02*
X11405Y5524D01*
X11408Y5524D01*
X11412Y5523D01*
X11415Y5522D01*
X11418Y5521D01*
X11421Y5520D01*
X11424Y5519D01*
X11427Y5517D01*
X11430Y5516D01*
X11432Y5514D01*
X11435Y5512D01*
X11437Y5510D01*
X11439Y5507D01*
X11441Y5505D01*
X11443Y5502D01*
X11445Y5500D01*
X11447Y5497D01*
X11448Y5494D01*
X11449Y5491D01*
X11450Y5488D01*
X11451Y5485D01*
X11451Y5481D01*
X11452Y5478D01*
X11452Y5475D01*
X11452Y5374D02*
X11452Y5371D01*
X11452Y5367D01*
X11451Y5364D01*
X11450Y5361D01*
X11449Y5358D01*
X11448Y5355D01*
X11447Y5352D01*
X11445Y5349D01*
X11444Y5346D01*
X11442Y5344D01*
X11440Y5341D01*
X11437Y5339D01*
X11435Y5336D01*
X11432Y5334D01*
X11430Y5332D01*
X11427Y5331D01*
X11424Y5329D01*
X11421Y5328D01*
X11418Y5327D01*
X11415Y5326D01*
X11412Y5325D01*
X11409Y5324D01*
X11405Y5324D01*
X11402Y5324D01*
X10202Y5624D02*
X10202Y5621D01*
X10202Y5617D01*
X10201Y5614D01*
X10200Y5611D01*
X10199Y5608D01*
X10198Y5605D01*
X10197Y5602D01*
X10195Y5599D01*
X10194Y5596D01*
X10192Y5594D01*
X10190Y5591D01*
X10187Y5589D01*
X10185Y5586D01*
X10182Y5584D01*
X10180Y5582D01*
X10177Y5581D01*
X10174Y5579D01*
X10171Y5578D01*
X10168Y5577D01*
X10165Y5576D01*
X10162Y5575D01*
X10159Y5574D01*
X10155Y5574D01*
X10152Y5574D01*
X10252Y5623D02*
X10252Y5620D01*
X10252Y5617D01*
X10253Y5613D01*
X10254Y5610D01*
X10255Y5607D01*
X10256Y5604D01*
X10257Y5601D01*
X10259Y5598D01*
X10260Y5596D01*
X10262Y5593D01*
X10264Y5590D01*
X10267Y5588D01*
X10269Y5586D01*
X10272Y5584D01*
X10274Y5582D01*
X10277Y5580D01*
X10280Y5579D01*
X10283Y5577D01*
X10286Y5576D01*
X10289Y5575D01*
X10292Y5575D01*
X10295Y5574D01*
X10299Y5574D01*
X10302Y5574D01*
X10202Y5750D02*
X10202Y5753D01*
X10202Y5756D01*
X10201Y5760D01*
X10200Y5763D01*
X10199Y5766D01*
X10198Y5769D01*
X10197Y5772D01*
X10195Y5774D01*
X10194Y5777D01*
X10192Y5780D01*
X10190Y5782D01*
X10188Y5785D01*
X10185Y5787D01*
X10183Y5789D01*
X10180Y5791D01*
X10178Y5792D01*
X10175Y5794D01*
X10172Y5795D01*
X10169Y5796D01*
X10166Y5797D01*
X10163Y5798D01*
X10159Y5799D01*
X10156Y5799D01*
X10153Y5799D01*
X7201Y5324D02*
X7198Y5324D01*
X7195Y5325D01*
X7191Y5325D01*
X7188Y5326D01*
X7185Y5327D01*
X7182Y5328D01*
X7179Y5329D01*
X7176Y5331D01*
X7174Y5333D01*
X7171Y5335D01*
X7169Y5337D01*
X7166Y5339D01*
X7164Y5341D01*
X7162Y5344D01*
X7160Y5346D01*
X7159Y5349D01*
X7157Y5352D01*
X7156Y5355D01*
X7155Y5358D01*
X7154Y5361D01*
X7153Y5364D01*
X7152Y5368D01*
X7152Y5371D01*
X7152Y5374D01*
X10153Y5849D02*
X10156Y5849D01*
X10159Y5850D01*
X10163Y5850D01*
X10166Y5851D01*
X10169Y5852D01*
X10172Y5853D01*
X10175Y5854D01*
X10178Y5856D01*
X10180Y5858D01*
X10183Y5860D01*
X10185Y5862D01*
X10188Y5864D01*
X10190Y5866D01*
X10192Y5869D01*
X10194Y5871D01*
X10195Y5874D01*
X10197Y5877D01*
X10198Y5880D01*
X10199Y5883D01*
X10200Y5886D01*
X10201Y5889D01*
X10202Y5893D01*
X10202Y5896D01*
X10202Y5899D01*
X7202Y5524D02*
X7199Y5524D01*
X7195Y5524D01*
X7192Y5523D01*
X7189Y5522D01*
X7186Y5521D01*
X7183Y5520D01*
X7180Y5519D01*
X7177Y5517D01*
X7174Y5516D01*
X7172Y5514D01*
X7169Y5512D01*
X7167Y5509D01*
X7164Y5507D01*
X7162Y5504D01*
X7160Y5502D01*
X7159Y5499D01*
X7157Y5496D01*
X7156Y5493D01*
X7155Y5490D01*
X7154Y5487D01*
X7153Y5484D01*
X7152Y5481D01*
X7152Y5477D01*
X7152Y5474D01*
X10152Y6274D02*
X10155Y6274D01*
X10159Y6274D01*
X10162Y6273D01*
X10165Y6272D01*
X10168Y6271D01*
X10171Y6270D01*
X10174Y6269D01*
X10177Y6267D01*
X10180Y6266D01*
X10182Y6264D01*
X10185Y6262D01*
X10187Y6259D01*
X10190Y6257D01*
X10192Y6254D01*
X10194Y6252D01*
X10195Y6249D01*
X10197Y6246D01*
X10198Y6243D01*
X10199Y6240D01*
X10200Y6237D01*
X10201Y6234D01*
X10202Y6231D01*
X10202Y6227D01*
X10202Y6224D01*
X10152Y6324D02*
X10155Y6324D01*
X10159Y6324D01*
X10162Y6325D01*
X10165Y6326D01*
X10168Y6327D01*
X10171Y6328D01*
X10174Y6329D01*
X10177Y6331D01*
X10180Y6332D01*
X10182Y6334D01*
X10185Y6336D01*
X10187Y6339D01*
X10190Y6341D01*
X10192Y6344D01*
X10194Y6346D01*
X10195Y6349D01*
X10197Y6352D01*
X10198Y6355D01*
X10199Y6358D01*
X10200Y6361D01*
X10201Y6364D01*
X10202Y6367D01*
X10202Y6371D01*
X10202Y6374D01*
X10252Y6474D02*
X10252Y6477D01*
X10252Y6481D01*
X10253Y6484D01*
X10254Y6487D01*
X10255Y6490D01*
X10256Y6493D01*
X10257Y6496D01*
X10259Y6499D01*
X10260Y6502D01*
X10262Y6504D01*
X10264Y6507D01*
X10267Y6509D01*
X10269Y6512D01*
X10272Y6514D01*
X10274Y6516D01*
X10277Y6517D01*
X10280Y6519D01*
X10283Y6520D01*
X10286Y6521D01*
X10289Y6522D01*
X10292Y6523D01*
X10295Y6524D01*
X10299Y6524D01*
X10302Y6524D01*
X10202Y6474D02*
X10202Y6477D01*
X10202Y6481D01*
X10201Y6484D01*
X10200Y6487D01*
X10199Y6490D01*
X10198Y6493D01*
X10197Y6496D01*
X10195Y6499D01*
X10194Y6502D01*
X10192Y6504D01*
X10190Y6507D01*
X10187Y6509D01*
X10185Y6512D01*
X10182Y6514D01*
X10180Y6516D01*
X10177Y6517D01*
X10174Y6519D01*
X10171Y6520D01*
X10168Y6521D01*
X10165Y6522D01*
X10162Y6523D01*
X10159Y6524D01*
X10155Y6524D01*
X10152Y6524D01*
X7202D02*
X7199Y6524D01*
X7195Y6524D01*
X7192Y6523D01*
X7189Y6522D01*
X7186Y6521D01*
X7183Y6520D01*
X7180Y6519D01*
X7177Y6517D01*
X7174Y6516D01*
X7172Y6514D01*
X7169Y6512D01*
X7167Y6509D01*
X7164Y6507D01*
X7162Y6504D01*
X7160Y6502D01*
X7159Y6499D01*
X7157Y6496D01*
X7156Y6493D01*
X7155Y6490D01*
X7154Y6487D01*
X7153Y6484D01*
X7152Y6481D01*
X7152Y6477D01*
X7152Y6474D01*
Y6374D02*
X7152Y6371D01*
X7152Y6367D01*
X7153Y6364D01*
X7154Y6361D01*
X7155Y6358D01*
X7156Y6355D01*
X7157Y6352D01*
X7159Y6349D01*
X7160Y6346D01*
X7162Y6344D01*
X7164Y6341D01*
X7167Y6339D01*
X7169Y6336D01*
X7172Y6334D01*
X7174Y6332D01*
X7177Y6331D01*
X7180Y6329D01*
X7183Y6328D01*
X7186Y6327D01*
X7189Y6326D01*
X7192Y6325D01*
X7195Y6324D01*
X7199Y6324D01*
X7202Y6324D01*
Y6274D02*
X7199Y6274D01*
X7195Y6274D01*
X7192Y6273D01*
X7189Y6272D01*
X7186Y6271D01*
X7183Y6270D01*
X7180Y6269D01*
X7177Y6267D01*
X7174Y6266D01*
X7172Y6264D01*
X7169Y6262D01*
X7167Y6259D01*
X7164Y6257D01*
X7162Y6254D01*
X7160Y6252D01*
X7159Y6249D01*
X7157Y6246D01*
X7156Y6243D01*
X7155Y6240D01*
X7154Y6237D01*
X7153Y6234D01*
X7152Y6231D01*
X7152Y6227D01*
X7152Y6224D01*
Y5999D02*
X7152Y5996D01*
X7152Y5992D01*
X7153Y5989D01*
X7154Y5986D01*
X7155Y5983D01*
X7156Y5980D01*
X7157Y5977D01*
X7159Y5974D01*
X7160Y5971D01*
X7162Y5969D01*
X7164Y5966D01*
X7167Y5964D01*
X7169Y5961D01*
X7172Y5959D01*
X7174Y5957D01*
X7177Y5956D01*
X7180Y5954D01*
X7183Y5953D01*
X7186Y5952D01*
X7189Y5951D01*
X7192Y5950D01*
X7195Y5949D01*
X7199Y5949D01*
X7202Y5949D01*
Y5899D02*
X7199Y5899D01*
X7195Y5899D01*
X7192Y5898D01*
X7189Y5897D01*
X7186Y5896D01*
X7183Y5895D01*
X7180Y5894D01*
X7177Y5892D01*
X7174Y5891D01*
X7172Y5889D01*
X7169Y5887D01*
X7167Y5884D01*
X7164Y5882D01*
X7162Y5879D01*
X7160Y5877D01*
X7159Y5874D01*
X7157Y5871D01*
X7156Y5868D01*
X7155Y5865D01*
X7154Y5862D01*
X7153Y5859D01*
X7152Y5856D01*
X7152Y5852D01*
X7152Y5849D01*
Y5624D02*
X7152Y5621D01*
X7152Y5618D01*
X7153Y5614D01*
X7154Y5611D01*
X7155Y5608D01*
X7156Y5605D01*
X7157Y5602D01*
X7159Y5599D01*
X7160Y5596D01*
X7162Y5594D01*
X7164Y5591D01*
X7166Y5589D01*
X7169Y5587D01*
X7171Y5585D01*
X7174Y5583D01*
X7176Y5581D01*
X7179Y5579D01*
X7182Y5578D01*
X7185Y5577D01*
X7188Y5576D01*
X7191Y5575D01*
X7195Y5575D01*
X7198Y5574D01*
X7201Y5574D01*
X8052Y6224D02*
X8052Y6227D01*
X8052Y6231D01*
X8053Y6234D01*
X8054Y6237D01*
X8055Y6240D01*
X8056Y6243D01*
X8057Y6246D01*
X8059Y6249D01*
X8060Y6252D01*
X8062Y6254D01*
X8064Y6257D01*
X8067Y6259D01*
X8069Y6262D01*
X8072Y6264D01*
X8074Y6266D01*
X8077Y6267D01*
X8080Y6269D01*
X8083Y6270D01*
X8086Y6271D01*
X8089Y6272D01*
X8092Y6273D01*
X8095Y6274D01*
X8099Y6274D01*
X8102Y6274D01*
Y5799D02*
X8099Y5799D01*
X8095Y5799D01*
X8092Y5798D01*
X8089Y5797D01*
X8086Y5796D01*
X8083Y5795D01*
X8080Y5794D01*
X8077Y5792D01*
X8074Y5791D01*
X8072Y5789D01*
X8069Y5787D01*
X8067Y5784D01*
X8064Y5782D01*
X8062Y5779D01*
X8060Y5777D01*
X8059Y5774D01*
X8057Y5771D01*
X8056Y5768D01*
X8055Y5765D01*
X8054Y5762D01*
X8053Y5759D01*
X8052Y5756D01*
X8052Y5752D01*
X8052Y5749D01*
X9802Y5748D02*
X9802Y5752D01*
X9802Y5755D01*
X9803Y5758D01*
X9803Y5761D01*
X9804Y5765D01*
X9805Y5768D01*
X9806Y5771D01*
X9808Y5774D01*
X9809Y5776D01*
X9811Y5779D01*
X9813Y5782D01*
X9815Y5784D01*
X9817Y5786D01*
X9820Y5788D01*
X9823Y5790D01*
X9825Y5792D01*
X9828Y5794D01*
X9831Y5795D01*
X9834Y5796D01*
X9837Y5797D01*
X9840Y5798D01*
X9844Y5799D01*
X9847Y5799D01*
X9850Y5799D01*
X9802Y5625D02*
X9802Y5622D01*
X9802Y5618D01*
X9803Y5615D01*
X9804Y5612D01*
X9805Y5609D01*
X9806Y5606D01*
X9807Y5603D01*
X9809Y5600D01*
X9810Y5597D01*
X9812Y5594D01*
X9814Y5592D01*
X9817Y5589D01*
X9819Y5587D01*
X9822Y5585D01*
X9824Y5583D01*
X9827Y5581D01*
X9830Y5580D01*
X9833Y5578D01*
X9836Y5577D01*
X9839Y5576D01*
X9842Y5575D01*
X9846Y5575D01*
X9849Y5574D01*
X9852Y5574D01*
X9752Y5624D02*
X9752Y5621D01*
X9752Y5617D01*
X9751Y5614D01*
X9751Y5611D01*
X9750Y5608D01*
X9749Y5605D01*
X9747Y5602D01*
X9746Y5599D01*
X9744Y5596D01*
X9742Y5594D01*
X9740Y5591D01*
X9738Y5589D01*
X9736Y5586D01*
X9733Y5584D01*
X9730Y5582D01*
X9728Y5581D01*
X9725Y5579D01*
X9722Y5578D01*
X9719Y5577D01*
X9716Y5576D01*
X9713Y5575D01*
X9709Y5574D01*
X9706Y5574D01*
X9703Y5574D01*
X9752Y5750D02*
X9752Y5753D01*
X9752Y5756D01*
X9751Y5760D01*
X9750Y5763D01*
X9749Y5766D01*
X9748Y5769D01*
X9747Y5772D01*
X9745Y5774D01*
X9744Y5777D01*
X9742Y5780D01*
X9740Y5782D01*
X9738Y5785D01*
X9735Y5787D01*
X9733Y5789D01*
X9730Y5791D01*
X9728Y5792D01*
X9725Y5794D01*
X9722Y5795D01*
X9719Y5796D01*
X9716Y5797D01*
X9713Y5798D01*
X9709Y5799D01*
X9706Y5799D01*
X9703Y5799D01*
X8002Y5623D02*
X8002Y5620D01*
X8002Y5617D01*
X8001Y5613D01*
X8000Y5610D01*
X7999Y5607D01*
X7998Y5604D01*
X7997Y5601D01*
X7995Y5598D01*
X7994Y5596D01*
X7992Y5593D01*
X7990Y5591D01*
X7988Y5588D01*
X7985Y5586D01*
X7983Y5584D01*
X7980Y5582D01*
X7978Y5581D01*
X7975Y5579D01*
X7972Y5578D01*
X7969Y5577D01*
X7966Y5576D01*
X7963Y5575D01*
X7959Y5574D01*
X7956Y5574D01*
X7953Y5574D01*
X8052Y5623D02*
X8052Y5620D01*
X8052Y5617D01*
X8053Y5613D01*
X8054Y5610D01*
X8055Y5607D01*
X8056Y5604D01*
X8057Y5601D01*
X8059Y5598D01*
X8060Y5596D01*
X8062Y5593D01*
X8064Y5591D01*
X8066Y5588D01*
X8069Y5586D01*
X8071Y5584D01*
X8074Y5582D01*
X8076Y5581D01*
X8079Y5579D01*
X8082Y5578D01*
X8085Y5577D01*
X8088Y5576D01*
X8091Y5575D01*
X8095Y5574D01*
X8098Y5574D01*
X8101Y5574D01*
Y5849D02*
X8098Y5849D01*
X8095Y5849D01*
X8091Y5850D01*
X8088Y5851D01*
X8085Y5852D01*
X8082Y5853D01*
X8079Y5854D01*
X8076Y5856D01*
X8074Y5857D01*
X8071Y5859D01*
X8069Y5861D01*
X8066Y5863D01*
X8064Y5866D01*
X8062Y5868D01*
X8060Y5871D01*
X8059Y5874D01*
X8057Y5876D01*
X8056Y5879D01*
X8055Y5882D01*
X8054Y5885D01*
X8053Y5888D01*
X8052Y5892D01*
X8052Y5895D01*
X8052Y5898D01*
X8002Y5850D02*
X8002Y5853D01*
X8002Y5857D01*
X8001Y5860D01*
X8000Y5863D01*
X7999Y5866D01*
X7998Y5869D01*
X7997Y5872D01*
X7995Y5875D01*
X7993Y5878D01*
X7991Y5880D01*
X7989Y5883D01*
X7987Y5885D01*
X7985Y5887D01*
X7982Y5889D01*
X7979Y5891D01*
X7977Y5893D01*
X7974Y5894D01*
X7971Y5896D01*
X7967Y5897D01*
X7964Y5898D01*
X7961Y5898D01*
X7958Y5899D01*
X7955Y5899D01*
X7951Y5899D01*
X7954Y5949D02*
X7957Y5949D01*
X7960Y5949D01*
X7963Y5950D01*
X7966Y5951D01*
X7969Y5952D01*
X7972Y5953D01*
X7975Y5954D01*
X7978Y5955D01*
X7981Y5957D01*
X7983Y5959D01*
X7986Y5961D01*
X7988Y5963D01*
X7990Y5965D01*
X7992Y5968D01*
X7994Y5970D01*
X7996Y5973D01*
X7997Y5976D01*
X7998Y5979D01*
X7999Y5982D01*
X8000Y5985D01*
X8001Y5988D01*
X8002Y5991D01*
X8002Y5994D01*
X8002Y5997D01*
Y6225D02*
X8002Y6228D01*
X8002Y6231D01*
X8001Y6235D01*
X8000Y6238D01*
X7999Y6241D01*
X7998Y6244D01*
X7997Y6247D01*
X7995Y6250D01*
X7994Y6252D01*
X7992Y6255D01*
X7990Y6257D01*
X7988Y6260D01*
X7985Y6262D01*
X7983Y6264D01*
X7980Y6266D01*
X7978Y6267D01*
X7975Y6269D01*
X7972Y6270D01*
X7969Y6271D01*
X7966Y6272D01*
X7963Y6273D01*
X7959Y6274D01*
X7956Y6274D01*
X7953Y6274D01*
X10802Y5474D02*
X10802Y5477D01*
X10802Y5481D01*
X10803Y5484D01*
X10804Y5487D01*
X10805Y5490D01*
X10806Y5493D01*
X10807Y5496D01*
X10809Y5499D01*
X10810Y5502D01*
X10812Y5504D01*
X10814Y5507D01*
X10817Y5509D01*
X10819Y5512D01*
X10822Y5514D01*
X10824Y5516D01*
X10827Y5517D01*
X10830Y5519D01*
X10833Y5520D01*
X10836Y5521D01*
X10839Y5522D01*
X10842Y5523D01*
X10845Y5524D01*
X10849Y5524D01*
X10852Y5524D01*
X10802Y5373D02*
X10802Y5370D01*
X10802Y5367D01*
X10803Y5363D01*
X10804Y5360D01*
X10805Y5357D01*
X10806Y5354D01*
X10807Y5351D01*
X10809Y5348D01*
X10810Y5346D01*
X10812Y5343D01*
X10814Y5340D01*
X10817Y5338D01*
X10819Y5336D01*
X10822Y5334D01*
X10824Y5332D01*
X10827Y5330D01*
X10830Y5329D01*
X10833Y5327D01*
X10836Y5326D01*
X10839Y5325D01*
X10842Y5325D01*
X10845Y5324D01*
X10849Y5324D01*
X10852Y5324D01*
X10752Y5374D02*
X10752Y5370D01*
X10752Y5367D01*
X10751Y5364D01*
X10751Y5361D01*
X10750Y5358D01*
X10749Y5355D01*
X10747Y5352D01*
X10746Y5349D01*
X10744Y5346D01*
X10742Y5343D01*
X10740Y5341D01*
X10738Y5338D01*
X10736Y5336D01*
X10733Y5334D01*
X10731Y5332D01*
X10728Y5330D01*
X10725Y5329D01*
X10722Y5328D01*
X10719Y5326D01*
X10716Y5326D01*
X10713Y5325D01*
X10710Y5324D01*
X10706Y5324D01*
X10703Y5324D01*
X10752Y5474D02*
X10752Y5477D01*
X10752Y5481D01*
X10751Y5484D01*
X10750Y5487D01*
X10749Y5490D01*
X10748Y5493D01*
X10747Y5496D01*
X10745Y5499D01*
X10744Y5502D01*
X10742Y5504D01*
X10740Y5507D01*
X10737Y5509D01*
X10735Y5512D01*
X10732Y5514D01*
X10730Y5516D01*
X10727Y5517D01*
X10724Y5519D01*
X10721Y5520D01*
X10718Y5521D01*
X10715Y5522D01*
X10712Y5523D01*
X10709Y5524D01*
X10705Y5524D01*
X10702Y5524D01*
X9026Y5324D02*
X9023Y5324D01*
X9020Y5325D01*
X9016Y5325D01*
X9013Y5326D01*
X9010Y5327D01*
X9007Y5328D01*
X9004Y5329D01*
X9001Y5331D01*
X8999Y5333D01*
X8996Y5335D01*
X8994Y5337D01*
X8991Y5339D01*
X8989Y5341D01*
X8987Y5344D01*
X8985Y5346D01*
X8984Y5349D01*
X8982Y5352D01*
X8981Y5355D01*
X8980Y5358D01*
X8979Y5361D01*
X8978Y5364D01*
X8977Y5368D01*
X8977Y5371D01*
X8977Y5374D01*
Y5474D02*
X8977Y5477D01*
X8977Y5481D01*
X8978Y5484D01*
X8979Y5487D01*
X8980Y5490D01*
X8981Y5493D01*
X8982Y5496D01*
X8984Y5499D01*
X8985Y5502D01*
X8987Y5504D01*
X8989Y5507D01*
X8992Y5509D01*
X8994Y5512D01*
X8997Y5514D01*
X8999Y5516D01*
X9002Y5517D01*
X9005Y5519D01*
X9008Y5520D01*
X9011Y5521D01*
X9014Y5522D01*
X9017Y5523D01*
X9020Y5524D01*
X9024Y5524D01*
X9027Y5524D01*
X8927Y5374D02*
X8927Y5370D01*
X8927Y5367D01*
X8926Y5364D01*
X8926Y5361D01*
X8925Y5358D01*
X8924Y5355D01*
X8922Y5352D01*
X8921Y5349D01*
X8919Y5346D01*
X8917Y5343D01*
X8915Y5341D01*
X8913Y5338D01*
X8911Y5336D01*
X8908Y5334D01*
X8906Y5332D01*
X8903Y5330D01*
X8900Y5329D01*
X8897Y5328D01*
X8894Y5326D01*
X8891Y5326D01*
X8888Y5325D01*
X8885Y5324D01*
X8881Y5324D01*
X8878Y5324D01*
X8927Y5474D02*
X8927Y5477D01*
X8927Y5481D01*
X8926Y5484D01*
X8925Y5487D01*
X8924Y5490D01*
X8923Y5493D01*
X8922Y5496D01*
X8920Y5499D01*
X8919Y5502D01*
X8917Y5504D01*
X8915Y5507D01*
X8912Y5509D01*
X8910Y5512D01*
X8907Y5514D01*
X8905Y5516D01*
X8902Y5517D01*
X8899Y5519D01*
X8896Y5520D01*
X8893Y5521D01*
X8890Y5522D01*
X8887Y5523D01*
X8884Y5524D01*
X8880Y5524D01*
X8877Y5524D01*
D50*
X9042Y7659D02*
Y7699D01*
Y7599D02*
Y7559D01*
D02*
M02*
