*%FSLAX23Y23*%
*%MOIN*%
G01*
D11*
X9697Y5712D02*
Y5756D01*
X9682D01*
X9676Y5754D01*
X9671Y5750D01*
X9669Y5746D01*
X9667Y5739D01*
Y5729D01*
X9669Y5722D01*
X9671Y5718D01*
X9676Y5714D01*
X9682Y5712D01*
X9697D01*
X9640Y5756D02*
X9623Y5712D01*
X9657D02*
X9640Y5756D01*
X9651Y5726D02*
X9629D01*
X9597Y5712D02*
Y5756D01*
X9612D02*
X9582D01*
X9577D02*
X9549D01*
X9577D02*
Y5712D01*
X9549D01*
X9560Y5735D02*
X9577D01*
X9541Y5739D02*
X9539Y5741D01*
X9541Y5739D02*
X9539Y5737D01*
X9537Y5739D01*
X9539Y5741D01*
Y5716D02*
X9541Y5714D01*
X9539Y5712D01*
X9537Y5714D01*
X9539Y5716D01*
X10160Y5712D02*
Y5756D01*
X10140D01*
X10134Y5754D01*
X10132Y5752D01*
X10130Y5748D01*
Y5744D01*
X10132Y5739D01*
X10134Y5737D01*
X10140Y5735D01*
X10160D01*
X10145D02*
X10130Y5712D01*
X10119Y5756D02*
X10092D01*
X10119D02*
Y5712D01*
X10092D01*
X10102Y5735D02*
X10119D01*
X10084Y5756D02*
X10067Y5712D01*
X10050Y5756D01*
X10042Y5741D02*
X10044Y5739D01*
X10042Y5737D01*
X10040Y5739D01*
X10042Y5741D01*
Y5716D02*
X10044Y5714D01*
X10042Y5712D01*
X10040Y5714D01*
X10042Y5716D01*
X12778Y6008D02*
X12797D01*
X12778D02*
X12771Y6010D01*
X12769Y6012D01*
X12767Y6016D01*
Y6023D01*
X12769Y6027D01*
X12771Y6029D01*
X12778Y6031D01*
X12797D01*
Y5986D01*
X12757D02*
Y6031D01*
X12727D02*
Y5986D01*
Y6010D02*
X12757D01*
X12706Y6029D02*
X12702Y6031D01*
X12706Y6029D02*
X12710Y6025D01*
X12712Y6021D01*
X12715Y6014D01*
Y6004D01*
X12712Y5997D01*
X12710Y5993D01*
X12706Y5989D01*
X12702Y5986D01*
X12693D01*
X12689Y5989D01*
X12685Y5993D01*
X12682Y5997D01*
X12680Y6004D01*
Y6014D01*
X12682Y6021D01*
X12685Y6025D01*
X12689Y6029D01*
X12693Y6031D01*
X12702D01*
X12670D02*
Y5986D01*
X12640D02*
X12670Y6031D01*
X12640D02*
Y5986D01*
X12627Y6031D02*
X12599D01*
X12627D02*
Y5986D01*
X12599D01*
X12610Y6010D02*
X12627D01*
X12592Y6014D02*
X12590Y6016D01*
X12592Y6014D02*
X12590Y6012D01*
X12588Y6014D01*
X12590Y6016D01*
Y5991D02*
X12592Y5989D01*
X12590Y5986D01*
X12588Y5989D01*
X12590Y5991D01*
X12778Y5633D02*
X12797D01*
X12778D02*
X12771Y5635D01*
X12769Y5637D01*
X12767Y5641D01*
Y5648D01*
X12769Y5652D01*
X12771Y5654D01*
X12778Y5656D01*
X12797D01*
Y5612D01*
X12757D02*
Y5656D01*
X12727D02*
Y5612D01*
Y5635D02*
X12757D01*
X12706Y5654D02*
X12702Y5656D01*
X12706Y5654D02*
X12710Y5650D01*
X12712Y5646D01*
X12715Y5639D01*
Y5629D01*
X12712Y5622D01*
X12710Y5618D01*
X12706Y5614D01*
X12702Y5612D01*
X12693D01*
X12689Y5614D01*
X12685Y5618D01*
X12682Y5622D01*
X12680Y5629D01*
Y5639D01*
X12682Y5646D01*
X12685Y5650D01*
X12689Y5654D01*
X12693Y5656D01*
X12702D01*
X12670D02*
Y5612D01*
X12640D02*
X12670Y5656D01*
X12640D02*
Y5612D01*
X12627Y5656D02*
X12599D01*
X12627D02*
Y5612D01*
X12599D01*
X12610Y5635D02*
X12627D01*
X12592Y5639D02*
X12590Y5641D01*
X12592Y5639D02*
X12590Y5637D01*
X12588Y5639D01*
X12590Y5641D01*
Y5616D02*
X12592Y5614D01*
X12590Y5612D01*
X12588Y5614D01*
X12590Y5616D01*
X10957Y5479D02*
Y5434D01*
X10931D01*
X10892D02*
X10909Y5479D01*
X10926Y5434D01*
X10920Y5449D02*
X10899D01*
X10882Y5479D02*
X10864Y5458D01*
Y5434D01*
Y5458D02*
X10847Y5479D01*
X10842D02*
X10814D01*
X10842D02*
Y5434D01*
X10814D01*
X10824Y5458D02*
X10842D01*
X10806Y5479D02*
Y5434D01*
Y5479D02*
X10787D01*
X10780Y5477D01*
X10778Y5475D01*
X10776Y5470D01*
Y5466D01*
X10778Y5462D01*
X10780Y5460D01*
X10787Y5458D01*
X10806D01*
X10791D02*
X10776Y5434D01*
X10766Y5462D02*
X10764Y5464D01*
X10766Y5462D02*
X10764Y5460D01*
X10762Y5462D01*
X10764Y5464D01*
Y5438D02*
X10766Y5436D01*
X10764Y5434D01*
X10762Y5436D01*
X10764Y5438D01*
X12769Y6219D02*
X12797D01*
Y6174D01*
X12769D01*
X12780Y6198D02*
X12797D01*
X12762Y6219D02*
Y6174D01*
X12732D02*
X12762Y6219D01*
X12732D02*
Y6174D01*
X12687Y6208D02*
X12689Y6213D01*
X12694Y6217D01*
X12698Y6219D01*
X12706D01*
X12711Y6217D01*
X12715Y6213D01*
X12717Y6208D01*
X12719Y6202D01*
Y6191D01*
X12717Y6185D01*
X12715Y6180D01*
X12711Y6176D01*
X12706Y6174D01*
X12698D01*
X12694Y6176D01*
X12689Y6180D01*
X12687Y6185D01*
Y6191D01*
X12698D01*
X12677Y6174D02*
Y6219D01*
X12667D02*
Y6174D01*
X12637D02*
X12667Y6219D01*
X12637D02*
Y6174D01*
X12625Y6219D02*
X12597D01*
X12625D02*
Y6174D01*
X12597D01*
X12608Y6198D02*
X12625D01*
X12590Y6219D02*
X12562D01*
X12590D02*
Y6174D01*
X12562D01*
X12572Y6198D02*
X12590D01*
X12554Y6219D02*
Y6174D01*
Y6219D02*
X12535D01*
X12529Y6217D01*
X12526Y6215D01*
X12524Y6210D01*
Y6206D01*
X12526Y6202D01*
X12529Y6200D01*
X12535Y6198D01*
X12554D01*
X12539D02*
X12524Y6174D01*
X12514Y6202D02*
X12512Y6204D01*
X12514Y6202D02*
X12512Y6200D01*
X12510Y6202D01*
X12512Y6204D01*
Y6178D02*
X12514Y6176D01*
X12512Y6174D01*
X12510Y6176D01*
X12512Y6178D01*
X11897Y5733D02*
X11878D01*
X11871Y5735D01*
X11869Y5737D01*
X11867Y5741D01*
Y5748D01*
X11869Y5752D01*
X11871Y5754D01*
X11878Y5756D01*
X11897D01*
Y5712D01*
X11840Y5756D02*
X11823Y5712D01*
X11857D02*
X11840Y5756D01*
X11851Y5726D02*
X11829D01*
X11812Y5712D02*
Y5756D01*
X11793D01*
X11786Y5754D01*
X11784Y5752D01*
X11782Y5748D01*
Y5744D01*
X11784Y5739D01*
X11786Y5737D01*
X11793Y5735D01*
X11812D01*
X11797D02*
X11782Y5712D01*
X11757D02*
Y5756D01*
X11772D02*
X11742D01*
X11701D02*
Y5712D01*
X11671D02*
X11701Y5756D01*
X11671D02*
Y5712D01*
X11650Y5754D02*
X11646Y5756D01*
X11650Y5754D02*
X11655Y5750D01*
X11657Y5746D01*
X11659Y5739D01*
Y5729D01*
X11657Y5722D01*
X11655Y5718D01*
X11650Y5714D01*
X11646Y5712D01*
X11638D01*
X11633Y5714D01*
X11629Y5718D01*
X11627Y5722D01*
X11625Y5729D01*
Y5739D01*
X11627Y5746D01*
X11629Y5750D01*
X11633Y5754D01*
X11638Y5756D01*
X11646D01*
X11612Y5716D02*
X11614Y5714D01*
X11612Y5712D01*
X11610Y5714D01*
X11612Y5716D01*
X11600Y5739D02*
X11598Y5741D01*
X11600Y5739D02*
X11598Y5737D01*
X11596Y5739D01*
X11598Y5741D01*
Y5716D02*
X11600Y5714D01*
X11598Y5712D01*
X11596Y5714D01*
X11598Y5716D01*
X11895Y6186D02*
Y6231D01*
X11910D02*
X11880D01*
X11874D02*
Y6186D01*
X11850D02*
Y6231D01*
X11865D02*
X11835D01*
X11829D02*
Y6186D01*
X11804D01*
X11799Y6231D02*
X11771D01*
X11799D02*
Y6186D01*
X11771D01*
X11782Y6210D02*
X11799D01*
X11763Y6214D02*
X11761Y6216D01*
X11763Y6214D02*
X11761Y6212D01*
X11759Y6214D01*
X11761Y6216D01*
Y6191D02*
X11763Y6189D01*
X11761Y6186D01*
X11759Y6189D01*
X11761Y6191D01*
X12769Y5839D02*
X12797D01*
Y5794D01*
X12769D01*
X12780Y5818D02*
X12797D01*
X12762Y5839D02*
Y5794D01*
X12732D02*
X12762Y5839D01*
X12732D02*
Y5794D01*
X12687Y5828D02*
X12689Y5833D01*
X12694Y5837D01*
X12698Y5839D01*
X12706D01*
X12711Y5837D01*
X12715Y5833D01*
X12717Y5828D01*
X12719Y5822D01*
Y5811D01*
X12717Y5805D01*
X12715Y5800D01*
X12711Y5796D01*
X12706Y5794D01*
X12698D01*
X12694Y5796D01*
X12689Y5800D01*
X12687Y5805D01*
Y5811D01*
X12698D01*
X12677Y5794D02*
Y5839D01*
X12667D02*
Y5794D01*
X12637D02*
X12667Y5839D01*
X12637D02*
Y5794D01*
X12625Y5839D02*
X12597D01*
X12625D02*
Y5794D01*
X12597D01*
X12608Y5818D02*
X12625D01*
X12590Y5839D02*
X12562D01*
X12590D02*
Y5794D01*
X12562D01*
X12572Y5818D02*
X12590D01*
X12554Y5839D02*
Y5794D01*
Y5839D02*
X12535D01*
X12529Y5837D01*
X12526Y5835D01*
X12524Y5830D01*
Y5826D01*
X12526Y5822D01*
X12529Y5820D01*
X12535Y5818D01*
X12554D01*
X12539D02*
X12524Y5794D01*
X12514Y5822D02*
X12512Y5824D01*
X12514Y5822D02*
X12512Y5820D01*
X12510Y5822D01*
X12512Y5824D01*
Y5798D02*
X12514Y5796D01*
X12512Y5794D01*
X12510Y5796D01*
X12512Y5798D01*
X12797Y5479D02*
Y5434D01*
Y5479D02*
X12769D01*
X12780Y5458D02*
X12797D01*
X12764Y5479D02*
Y5434D01*
X12755D02*
Y5479D01*
Y5434D02*
X12729D01*
X12724Y5479D02*
X12696D01*
X12724D02*
Y5434D01*
X12696D01*
X12707Y5458D02*
X12724D01*
X12653Y5479D02*
Y5434D01*
X12623D02*
X12653Y5479D01*
X12623D02*
Y5434D01*
X12577D02*
X12594Y5479D01*
X12611Y5434D01*
X12604Y5449D02*
X12583D01*
X12566Y5434D02*
Y5479D01*
X12549Y5434D01*
X12532Y5479D01*
Y5434D01*
X12519Y5479D02*
X12491D01*
X12519D02*
Y5434D01*
X12491D01*
X12502Y5458D02*
X12519D01*
X12484Y5462D02*
X12481Y5464D01*
X12484Y5462D02*
X12481Y5460D01*
X12479Y5462D01*
X12481Y5464D01*
Y5438D02*
X12484Y5436D01*
X12481Y5434D01*
X12479Y5436D01*
X12481Y5438D01*
X9107Y5473D02*
X9105Y5468D01*
X9107Y5473D02*
X9111Y5477D01*
X9116Y5479D01*
X9124D01*
X9128Y5477D01*
X9133Y5473D01*
X9135Y5468D01*
X9137Y5462D01*
Y5451D01*
X9135Y5445D01*
X9133Y5440D01*
X9128Y5436D01*
X9124Y5434D01*
X9116D01*
X9111Y5436D01*
X9107Y5440D01*
X9105Y5445D01*
Y5451D01*
X9116D01*
X9095Y5479D02*
X9067D01*
X9095D02*
Y5434D01*
X9067D01*
X9077Y5458D02*
X9095D01*
X9059Y5479D02*
Y5434D01*
Y5479D02*
X9040D01*
X9034Y5477D01*
X9031Y5475D01*
X9029Y5470D01*
Y5466D01*
X9031Y5462D01*
X9034Y5460D01*
X9040Y5458D01*
X9059D01*
X9044D02*
X9029Y5434D01*
X9019D02*
Y5479D01*
X9000D01*
X8993Y5477D01*
X8991Y5475D01*
X8989Y5470D01*
Y5466D01*
X8991Y5462D01*
X8993Y5460D01*
X9000Y5458D01*
X9019D01*
X9000D02*
X8993Y5455D01*
X8991Y5453D01*
X8989Y5449D01*
Y5443D01*
X8991Y5438D01*
X8993Y5436D01*
X9000Y5434D01*
X9019D01*
X8979Y5479D02*
X8951D01*
X8979D02*
Y5434D01*
X8951D01*
X8962Y5458D02*
X8979D01*
X8944Y5479D02*
Y5434D01*
Y5479D02*
X8924D01*
X8918Y5477D01*
X8916Y5475D01*
X8914Y5470D01*
Y5466D01*
X8916Y5462D01*
X8918Y5460D01*
X8924Y5458D01*
X8944D01*
X8929D02*
X8914Y5434D01*
X8904Y5462D02*
X8902Y5464D01*
X8904Y5462D02*
X8902Y5460D01*
X8899Y5462D01*
X8902Y5464D01*
Y5438D02*
X8904Y5436D01*
X8902Y5434D01*
X8899Y5436D01*
X8902Y5438D01*
D12*
X12861Y7990D02*
Y8029D01*
Y7990D02*
X12901Y8029D01*
X12911D01*
X12921Y8019D01*
Y7999D01*
X12911Y7990D01*
X12871Y8049D02*
X12861Y8059D01*
Y8079D01*
X12871Y8089D01*
X12911D01*
X12921Y8079D01*
Y8059D01*
X12911Y8049D01*
X12901D01*
X12891Y8059D01*
Y8089D01*
X12921Y8109D02*
Y8149D01*
Y8109D02*
X12891D01*
X12901Y8129D01*
Y8139D01*
X12891Y8149D01*
X12871D01*
X12861Y8139D01*
Y8119D01*
X12871Y8109D01*
X12861Y8169D02*
Y8209D01*
Y8169D02*
X12901Y8209D01*
X12911D01*
X12921Y8199D01*
Y8179D01*
X12911Y8169D01*
X12871Y8229D02*
X12861D01*
X12871D02*
Y8239D01*
X12861D01*
Y8229D01*
X12921Y8279D02*
Y8319D01*
X12911D01*
X12871Y8279D01*
X12861D01*
X12921Y8339D02*
Y8379D01*
Y8339D02*
X12891D01*
X12901Y8359D01*
Y8369D01*
X12891Y8379D01*
X12871D01*
X12861Y8369D01*
Y8349D01*
X12871Y8339D01*
X12911Y8419D02*
X12921Y8439D01*
X12911Y8419D02*
X12891Y8399D01*
X12871D01*
X12861Y8409D01*
Y8429D01*
X12871Y8439D01*
X12881D01*
X12891Y8429D01*
Y8399D01*
X12881Y8519D02*
X12861Y8539D01*
X12881Y8519D02*
X12901D01*
X12921Y8539D01*
X12901Y8569D02*
X12861D01*
X12901D02*
Y8579D01*
X12891Y8589D01*
X12861D01*
X12891D01*
X12901Y8599D01*
X12891Y8609D01*
X12861D01*
Y8629D02*
Y8649D01*
Y8639D01*
X12901D01*
Y8629D01*
X12921Y8639D02*
X12920D01*
X12861Y8679D02*
Y8699D01*
Y8689D01*
X12921D01*
Y8679D01*
X12861Y8729D02*
X12881Y8749D01*
X12901D01*
X12921Y8729D01*
X11707Y6763D02*
X11667D01*
X11707D02*
X11667Y6803D01*
Y6813D01*
X11677Y6823D01*
X11697D01*
X11707Y6813D01*
X11647Y6773D02*
X11637Y6763D01*
X11617D01*
X11607Y6773D01*
Y6813D01*
X11617Y6823D01*
X11637D01*
X11647Y6813D01*
Y6803D01*
X11637Y6793D01*
X11607D01*
X11587Y6823D02*
X11547D01*
X11587D02*
Y6793D01*
X11567Y6803D01*
X11557D01*
X11547Y6793D01*
Y6773D01*
X11557Y6763D01*
X11577D01*
X11587Y6773D01*
X11527Y6763D02*
X11487D01*
X11527D02*
X11487Y6803D01*
Y6813D01*
X11497Y6823D01*
X11517D01*
X11527Y6813D01*
X11467Y6773D02*
Y6763D01*
Y6773D02*
X11457D01*
Y6763D01*
X11467D01*
X11417Y6823D02*
X11377D01*
Y6813D01*
X11417Y6773D01*
Y6763D01*
X11357Y6823D02*
X11317D01*
X11357D02*
Y6793D01*
X11337Y6803D01*
X11327D01*
X11317Y6793D01*
Y6773D01*
X11327Y6763D01*
X11347D01*
X11357Y6773D01*
X11277Y6813D02*
X11257Y6823D01*
X11277Y6813D02*
X11297Y6793D01*
Y6773D01*
X11287Y6763D01*
X11267D01*
X11257Y6773D01*
Y6783D01*
X11267Y6793D01*
X11297D01*
X11177Y6783D02*
X11157Y6763D01*
X11177Y6783D02*
Y6803D01*
X11157Y6823D01*
X11127Y6803D02*
Y6763D01*
Y6803D02*
X11117D01*
X11107Y6793D01*
Y6763D01*
Y6793D01*
X11097Y6803D01*
X11087Y6793D01*
Y6763D01*
X11067D02*
X11047D01*
X11057D01*
Y6803D01*
X11067D01*
X11057Y6823D02*
X11056D01*
X11017Y6763D02*
X10997D01*
X11007D01*
Y6823D01*
X11017D01*
X10967Y6763D02*
X10947Y6783D01*
Y6803D01*
X10967Y6823D01*
D15*
X13072Y5299D02*
X13122D01*
X13272D02*
X13422D01*
X13422Y4999D02*
X13497D01*
X13522Y5224D02*
X13472D01*
X13483Y5232D02*
X13512D01*
X13507Y5236D02*
X13488D01*
X13478Y5228D02*
X13517D01*
X13502Y5239D02*
X13493D01*
X13297Y4999D02*
X13272D01*
X13497Y5299D02*
X13697D01*
X13572Y5399D02*
X13497D01*
Y5499D02*
X13572D01*
Y5599D02*
X13497D01*
Y5699D02*
X13572D01*
X13647Y5799D02*
X13497D01*
Y5899D02*
X13572D01*
Y5999D02*
X13497D01*
Y6099D02*
X13572D01*
Y6199D02*
X13497D01*
Y6299D02*
X13697D01*
X13572Y6399D02*
X13497D01*
Y6499D02*
X13572D01*
Y6599D02*
X13497D01*
Y6699D02*
X13572D01*
X13647Y6799D02*
X13497D01*
Y6899D02*
X13572D01*
Y6999D02*
X13497D01*
Y7099D02*
X13572D01*
Y7199D02*
X13497D01*
Y7299D02*
X13697D01*
X13572Y7399D02*
X13497D01*
Y7499D02*
X13572D01*
Y7599D02*
X13497D01*
Y7699D02*
X13572D01*
X13647Y7799D02*
X13497D01*
Y7899D02*
X13572D01*
Y7999D02*
X13497D01*
Y8099D02*
X13572D01*
Y8199D02*
X13497D01*
Y8299D02*
X13697D01*
X13572Y8399D02*
X13497D01*
Y8499D02*
X13572D01*
Y8599D02*
X13497D01*
Y8699D02*
X13572D01*
X13647Y8799D02*
X13497D01*
Y8899D02*
X13572D01*
Y8999D02*
X13497D01*
Y9099D02*
X13572D01*
Y9199D02*
X13497D01*
Y9299D02*
X13697D01*
X13572Y9399D02*
X13497D01*
Y9499D02*
X13572D01*
Y9599D02*
X13497D01*
Y9699D02*
X13572D01*
X13647Y9799D02*
X13497D01*
Y9899D02*
X13572D01*
Y9999D02*
X13497D01*
Y10099D02*
X13572D01*
Y10199D02*
X13497D01*
Y10299D02*
X13697D01*
X13572Y10399D02*
X13497D01*
Y10499D02*
X13572D01*
Y10599D02*
X13497D01*
Y10699D02*
X13572D01*
X13647Y10799D02*
X13497D01*
Y10899D02*
X13572D01*
Y10999D02*
X13497D01*
Y11099D02*
X13572D01*
Y11199D02*
X13497D01*
Y11299D02*
X13697D01*
X13197D02*
X13147D01*
X13197D02*
X13247D01*
X13272D02*
X13422D01*
X13122D02*
X13072D01*
X6322Y5299D02*
X6272D01*
X6122D02*
X6072D01*
X13197Y5224D02*
Y5074D01*
Y5374D02*
Y5424D01*
X13497Y5074D02*
Y4999D01*
X13272Y4974D02*
Y5024D01*
X13264Y5014D02*
Y4984D01*
X13497Y5199D02*
Y5224D01*
X13261Y5008D02*
Y4990D01*
X13268Y4980D02*
Y5018D01*
X13257Y5004D02*
Y4994D01*
X13197Y4999D02*
Y4799D01*
X13097Y4924D02*
Y4999D01*
X12997D02*
Y4924D01*
X12897D02*
Y4999D01*
X12797D02*
Y4924D01*
X12697Y4849D02*
Y4999D01*
X12597D02*
Y4924D01*
X12497D02*
Y4999D01*
X12397D02*
Y4924D01*
X12297D02*
Y4999D01*
X12197D02*
Y4799D01*
X12097Y4924D02*
Y4999D01*
X11997D02*
Y4924D01*
X11897D02*
Y4999D01*
X11797D02*
Y4924D01*
X11697Y4849D02*
Y4999D01*
X11597D02*
Y4924D01*
X11497D02*
Y4999D01*
X11397D02*
Y4924D01*
X11297D02*
Y4999D01*
X11197D02*
Y4799D01*
X11097Y4924D02*
Y4999D01*
X10997D02*
Y4924D01*
X10897D02*
Y4999D01*
X10797D02*
Y4924D01*
X10697Y4849D02*
Y4999D01*
X10597D02*
Y4924D01*
X10497D02*
Y4999D01*
X10397D02*
Y4924D01*
X10297D02*
Y4999D01*
X10197D02*
Y4799D01*
X10097Y4924D02*
Y4999D01*
X9997D02*
Y4924D01*
X9897D02*
Y4999D01*
X9797D02*
Y4924D01*
X9697Y4849D02*
Y4999D01*
X9597D02*
Y4924D01*
X9497D02*
Y4999D01*
X9397D02*
Y4924D01*
X9297D02*
Y4999D01*
X9197D02*
Y4799D01*
X9097Y4924D02*
Y4999D01*
X8997D02*
Y4924D01*
X8897D02*
Y4999D01*
X8797D02*
Y4924D01*
X8697Y4849D02*
Y4999D01*
X8597D02*
Y4924D01*
X8497D02*
Y4999D01*
X8397D02*
Y4924D01*
X8297D02*
Y4999D01*
X8197D02*
Y4799D01*
X8097Y4924D02*
Y4999D01*
X7997D02*
Y4924D01*
X7897D02*
Y4999D01*
X7797D02*
Y4924D01*
X7697Y4849D02*
Y4999D01*
X7597D02*
Y4924D01*
X7497D02*
Y4999D01*
X7397D02*
Y4924D01*
X7297D02*
Y4999D01*
X7197D02*
Y4799D01*
X7097Y4924D02*
Y4999D01*
X6997D02*
Y4924D01*
X6897D02*
Y4999D01*
X6797D02*
Y4924D01*
X6697Y4849D02*
Y4999D01*
X6597D02*
Y4924D01*
X6497D02*
Y4999D01*
X6397D02*
Y4924D01*
X6297D02*
Y4999D01*
X6197D02*
Y4799D01*
X13197Y11249D02*
Y11299D01*
Y11349D01*
Y11374D02*
Y11424D01*
Y11224D02*
Y11174D01*
X6197Y5424D02*
Y5374D01*
Y5224D02*
Y5074D01*
X13162Y5334D02*
X13197Y5299D01*
X13232Y5264D01*
X6232D02*
X6197Y5299D01*
X6162Y5334D01*
X13162Y5264D02*
X13197Y5299D01*
X13232Y5334D01*
X6197Y5299D02*
X6162Y5264D01*
X6197Y5299D02*
X6232Y5334D01*
X13197Y4999D02*
X13272Y4974D01*
Y5024D02*
X13197Y4999D01*
X13221D02*
X13264Y5014D01*
Y4984D02*
X13221Y4999D01*
X13472Y5224D02*
X13497Y5299D01*
X13522Y5224D01*
X13512Y5232D02*
X13497Y5275D01*
X13483Y5232D01*
X13507Y5236D02*
X13497Y5264D01*
X13488Y5236D01*
X13517Y5228D02*
X13497Y5286D01*
X13478Y5228D01*
X13502Y5239D02*
X13497Y5252D01*
X13493Y5239D01*
X13261Y5008D02*
X13233Y4999D01*
X13261Y4990D01*
X13268Y5018D02*
X13210Y4999D01*
X13268Y4980D01*
X13257Y5004D02*
X13244Y4999D01*
X13257Y4994D01*
X6147Y5299D02*
X6147Y5302D01*
X6147Y5306D01*
X6148Y5309D01*
X6149Y5312D01*
X6150Y5316D01*
X6151Y5319D01*
X6152Y5322D01*
X6154Y5325D01*
X6156Y5328D01*
X6158Y5330D01*
X6160Y5333D01*
X6163Y5335D01*
X6165Y5337D01*
X6168Y5340D01*
X6171Y5341D01*
X6173Y5343D01*
X6177Y5345D01*
X6180Y5346D01*
X6183Y5347D01*
X6186Y5348D01*
X6189Y5348D01*
X6193Y5349D01*
X6196Y5349D01*
X6200Y5349D01*
X6203Y5349D01*
X6206Y5348D01*
X6210Y5347D01*
X6213Y5346D01*
X6216Y5345D01*
X6219Y5344D01*
X6222Y5342D01*
X6225Y5341D01*
X6228Y5339D01*
X6230Y5336D01*
X6233Y5334D01*
X6235Y5332D01*
X6237Y5329D01*
X6239Y5326D01*
X6241Y5323D01*
X6242Y5320D01*
X6244Y5317D01*
X6245Y5314D01*
X6246Y5311D01*
X6246Y5307D01*
X6247Y5304D01*
X6247Y5301D01*
Y5297D01*
X6247Y5294D01*
X6246Y5291D01*
X6246Y5287D01*
X6245Y5284D01*
X6244Y5281D01*
X6242Y5278D01*
X6241Y5275D01*
X6239Y5272D01*
X6237Y5269D01*
X6235Y5266D01*
X6233Y5264D01*
X6230Y5262D01*
X6228Y5259D01*
X6225Y5257D01*
X6222Y5256D01*
X6219Y5254D01*
X6216Y5253D01*
X6213Y5252D01*
X6210Y5251D01*
X6206Y5250D01*
X6203Y5249D01*
X6200Y5249D01*
X6196Y5249D01*
X6193Y5249D01*
X6189Y5250D01*
X6186Y5250D01*
X6183Y5251D01*
X6180Y5252D01*
X6177Y5253D01*
X6173Y5255D01*
X6171Y5257D01*
X6168Y5258D01*
X6165Y5261D01*
X6163Y5263D01*
X6160Y5265D01*
X6158Y5268D01*
X6156Y5270D01*
X6154Y5273D01*
X6152Y5276D01*
X6151Y5279D01*
X6150Y5282D01*
X6149Y5286D01*
X6148Y5289D01*
X6147Y5292D01*
X6147Y5296D01*
X6147Y5299D01*
X6122D02*
X6122Y5302D01*
X6122Y5306D01*
X6123Y5309D01*
X6123Y5312D01*
X6124Y5316D01*
X6125Y5319D01*
X6126Y5322D01*
X6127Y5325D01*
X6128Y5328D01*
X6129Y5331D01*
X6131Y5334D01*
X6132Y5337D01*
X6134Y5340D01*
X6136Y5343D01*
X6138Y5345D01*
X6140Y5348D01*
X6143Y5351D01*
X6145Y5353D01*
X6147Y5355D01*
X6150Y5357D01*
X6153Y5359D01*
X6155Y5361D01*
X6158Y5363D01*
X6161Y5365D01*
X6164Y5366D01*
X6167Y5368D01*
X6170Y5369D01*
X6173Y5370D01*
X6176Y5371D01*
X6180Y5372D01*
X6183Y5373D01*
X6186Y5373D01*
X6189Y5374D01*
X6193Y5374D01*
X6196Y5374D01*
X6200Y5374D01*
X6203Y5374D01*
X6206Y5373D01*
X6209Y5373D01*
X6213Y5372D01*
X6216Y5372D01*
X6219Y5371D01*
X6222Y5370D01*
X6226Y5368D01*
X6229Y5367D01*
X6232Y5366D01*
X6234Y5364D01*
X6237Y5362D01*
X6240Y5360D01*
X6243Y5358D01*
X6245Y5356D01*
X6248Y5354D01*
X6250Y5352D01*
X6253Y5349D01*
X6255Y5347D01*
X6257Y5344D01*
X6259Y5341D01*
X6261Y5339D01*
X6262Y5336D01*
X6264Y5333D01*
X6265Y5330D01*
X6267Y5327D01*
X6268Y5324D01*
X6269Y5320D01*
X6270Y5317D01*
X6270Y5314D01*
X6271Y5311D01*
X6272Y5307D01*
X6272Y5304D01*
X6272Y5301D01*
Y5297D01*
X6272Y5294D01*
X6272Y5291D01*
X6271Y5287D01*
X6270Y5284D01*
X6270Y5281D01*
X6269Y5278D01*
X6268Y5274D01*
X6267Y5271D01*
X6265Y5268D01*
X6264Y5265D01*
X6262Y5262D01*
X6261Y5259D01*
X6259Y5257D01*
X6257Y5254D01*
X6255Y5251D01*
X6253Y5249D01*
X6250Y5246D01*
X6248Y5244D01*
X6245Y5242D01*
X6243Y5240D01*
X6240Y5238D01*
X6237Y5236D01*
X6234Y5234D01*
X6232Y5232D01*
X6229Y5231D01*
X6226Y5230D01*
X6222Y5228D01*
X6219Y5227D01*
X6216Y5226D01*
X6213Y5226D01*
X6209Y5225D01*
X6206Y5225D01*
X6203Y5224D01*
X6200Y5224D01*
X6196Y5224D01*
X6193Y5224D01*
X6189Y5224D01*
X6186Y5225D01*
X6183Y5225D01*
X6180Y5226D01*
X6176Y5227D01*
X6173Y5228D01*
X6170Y5229D01*
X6167Y5230D01*
X6164Y5232D01*
X6161Y5233D01*
X6158Y5235D01*
X6155Y5237D01*
X6153Y5239D01*
X6150Y5241D01*
X6147Y5243D01*
X6145Y5245D01*
X6143Y5247D01*
X6140Y5250D01*
X6138Y5253D01*
X6136Y5255D01*
X6134Y5258D01*
X6132Y5261D01*
X6131Y5264D01*
X6129Y5267D01*
X6128Y5270D01*
X6127Y5273D01*
X6126Y5276D01*
X6125Y5279D01*
X6124Y5282D01*
X6123Y5286D01*
X6123Y5289D01*
X6122Y5292D01*
X6122Y5296D01*
X6122Y5299D01*
X6194D02*
X6196Y5301D01*
X6198D01*
X6200Y5299D01*
X6198Y5297D01*
X6196D01*
X6194Y5299D01*
X6192D02*
X6193Y5302D01*
X6196Y5304D01*
X6200Y5303D01*
X6202Y5301D01*
Y5297D01*
X6200Y5295D01*
X6196Y5294D01*
X6193Y5296D01*
X6192Y5299D01*
X6177D02*
X6177Y5302D01*
X6178Y5305D01*
X6179Y5308D01*
X6181Y5311D01*
X6183Y5313D01*
X6186Y5315D01*
X6188Y5317D01*
X6191Y5318D01*
X6195Y5319D01*
X6198Y5319D01*
X6201Y5319D01*
X6204Y5318D01*
X6207Y5316D01*
X6210Y5314D01*
X6212Y5312D01*
X6214Y5310D01*
X6215Y5307D01*
X6216Y5304D01*
X6217Y5301D01*
Y5297D01*
X6216Y5294D01*
X6215Y5291D01*
X6214Y5288D01*
X6212Y5286D01*
X6210Y5283D01*
X6207Y5282D01*
X6204Y5280D01*
X6201Y5279D01*
X6198Y5279D01*
X6195Y5279D01*
X6191Y5280D01*
X6188Y5281D01*
X6186Y5283D01*
X6183Y5285D01*
X6181Y5287D01*
X6179Y5290D01*
X6178Y5293D01*
X6177Y5296D01*
X6177Y5299D01*
X6182D02*
X6182Y5302D01*
X6184Y5306D01*
X6186Y5309D01*
X6188Y5311D01*
X6191Y5313D01*
X6194Y5314D01*
X6198Y5314D01*
X6201Y5313D01*
X6204Y5312D01*
X6207Y5310D01*
X6210Y5307D01*
X6211Y5304D01*
X6212Y5301D01*
Y5297D01*
X6211Y5294D01*
X6210Y5291D01*
X6207Y5288D01*
X6204Y5286D01*
X6201Y5285D01*
X6198Y5284D01*
X6194Y5284D01*
X6191Y5285D01*
X6188Y5287D01*
X6186Y5289D01*
X6184Y5292D01*
X6182Y5296D01*
X6182Y5299D01*
X6187D02*
X6188Y5302D01*
X6189Y5305D01*
X6192Y5308D01*
X6195Y5309D01*
X6199D01*
X6202Y5308D01*
X6205Y5305D01*
X6206Y5302D01*
X6207Y5299D01*
X6206Y5296D01*
X6205Y5293D01*
X6202Y5290D01*
X6199Y5289D01*
X6195D01*
X6192Y5290D01*
X6189Y5293D01*
X6188Y5296D01*
X6187Y5299D01*
X13122Y11299D02*
X13122Y11302D01*
X13122Y11306D01*
X13123Y11309D01*
X13123Y11312D01*
X13124Y11316D01*
X13125Y11319D01*
X13126Y11322D01*
X13127Y11325D01*
X13128Y11328D01*
X13129Y11331D01*
X13131Y11334D01*
X13132Y11337D01*
X13134Y11340D01*
X13136Y11343D01*
X13138Y11345D01*
X13140Y11348D01*
X13143Y11351D01*
X13145Y11353D01*
X13147Y11355D01*
X13150Y11357D01*
X13153Y11359D01*
X13155Y11361D01*
X13158Y11363D01*
X13161Y11365D01*
X13164Y11366D01*
X13167Y11368D01*
X13170Y11369D01*
X13173Y11370D01*
X13176Y11371D01*
X13180Y11372D01*
X13183Y11373D01*
X13186Y11373D01*
X13190Y11374D01*
X13193Y11374D01*
X13196Y11374D01*
X13200Y11374D01*
X13203Y11374D01*
X13206Y11373D01*
X13209Y11373D01*
X13213Y11372D01*
X13216Y11372D01*
X13219Y11371D01*
X13222Y11370D01*
X13226Y11368D01*
X13229Y11367D01*
X13232Y11366D01*
X13235Y11364D01*
X13237Y11362D01*
X13240Y11360D01*
X13243Y11358D01*
X13245Y11356D01*
X13248Y11354D01*
X13250Y11352D01*
X13253Y11349D01*
X13255Y11347D01*
X13257Y11344D01*
X13259Y11341D01*
X13261Y11339D01*
X13262Y11336D01*
X13264Y11333D01*
X13265Y11330D01*
X13267Y11327D01*
X13268Y11324D01*
X13269Y11320D01*
X13270Y11317D01*
X13271Y11314D01*
X13271Y11311D01*
X13272Y11307D01*
X13272Y11304D01*
X13272Y11301D01*
Y11297D01*
X13272Y11294D01*
X13272Y11291D01*
X13271Y11287D01*
X13271Y11284D01*
X13270Y11281D01*
X13269Y11278D01*
X13268Y11274D01*
X13267Y11271D01*
X13265Y11268D01*
X13264Y11265D01*
X13262Y11262D01*
X13261Y11259D01*
X13259Y11257D01*
X13257Y11254D01*
X13255Y11251D01*
X13253Y11249D01*
X13250Y11246D01*
X13248Y11244D01*
X13245Y11242D01*
X13243Y11240D01*
X13240Y11238D01*
X13237Y11236D01*
X13235Y11234D01*
X13232Y11232D01*
X13229Y11231D01*
X13226Y11230D01*
X13222Y11228D01*
X13219Y11227D01*
X13216Y11226D01*
X13213Y11226D01*
X13209Y11225D01*
X13206Y11225D01*
X13203Y11224D01*
X13200Y11224D01*
X13196Y11224D01*
X13193Y11224D01*
X13190Y11224D01*
X13186Y11225D01*
X13183Y11225D01*
X13180Y11226D01*
X13176Y11227D01*
X13173Y11228D01*
X13170Y11229D01*
X13167Y11230D01*
X13164Y11232D01*
X13161Y11233D01*
X13158Y11235D01*
X13155Y11237D01*
X13153Y11239D01*
X13150Y11241D01*
X13147Y11243D01*
X13145Y11245D01*
X13143Y11247D01*
X13140Y11250D01*
X13138Y11253D01*
X13136Y11255D01*
X13134Y11258D01*
X13132Y11261D01*
X13131Y11264D01*
X13129Y11267D01*
X13128Y11270D01*
X13127Y11273D01*
X13126Y11276D01*
X13125Y11279D01*
X13124Y11282D01*
X13123Y11286D01*
X13123Y11289D01*
X13122Y11292D01*
X13122Y11296D01*
X13122Y11299D01*
X13195D02*
X13196Y11301D01*
X13198D01*
X13200Y11299D01*
X13198Y11297D01*
X13196D01*
X13195Y11299D01*
X13192D02*
X13193Y11302D01*
X13196Y11304D01*
X13200Y11303D01*
X13202Y11301D01*
Y11297D01*
X13200Y11295D01*
X13196Y11294D01*
X13193Y11296D01*
X13192Y11299D01*
X13187D02*
X13188Y11302D01*
X13189Y11305D01*
X13192Y11308D01*
X13195Y11309D01*
X13199D01*
X13202Y11308D01*
X13205Y11305D01*
X13206Y11302D01*
X13207Y11299D01*
X13206Y11296D01*
X13205Y11293D01*
X13202Y11290D01*
X13199Y11289D01*
X13195D01*
X13192Y11290D01*
X13189Y11293D01*
X13188Y11296D01*
X13187Y11299D01*
X13182D02*
X13182Y11302D01*
X13184Y11306D01*
X13186Y11309D01*
X13188Y11311D01*
X13191Y11313D01*
X13194Y11314D01*
X13198Y11314D01*
X13201Y11313D01*
X13205Y11312D01*
X13207Y11310D01*
X13210Y11307D01*
X13211Y11304D01*
X13212Y11301D01*
Y11297D01*
X13211Y11294D01*
X13210Y11291D01*
X13207Y11288D01*
X13205Y11286D01*
X13201Y11285D01*
X13198Y11284D01*
X13194Y11284D01*
X13191Y11285D01*
X13188Y11287D01*
X13186Y11289D01*
X13184Y11292D01*
X13182Y11296D01*
X13182Y11299D01*
X13177D02*
X13177Y11302D01*
X13178Y11305D01*
X13179Y11308D01*
X13181Y11311D01*
X13183Y11313D01*
X13186Y11315D01*
X13188Y11317D01*
X13191Y11318D01*
X13195Y11319D01*
X13198Y11319D01*
X13201Y11319D01*
X13204Y11318D01*
X13207Y11316D01*
X13210Y11314D01*
X13212Y11312D01*
X13214Y11310D01*
X13215Y11307D01*
X13216Y11304D01*
X13217Y11301D01*
Y11297D01*
X13216Y11294D01*
X13215Y11291D01*
X13214Y11288D01*
X13212Y11286D01*
X13210Y11284D01*
X13207Y11282D01*
X13204Y11280D01*
X13201Y11279D01*
X13198Y11279D01*
X13195Y11279D01*
X13191Y11280D01*
X13188Y11281D01*
X13186Y11283D01*
X13183Y11285D01*
X13181Y11287D01*
X13179Y11290D01*
X13178Y11293D01*
X13177Y11296D01*
X13177Y11299D01*
X13147D02*
X13147Y11302D01*
X13147Y11306D01*
X13148Y11309D01*
X13149Y11312D01*
X13150Y11316D01*
X13151Y11319D01*
X13152Y11322D01*
X13154Y11325D01*
X13156Y11328D01*
X13158Y11330D01*
X13160Y11333D01*
X13163Y11335D01*
X13165Y11337D01*
X13168Y11340D01*
X13171Y11341D01*
X13173Y11343D01*
X13177Y11345D01*
X13180Y11346D01*
X13183Y11347D01*
X13186Y11348D01*
X13189Y11348D01*
X13193Y11349D01*
X13196Y11349D01*
X13200Y11349D01*
X13203Y11349D01*
X13206Y11348D01*
X13210Y11347D01*
X13213Y11346D01*
X13216Y11345D01*
X13219Y11344D01*
X13222Y11342D01*
X13225Y11341D01*
X13228Y11339D01*
X13230Y11336D01*
X13233Y11334D01*
X13235Y11332D01*
X13237Y11329D01*
X13239Y11326D01*
X13241Y11323D01*
X13242Y11320D01*
X13244Y11317D01*
X13245Y11314D01*
X13246Y11311D01*
X13246Y11307D01*
X13247Y11304D01*
X13247Y11301D01*
Y11297D01*
X13247Y11294D01*
X13246Y11291D01*
X13246Y11287D01*
X13245Y11284D01*
X13244Y11281D01*
X13242Y11278D01*
X13241Y11275D01*
X13239Y11272D01*
X13237Y11269D01*
X13235Y11266D01*
X13233Y11264D01*
X13230Y11262D01*
X13228Y11259D01*
X13225Y11257D01*
X13222Y11256D01*
X13219Y11254D01*
X13216Y11253D01*
X13213Y11252D01*
X13210Y11251D01*
X13206Y11250D01*
X13203Y11249D01*
X13200Y11249D01*
X13196Y11249D01*
X13193Y11249D01*
X13189Y11250D01*
X13186Y11250D01*
X13183Y11251D01*
X13180Y11252D01*
X13177Y11253D01*
X13173Y11255D01*
X13171Y11257D01*
X13168Y11258D01*
X13165Y11261D01*
X13163Y11263D01*
X13160Y11265D01*
X13158Y11268D01*
X13156Y11270D01*
X13154Y11273D01*
X13152Y11276D01*
X13151Y11279D01*
X13150Y11282D01*
X13149Y11286D01*
X13148Y11289D01*
X13147Y11292D01*
X13147Y11296D01*
X13147Y11299D01*
X13147Y5299D02*
X13147Y5302D01*
X13147Y5306D01*
X13148Y5309D01*
X13149Y5312D01*
X13150Y5316D01*
X13151Y5319D01*
X13152Y5322D01*
X13154Y5325D01*
X13156Y5328D01*
X13158Y5330D01*
X13160Y5333D01*
X13163Y5335D01*
X13165Y5337D01*
X13168Y5340D01*
X13171Y5341D01*
X13173Y5343D01*
X13177Y5345D01*
X13180Y5346D01*
X13183Y5347D01*
X13186Y5348D01*
X13189Y5348D01*
X13193Y5349D01*
X13196Y5349D01*
X13200Y5349D01*
X13203Y5349D01*
X13206Y5348D01*
X13210Y5347D01*
X13213Y5346D01*
X13216Y5345D01*
X13219Y5344D01*
X13222Y5342D01*
X13225Y5341D01*
X13228Y5339D01*
X13230Y5336D01*
X13233Y5334D01*
X13235Y5332D01*
X13237Y5329D01*
X13239Y5326D01*
X13241Y5323D01*
X13242Y5320D01*
X13244Y5317D01*
X13245Y5314D01*
X13246Y5311D01*
X13246Y5307D01*
X13247Y5304D01*
X13247Y5301D01*
Y5297D01*
X13247Y5294D01*
X13246Y5291D01*
X13246Y5287D01*
X13245Y5284D01*
X13244Y5281D01*
X13242Y5278D01*
X13241Y5275D01*
X13239Y5272D01*
X13237Y5269D01*
X13235Y5266D01*
X13233Y5264D01*
X13230Y5262D01*
X13228Y5259D01*
X13225Y5257D01*
X13222Y5256D01*
X13219Y5254D01*
X13216Y5253D01*
X13213Y5252D01*
X13210Y5251D01*
X13206Y5250D01*
X13203Y5249D01*
X13200Y5249D01*
X13196Y5249D01*
X13193Y5249D01*
X13189Y5250D01*
X13186Y5250D01*
X13183Y5251D01*
X13180Y5252D01*
X13177Y5253D01*
X13173Y5255D01*
X13171Y5257D01*
X13168Y5258D01*
X13165Y5261D01*
X13163Y5263D01*
X13160Y5265D01*
X13158Y5268D01*
X13156Y5270D01*
X13154Y5273D01*
X13152Y5276D01*
X13151Y5279D01*
X13150Y5282D01*
X13149Y5286D01*
X13148Y5289D01*
X13147Y5292D01*
X13147Y5296D01*
X13147Y5299D01*
X13122D02*
X13122Y5302D01*
X13122Y5306D01*
X13123Y5309D01*
X13123Y5312D01*
X13124Y5316D01*
X13125Y5319D01*
X13126Y5322D01*
X13127Y5325D01*
X13128Y5328D01*
X13129Y5331D01*
X13131Y5334D01*
X13132Y5337D01*
X13134Y5340D01*
X13136Y5343D01*
X13138Y5345D01*
X13140Y5348D01*
X13143Y5351D01*
X13145Y5353D01*
X13147Y5355D01*
X13150Y5357D01*
X13153Y5359D01*
X13155Y5361D01*
X13158Y5363D01*
X13161Y5365D01*
X13164Y5366D01*
X13167Y5368D01*
X13170Y5369D01*
X13173Y5370D01*
X13176Y5371D01*
X13180Y5372D01*
X13183Y5373D01*
X13186Y5373D01*
X13189Y5374D01*
X13193Y5374D01*
X13196Y5374D01*
X13200Y5374D01*
X13203Y5374D01*
X13206Y5373D01*
X13209Y5373D01*
X13213Y5372D01*
X13216Y5372D01*
X13219Y5371D01*
X13222Y5370D01*
X13226Y5368D01*
X13229Y5367D01*
X13232Y5366D01*
X13234Y5364D01*
X13237Y5362D01*
X13240Y5360D01*
X13243Y5358D01*
X13245Y5356D01*
X13248Y5354D01*
X13250Y5352D01*
X13253Y5349D01*
X13255Y5347D01*
X13257Y5344D01*
X13259Y5341D01*
X13261Y5339D01*
X13262Y5336D01*
X13264Y5333D01*
X13265Y5330D01*
X13267Y5327D01*
X13268Y5324D01*
X13269Y5320D01*
X13270Y5317D01*
X13270Y5314D01*
X13271Y5311D01*
X13272Y5307D01*
X13272Y5304D01*
X13272Y5301D01*
Y5297D01*
X13272Y5294D01*
X13272Y5291D01*
X13271Y5287D01*
X13270Y5284D01*
X13270Y5281D01*
X13269Y5278D01*
X13268Y5274D01*
X13267Y5271D01*
X13265Y5268D01*
X13264Y5265D01*
X13262Y5262D01*
X13261Y5259D01*
X13259Y5257D01*
X13257Y5254D01*
X13255Y5251D01*
X13253Y5249D01*
X13250Y5246D01*
X13248Y5244D01*
X13245Y5242D01*
X13243Y5240D01*
X13240Y5238D01*
X13237Y5236D01*
X13234Y5234D01*
X13232Y5232D01*
X13229Y5231D01*
X13226Y5230D01*
X13222Y5228D01*
X13219Y5227D01*
X13216Y5226D01*
X13213Y5226D01*
X13209Y5225D01*
X13206Y5225D01*
X13203Y5224D01*
X13200Y5224D01*
X13196Y5224D01*
X13193Y5224D01*
X13189Y5224D01*
X13186Y5225D01*
X13183Y5225D01*
X13180Y5226D01*
X13176Y5227D01*
X13173Y5228D01*
X13170Y5229D01*
X13167Y5230D01*
X13164Y5232D01*
X13161Y5233D01*
X13158Y5235D01*
X13155Y5237D01*
X13153Y5239D01*
X13150Y5241D01*
X13147Y5243D01*
X13145Y5245D01*
X13143Y5247D01*
X13140Y5250D01*
X13138Y5253D01*
X13136Y5255D01*
X13134Y5258D01*
X13132Y5261D01*
X13131Y5264D01*
X13129Y5267D01*
X13128Y5270D01*
X13127Y5273D01*
X13126Y5276D01*
X13125Y5279D01*
X13124Y5282D01*
X13123Y5286D01*
X13123Y5289D01*
X13122Y5292D01*
X13122Y5296D01*
X13122Y5299D01*
X13194D02*
X13196Y5301D01*
X13198D01*
X13200Y5299D01*
X13198Y5297D01*
X13196D01*
X13194Y5299D01*
X13192D02*
X13193Y5302D01*
X13196Y5304D01*
X13200Y5303D01*
X13202Y5301D01*
Y5297D01*
X13200Y5295D01*
X13196Y5294D01*
X13193Y5296D01*
X13192Y5299D01*
X13177D02*
X13177Y5302D01*
X13178Y5305D01*
X13179Y5308D01*
X13181Y5311D01*
X13183Y5313D01*
X13186Y5315D01*
X13188Y5317D01*
X13191Y5318D01*
X13195Y5319D01*
X13198Y5319D01*
X13201Y5319D01*
X13204Y5318D01*
X13207Y5316D01*
X13210Y5314D01*
X13212Y5312D01*
X13214Y5310D01*
X13215Y5307D01*
X13216Y5304D01*
X13217Y5301D01*
Y5297D01*
X13216Y5294D01*
X13215Y5291D01*
X13214Y5288D01*
X13212Y5286D01*
X13210Y5283D01*
X13207Y5282D01*
X13204Y5280D01*
X13201Y5279D01*
X13198Y5279D01*
X13195Y5279D01*
X13191Y5280D01*
X13188Y5281D01*
X13186Y5283D01*
X13183Y5285D01*
X13181Y5287D01*
X13179Y5290D01*
X13178Y5293D01*
X13177Y5296D01*
X13177Y5299D01*
X13187D02*
X13188Y5302D01*
X13189Y5305D01*
X13192Y5308D01*
X13195Y5309D01*
X13199D01*
X13202Y5308D01*
X13205Y5305D01*
X13206Y5302D01*
X13207Y5299D01*
X13206Y5296D01*
X13205Y5293D01*
X13202Y5290D01*
X13199Y5289D01*
X13195D01*
X13192Y5290D01*
X13189Y5293D01*
X13188Y5296D01*
X13187Y5299D01*
X13182D02*
X13182Y5302D01*
X13184Y5306D01*
X13186Y5309D01*
X13188Y5311D01*
X13191Y5313D01*
X13194Y5314D01*
X13198Y5314D01*
X13201Y5313D01*
X13204Y5312D01*
X13207Y5310D01*
X13210Y5307D01*
X13211Y5304D01*
X13212Y5301D01*
Y5297D01*
X13211Y5294D01*
X13210Y5291D01*
X13207Y5288D01*
X13204Y5286D01*
X13201Y5285D01*
X13198Y5284D01*
X13194Y5284D01*
X13191Y5285D01*
X13188Y5287D01*
X13186Y5289D01*
X13184Y5292D01*
X13182Y5296D01*
X13182Y5299D01*
D16*
X8877Y5378D02*
X8873Y5383D01*
X8877Y5378D02*
X8873Y5374D01*
X8868Y5378D01*
X8873Y5383D01*
X8784Y5443D02*
X8789Y5451D01*
X8797Y5460D01*
X8806Y5464D01*
X8823D01*
X8832Y5460D01*
X8840Y5451D01*
X8844Y5443D01*
X8849Y5430D01*
Y5408D01*
X8844Y5395D01*
X8840Y5387D01*
X8832Y5378D01*
X8823Y5374D01*
X8806D01*
X8797Y5378D01*
X8789Y5387D01*
X8784Y5395D01*
Y5408D01*
X8806D01*
X8764Y5374D02*
Y5464D01*
X8725D01*
X8712Y5460D01*
X8708Y5455D01*
X8704Y5447D01*
Y5438D01*
X8708Y5430D01*
X8712Y5425D01*
X8725Y5421D01*
X8764D01*
X8725D02*
X8712Y5417D01*
X8708Y5413D01*
X8704Y5404D01*
Y5391D01*
X8708Y5383D01*
X8712Y5378D01*
X8725Y5374D01*
X8764D01*
X8684D02*
Y5464D01*
Y5374D02*
X8632D01*
X13871Y11326D02*
X13875Y11335D01*
X13888Y11339D01*
X13896D01*
X13909Y11335D01*
X13918Y11322D01*
X13922Y11300D01*
Y11279D01*
X13918Y11262D01*
X13909Y11253D01*
X13896Y11249D01*
X13892D01*
X13879Y11253D01*
X13871Y11262D01*
X13866Y11275D01*
Y11279D01*
X13871Y11292D01*
X13879Y11300D01*
X13892Y11305D01*
X13896D01*
X13909Y11300D01*
X13918Y11292D01*
X13922Y11279D01*
X13847Y11253D02*
X13842Y11258D01*
X13847Y11253D02*
X13842Y11249D01*
X13838Y11253D01*
X13842Y11258D01*
X13805Y11335D02*
X13793Y11339D01*
X13805Y11335D02*
X13814Y11322D01*
X13818Y11300D01*
Y11288D01*
X13814Y11266D01*
X13805Y11253D01*
X13793Y11249D01*
X13784D01*
X13771Y11253D01*
X13763Y11266D01*
X13758Y11288D01*
Y11300D01*
X13763Y11322D01*
X13771Y11335D01*
X13784Y11339D01*
X13793D01*
X13879Y9339D02*
X13922Y9279D01*
X13858D01*
X13879Y9249D02*
Y9339D01*
X13838Y9258D02*
X13842Y9253D01*
X13838Y9249D01*
X13833Y9253D01*
X13838Y9258D01*
X13801Y9335D02*
X13788Y9339D01*
X13801Y9335D02*
X13809Y9322D01*
X13814Y9300D01*
Y9288D01*
X13809Y9266D01*
X13801Y9253D01*
X13788Y9249D01*
X13779D01*
X13766Y9253D01*
X13758Y9266D01*
X13754Y9288D01*
Y9300D01*
X13758Y9322D01*
X13766Y9335D01*
X13779Y9339D01*
X13788D01*
X13918Y7322D02*
Y7318D01*
Y7322D02*
X13913Y7330D01*
X13909Y7335D01*
X13901Y7339D01*
X13883D01*
X13875Y7335D01*
X13871Y7330D01*
X13866Y7322D01*
Y7313D01*
X13871Y7305D01*
X13879Y7292D01*
X13922Y7249D01*
X13862D01*
X13842Y7253D02*
X13838Y7258D01*
X13842Y7253D02*
X13838Y7249D01*
X13833Y7253D01*
X13838Y7258D01*
X13801Y7335D02*
X13788Y7339D01*
X13801Y7335D02*
X13809Y7322D01*
X13814Y7300D01*
Y7288D01*
X13809Y7266D01*
X13801Y7253D01*
X13788Y7249D01*
X13779D01*
X13766Y7253D01*
X13758Y7266D01*
X13754Y7288D01*
Y7300D01*
X13758Y7322D01*
X13766Y7335D01*
X13779Y7339D01*
X13788D01*
X13784Y5339D02*
X13797Y5335D01*
X13805Y5322D01*
X13810Y5300D01*
Y5288D01*
X13805Y5266D01*
X13797Y5253D01*
X13784Y5249D01*
X13775D01*
X13762Y5253D01*
X13754Y5266D01*
X13750Y5288D01*
Y5300D01*
X13754Y5322D01*
X13762Y5335D01*
X13775Y5339D01*
X13784D01*
X13897Y6322D02*
X13888Y6326D01*
X13876Y6339D01*
Y6249D01*
X13831Y6253D02*
X13827Y6258D01*
X13831Y6253D02*
X13827Y6249D01*
X13822Y6253D01*
X13827Y6258D01*
X13790Y6335D02*
X13777Y6339D01*
X13790Y6335D02*
X13798Y6322D01*
X13803Y6300D01*
Y6288D01*
X13798Y6266D01*
X13790Y6253D01*
X13777Y6249D01*
X13768D01*
X13756Y6253D01*
X13747Y6266D01*
X13743Y6288D01*
Y6300D01*
X13747Y6322D01*
X13756Y6335D01*
X13768Y6339D01*
X13777D01*
X13866Y8339D02*
X13913D01*
X13892Y8305D02*
X13866Y8339D01*
X13879Y8305D02*
X13892D01*
X13879D02*
X13871Y8300D01*
X13866Y8296D01*
X13862Y8283D01*
Y8275D01*
X13866Y8262D01*
X13875Y8253D01*
X13888Y8249D01*
X13901D01*
X13913Y8253D01*
X13918Y8258D01*
X13922Y8266D01*
X13842Y8253D02*
X13838Y8258D01*
X13842Y8253D02*
X13838Y8249D01*
X13833Y8253D01*
X13838Y8258D01*
X13801Y8335D02*
X13788Y8339D01*
X13801Y8335D02*
X13809Y8322D01*
X13814Y8300D01*
Y8288D01*
X13809Y8266D01*
X13801Y8253D01*
X13788Y8249D01*
X13779D01*
X13766Y8253D01*
X13758Y8266D01*
X13754Y8288D01*
Y8300D01*
X13758Y8322D01*
X13766Y8335D01*
X13779Y8339D01*
X13788D01*
X13871Y10339D02*
X13913D01*
X13918Y10300D01*
X13913Y10305D01*
X13901Y10309D01*
X13888D01*
X13875Y10305D01*
X13866Y10296D01*
X13862Y10283D01*
Y10275D01*
X13866Y10262D01*
X13875Y10253D01*
X13888Y10249D01*
X13901D01*
X13913Y10253D01*
X13918Y10258D01*
X13922Y10266D01*
X13842Y10253D02*
X13838Y10258D01*
X13842Y10253D02*
X13838Y10249D01*
X13833Y10253D01*
X13838Y10258D01*
X13801Y10335D02*
X13788Y10339D01*
X13801Y10335D02*
X13809Y10322D01*
X13814Y10300D01*
Y10288D01*
X13809Y10266D01*
X13801Y10253D01*
X13788Y10249D01*
X13779D01*
X13766Y10253D01*
X13758Y10266D01*
X13754Y10288D01*
Y10300D01*
X13758Y10322D01*
X13766Y10335D01*
X13779Y10339D01*
X13788D01*
X6247Y4732D02*
X6157Y4689D01*
Y4749D01*
X6238Y4665D02*
X6243Y4669D01*
X6247Y4665D01*
X6243Y4660D01*
X6238Y4665D01*
X6161Y4628D02*
X6157Y4615D01*
X6161Y4628D02*
X6174Y4636D01*
X6196Y4641D01*
X6208D01*
X6230Y4636D01*
X6243Y4628D01*
X6247Y4615D01*
Y4606D01*
X6243Y4593D01*
X6230Y4585D01*
X6208Y4581D01*
X6196D01*
X6174Y4585D01*
X6161Y4593D01*
X6157Y4606D01*
Y4615D01*
X8157Y4698D02*
Y4740D01*
X8196Y4745D01*
X8191Y4740D01*
X8187Y4728D01*
Y4715D01*
X8191Y4702D01*
X8200Y4693D01*
X8213Y4689D01*
X8221D01*
X8234Y4693D01*
X8243Y4702D01*
X8247Y4715D01*
Y4728D01*
X8243Y4740D01*
X8238Y4745D01*
X8230Y4749D01*
X8243Y4669D02*
X8238Y4665D01*
X8243Y4669D02*
X8247Y4665D01*
X8243Y4660D01*
X8238Y4665D01*
X8161Y4628D02*
X8157Y4615D01*
X8161Y4628D02*
X8174Y4636D01*
X8196Y4641D01*
X8208D01*
X8230Y4636D01*
X8243Y4628D01*
X8247Y4615D01*
Y4606D01*
X8243Y4593D01*
X8230Y4585D01*
X8208Y4581D01*
X8196D01*
X8174Y4585D01*
X8161Y4593D01*
X8157Y4606D01*
Y4615D01*
X10157Y4693D02*
Y4740D01*
X10191Y4719D02*
X10157Y4693D01*
X10191Y4706D02*
Y4719D01*
Y4706D02*
X10196Y4698D01*
X10200Y4693D01*
X10213Y4689D01*
X10221D01*
X10234Y4693D01*
X10243Y4702D01*
X10247Y4715D01*
Y4728D01*
X10243Y4740D01*
X10238Y4745D01*
X10230Y4749D01*
X10243Y4669D02*
X10238Y4665D01*
X10243Y4669D02*
X10247Y4665D01*
X10243Y4660D01*
X10238Y4665D01*
X10161Y4628D02*
X10157Y4615D01*
X10161Y4628D02*
X10174Y4636D01*
X10196Y4641D01*
X10208D01*
X10230Y4636D01*
X10243Y4628D01*
X10247Y4615D01*
Y4606D01*
X10243Y4593D01*
X10230Y4585D01*
X10208Y4581D01*
X10196D01*
X10174Y4585D01*
X10161Y4593D01*
X10157Y4606D01*
Y4615D01*
X12170Y4740D02*
X12174Y4749D01*
X12170Y4740D02*
X12157Y4728D01*
X12247D01*
X12243Y4683D02*
X12238Y4679D01*
X12243Y4683D02*
X12247Y4679D01*
X12243Y4674D01*
X12238Y4679D01*
X12161Y4642D02*
X12157Y4629D01*
X12161Y4642D02*
X12174Y4650D01*
X12196Y4655D01*
X12208D01*
X12230Y4650D01*
X12243Y4642D01*
X12247Y4629D01*
Y4620D01*
X12243Y4608D01*
X12230Y4599D01*
X12208Y4595D01*
X12196D01*
X12174Y4599D01*
X12161Y4608D01*
X12157Y4620D01*
Y4629D01*
X13157Y4723D02*
X13161Y4736D01*
X13174Y4745D01*
X13196Y4749D01*
X13208D01*
X13230Y4745D01*
X13243Y4736D01*
X13247Y4723D01*
Y4715D01*
X13243Y4702D01*
X13230Y4693D01*
X13208Y4689D01*
X13196D01*
X13174Y4693D01*
X13161Y4702D01*
X13157Y4715D01*
Y4723D01*
X11178Y4745D02*
X11174D01*
X11166Y4740D01*
X11161Y4736D01*
X11157Y4728D01*
Y4710D01*
X11161Y4702D01*
X11166Y4698D01*
X11174Y4693D01*
X11183D01*
X11191Y4698D01*
X11204Y4706D01*
X11247Y4749D01*
Y4689D01*
X11243Y4669D02*
X11238Y4665D01*
X11243Y4669D02*
X11247Y4665D01*
X11243Y4660D01*
X11238Y4665D01*
X11161Y4628D02*
X11157Y4615D01*
X11161Y4628D02*
X11174Y4636D01*
X11196Y4641D01*
X11208D01*
X11230Y4636D01*
X11243Y4628D01*
X11247Y4615D01*
Y4606D01*
X11243Y4593D01*
X11230Y4585D01*
X11208Y4581D01*
X11196D01*
X11174Y4585D01*
X11161Y4593D01*
X11157Y4606D01*
Y4615D01*
X9217Y4749D02*
X9157Y4706D01*
X9217Y4685D02*
Y4749D01*
X9247Y4706D02*
X9157D01*
X9238Y4665D02*
X9243Y4669D01*
X9247Y4665D01*
X9243Y4660D01*
X9238Y4665D01*
X9161Y4628D02*
X9157Y4615D01*
X9161Y4628D02*
X9174Y4636D01*
X9196Y4641D01*
X9208D01*
X9230Y4636D01*
X9243Y4628D01*
X9247Y4615D01*
Y4606D01*
X9243Y4593D01*
X9230Y4585D01*
X9208Y4581D01*
X9196D01*
X9174Y4585D01*
X9161Y4593D01*
X9157Y4606D01*
Y4615D01*
X7170Y4698D02*
X7161Y4702D01*
X7157Y4715D01*
Y4723D01*
X7161Y4736D01*
X7174Y4745D01*
X7196Y4749D01*
X7217D01*
X7234Y4745D01*
X7243Y4736D01*
X7247Y4723D01*
Y4719D01*
X7243Y4706D01*
X7234Y4698D01*
X7221Y4693D01*
X7217D01*
X7204Y4698D01*
X7196Y4706D01*
X7191Y4719D01*
Y4723D01*
X7196Y4736D01*
X7204Y4745D01*
X7217Y4749D01*
X7243Y4674D02*
X7238Y4669D01*
X7243Y4674D02*
X7247Y4669D01*
X7243Y4665D01*
X7238Y4669D01*
X7161Y4632D02*
X7157Y4620D01*
X7161Y4632D02*
X7174Y4641D01*
X7196Y4645D01*
X7208D01*
X7230Y4641D01*
X7243Y4632D01*
X7247Y4620D01*
Y4611D01*
X7243Y4598D01*
X7230Y4590D01*
X7208Y4585D01*
X7196D01*
X7174Y4590D01*
X7161Y4598D01*
X7157Y4611D01*
Y4620D01*
X13325Y4949D02*
X13385Y5039D01*
X13325D02*
X13385Y4949D01*
X13500Y5127D02*
X13457Y5162D01*
X13500Y5127D02*
X13547D01*
X13500D02*
X13457Y5093D01*
X9468Y5705D02*
Y5709D01*
X9463Y5718D01*
X9459Y5722D01*
X9451Y5726D01*
X9433D01*
X9425Y5722D01*
X9421Y5718D01*
X9416Y5709D01*
Y5701D01*
X9421Y5692D01*
X9429Y5679D01*
X9472Y5636D01*
X9412D01*
X9388Y5705D02*
Y5709D01*
X9383Y5718D01*
X9379Y5722D01*
X9370Y5726D01*
X9353D01*
X9345Y5722D01*
X9340Y5718D01*
X9336Y5709D01*
Y5701D01*
X9340Y5692D01*
X9349Y5679D01*
X9392Y5636D01*
X9332D01*
X9312Y5675D02*
X9235D01*
X9174Y5726D02*
X9140Y5636D01*
X9208D02*
X9174Y5726D01*
X9152Y5666D02*
X9195D01*
X9119Y5696D02*
Y5607D01*
Y5684D02*
X9110Y5692D01*
X9101Y5696D01*
X9089D01*
X9080Y5692D01*
X9071Y5684D01*
X9067Y5671D01*
Y5662D01*
X9071Y5649D01*
X9080Y5641D01*
X9089Y5636D01*
X9101D01*
X9110Y5641D01*
X9119Y5649D01*
X9048Y5636D02*
Y5696D01*
X9044Y5684D02*
X9048Y5671D01*
X9044Y5684D02*
X9035Y5692D01*
X9026Y5696D01*
X9014D01*
X9005Y5675D02*
X8928D01*
X8897Y5705D02*
Y5709D01*
X8893Y5718D01*
X8889Y5722D01*
X8880Y5726D01*
X8863D01*
X8855Y5722D01*
X8850Y5718D01*
X8846Y5709D01*
Y5701D01*
X8850Y5692D01*
X8859Y5679D01*
X8902Y5636D01*
X8842D01*
X8809Y5722D02*
X8796Y5726D01*
X8809Y5722D02*
X8817Y5709D01*
X8822Y5688D01*
Y5675D01*
X8817Y5654D01*
X8809Y5641D01*
X8796Y5636D01*
X8787D01*
X8774Y5641D01*
X8766Y5654D01*
X8762Y5675D01*
Y5688D01*
X8766Y5709D01*
X8774Y5722D01*
X8787Y5726D01*
X8796D01*
X8729Y5722D02*
X8716Y5726D01*
X8729Y5722D02*
X8737Y5709D01*
X8741Y5688D01*
Y5675D01*
X8737Y5654D01*
X8729Y5641D01*
X8716Y5636D01*
X8707D01*
X8694Y5641D01*
X8686Y5654D01*
X8681Y5675D01*
Y5688D01*
X8686Y5709D01*
X8694Y5722D01*
X8707Y5726D01*
X8716D01*
X8657Y5709D02*
Y5705D01*
Y5709D02*
X8653Y5718D01*
X8648Y5722D01*
X8640Y5726D01*
X8623D01*
X8614Y5722D01*
X8610Y5718D01*
X8606Y5709D01*
Y5701D01*
X8610Y5692D01*
X8618Y5679D01*
X8661Y5636D01*
X8601D01*
X9377Y6014D02*
Y6104D01*
X9317D02*
Y6014D01*
Y6061D02*
X9377D01*
X9292Y6104D02*
X9236D01*
X9292D02*
Y6014D01*
X9236D01*
X9258Y6061D02*
X9292D01*
X9221Y6104D02*
Y6014D01*
Y6104D02*
X9183D01*
X9170Y6100D01*
X9166Y6095D01*
X9161Y6087D01*
Y6078D01*
X9166Y6070D01*
X9170Y6065D01*
X9183Y6061D01*
X9221D01*
X9191D02*
X9161Y6014D01*
X9141Y6104D02*
X9086D01*
X9141D02*
Y6014D01*
X9086D01*
X9107Y6061D02*
X9141D01*
X9377Y6174D02*
Y6264D01*
Y6174D02*
X9326D01*
X9299Y6260D02*
X9290Y6264D01*
X9299Y6260D02*
X9307Y6251D01*
X9311Y6243D01*
X9316Y6230D01*
Y6208D01*
X9311Y6195D01*
X9307Y6187D01*
X9299Y6178D01*
X9290Y6174D01*
X9273D01*
X9264Y6178D01*
X9256Y6187D01*
X9251Y6195D01*
X9247Y6208D01*
Y6230D01*
X9251Y6243D01*
X9256Y6251D01*
X9264Y6260D01*
X9273Y6264D01*
X9290D01*
X9166Y6251D02*
X9162Y6243D01*
X9166Y6251D02*
X9175Y6260D01*
X9183Y6264D01*
X9200D01*
X9209Y6260D01*
X9218Y6251D01*
X9222Y6243D01*
X9226Y6230D01*
Y6208D01*
X9222Y6195D01*
X9218Y6187D01*
X9209Y6178D01*
X9200Y6174D01*
X9183D01*
X9175Y6178D01*
X9166Y6187D01*
X9162Y6195D01*
Y6208D01*
X9183D01*
X9124Y6260D02*
X9116Y6264D01*
X9124Y6260D02*
X9133Y6251D01*
X9137Y6243D01*
X9141Y6230D01*
Y6208D01*
X9137Y6195D01*
X9133Y6187D01*
X9124Y6178D01*
X9116Y6174D01*
X9098D01*
X9090Y6178D01*
X9081Y6187D01*
X9077Y6195D01*
X9073Y6208D01*
Y6230D01*
X9077Y6243D01*
X9081Y6251D01*
X9090Y6260D01*
X9098Y6264D01*
X9116D01*
X9338Y6357D02*
X9377D01*
X9338D02*
X9326Y6361D01*
X9321Y6365D01*
X9317Y6374D01*
Y6387D01*
X9321Y6395D01*
X9326Y6400D01*
X9338Y6404D01*
X9377D01*
Y6314D01*
X9297D02*
Y6404D01*
Y6314D02*
X9245D01*
X9167D02*
X9201Y6404D01*
X9236Y6314D01*
X9223Y6344D02*
X9180D01*
X9086Y6391D02*
X9082Y6383D01*
X9086Y6391D02*
X9095Y6400D01*
X9103Y6404D01*
X9120D01*
X9129Y6400D01*
X9137Y6391D01*
X9142Y6383D01*
X9146Y6370D01*
Y6348D01*
X9142Y6335D01*
X9137Y6327D01*
X9129Y6318D01*
X9120Y6314D01*
X9103D01*
X9095Y6318D01*
X9086Y6327D01*
X9082Y6335D01*
X9057Y6404D02*
X9001D01*
X9057D02*
Y6314D01*
X9001D01*
X9022Y6361D02*
X9057D01*
X9959Y5726D02*
X9972Y5722D01*
X9980Y5709D01*
X9985Y5688D01*
Y5675D01*
X9980Y5654D01*
X9972Y5641D01*
X9959Y5636D01*
X9950D01*
X9937Y5641D01*
X9929Y5654D01*
X9925Y5675D01*
Y5688D01*
X9929Y5709D01*
X9937Y5722D01*
X9950Y5726D01*
X9959D01*
X9904Y5709D02*
X9896Y5714D01*
X9883Y5726D01*
Y5636D01*
X10717Y5464D02*
Y5374D01*
Y5464D02*
X10678D01*
X10666Y5460D01*
X10661Y5455D01*
X10657Y5447D01*
Y5438D01*
X10661Y5430D01*
X10666Y5425D01*
X10678Y5421D01*
X10717D01*
X10678D02*
X10666Y5417D01*
X10661Y5413D01*
X10657Y5404D01*
Y5391D01*
X10661Y5383D01*
X10666Y5378D01*
X10678Y5374D01*
X10717D01*
X10624Y5430D02*
X10615Y5434D01*
X10624Y5430D02*
X10633Y5421D01*
X10637Y5408D01*
Y5400D01*
X10633Y5387D01*
X10624Y5378D01*
X10615Y5374D01*
X10603D01*
X10594Y5378D01*
X10585Y5387D01*
X10581Y5400D01*
Y5408D01*
X10585Y5421D01*
X10594Y5430D01*
X10603Y5434D01*
X10615D01*
X10549Y5464D02*
Y5391D01*
X10544Y5378D01*
X10536Y5374D01*
X10527D01*
X10531Y5434D02*
X10561D01*
X10501Y5464D02*
Y5391D01*
X10497Y5378D01*
X10489Y5374D01*
X10480D01*
X10484Y5434D02*
X10514D01*
X10454Y5430D02*
X10446Y5434D01*
X10454Y5430D02*
X10463Y5421D01*
X10467Y5408D01*
Y5400D01*
X10463Y5387D01*
X10454Y5378D01*
X10446Y5374D01*
X10433D01*
X10424Y5378D01*
X10416Y5387D01*
X10412Y5400D01*
Y5408D01*
X10416Y5421D01*
X10424Y5430D01*
X10433Y5434D01*
X10446D01*
X10392D02*
Y5374D01*
Y5417D02*
X10379Y5430D01*
X10370Y5434D01*
X10358D01*
X10349Y5430D01*
X10345Y5417D01*
Y5374D01*
Y5417D02*
X10332Y5430D01*
X10323Y5434D01*
X10310D01*
X10302Y5430D01*
X10298Y5417D01*
Y5374D01*
X10199D02*
Y5464D01*
Y5374D02*
X10147D01*
X10086D02*
Y5434D01*
X10094Y5430D02*
X10086Y5421D01*
X10094Y5430D02*
X10103Y5434D01*
X10116D01*
X10124Y5430D01*
X10133Y5421D01*
X10137Y5408D01*
Y5400D01*
X10133Y5387D01*
X10124Y5378D01*
X10116Y5374D01*
X10103D01*
X10094Y5378D01*
X10086Y5387D01*
X10058Y5434D02*
X10032Y5374D01*
X10006Y5434D01*
X10032Y5374D02*
X10040Y5357D01*
X10049Y5348D01*
X10058Y5344D01*
X10062D01*
X9991Y5408D02*
X9940D01*
Y5417D01*
X9944Y5425D01*
X9948Y5430D01*
X9957Y5434D01*
X9970D01*
X9978Y5430D01*
X9987Y5421D01*
X9991Y5408D01*
Y5400D01*
X9987Y5387D01*
X9978Y5378D01*
X9970Y5374D01*
X9957D01*
X9948Y5378D01*
X9940Y5387D01*
X9920Y5374D02*
Y5434D01*
X9916Y5421D02*
X9920Y5408D01*
X9916Y5421D02*
X9908Y5430D01*
X9899Y5434D01*
X9886D01*
X12397D02*
Y5374D01*
Y5408D02*
X12393Y5421D01*
X12384Y5430D01*
X12376Y5434D01*
X12363D01*
X12342Y5430D02*
X12333Y5434D01*
X12342Y5430D02*
X12350Y5421D01*
X12355Y5408D01*
Y5400D01*
X12350Y5387D01*
X12342Y5378D01*
X12333Y5374D01*
X12320D01*
X12312Y5378D01*
X12303Y5387D01*
X12299Y5400D01*
Y5408D01*
X12303Y5421D01*
X12312Y5430D01*
X12320Y5434D01*
X12333D01*
X12279Y5464D02*
Y5374D01*
Y5421D02*
X12271Y5430D01*
X12262Y5434D01*
X12249D01*
X12241Y5430D01*
X12232Y5421D01*
X12228Y5408D01*
Y5400D01*
X12232Y5387D01*
X12241Y5378D01*
X12249Y5374D01*
X12262D01*
X12271Y5378D01*
X12279Y5387D01*
X12196Y5430D02*
X12187Y5434D01*
X12196Y5430D02*
X12204Y5421D01*
X12208Y5408D01*
Y5400D01*
X12204Y5387D01*
X12196Y5378D01*
X12187Y5374D01*
X12174D01*
X12166Y5378D01*
X12157Y5387D01*
X12153Y5400D01*
Y5408D01*
X12157Y5421D01*
X12166Y5430D01*
X12174Y5434D01*
X12187D01*
X12133Y5344D02*
X12065D01*
X12053Y5374D02*
Y5434D01*
X12040Y5430D02*
X12053Y5417D01*
X12040Y5430D02*
X12032Y5434D01*
X12019D01*
X12010Y5430D01*
X12006Y5417D01*
Y5374D01*
Y5417D02*
X11993Y5430D01*
X11984Y5434D01*
X11972D01*
X11963Y5430D01*
X11959Y5417D01*
Y5374D01*
X11879D02*
Y5434D01*
X11888Y5430D02*
X11879Y5421D01*
X11888Y5430D02*
X11896Y5434D01*
X11909D01*
X11918Y5430D01*
X11926Y5421D01*
X11930Y5408D01*
Y5400D01*
X11926Y5387D01*
X11918Y5378D01*
X11909Y5374D01*
X11896D01*
X11888Y5378D01*
X11879Y5387D01*
X11842Y5460D02*
X11846Y5464D01*
X11842Y5460D02*
X11838Y5464D01*
X11842Y5468D01*
X11846Y5464D01*
X11842Y5434D02*
Y5374D01*
X11822D02*
Y5434D01*
X11809Y5430D02*
X11822Y5417D01*
X11809Y5430D02*
X11801Y5434D01*
X11788D01*
X11779Y5430D01*
X11775Y5417D01*
Y5374D01*
X11751Y5344D02*
X11683D01*
X11654Y5374D02*
X11611Y5464D01*
X11671D01*
X11582D02*
X11540D01*
X11582D02*
X11587Y5425D01*
X11582Y5430D01*
X11570Y5434D01*
X11557D01*
X11544Y5430D01*
X11535Y5421D01*
X11531Y5408D01*
Y5400D01*
X11535Y5387D01*
X11544Y5378D01*
X11557Y5374D01*
X11570D01*
X11582Y5378D01*
X11587Y5383D01*
X11591Y5391D01*
X11511Y5374D02*
Y5434D01*
X11498Y5430D02*
X11511Y5417D01*
X11498Y5430D02*
X11489Y5434D01*
X11477D01*
X11468Y5430D01*
X11464Y5417D01*
Y5374D01*
Y5417D02*
X11451Y5430D01*
X11442Y5434D01*
X11430D01*
X11421Y5430D01*
X11417Y5417D01*
Y5374D01*
X11388D02*
Y5434D01*
X11376Y5430D02*
X11388Y5417D01*
X11376Y5430D02*
X11367Y5434D01*
X11354D01*
X11346Y5430D01*
X11341Y5417D01*
Y5374D01*
Y5417D02*
X11328Y5430D01*
X11320Y5434D01*
X11307D01*
X11298Y5430D01*
X11294Y5417D01*
Y5374D01*
X11266Y5378D02*
X11262Y5383D01*
X11266Y5378D02*
X11262Y5374D01*
X11257Y5378D01*
X11262Y5383D01*
X11238Y5344D02*
Y5434D01*
X11229Y5430D02*
X11238Y5421D01*
X11229Y5430D02*
X11220Y5434D01*
X11208D01*
X11199Y5430D01*
X11190Y5421D01*
X11186Y5408D01*
Y5400D01*
X11190Y5387D01*
X11199Y5378D01*
X11208Y5374D01*
X11220D01*
X11229Y5378D01*
X11238Y5387D01*
X11124Y5430D02*
X11115Y5421D01*
X11124Y5430D02*
X11133Y5434D01*
X11145D01*
X11154Y5430D01*
X11163Y5421D01*
X11167Y5408D01*
Y5400D01*
X11163Y5387D01*
X11154Y5378D01*
X11145Y5374D01*
X11133D01*
X11124Y5378D01*
X11115Y5387D01*
X11096Y5374D02*
Y5464D01*
X11088Y5430D02*
X11096Y5421D01*
X11088Y5430D02*
X11079Y5434D01*
X11066D01*
X11058Y5430D01*
X11049Y5421D01*
X11045Y5408D01*
Y5400D01*
X11049Y5387D01*
X11058Y5378D01*
X11066Y5374D01*
X11079D01*
X11088Y5378D01*
X11096Y5387D01*
X11216Y6114D02*
X11272D01*
Y6024D01*
X11216D01*
X11238Y6071D02*
X11272D01*
X11201Y6084D02*
Y6041D01*
X11197Y6028D01*
X11188Y6024D01*
X11176D01*
X11167Y6028D01*
X11154Y6041D01*
Y6024D02*
Y6084D01*
X11131D02*
Y6024D01*
Y6058D02*
X11126Y6071D01*
X11118Y6080D01*
X11109Y6084D01*
X11096D01*
X11075Y6080D02*
X11067Y6084D01*
X11075Y6080D02*
X11084Y6071D01*
X11088Y6058D01*
Y6050D01*
X11084Y6037D01*
X11075Y6028D01*
X11067Y6024D01*
X11054D01*
X11045Y6028D01*
X11037Y6037D01*
X11032Y6050D01*
Y6058D01*
X11037Y6071D01*
X11045Y6080D01*
X11054Y6084D01*
X11067D01*
X10970Y6080D02*
X10961Y6071D01*
X10970Y6080D02*
X10979Y6084D01*
X10991D01*
X11000Y6080D01*
X11008Y6071D01*
X11013Y6058D01*
Y6050D01*
X11008Y6037D01*
X11000Y6028D01*
X10991Y6024D01*
X10979D01*
X10970Y6028D01*
X10961Y6037D01*
X10891Y6024D02*
Y6084D01*
X10899Y6080D02*
X10891Y6071D01*
X10899Y6080D02*
X10908Y6084D01*
X10921D01*
X10929Y6080D01*
X10938Y6071D01*
X10942Y6058D01*
Y6050D01*
X10938Y6037D01*
X10929Y6028D01*
X10921Y6024D01*
X10908D01*
X10899Y6028D01*
X10891Y6037D01*
X10867Y6024D02*
Y6084D01*
X10862Y6071D02*
X10867Y6058D01*
X10862Y6071D02*
X10854Y6080D01*
X10845Y6084D01*
X10832D01*
X10773Y6114D02*
Y6024D01*
Y6071D02*
X10781Y6080D01*
X10790Y6084D01*
X10803D01*
X10811Y6080D01*
X10820Y6071D01*
X10824Y6058D01*
Y6050D01*
X10820Y6037D01*
X10811Y6028D01*
X10803Y6024D01*
X10790D01*
X10781Y6028D01*
X10773Y6037D01*
X10678Y6114D02*
X10644Y6024D01*
X10610Y6114D01*
X10598D02*
Y6024D01*
X10564D02*
X10598Y6114D01*
X10529D02*
X10564Y6024D01*
X10529D02*
Y6114D01*
X10504D02*
X10448D01*
X10504D02*
Y6024D01*
X10448D01*
X10469Y6071D02*
X10504D01*
X10362Y6114D02*
Y6024D01*
Y6071D02*
X10354Y6080D01*
X10345Y6084D01*
X10332D01*
X10324Y6080D01*
X10315Y6071D01*
X10311Y6058D01*
Y6050D01*
X10315Y6037D01*
X10324Y6028D01*
X10332Y6024D01*
X10345D01*
X10354Y6028D01*
X10362Y6037D01*
X10292Y6041D02*
Y6084D01*
Y6041D02*
X10287Y6028D01*
X10279Y6024D01*
X10266D01*
X10257Y6028D01*
X10245Y6041D01*
Y6024D02*
Y6084D01*
X10178Y6080D02*
X10174Y6071D01*
X10178Y6080D02*
X10191Y6084D01*
X10204D01*
X10217Y6080D01*
X10221Y6071D01*
X10217Y6063D01*
X10208Y6058D01*
X10187Y6054D01*
X10178Y6050D01*
X10174Y6041D01*
Y6037D01*
X10178Y6028D01*
X10191Y6024D01*
X10204D01*
X10217Y6028D01*
X10221Y6037D01*
X10059Y6114D02*
X10050D01*
X10059D02*
X10067Y6110D01*
X10071Y6097D01*
Y6024D01*
X10084Y6084D02*
X10054D01*
X10024Y6080D02*
X10016Y6084D01*
X10024Y6080D02*
X10033Y6071D01*
X10037Y6058D01*
Y6050D01*
X10033Y6037D01*
X10024Y6028D01*
X10016Y6024D01*
X10003D01*
X9994Y6028D01*
X9986Y6037D01*
X9981Y6050D01*
Y6058D01*
X9986Y6071D01*
X9994Y6080D01*
X10003Y6084D01*
X10016D01*
X9962D02*
Y6024D01*
Y6058D02*
X9957Y6071D01*
X9949Y6080D01*
X9940Y6084D01*
X9927D01*
X9919D02*
Y6024D01*
Y6067D02*
X9906Y6080D01*
X9898Y6084D01*
X9885D01*
X9876Y6080D01*
X9872Y6067D01*
Y6024D01*
Y6067D02*
X9859Y6080D01*
X9851Y6084D01*
X9838D01*
X9829Y6080D01*
X9825Y6067D01*
Y6024D01*
X9745D02*
Y6084D01*
X9754Y6080D02*
X9745Y6071D01*
X9754Y6080D02*
X9762Y6084D01*
X9775D01*
X9784Y6080D01*
X9792Y6071D01*
X9797Y6058D01*
Y6050D01*
X9792Y6037D01*
X9784Y6028D01*
X9775Y6024D01*
X9762D01*
X9754Y6028D01*
X9745Y6037D01*
X9708Y6041D02*
Y6114D01*
Y6041D02*
X9704Y6028D01*
X9696Y6024D01*
X9687D01*
X9691Y6084D02*
X9721D01*
D17*
X9844Y6899D02*
Y9852D01*
X12797D01*
Y6899D01*
X9844D01*
X12887Y9852D02*
X12907D01*
Y6899D02*
X12887D01*
X12877Y9792D02*
X12897Y9852D01*
X12917Y9792D01*
X12877Y6959D02*
X12897Y6899D01*
X12917Y6959D01*
X12897Y8771D02*
Y9852D01*
Y7980D02*
Y6899D01*
X9844Y6809D02*
Y6789D01*
X12797D02*
Y6809D01*
X9904Y6779D02*
X9844Y6799D01*
X9904Y6819D01*
X12737Y6779D02*
X12797Y6799D01*
X12737Y6819D01*
X10925Y6799D02*
X9844D01*
X11717D02*
X12797D01*
X12817Y9852D02*
X12897D01*
Y6899D02*
X12817D01*
X9844Y6879D02*
Y6799D01*
X12797D02*
Y6879D01*
Y5274D02*
X8597D01*
Y6574D02*
X12797D01*
X8497Y6474D02*
Y5374D01*
X12897D02*
Y6474D01*
X10109Y9333D02*
X10109Y9336D01*
X10109Y9340D01*
X10110Y9343D01*
X10110Y9346D01*
X10111Y9349D01*
X10112Y9353D01*
X10113Y9356D01*
X10114Y9359D01*
X10115Y9362D01*
X10117Y9365D01*
X10118Y9368D01*
X10120Y9371D01*
X10122Y9373D01*
X10123Y9376D01*
X10126Y9379D01*
X10128Y9381D01*
X10130Y9384D01*
X10132Y9386D01*
X10135Y9388D01*
X10138Y9390D01*
X10140Y9392D01*
X10143Y9394D01*
X10146Y9395D01*
X10149Y9397D01*
X10152Y9398D01*
X10155Y9399D01*
X10158Y9401D01*
X10161Y9401D01*
X10164Y9402D01*
X10168Y9403D01*
X10171Y9403D01*
X10174Y9404D01*
X10177Y9404D01*
X10181Y9404D01*
X10184Y9404D01*
X10187Y9404D01*
X10191Y9403D01*
X10194Y9403D01*
X10197Y9402D01*
X10200Y9401D01*
X10203Y9400D01*
X10206Y9399D01*
X10209Y9398D01*
X10212Y9396D01*
X10215Y9395D01*
X10218Y9393D01*
X10221Y9391D01*
X10223Y9389D01*
X10226Y9387D01*
X10228Y9385D01*
X10231Y9382D01*
X10233Y9380D01*
X10235Y9377D01*
X10237Y9375D01*
X10239Y9372D01*
X10241Y9369D01*
X10242Y9366D01*
X10244Y9363D01*
X10245Y9360D01*
X10246Y9357D01*
X10247Y9354D01*
X10248Y9351D01*
X10249Y9348D01*
X10250Y9345D01*
X10250Y9341D01*
X10251Y9338D01*
X10251Y9335D01*
Y9331D01*
X10251Y9328D01*
X10250Y9325D01*
X10250Y9322D01*
X10249Y9318D01*
X10248Y9315D01*
X10247Y9312D01*
X10246Y9309D01*
X10245Y9306D01*
X10244Y9303D01*
X10242Y9300D01*
X10241Y9297D01*
X10239Y9294D01*
X10237Y9291D01*
X10235Y9289D01*
X10233Y9286D01*
X10231Y9284D01*
X10228Y9282D01*
X10226Y9279D01*
X10223Y9277D01*
X10221Y9275D01*
X10218Y9273D01*
X10215Y9272D01*
X10212Y9270D01*
X10209Y9269D01*
X10206Y9267D01*
X10203Y9266D01*
X10200Y9265D01*
X10197Y9264D01*
X10194Y9264D01*
X10191Y9263D01*
X10187Y9263D01*
X10184Y9262D01*
X10181Y9262D01*
X10177Y9262D01*
X10174Y9263D01*
X10171Y9263D01*
X10168Y9263D01*
X10164Y9264D01*
X10161Y9265D01*
X10158Y9266D01*
X10155Y9267D01*
X10152Y9268D01*
X10149Y9269D01*
X10146Y9271D01*
X10143Y9273D01*
X10140Y9274D01*
X10138Y9276D01*
X10135Y9278D01*
X10132Y9280D01*
X10130Y9283D01*
X10128Y9285D01*
X10126Y9288D01*
X10123Y9290D01*
X10122Y9293D01*
X10120Y9296D01*
X10118Y9298D01*
X10117Y9301D01*
X10115Y9304D01*
X10114Y9307D01*
X10113Y9310D01*
X10112Y9314D01*
X10111Y9317D01*
X10110Y9320D01*
X10110Y9323D01*
X10109Y9327D01*
X10109Y9330D01*
X10109Y9333D01*
Y8875D02*
X10109Y8878D01*
X10109Y8881D01*
X10110Y8885D01*
X10110Y8888D01*
X10111Y8891D01*
X10112Y8894D01*
X10113Y8898D01*
X10114Y8901D01*
X10115Y8904D01*
X10117Y8907D01*
X10118Y8910D01*
X10120Y8912D01*
X10122Y8915D01*
X10123Y8918D01*
X10126Y8920D01*
X10128Y8923D01*
X10130Y8925D01*
X10132Y8928D01*
X10135Y8930D01*
X10138Y8932D01*
X10140Y8934D01*
X10143Y8935D01*
X10146Y8937D01*
X10149Y8939D01*
X10152Y8940D01*
X10155Y8941D01*
X10158Y8942D01*
X10161Y8943D01*
X10164Y8944D01*
X10168Y8945D01*
X10171Y8945D01*
X10174Y8945D01*
X10177Y8946D01*
X10181Y8946D01*
X10184Y8946D01*
X10187Y8945D01*
X10191Y8945D01*
X10194Y8944D01*
X10197Y8944D01*
X10200Y8943D01*
X10203Y8942D01*
X10206Y8941D01*
X10209Y8939D01*
X10212Y8938D01*
X10215Y8936D01*
X10218Y8935D01*
X10221Y8933D01*
X10223Y8931D01*
X10226Y8929D01*
X10228Y8926D01*
X10231Y8924D01*
X10233Y8922D01*
X10235Y8919D01*
X10237Y8917D01*
X10239Y8914D01*
X10241Y8911D01*
X10242Y8908D01*
X10244Y8905D01*
X10245Y8902D01*
X10246Y8899D01*
X10247Y8896D01*
X10248Y8893D01*
X10249Y8890D01*
X10250Y8886D01*
X10250Y8883D01*
X10251Y8880D01*
X10251Y8877D01*
Y8873D01*
X10251Y8870D01*
X10250Y8867D01*
X10250Y8863D01*
X10249Y8860D01*
X10248Y8857D01*
X10247Y8854D01*
X10246Y8851D01*
X10245Y8848D01*
X10244Y8845D01*
X10242Y8842D01*
X10241Y8839D01*
X10239Y8836D01*
X10237Y8833D01*
X10235Y8831D01*
X10233Y8828D01*
X10231Y8826D01*
X10228Y8823D01*
X10226Y8821D01*
X10223Y8819D01*
X10221Y8817D01*
X10218Y8815D01*
X10215Y8813D01*
X10212Y8812D01*
X10209Y8810D01*
X10206Y8809D01*
X10203Y8808D01*
X10200Y8807D01*
X10197Y8806D01*
X10194Y8805D01*
X10191Y8805D01*
X10187Y8804D01*
X10184Y8804D01*
X10181Y8804D01*
X10177Y8804D01*
X10174Y8804D01*
X10171Y8805D01*
X10168Y8805D01*
X10164Y8806D01*
X10161Y8807D01*
X10158Y8807D01*
X10155Y8809D01*
X10152Y8810D01*
X10149Y8811D01*
X10146Y8813D01*
X10143Y8814D01*
X10140Y8816D01*
X10138Y8818D01*
X10135Y8820D01*
X10132Y8822D01*
X10130Y8824D01*
X10128Y8827D01*
X10126Y8829D01*
X10123Y8832D01*
X10122Y8835D01*
X10120Y8837D01*
X10118Y8840D01*
X10117Y8843D01*
X10115Y8846D01*
X10114Y8849D01*
X10113Y8852D01*
X10112Y8855D01*
X10111Y8859D01*
X10110Y8862D01*
X10110Y8865D01*
X10109Y8868D01*
X10109Y8872D01*
X10109Y8875D01*
X12597Y7039D02*
X12597Y7042D01*
X12597Y7046D01*
X12598Y7049D01*
X12598Y7052D01*
X12599Y7055D01*
X12600Y7058D01*
X12601Y7062D01*
X12603Y7065D01*
X12604Y7068D01*
X12606Y7070D01*
X12608Y7073D01*
X12610Y7076D01*
X12612Y7078D01*
X12614Y7081D01*
X12616Y7083D01*
X12619Y7085D01*
X12621Y7087D01*
X12624Y7089D01*
X12627Y7091D01*
X12630Y7093D01*
X12633Y7094D01*
X12636Y7095D01*
X12639Y7096D01*
X12642Y7097D01*
X12646Y7098D01*
X12649Y7098D01*
X12652Y7099D01*
X12655Y7099D01*
X12659D01*
X12662Y7099D01*
X12665Y7098D01*
X12669Y7098D01*
X12672Y7097D01*
X12675Y7096D01*
X12678Y7095D01*
X12681Y7094D01*
X12684Y7093D01*
X12687Y7091D01*
X12690Y7089D01*
X12693Y7087D01*
X12695Y7085D01*
X12698Y7083D01*
X12700Y7081D01*
X12702Y7078D01*
X12704Y7076D01*
X12706Y7073D01*
X12708Y7070D01*
X12710Y7068D01*
X12711Y7065D01*
X12713Y7062D01*
X12714Y7058D01*
X12715Y7055D01*
X12716Y7052D01*
X12716Y7049D01*
X12717Y7046D01*
X12717Y7042D01*
X12717Y7039D01*
X12717Y7036D01*
X12717Y7032D01*
X12716Y7029D01*
X12716Y7026D01*
X12715Y7023D01*
X12714Y7020D01*
X12713Y7016D01*
X12711Y7013D01*
X12710Y7010D01*
X12708Y7008D01*
X12706Y7005D01*
X12704Y7002D01*
X12702Y7000D01*
X12700Y6997D01*
X12698Y6995D01*
X12695Y6993D01*
X12693Y6991D01*
X12690Y6989D01*
X12687Y6987D01*
X12684Y6985D01*
X12681Y6984D01*
X12678Y6983D01*
X12675Y6982D01*
X12672Y6981D01*
X12669Y6980D01*
X12665Y6980D01*
X12662Y6979D01*
X12659Y6979D01*
X12655D01*
X12652Y6979D01*
X12649Y6980D01*
X12646Y6980D01*
X12642Y6981D01*
X12639Y6982D01*
X12636Y6983D01*
X12633Y6984D01*
X12630Y6985D01*
X12627Y6987D01*
X12624Y6989D01*
X12621Y6991D01*
X12619Y6993D01*
X12616Y6995D01*
X12614Y6997D01*
X12612Y7000D01*
X12610Y7002D01*
X12608Y7005D01*
X12606Y7008D01*
X12604Y7010D01*
X12603Y7013D01*
X12601Y7016D01*
X12600Y7020D01*
X12599Y7023D01*
X12598Y7026D01*
X12598Y7029D01*
X12597Y7032D01*
X12597Y7036D01*
X12597Y7039D01*
X9917Y9719D02*
X9917Y9722D01*
X9917Y9726D01*
X9918Y9729D01*
X9918Y9732D01*
X9919Y9735D01*
X9920Y9738D01*
X9921Y9742D01*
X9923Y9745D01*
X9924Y9748D01*
X9926Y9750D01*
X9928Y9753D01*
X9930Y9756D01*
X9932Y9758D01*
X9934Y9761D01*
X9936Y9763D01*
X9939Y9765D01*
X9941Y9767D01*
X9944Y9769D01*
X9947Y9771D01*
X9950Y9773D01*
X9953Y9774D01*
X9956Y9775D01*
X9959Y9776D01*
X9962Y9777D01*
X9966Y9778D01*
X9969Y9778D01*
X9972Y9779D01*
X9975Y9779D01*
X9979D01*
X9982Y9779D01*
X9985Y9778D01*
X9989Y9778D01*
X9992Y9777D01*
X9995Y9776D01*
X9998Y9775D01*
X10001Y9774D01*
X10004Y9773D01*
X10007Y9771D01*
X10010Y9769D01*
X10013Y9767D01*
X10015Y9765D01*
X10018Y9763D01*
X10020Y9761D01*
X10022Y9758D01*
X10024Y9756D01*
X10026Y9753D01*
X10028Y9750D01*
X10030Y9748D01*
X10031Y9745D01*
X10033Y9742D01*
X10034Y9738D01*
X10035Y9735D01*
X10036Y9732D01*
X10036Y9729D01*
X10037Y9726D01*
X10037Y9722D01*
X10037Y9719D01*
X10037Y9716D01*
X10037Y9712D01*
X10036Y9709D01*
X10036Y9706D01*
X10035Y9703D01*
X10034Y9700D01*
X10033Y9696D01*
X10031Y9693D01*
X10030Y9690D01*
X10028Y9688D01*
X10026Y9685D01*
X10024Y9682D01*
X10022Y9680D01*
X10020Y9677D01*
X10018Y9675D01*
X10015Y9673D01*
X10013Y9671D01*
X10010Y9669D01*
X10007Y9667D01*
X10004Y9665D01*
X10001Y9664D01*
X9998Y9663D01*
X9995Y9662D01*
X9992Y9661D01*
X9989Y9660D01*
X9985Y9660D01*
X9982Y9659D01*
X9979Y9659D01*
X9975D01*
X9972Y9659D01*
X9969Y9660D01*
X9966Y9660D01*
X9962Y9661D01*
X9959Y9662D01*
X9956Y9663D01*
X9953Y9664D01*
X9950Y9665D01*
X9947Y9667D01*
X9944Y9669D01*
X9941Y9671D01*
X9939Y9673D01*
X9936Y9675D01*
X9934Y9677D01*
X9932Y9680D01*
X9930Y9682D01*
X9928Y9685D01*
X9926Y9688D01*
X9924Y9690D01*
X9923Y9693D01*
X9921Y9696D01*
X9920Y9700D01*
X9919Y9703D01*
X9918Y9706D01*
X9918Y9709D01*
X9917Y9712D01*
X9917Y9716D01*
X9917Y9719D01*
Y7039D02*
X9917Y7042D01*
X9917Y7046D01*
X9918Y7049D01*
X9918Y7052D01*
X9919Y7055D01*
X9920Y7058D01*
X9921Y7062D01*
X9923Y7065D01*
X9924Y7068D01*
X9926Y7070D01*
X9928Y7073D01*
X9930Y7076D01*
X9932Y7078D01*
X9934Y7081D01*
X9936Y7083D01*
X9939Y7085D01*
X9941Y7087D01*
X9944Y7089D01*
X9947Y7091D01*
X9950Y7093D01*
X9953Y7094D01*
X9956Y7095D01*
X9959Y7096D01*
X9962Y7097D01*
X9966Y7098D01*
X9969Y7098D01*
X9972Y7099D01*
X9975Y7099D01*
X9979D01*
X9982Y7099D01*
X9985Y7098D01*
X9989Y7098D01*
X9992Y7097D01*
X9995Y7096D01*
X9998Y7095D01*
X10001Y7094D01*
X10004Y7093D01*
X10007Y7091D01*
X10010Y7089D01*
X10013Y7087D01*
X10015Y7085D01*
X10018Y7083D01*
X10020Y7081D01*
X10022Y7078D01*
X10024Y7076D01*
X10026Y7073D01*
X10028Y7070D01*
X10030Y7068D01*
X10031Y7065D01*
X10033Y7062D01*
X10034Y7058D01*
X10035Y7055D01*
X10036Y7052D01*
X10036Y7049D01*
X10037Y7046D01*
X10037Y7042D01*
X10037Y7039D01*
X10037Y7036D01*
X10037Y7032D01*
X10036Y7029D01*
X10036Y7026D01*
X10035Y7023D01*
X10034Y7020D01*
X10033Y7016D01*
X10031Y7013D01*
X10030Y7010D01*
X10028Y7008D01*
X10026Y7005D01*
X10024Y7002D01*
X10022Y7000D01*
X10020Y6997D01*
X10018Y6995D01*
X10015Y6993D01*
X10013Y6991D01*
X10010Y6989D01*
X10007Y6987D01*
X10004Y6985D01*
X10001Y6984D01*
X9998Y6983D01*
X9995Y6982D01*
X9992Y6981D01*
X9989Y6980D01*
X9985Y6980D01*
X9982Y6979D01*
X9979Y6979D01*
X9975D01*
X9972Y6979D01*
X9969Y6980D01*
X9966Y6980D01*
X9962Y6981D01*
X9959Y6982D01*
X9956Y6983D01*
X9953Y6984D01*
X9950Y6985D01*
X9947Y6987D01*
X9944Y6989D01*
X9941Y6991D01*
X9939Y6993D01*
X9936Y6995D01*
X9934Y6997D01*
X9932Y7000D01*
X9930Y7002D01*
X9928Y7005D01*
X9926Y7008D01*
X9924Y7010D01*
X9923Y7013D01*
X9921Y7016D01*
X9920Y7020D01*
X9919Y7023D01*
X9918Y7026D01*
X9918Y7029D01*
X9917Y7032D01*
X9917Y7036D01*
X9917Y7039D01*
X12597Y9719D02*
X12597Y9722D01*
X12597Y9726D01*
X12598Y9729D01*
X12598Y9732D01*
X12599Y9735D01*
X12600Y9738D01*
X12601Y9742D01*
X12603Y9745D01*
X12604Y9748D01*
X12606Y9750D01*
X12608Y9753D01*
X12610Y9756D01*
X12612Y9758D01*
X12614Y9761D01*
X12616Y9763D01*
X12619Y9765D01*
X12621Y9767D01*
X12624Y9769D01*
X12627Y9771D01*
X12630Y9773D01*
X12633Y9774D01*
X12636Y9775D01*
X12639Y9776D01*
X12642Y9777D01*
X12646Y9778D01*
X12649Y9778D01*
X12652Y9779D01*
X12655Y9779D01*
X12659D01*
X12662Y9779D01*
X12665Y9778D01*
X12669Y9778D01*
X12672Y9777D01*
X12675Y9776D01*
X12678Y9775D01*
X12681Y9774D01*
X12684Y9773D01*
X12687Y9771D01*
X12690Y9769D01*
X12693Y9767D01*
X12695Y9765D01*
X12698Y9763D01*
X12700Y9761D01*
X12702Y9758D01*
X12704Y9756D01*
X12706Y9753D01*
X12708Y9750D01*
X12710Y9748D01*
X12711Y9745D01*
X12713Y9742D01*
X12714Y9738D01*
X12715Y9735D01*
X12716Y9732D01*
X12716Y9729D01*
X12717Y9726D01*
X12717Y9722D01*
X12717Y9719D01*
X12717Y9716D01*
X12717Y9712D01*
X12716Y9709D01*
X12716Y9706D01*
X12715Y9703D01*
X12714Y9700D01*
X12713Y9696D01*
X12711Y9693D01*
X12710Y9690D01*
X12708Y9688D01*
X12706Y9685D01*
X12704Y9682D01*
X12702Y9680D01*
X12700Y9677D01*
X12698Y9675D01*
X12695Y9673D01*
X12693Y9671D01*
X12690Y9669D01*
X12687Y9667D01*
X12684Y9665D01*
X12681Y9664D01*
X12678Y9663D01*
X12675Y9662D01*
X12672Y9661D01*
X12669Y9660D01*
X12665Y9660D01*
X12662Y9659D01*
X12659Y9659D01*
X12655D01*
X12652Y9659D01*
X12649Y9660D01*
X12646Y9660D01*
X12642Y9661D01*
X12639Y9662D01*
X12636Y9663D01*
X12633Y9664D01*
X12630Y9665D01*
X12627Y9667D01*
X12624Y9669D01*
X12621Y9671D01*
X12619Y9673D01*
X12616Y9675D01*
X12614Y9677D01*
X12612Y9680D01*
X12610Y9682D01*
X12608Y9685D01*
X12606Y9688D01*
X12604Y9690D01*
X12603Y9693D01*
X12601Y9696D01*
X12600Y9700D01*
X12599Y9703D01*
X12598Y9706D01*
X12598Y9709D01*
X12597Y9712D01*
X12597Y9716D01*
X12597Y9719D01*
X12897Y6474D02*
X12897Y6477D01*
X12897Y6481D01*
X12897Y6484D01*
X12896Y6487D01*
X12896Y6490D01*
X12895Y6494D01*
X12894Y6497D01*
X12894Y6500D01*
X12893Y6503D01*
X12892Y6506D01*
X12891Y6509D01*
X12889Y6512D01*
X12888Y6515D01*
X12887Y6518D01*
X12885Y6521D01*
X12884Y6524D01*
X12882Y6527D01*
X12880Y6530D01*
X12878Y6532D01*
X12876Y6535D01*
X12874Y6537D01*
X12872Y6540D01*
X12870Y6542D01*
X12868Y6545D01*
X12865Y6547D01*
X12863Y6549D01*
X12860Y6551D01*
X12858Y6553D01*
X12855Y6555D01*
X12853Y6557D01*
X12850Y6559D01*
X12847Y6561D01*
X12844Y6562D01*
X12841Y6564D01*
X12838Y6565D01*
X12835Y6566D01*
X12832Y6568D01*
X12829Y6569D01*
X12826Y6570D01*
X12823Y6571D01*
X12820Y6571D01*
X12817Y6572D01*
X12813Y6573D01*
X12810Y6573D01*
X12807Y6574D01*
X12804Y6574D01*
X12800Y6574D01*
X12797Y6574D01*
X12798Y5274D02*
X12801Y5274D01*
X12804Y5274D01*
X12808Y5275D01*
X12811Y5275D01*
X12814Y5276D01*
X12817Y5276D01*
X12820Y5277D01*
X12824Y5278D01*
X12827Y5279D01*
X12830Y5280D01*
X12833Y5281D01*
X12836Y5282D01*
X12839Y5284D01*
X12842Y5285D01*
X12845Y5287D01*
X12848Y5288D01*
X12850Y5290D01*
X12853Y5292D01*
X12856Y5294D01*
X12858Y5296D01*
X12861Y5298D01*
X12863Y5300D01*
X12866Y5302D01*
X12868Y5304D01*
X12870Y5307D01*
X12872Y5309D01*
X12875Y5312D01*
X12877Y5314D01*
X12879Y5317D01*
X12880Y5319D01*
X12882Y5322D01*
X12884Y5325D01*
X12885Y5328D01*
X12887Y5331D01*
X12888Y5334D01*
X12889Y5337D01*
X12891Y5340D01*
X12892Y5343D01*
X12893Y5346D01*
X12894Y5349D01*
X12894Y5352D01*
X12895Y5356D01*
X12896Y5359D01*
X12896Y5362D01*
X12897Y5365D01*
X12897Y5368D01*
X12897Y5372D01*
X12897Y5375D01*
X8497Y5374D02*
X8497Y5371D01*
X8497Y5367D01*
X8497Y5364D01*
X8498Y5361D01*
X8498Y5358D01*
X8499Y5354D01*
X8500Y5351D01*
X8500Y5348D01*
X8501Y5345D01*
X8502Y5342D01*
X8503Y5339D01*
X8505Y5336D01*
X8506Y5333D01*
X8507Y5330D01*
X8509Y5327D01*
X8510Y5324D01*
X8512Y5321D01*
X8514Y5318D01*
X8516Y5316D01*
X8518Y5313D01*
X8520Y5311D01*
X8522Y5308D01*
X8524Y5306D01*
X8526Y5303D01*
X8529Y5301D01*
X8531Y5299D01*
X8534Y5297D01*
X8536Y5295D01*
X8539Y5293D01*
X8541Y5291D01*
X8544Y5289D01*
X8547Y5287D01*
X8550Y5286D01*
X8553Y5284D01*
X8556Y5283D01*
X8559Y5282D01*
X8562Y5280D01*
X8565Y5279D01*
X8568Y5278D01*
X8571Y5277D01*
X8574Y5277D01*
X8578Y5276D01*
X8581Y5275D01*
X8584Y5275D01*
X8587Y5274D01*
X8590Y5274D01*
X8594Y5274D01*
X8597Y5274D01*
Y6574D02*
X8594Y6574D01*
X8590Y6574D01*
X8587Y6574D01*
X8584Y6573D01*
X8581Y6573D01*
X8578Y6572D01*
X8574Y6571D01*
X8571Y6571D01*
X8568Y6570D01*
X8565Y6569D01*
X8562Y6568D01*
X8559Y6566D01*
X8556Y6565D01*
X8553Y6564D01*
X8550Y6562D01*
X8547Y6561D01*
X8544Y6559D01*
X8541Y6557D01*
X8539Y6555D01*
X8536Y6553D01*
X8534Y6551D01*
X8531Y6549D01*
X8529Y6547D01*
X8526Y6545D01*
X8524Y6542D01*
X8522Y6540D01*
X8520Y6537D01*
X8518Y6535D01*
X8516Y6532D01*
X8514Y6530D01*
X8512Y6527D01*
X8510Y6524D01*
X8509Y6521D01*
X8507Y6518D01*
X8506Y6515D01*
X8505Y6512D01*
X8503Y6509D01*
X8502Y6506D01*
X8501Y6503D01*
X8500Y6500D01*
X8500Y6497D01*
X8499Y6494D01*
X8498Y6490D01*
X8498Y6487D01*
X8497Y6484D01*
X8497Y6481D01*
X8497Y6477D01*
X8497Y6474D01*
D18*
X10731Y9724D02*
X10698Y9757D01*
X10551Y9678D02*
X10522Y9649D01*
X11097Y9811D02*
X11305D01*
X11097D02*
X10964Y9678D01*
X10551D01*
X10555Y8594D02*
X10548Y8587D01*
X10555D02*
X10485D01*
X10555D02*
Y9624D01*
X10987Y9639D02*
X11135Y9787D01*
X10987Y9639D02*
X10570D01*
X10555Y9624D01*
X10522Y9649D02*
Y8814D01*
X10457Y8749D02*
Y8679D01*
Y8749D02*
X10522Y8814D01*
X11737Y7726D02*
X11557Y7546D01*
Y7479D01*
X12377Y8159D02*
X12417Y8119D01*
X12537D01*
X12572Y8084D01*
Y7904D01*
X12547Y7989D02*
X12457Y8079D01*
X12547Y7989D02*
Y7829D01*
X12380Y8599D02*
Y9266D01*
Y8599D02*
X12317Y8536D01*
Y8139D01*
X12522Y7934D01*
Y7754D01*
X11727Y8249D02*
X11437Y8539D01*
X11727Y8249D02*
Y8189D01*
X11908Y8008D01*
X11981D01*
X11937Y8059D02*
X11952Y8074D01*
X12272D01*
X11117Y8139D02*
X10989Y8011D01*
Y7899D01*
X11077Y8179D02*
X11117Y8219D01*
X11072Y8174D02*
X11022D01*
X11017Y8224D02*
X10847D01*
X11457Y8714D02*
X11589Y8582D01*
X11457Y8714D02*
Y9359D01*
X11947Y8824D02*
Y8629D01*
X12037Y8539D01*
X12547Y7829D02*
X12697Y7679D01*
X11208Y8116D02*
Y8274D01*
X11033Y8449D01*
X10587D01*
X10517Y8519D01*
X10537Y8539D01*
X12122Y7924D02*
X12137Y7939D01*
X12122Y7924D02*
X12102D01*
X12002Y7824D01*
X11947D01*
X11897Y7774D01*
Y7629D01*
X11795Y7526D01*
X11792Y7529D01*
X11757D01*
X11872Y8474D02*
X11937Y8539D01*
X11872Y8474D02*
X11822D01*
X11789Y8507D01*
Y8791D01*
X11822Y8824D01*
X12147Y9324D02*
X12197Y9374D01*
X12147Y9324D02*
Y8674D01*
X12197Y8624D01*
Y8474D01*
X12122Y8399D01*
X11615D01*
X11537Y8477D01*
Y8539D01*
X10997Y9299D02*
Y9399D01*
X10982Y9414D01*
Y9499D01*
X11697Y7999D02*
X11637Y7939D01*
X11697Y7999D02*
X11870D01*
X11889Y7980D01*
Y7899D01*
X11914Y7874D01*
X11960D01*
X11985Y7899D01*
Y7974D01*
X11998Y7987D01*
X12177D01*
X12185Y7979D01*
Y7899D01*
X12177Y7891D01*
X12107D01*
X11922Y7706D01*
Y7224D01*
X12072Y7074D01*
X12205D01*
X12247Y7116D01*
Y7177D01*
X12297Y7227D01*
X12445D01*
X12697Y7479D01*
Y7779D02*
X12572Y7904D01*
X10309Y7867D02*
X10237Y7939D01*
X10309Y7867D02*
X10547D01*
X10590Y7824D01*
X10914D01*
X10989Y7899D01*
X11872Y8599D02*
Y8809D01*
X11955Y8892D01*
Y9561D01*
X11777Y9739D01*
X10337Y7939D02*
X10385Y7891D01*
X10605D01*
X10647Y7849D01*
X10835D01*
X10885Y7899D01*
Y8037D01*
X11022Y8174D01*
X12114Y8752D02*
Y9232D01*
X12072Y9274D01*
Y9544D01*
X11877Y9739D01*
X10792Y9174D02*
X10779D01*
X10792D02*
X10817Y9149D01*
X11064D01*
X11097Y9116D01*
Y9079D01*
X10637Y8614D02*
Y8539D01*
Y8614D02*
X10947Y8924D01*
Y9079D01*
X10644Y9521D02*
X10672Y9549D01*
X11519D01*
X11657Y9687D01*
X11759D01*
X11847Y9599D01*
Y9249D01*
X11897Y9199D01*
Y8974D01*
X11847Y8924D01*
X11737Y8814D02*
Y8539D01*
Y8814D02*
X11797Y8874D01*
X11897D01*
X11922Y8899D01*
Y9299D01*
X10237Y8419D02*
Y8359D01*
Y8419D02*
X10242Y8424D01*
X10422D01*
X10537Y8539D01*
X12522Y7754D02*
X12697Y7579D01*
X12380Y9266D02*
X12347Y9299D01*
Y9356D01*
X12125Y9578D01*
Y9774D01*
X12100Y9799D01*
X11652D01*
X11627Y9774D01*
Y9699D01*
X11577Y9649D01*
X11277D01*
X11227Y9699D01*
Y9757D01*
X11197Y9787D01*
X11135D01*
X10485Y8587D02*
X10437Y8539D01*
X10287Y8359D02*
Y8304D01*
X10282Y8299D01*
X10222D01*
X10197Y8324D01*
Y8424D01*
X10247Y8474D01*
X10372D01*
X10437Y8539D01*
X10337Y8359D02*
Y8304D01*
X10342Y8299D01*
X10419D01*
X10469Y8349D01*
X10550D01*
X10572Y8327D01*
Y8074D01*
X10437Y7939D01*
X11047Y8804D02*
Y9079D01*
X10997D02*
Y8787D01*
X11185Y8599D01*
Y8499D01*
X11160Y8474D01*
X10802D01*
X10737Y8539D01*
X11757Y7529D02*
X11792D01*
X11822Y7499D01*
Y7184D01*
X11777Y7139D01*
X11757Y7529D02*
X11657D01*
X11837Y8539D02*
Y8774D01*
X11997Y9249D02*
Y9349D01*
Y9249D02*
X12072Y9174D01*
Y8741D01*
X12089Y8724D01*
Y8499D01*
X12039Y8449D01*
X11727D01*
X11637Y8539D01*
X12401Y9375D02*
Y9400D01*
X12376D01*
X12247Y9529D01*
Y9709D01*
X12277Y9739D01*
X12537Y9099D02*
X12697D01*
X10947Y9424D02*
X10872Y9499D01*
X10947Y9424D02*
Y9299D01*
X11147D02*
Y9249D01*
X11172Y9224D01*
X11217D01*
X11247Y9254D01*
X11337D01*
X11117Y9499D02*
X11047Y9429D01*
Y9299D01*
X11097Y9374D02*
X11222Y9499D01*
X11097Y9374D02*
Y9299D01*
X11257Y9399D02*
X11357Y9499D01*
X11257Y9399D02*
X11247D01*
X11197Y9349D01*
Y9299D01*
X11337Y7939D02*
X11402Y7874D01*
X11564D01*
X11589Y7899D01*
Y8307D01*
X11422Y8474D01*
X11522Y8722D02*
Y8774D01*
X11847Y9099D01*
Y9103D01*
X11727Y9649D02*
X11660D01*
X11389Y9378D01*
Y8449D01*
X11437Y8401D01*
Y7939D01*
X11347Y8049D02*
X11237Y7939D01*
X11347Y8049D02*
Y8124D01*
X11372Y8149D01*
X12322Y8774D02*
Y9337D01*
X11977Y9682D01*
Y9739D01*
X11589Y8582D02*
Y8499D01*
X11614Y8474D01*
X11643D01*
X11693Y8424D01*
X12062D01*
X12137Y8499D01*
Y8539D01*
X12107Y7139D02*
X12177D01*
X12107D02*
X11947Y7299D01*
Y7674D01*
X12140Y7867D01*
X12202D01*
X12222Y7887D01*
Y7986D01*
X12184Y8024D01*
X11997D01*
X11981Y8008D01*
X12697Y7379D02*
X12545Y7227D01*
X11177Y9679D02*
Y9739D01*
Y9679D02*
X11072Y9574D01*
X10594D01*
X10589Y9569D01*
Y8499D01*
X10614Y8474D01*
X10662D01*
X10687Y8499D01*
Y8574D01*
X10712Y8599D01*
X11077D01*
X11137Y8539D01*
X11377Y9739D02*
X11305Y9811D01*
X10337Y9514D02*
Y8539D01*
Y9514D02*
X10580Y9757D01*
X10698D01*
X10072Y8704D02*
X10237Y8539D01*
X10072Y8704D02*
Y9549D01*
X10322Y9799D01*
X10975D01*
X10993Y9781D01*
X10387Y8374D02*
Y8359D01*
Y8374D02*
X10662D01*
X10737Y8299D01*
Y7939D01*
X12377Y7379D02*
X12425Y7427D01*
Y7921D01*
X12272Y8074D01*
X12242Y7379D02*
X12377D01*
Y7779D02*
X12242D01*
Y7679D02*
X12377D01*
X11847Y7749D02*
X11837Y7759D01*
Y7939D01*
X12242Y7579D02*
X12377D01*
X11737Y7726D02*
Y7939D01*
X12242Y7479D02*
X12377D01*
X12537Y8399D02*
X12697D01*
X10597Y7999D02*
X10537Y7939D01*
X10597Y7999D02*
X10664D01*
X10689Y7974D01*
Y7899D01*
X10714Y7874D01*
X10760D01*
X10785Y7899D01*
Y8162D01*
X10847Y8224D01*
X12537Y8799D02*
X12697D01*
D19*
X12272Y8820D02*
Y9317D01*
D20*
X10192Y7991D02*
X10185Y7984D01*
Y7991D02*
X10347D01*
X10185D02*
Y7894D01*
X10587Y7749D02*
Y7699D01*
Y7599D02*
Y7499D01*
Y7749D02*
X10497Y7839D01*
X10522Y7624D02*
Y7364D01*
Y7624D02*
X10587Y7689D01*
X12357Y8399D02*
X12447D01*
Y8299D02*
X12522D01*
X12447D02*
Y8699D01*
X12272Y8724D02*
X12237Y8759D01*
X12272Y8724D02*
Y8124D01*
X12453Y7943D01*
X10982Y7474D02*
X10917Y7409D01*
X10982Y7474D02*
X11322D01*
Y7754D01*
X11137Y7939D01*
X12152Y7824D02*
Y7779D01*
Y7824D02*
X12167Y7839D01*
X12337D01*
X12377Y7879D01*
X11337Y8539D02*
Y8784D01*
X11352Y8799D01*
X11337Y8814D01*
Y8954D01*
Y9079D02*
Y9119D01*
Y9079D02*
X11197D01*
X10277Y7299D02*
Y7119D01*
X10347Y7049D01*
X10447D01*
X10497Y7099D01*
Y7239D01*
X10622Y7364D01*
X10677Y7309D01*
X10287Y8139D02*
Y8199D01*
X10242D01*
X10237Y8194D01*
Y8139D01*
X10337D02*
Y8174D01*
X10312D01*
X10287Y8199D01*
Y8139D01*
X11757Y7439D02*
Y7399D01*
X11557Y7199D01*
X11417Y7339D01*
X11697Y7039D02*
X11777Y6959D01*
X11697Y7039D02*
Y7059D01*
X11417Y7339D01*
X10497Y7839D02*
X10240D01*
X10185Y7894D01*
X10347Y7991D02*
X10517Y8161D01*
Y8209D01*
X11447Y7439D02*
X11657D01*
X11447D02*
X11412Y7474D01*
X10982D01*
X10917Y7409D01*
X11337Y8189D02*
Y8539D01*
Y8189D02*
X11297Y8149D01*
Y8049D01*
X11272Y8024D01*
X11222D01*
X11137Y7939D01*
X11337Y8784D02*
X11352Y8799D01*
X11337Y8784D02*
Y8539D01*
X12622Y7954D02*
X12697Y7879D01*
X12622Y7954D02*
Y8199D01*
X12522Y8299D01*
X10387Y8204D02*
Y8139D01*
Y8204D02*
X10392Y8209D01*
X10517D01*
X12152Y7779D02*
Y7679D01*
X12057D01*
X12017Y7639D01*
X12152Y7679D02*
Y7579D01*
Y7479D01*
Y7379D01*
X12447Y8699D02*
Y8799D01*
Y9099D01*
X12501Y9478D02*
Y9575D01*
Y9478D02*
X12472Y9449D01*
Y9249D01*
X12447Y9224D01*
Y9099D01*
X12501Y9575D02*
Y9624D01*
X12477Y9648D01*
Y9739D01*
X11337Y9119D02*
Y8954D01*
X12453Y7943D02*
Y7355D01*
X12377Y7279D01*
X12237Y8759D02*
X12202D01*
X10047Y8369D02*
X9977Y8439D01*
X10047Y8369D02*
Y8174D01*
X10097Y8124D01*
Y7924D01*
X11107Y7629D02*
X11207D01*
X11257Y7679D01*
X10087Y7374D02*
Y7299D01*
Y7374D02*
X9997Y7464D01*
Y7799D01*
X10047Y7849D01*
Y8009D01*
X9977Y8079D01*
X10757Y7195D02*
Y7099D01*
X10657Y6999D01*
X10172D01*
X10087Y7084D01*
Y7299D01*
X9897Y8459D02*
X9977Y8539D01*
X9897Y8459D02*
Y8159D01*
X9977Y8079D01*
X10677Y7409D02*
X10757Y7329D01*
Y7195D01*
X10417Y7174D02*
Y7119D01*
Y7174D02*
X10367Y7224D01*
Y7299D01*
X10397Y7429D02*
Y7539D01*
Y7429D02*
X10367Y7399D01*
Y7299D01*
X11237Y8307D02*
Y8539D01*
Y8307D02*
X11247Y8297D01*
Y8081D01*
X11240Y8074D01*
X11172D01*
X11037Y7939D01*
Y7794D01*
X11017Y7774D01*
Y7629D01*
X11012Y7579D02*
X10857D01*
X11012D02*
X11017Y7584D01*
Y7629D01*
X10857Y7579D02*
X10797D01*
X10777Y7599D01*
X10677D01*
X11237Y8539D02*
Y8749D01*
X11202Y8784D01*
Y8954D01*
X11147Y9009D01*
Y9079D01*
Y9124D01*
X11072Y9199D01*
X10847D01*
X10737Y9309D01*
Y9499D01*
Y9099D02*
X10902Y8934D01*
X10737Y9099D02*
Y9499D01*
X11107Y9164D02*
X11147Y9124D01*
Y9079D01*
X12017Y9044D02*
X12022Y9049D01*
X12017Y9044D02*
Y8759D01*
X10677Y7699D02*
Y7599D01*
Y7499D01*
Y7479D01*
X10622Y7424D01*
Y7364D01*
X10677Y7309D01*
X10257Y7519D02*
Y7719D01*
Y7519D02*
X10277Y7499D01*
Y7299D01*
X10237Y8089D02*
Y8139D01*
Y8089D02*
X10147Y7999D01*
Y7829D01*
X10257Y7719D01*
X10287Y8139D02*
Y8199D01*
X10337Y8249D01*
X10422D01*
X10472Y8299D01*
X10517D01*
X10277Y7299D02*
X10177D01*
X10217Y7174D02*
Y7119D01*
Y7174D02*
X10177Y7214D01*
Y7299D01*
X12222Y7024D02*
X12377Y7179D01*
X12222Y7024D02*
Y7004D01*
X12177Y6959D01*
X12752Y8444D02*
X12697Y8499D01*
X12752Y8444D02*
Y7234D01*
X12697Y7179D01*
Y8499D02*
Y8599D01*
Y8999D02*
X12749Y9051D01*
Y9572D01*
X12697Y9624D01*
X12597D01*
X12547Y9674D01*
Y9774D01*
X12522Y9799D01*
X12437D01*
X12377Y9739D01*
Y9645D01*
X12331Y9599D01*
X12301D01*
Y9575D01*
X12697Y8999D02*
Y8899D01*
D21*
X11197Y9299D02*
D03*
X11147D02*
D03*
X11097D02*
D03*
X11047D02*
D03*
X10997D02*
D03*
X10947D02*
D03*
X10897D02*
D03*
X10847D02*
D03*
Y9079D02*
D03*
X10897D02*
D03*
X10947D02*
D03*
X10997D02*
D03*
X11047D02*
D03*
X11097D02*
D03*
X11147D02*
D03*
X11197D02*
D03*
X10387Y8359D02*
D03*
X10337D02*
D03*
X10287D02*
D03*
X10237D02*
D03*
Y8139D02*
D03*
X10287D02*
D03*
X10337D02*
D03*
X10387D02*
D03*
D22*
X10972Y5324D02*
X9297D01*
X11122D02*
X12797D01*
Y5524D02*
X11122D01*
X10972D02*
X9297D01*
X9147Y5324D02*
X8597D01*
Y5524D02*
X9147D01*
X9847Y6524D02*
X12797D01*
Y5574D02*
X12047D01*
Y5899D02*
X12797D01*
Y5949D02*
X12047D01*
Y6274D02*
X12797D01*
Y6324D02*
X9847D01*
Y6274D02*
X11897D01*
Y5799D02*
X10297D01*
Y5574D02*
X11897D01*
X10147D02*
X9847D01*
Y5799D02*
X10147D01*
X9697Y5574D02*
X8597D01*
Y6524D02*
X9697D01*
X9847Y5849D02*
X11897D01*
X9697D02*
X8597D01*
Y5799D02*
X9697D01*
X11072Y5474D02*
Y5374D01*
X11022D02*
Y5474D01*
X9247D02*
Y5374D01*
X9197D02*
Y5474D01*
X12847Y5624D02*
Y5849D01*
X11997D02*
Y5624D01*
X12847Y5999D02*
Y6224D01*
X11997D02*
Y5999D01*
X12847Y6374D02*
Y6474D01*
X9797D02*
Y6374D01*
Y6224D02*
Y5899D01*
X11947D02*
Y6224D01*
X10247Y5749D02*
Y5624D01*
X11947D02*
Y5749D01*
X10197D02*
Y5624D01*
X9797D02*
Y5749D01*
X8547Y5474D02*
Y5374D01*
Y5624D02*
Y5724D01*
X12847Y5474D02*
Y5374D01*
X9747Y5899D02*
Y6474D01*
X8547D02*
Y5899D01*
X9747Y5749D02*
Y5624D01*
X8547Y5750D02*
X8547Y5753D01*
X8547Y5756D01*
X8548Y5760D01*
X8549Y5763D01*
X8550Y5766D01*
X8551Y5769D01*
X8552Y5772D01*
X8554Y5774D01*
X8555Y5777D01*
X8557Y5780D01*
X8559Y5782D01*
X8561Y5785D01*
X8564Y5787D01*
X8566Y5789D01*
X8569Y5791D01*
X8572Y5792D01*
X8574Y5794D01*
X8577Y5795D01*
X8580Y5796D01*
X8583Y5797D01*
X8586Y5798D01*
X8590Y5799D01*
X8593Y5799D01*
X8596Y5799D01*
X9747Y5749D02*
X9747Y5752D01*
X9747Y5756D01*
X9746Y5759D01*
X9745Y5762D01*
X9744Y5765D01*
X9743Y5768D01*
X9742Y5771D01*
X9740Y5774D01*
X9739Y5777D01*
X9737Y5779D01*
X9735Y5782D01*
X9732Y5784D01*
X9730Y5787D01*
X9727Y5789D01*
X9725Y5791D01*
X9722Y5792D01*
X9719Y5794D01*
X9716Y5795D01*
X9713Y5796D01*
X9710Y5797D01*
X9707Y5798D01*
X9704Y5799D01*
X9700Y5799D01*
X9697Y5799D01*
X8547Y5899D02*
X8547Y5896D01*
X8547Y5892D01*
X8548Y5889D01*
X8549Y5886D01*
X8550Y5883D01*
X8551Y5880D01*
X8552Y5877D01*
X8554Y5874D01*
X8555Y5871D01*
X8557Y5869D01*
X8559Y5866D01*
X8562Y5864D01*
X8564Y5861D01*
X8567Y5859D01*
X8569Y5857D01*
X8572Y5856D01*
X8575Y5854D01*
X8578Y5853D01*
X8581Y5852D01*
X8584Y5851D01*
X8587Y5850D01*
X8590Y5849D01*
X8594Y5849D01*
X8597Y5849D01*
X9747Y5899D02*
X9747Y5896D01*
X9747Y5892D01*
X9746Y5889D01*
X9745Y5886D01*
X9744Y5883D01*
X9743Y5880D01*
X9742Y5877D01*
X9740Y5874D01*
X9739Y5871D01*
X9737Y5869D01*
X9735Y5866D01*
X9732Y5864D01*
X9730Y5861D01*
X9727Y5859D01*
X9725Y5857D01*
X9722Y5856D01*
X9719Y5854D01*
X9716Y5853D01*
X9713Y5852D01*
X9710Y5851D01*
X9707Y5850D01*
X9704Y5849D01*
X9700Y5849D01*
X9697Y5849D01*
X8547Y6475D02*
X8547Y6478D01*
X8547Y6482D01*
X8548Y6485D01*
X8549Y6488D01*
X8550Y6491D01*
X8551Y6494D01*
X8552Y6497D01*
X8554Y6500D01*
X8556Y6503D01*
X8558Y6505D01*
X8560Y6508D01*
X8562Y6510D01*
X8564Y6512D01*
X8567Y6514D01*
X8570Y6516D01*
X8573Y6518D01*
X8575Y6519D01*
X8578Y6521D01*
X8582Y6522D01*
X8585Y6523D01*
X8588Y6523D01*
X8591Y6524D01*
X8594Y6524D01*
X8598Y6524D01*
X8597Y5574D02*
X8594Y5574D01*
X8590Y5574D01*
X8587Y5575D01*
X8584Y5576D01*
X8581Y5577D01*
X8578Y5578D01*
X8575Y5579D01*
X8572Y5581D01*
X8569Y5582D01*
X8567Y5584D01*
X8564Y5586D01*
X8562Y5589D01*
X8559Y5591D01*
X8557Y5594D01*
X8555Y5596D01*
X8554Y5599D01*
X8552Y5602D01*
X8551Y5605D01*
X8550Y5608D01*
X8549Y5611D01*
X8548Y5614D01*
X8547Y5617D01*
X8547Y5621D01*
X8547Y5624D01*
X8547Y5475D02*
X8547Y5478D01*
X8548Y5481D01*
X8548Y5485D01*
X8549Y5488D01*
X8550Y5491D01*
X8551Y5494D01*
X8552Y5497D01*
X8554Y5500D01*
X8556Y5502D01*
X8558Y5505D01*
X8560Y5507D01*
X8562Y5510D01*
X8564Y5512D01*
X8567Y5514D01*
X8569Y5516D01*
X8572Y5517D01*
X8575Y5519D01*
X8578Y5520D01*
X8581Y5521D01*
X8584Y5522D01*
X8587Y5523D01*
X8591Y5524D01*
X8594Y5524D01*
X8597Y5524D01*
Y5324D02*
X8594Y5324D01*
X8590Y5324D01*
X8587Y5325D01*
X8584Y5326D01*
X8581Y5327D01*
X8578Y5328D01*
X8575Y5329D01*
X8572Y5331D01*
X8569Y5332D01*
X8567Y5334D01*
X8564Y5336D01*
X8562Y5339D01*
X8559Y5341D01*
X8557Y5344D01*
X8555Y5346D01*
X8554Y5349D01*
X8552Y5352D01*
X8551Y5355D01*
X8550Y5358D01*
X8549Y5361D01*
X8548Y5364D01*
X8547Y5367D01*
X8547Y5371D01*
X8547Y5374D01*
X9847Y5574D02*
X9844Y5574D01*
X9840Y5574D01*
X9837Y5575D01*
X9834Y5576D01*
X9831Y5577D01*
X9828Y5578D01*
X9825Y5579D01*
X9822Y5581D01*
X9819Y5582D01*
X9817Y5584D01*
X9814Y5586D01*
X9812Y5589D01*
X9809Y5591D01*
X9807Y5594D01*
X9805Y5596D01*
X9804Y5599D01*
X9802Y5602D01*
X9801Y5605D01*
X9800Y5608D01*
X9799Y5611D01*
X9798Y5614D01*
X9797Y5617D01*
X9797Y5621D01*
X9797Y5624D01*
X9697Y5574D02*
X9700Y5574D01*
X9704Y5574D01*
X9707Y5575D01*
X9710Y5575D01*
X9713Y5576D01*
X9716Y5577D01*
X9719Y5579D01*
X9722Y5580D01*
X9725Y5582D01*
X9727Y5584D01*
X9730Y5586D01*
X9732Y5588D01*
X9735Y5590D01*
X9737Y5593D01*
X9739Y5596D01*
X9740Y5598D01*
X9742Y5601D01*
X9743Y5604D01*
X9744Y5607D01*
X9745Y5610D01*
X9746Y5613D01*
X9747Y5617D01*
X9747Y5620D01*
X9747Y5623D01*
X9846Y5799D02*
X9843Y5799D01*
X9840Y5799D01*
X9836Y5798D01*
X9833Y5797D01*
X9830Y5796D01*
X9827Y5795D01*
X9824Y5794D01*
X9822Y5792D01*
X9819Y5791D01*
X9816Y5789D01*
X9814Y5787D01*
X9811Y5785D01*
X9809Y5782D01*
X9807Y5780D01*
X9805Y5777D01*
X9804Y5774D01*
X9802Y5772D01*
X9801Y5769D01*
X9800Y5766D01*
X9799Y5763D01*
X9798Y5760D01*
X9797Y5756D01*
X9797Y5753D01*
X9797Y5750D01*
X12847Y5374D02*
X12847Y5371D01*
X12847Y5368D01*
X12846Y5364D01*
X12845Y5361D01*
X12844Y5358D01*
X12843Y5355D01*
X12842Y5352D01*
X12840Y5349D01*
X12839Y5346D01*
X12837Y5344D01*
X12835Y5341D01*
X12833Y5339D01*
X12830Y5337D01*
X12828Y5335D01*
X12825Y5333D01*
X12823Y5331D01*
X12820Y5329D01*
X12817Y5328D01*
X12814Y5327D01*
X12811Y5326D01*
X12808Y5325D01*
X12804Y5325D01*
X12801Y5324D01*
X12798Y5324D01*
X9797Y5899D02*
X9797Y5896D01*
X9797Y5893D01*
X9798Y5889D01*
X9799Y5886D01*
X9800Y5883D01*
X9801Y5880D01*
X9802Y5877D01*
X9804Y5874D01*
X9805Y5871D01*
X9807Y5869D01*
X9809Y5866D01*
X9811Y5864D01*
X9814Y5862D01*
X9816Y5860D01*
X9819Y5858D01*
X9822Y5856D01*
X9824Y5854D01*
X9827Y5853D01*
X9830Y5852D01*
X9833Y5851D01*
X9837Y5850D01*
X9840Y5850D01*
X9843Y5849D01*
X9846Y5849D01*
X12847Y5474D02*
X12847Y5477D01*
X12847Y5481D01*
X12846Y5484D01*
X12845Y5487D01*
X12844Y5490D01*
X12843Y5493D01*
X12842Y5496D01*
X12840Y5499D01*
X12839Y5502D01*
X12837Y5504D01*
X12835Y5507D01*
X12832Y5509D01*
X12830Y5512D01*
X12827Y5514D01*
X12825Y5516D01*
X12822Y5517D01*
X12819Y5519D01*
X12816Y5520D01*
X12813Y5521D01*
X12810Y5522D01*
X12807Y5523D01*
X12804Y5524D01*
X12800Y5524D01*
X12797Y5524D01*
X9797Y6224D02*
X9797Y6227D01*
X9797Y6231D01*
X9798Y6234D01*
X9799Y6237D01*
X9800Y6240D01*
X9801Y6243D01*
X9802Y6246D01*
X9804Y6249D01*
X9805Y6252D01*
X9807Y6254D01*
X9809Y6257D01*
X9812Y6259D01*
X9814Y6262D01*
X9817Y6264D01*
X9819Y6266D01*
X9822Y6267D01*
X9825Y6269D01*
X9828Y6270D01*
X9831Y6271D01*
X9834Y6272D01*
X9837Y6273D01*
X9840Y6274D01*
X9844Y6274D01*
X9847Y6274D01*
X9797Y6374D02*
X9797Y6371D01*
X9797Y6367D01*
X9798Y6364D01*
X9799Y6361D01*
X9800Y6358D01*
X9801Y6355D01*
X9802Y6352D01*
X9804Y6349D01*
X9805Y6346D01*
X9807Y6344D01*
X9809Y6341D01*
X9812Y6339D01*
X9814Y6336D01*
X9817Y6334D01*
X9819Y6332D01*
X9822Y6331D01*
X9825Y6329D01*
X9828Y6328D01*
X9831Y6327D01*
X9834Y6326D01*
X9837Y6325D01*
X9840Y6324D01*
X9844Y6324D01*
X9847Y6324D01*
X9697Y6524D02*
X9700Y6524D01*
X9704Y6524D01*
X9707Y6523D01*
X9710Y6522D01*
X9713Y6521D01*
X9716Y6520D01*
X9719Y6519D01*
X9722Y6517D01*
X9725Y6516D01*
X9727Y6514D01*
X9730Y6512D01*
X9732Y6509D01*
X9735Y6507D01*
X9737Y6504D01*
X9739Y6502D01*
X9740Y6499D01*
X9742Y6496D01*
X9743Y6493D01*
X9744Y6490D01*
X9745Y6487D01*
X9746Y6484D01*
X9747Y6481D01*
X9747Y6477D01*
X9747Y6474D01*
X9847Y6524D02*
X9844Y6524D01*
X9840Y6524D01*
X9837Y6523D01*
X9834Y6522D01*
X9831Y6521D01*
X9828Y6520D01*
X9825Y6519D01*
X9822Y6517D01*
X9819Y6516D01*
X9817Y6514D01*
X9814Y6512D01*
X9812Y6509D01*
X9809Y6507D01*
X9807Y6504D01*
X9805Y6502D01*
X9804Y6499D01*
X9802Y6496D01*
X9801Y6493D01*
X9800Y6490D01*
X9799Y6487D01*
X9798Y6484D01*
X9797Y6481D01*
X9797Y6477D01*
X9797Y6474D01*
X12847D02*
X12847Y6477D01*
X12847Y6481D01*
X12846Y6484D01*
X12845Y6487D01*
X12844Y6490D01*
X12843Y6493D01*
X12842Y6496D01*
X12840Y6499D01*
X12839Y6502D01*
X12837Y6504D01*
X12835Y6507D01*
X12832Y6509D01*
X12830Y6512D01*
X12827Y6514D01*
X12825Y6516D01*
X12822Y6517D01*
X12819Y6519D01*
X12816Y6520D01*
X12813Y6521D01*
X12810Y6522D01*
X12807Y6523D01*
X12804Y6524D01*
X12800Y6524D01*
X12797Y6524D01*
Y6324D02*
X12800Y6324D01*
X12804Y6324D01*
X12807Y6325D01*
X12810Y6326D01*
X12813Y6327D01*
X12816Y6328D01*
X12819Y6329D01*
X12822Y6331D01*
X12825Y6332D01*
X12827Y6334D01*
X12830Y6336D01*
X12832Y6339D01*
X12835Y6341D01*
X12837Y6344D01*
X12839Y6346D01*
X12840Y6349D01*
X12842Y6352D01*
X12843Y6355D01*
X12844Y6358D01*
X12845Y6361D01*
X12846Y6364D01*
X12847Y6367D01*
X12847Y6371D01*
X12847Y6374D01*
Y6224D02*
X12847Y6227D01*
X12847Y6231D01*
X12846Y6234D01*
X12845Y6237D01*
X12844Y6240D01*
X12843Y6243D01*
X12842Y6246D01*
X12840Y6249D01*
X12839Y6252D01*
X12837Y6254D01*
X12835Y6257D01*
X12832Y6259D01*
X12830Y6262D01*
X12827Y6264D01*
X12825Y6266D01*
X12822Y6267D01*
X12819Y6269D01*
X12816Y6270D01*
X12813Y6271D01*
X12810Y6272D01*
X12807Y6273D01*
X12804Y6274D01*
X12800Y6274D01*
X12797Y6274D01*
Y5949D02*
X12800Y5949D01*
X12804Y5949D01*
X12807Y5950D01*
X12810Y5951D01*
X12813Y5952D01*
X12816Y5953D01*
X12819Y5954D01*
X12822Y5956D01*
X12825Y5957D01*
X12827Y5959D01*
X12830Y5961D01*
X12832Y5964D01*
X12835Y5966D01*
X12837Y5969D01*
X12839Y5971D01*
X12840Y5974D01*
X12842Y5977D01*
X12843Y5980D01*
X12844Y5983D01*
X12845Y5986D01*
X12846Y5989D01*
X12847Y5992D01*
X12847Y5996D01*
X12847Y5999D01*
Y5849D02*
X12847Y5852D01*
X12847Y5856D01*
X12846Y5859D01*
X12845Y5862D01*
X12844Y5865D01*
X12843Y5868D01*
X12842Y5871D01*
X12840Y5874D01*
X12839Y5877D01*
X12837Y5879D01*
X12835Y5882D01*
X12832Y5884D01*
X12830Y5887D01*
X12827Y5889D01*
X12825Y5891D01*
X12822Y5892D01*
X12819Y5894D01*
X12816Y5895D01*
X12813Y5896D01*
X12810Y5897D01*
X12807Y5898D01*
X12804Y5899D01*
X12800Y5899D01*
X12797Y5899D01*
X12798Y5574D02*
X12801Y5574D01*
X12804Y5575D01*
X12808Y5575D01*
X12811Y5576D01*
X12814Y5577D01*
X12817Y5578D01*
X12820Y5579D01*
X12823Y5581D01*
X12825Y5583D01*
X12828Y5585D01*
X12830Y5587D01*
X12833Y5589D01*
X12835Y5591D01*
X12837Y5594D01*
X12839Y5596D01*
X12840Y5599D01*
X12842Y5602D01*
X12843Y5605D01*
X12844Y5608D01*
X12845Y5611D01*
X12846Y5614D01*
X12847Y5618D01*
X12847Y5621D01*
X12847Y5624D01*
X11897Y6274D02*
X11900Y6274D01*
X11904Y6274D01*
X11907Y6273D01*
X11910Y6272D01*
X11913Y6271D01*
X11916Y6270D01*
X11919Y6269D01*
X11922Y6267D01*
X11925Y6266D01*
X11927Y6264D01*
X11930Y6262D01*
X11932Y6259D01*
X11935Y6257D01*
X11937Y6254D01*
X11939Y6252D01*
X11940Y6249D01*
X11942Y6246D01*
X11943Y6243D01*
X11944Y6240D01*
X11945Y6237D01*
X11946Y6234D01*
X11947Y6231D01*
X11947Y6227D01*
X11947Y6224D01*
Y5749D02*
X11947Y5752D01*
X11947Y5756D01*
X11946Y5759D01*
X11945Y5762D01*
X11944Y5765D01*
X11943Y5768D01*
X11942Y5771D01*
X11940Y5774D01*
X11939Y5777D01*
X11937Y5779D01*
X11935Y5782D01*
X11932Y5784D01*
X11930Y5787D01*
X11927Y5789D01*
X11925Y5791D01*
X11922Y5792D01*
X11919Y5794D01*
X11916Y5795D01*
X11913Y5796D01*
X11910Y5797D01*
X11907Y5798D01*
X11904Y5799D01*
X11900Y5799D01*
X11897Y5799D01*
X10149D02*
X10152Y5799D01*
X10155Y5799D01*
X10159Y5798D01*
X10162Y5797D01*
X10165Y5796D01*
X10168Y5795D01*
X10171Y5794D01*
X10174Y5792D01*
X10176Y5790D01*
X10179Y5788D01*
X10182Y5786D01*
X10184Y5784D01*
X10186Y5782D01*
X10188Y5779D01*
X10190Y5776D01*
X10191Y5774D01*
X10193Y5771D01*
X10194Y5768D01*
X10195Y5765D01*
X10196Y5761D01*
X10196Y5758D01*
X10197Y5755D01*
X10197Y5752D01*
X10197Y5748D01*
X10147Y5574D02*
X10150Y5574D01*
X10153Y5575D01*
X10157Y5575D01*
X10160Y5576D01*
X10163Y5577D01*
X10166Y5578D01*
X10169Y5580D01*
X10172Y5581D01*
X10175Y5583D01*
X10177Y5585D01*
X10180Y5587D01*
X10182Y5589D01*
X10185Y5592D01*
X10187Y5594D01*
X10189Y5597D01*
X10190Y5600D01*
X10192Y5603D01*
X10193Y5606D01*
X10194Y5609D01*
X10195Y5612D01*
X10196Y5615D01*
X10197Y5618D01*
X10197Y5622D01*
X10197Y5625D01*
X10296Y5574D02*
X10293Y5574D01*
X10290Y5574D01*
X10286Y5575D01*
X10283Y5576D01*
X10280Y5577D01*
X10277Y5578D01*
X10274Y5579D01*
X10271Y5581D01*
X10269Y5582D01*
X10266Y5584D01*
X10263Y5586D01*
X10261Y5589D01*
X10259Y5591D01*
X10257Y5594D01*
X10255Y5596D01*
X10253Y5599D01*
X10252Y5602D01*
X10250Y5605D01*
X10249Y5608D01*
X10248Y5611D01*
X10248Y5614D01*
X10247Y5617D01*
X10247Y5621D01*
X10247Y5624D01*
X10296Y5799D02*
X10293Y5799D01*
X10290Y5799D01*
X10286Y5798D01*
X10283Y5797D01*
X10280Y5796D01*
X10277Y5795D01*
X10274Y5794D01*
X10272Y5792D01*
X10269Y5791D01*
X10266Y5789D01*
X10264Y5787D01*
X10261Y5785D01*
X10259Y5782D01*
X10257Y5780D01*
X10255Y5777D01*
X10254Y5774D01*
X10252Y5772D01*
X10251Y5769D01*
X10250Y5766D01*
X10249Y5763D01*
X10248Y5760D01*
X10247Y5756D01*
X10247Y5753D01*
X10247Y5750D01*
X12046Y5574D02*
X12043Y5574D01*
X12040Y5574D01*
X12036Y5575D01*
X12033Y5576D01*
X12030Y5577D01*
X12027Y5578D01*
X12024Y5579D01*
X12022Y5581D01*
X12019Y5582D01*
X12016Y5584D01*
X12014Y5586D01*
X12011Y5588D01*
X12009Y5591D01*
X12007Y5593D01*
X12005Y5596D01*
X12004Y5598D01*
X12002Y5601D01*
X12001Y5604D01*
X12000Y5607D01*
X11999Y5610D01*
X11998Y5613D01*
X11997Y5617D01*
X11997Y5620D01*
X11997Y5623D01*
X11898Y5574D02*
X11901Y5574D01*
X11904Y5574D01*
X11908Y5575D01*
X11911Y5576D01*
X11914Y5577D01*
X11917Y5578D01*
X11920Y5579D01*
X11923Y5581D01*
X11925Y5582D01*
X11928Y5584D01*
X11930Y5586D01*
X11933Y5588D01*
X11935Y5591D01*
X11937Y5593D01*
X11939Y5596D01*
X11940Y5598D01*
X11942Y5601D01*
X11943Y5604D01*
X11944Y5607D01*
X11945Y5610D01*
X11946Y5613D01*
X11947Y5617D01*
X11947Y5620D01*
X11947Y5623D01*
Y5898D02*
X11947Y5895D01*
X11947Y5892D01*
X11946Y5888D01*
X11945Y5885D01*
X11944Y5882D01*
X11943Y5879D01*
X11942Y5876D01*
X11940Y5874D01*
X11939Y5871D01*
X11937Y5868D01*
X11935Y5866D01*
X11933Y5863D01*
X11930Y5861D01*
X11928Y5859D01*
X11925Y5857D01*
X11923Y5856D01*
X11920Y5854D01*
X11917Y5853D01*
X11914Y5852D01*
X11911Y5851D01*
X11908Y5850D01*
X11904Y5849D01*
X11901Y5849D01*
X11898Y5849D01*
X12048Y5899D02*
X12044Y5899D01*
X12041Y5899D01*
X12038Y5898D01*
X12035Y5898D01*
X12032Y5897D01*
X12028Y5896D01*
X12025Y5894D01*
X12023Y5893D01*
X12020Y5891D01*
X12017Y5889D01*
X12014Y5887D01*
X12012Y5885D01*
X12010Y5883D01*
X12008Y5880D01*
X12006Y5878D01*
X12004Y5875D01*
X12002Y5872D01*
X12001Y5869D01*
X12000Y5866D01*
X11999Y5863D01*
X11998Y5860D01*
X11997Y5857D01*
X11997Y5853D01*
X11997Y5850D01*
Y5997D02*
X11997Y5994D01*
X11997Y5991D01*
X11998Y5988D01*
X11999Y5985D01*
X12000Y5982D01*
X12001Y5979D01*
X12002Y5976D01*
X12003Y5973D01*
X12005Y5970D01*
X12007Y5968D01*
X12009Y5965D01*
X12011Y5963D01*
X12013Y5961D01*
X12016Y5959D01*
X12018Y5957D01*
X12021Y5955D01*
X12024Y5954D01*
X12027Y5953D01*
X12030Y5952D01*
X12033Y5951D01*
X12036Y5950D01*
X12039Y5949D01*
X12042Y5949D01*
X12045Y5949D01*
X12046Y6274D02*
X12043Y6274D01*
X12040Y6274D01*
X12036Y6273D01*
X12033Y6272D01*
X12030Y6271D01*
X12027Y6270D01*
X12024Y6269D01*
X12022Y6267D01*
X12019Y6266D01*
X12016Y6264D01*
X12014Y6262D01*
X12011Y6260D01*
X12009Y6257D01*
X12007Y6255D01*
X12005Y6252D01*
X12004Y6250D01*
X12002Y6247D01*
X12001Y6244D01*
X12000Y6241D01*
X11999Y6238D01*
X11998Y6235D01*
X11997Y6231D01*
X11997Y6228D01*
X11997Y6225D01*
X9147Y5524D02*
X9150Y5524D01*
X9154Y5524D01*
X9157Y5523D01*
X9160Y5522D01*
X9163Y5521D01*
X9166Y5520D01*
X9169Y5519D01*
X9172Y5517D01*
X9175Y5516D01*
X9177Y5514D01*
X9180Y5512D01*
X9182Y5509D01*
X9185Y5507D01*
X9187Y5504D01*
X9189Y5502D01*
X9190Y5499D01*
X9192Y5496D01*
X9193Y5493D01*
X9194Y5490D01*
X9195Y5487D01*
X9196Y5484D01*
X9197Y5481D01*
X9197Y5477D01*
X9197Y5474D01*
X9147Y5324D02*
X9150Y5324D01*
X9154Y5324D01*
X9157Y5325D01*
X9160Y5325D01*
X9163Y5326D01*
X9166Y5327D01*
X9169Y5329D01*
X9172Y5330D01*
X9175Y5332D01*
X9177Y5334D01*
X9180Y5336D01*
X9182Y5338D01*
X9185Y5340D01*
X9187Y5343D01*
X9189Y5346D01*
X9190Y5348D01*
X9192Y5351D01*
X9193Y5354D01*
X9194Y5357D01*
X9195Y5360D01*
X9196Y5363D01*
X9197Y5367D01*
X9197Y5370D01*
X9197Y5373D01*
X9296Y5324D02*
X9293Y5324D01*
X9289Y5324D01*
X9286Y5325D01*
X9283Y5326D01*
X9280Y5326D01*
X9277Y5328D01*
X9274Y5329D01*
X9271Y5330D01*
X9268Y5332D01*
X9266Y5334D01*
X9263Y5336D01*
X9261Y5338D01*
X9259Y5341D01*
X9257Y5343D01*
X9255Y5346D01*
X9253Y5349D01*
X9252Y5352D01*
X9250Y5355D01*
X9249Y5358D01*
X9248Y5361D01*
X9248Y5364D01*
X9247Y5367D01*
X9247Y5370D01*
X9247Y5374D01*
X9297Y5524D02*
X9294Y5524D01*
X9290Y5524D01*
X9287Y5523D01*
X9284Y5522D01*
X9281Y5521D01*
X9278Y5520D01*
X9275Y5519D01*
X9272Y5517D01*
X9269Y5516D01*
X9267Y5514D01*
X9264Y5512D01*
X9262Y5509D01*
X9259Y5507D01*
X9257Y5504D01*
X9255Y5502D01*
X9254Y5499D01*
X9252Y5496D01*
X9251Y5493D01*
X9250Y5490D01*
X9249Y5487D01*
X9248Y5484D01*
X9247Y5481D01*
X9247Y5477D01*
X9247Y5474D01*
X11022Y5374D02*
X11022Y5371D01*
X11022Y5368D01*
X11021Y5364D01*
X11020Y5361D01*
X11019Y5358D01*
X11018Y5355D01*
X11017Y5352D01*
X11015Y5349D01*
X11014Y5346D01*
X11012Y5344D01*
X11010Y5341D01*
X11008Y5339D01*
X11005Y5337D01*
X11003Y5335D01*
X11000Y5333D01*
X10998Y5331D01*
X10995Y5329D01*
X10992Y5328D01*
X10989Y5327D01*
X10986Y5326D01*
X10983Y5325D01*
X10979Y5325D01*
X10976Y5324D01*
X10973Y5324D01*
X10972Y5524D02*
X10975Y5524D01*
X10979Y5524D01*
X10982Y5523D01*
X10985Y5522D01*
X10988Y5521D01*
X10991Y5520D01*
X10994Y5519D01*
X10997Y5517D01*
X11000Y5516D01*
X11002Y5514D01*
X11005Y5512D01*
X11007Y5509D01*
X11010Y5507D01*
X11012Y5504D01*
X11014Y5502D01*
X11015Y5499D01*
X11017Y5496D01*
X11018Y5493D01*
X11019Y5490D01*
X11020Y5487D01*
X11021Y5484D01*
X11022Y5481D01*
X11022Y5477D01*
X11022Y5474D01*
X11121Y5324D02*
X11118Y5324D01*
X11114Y5324D01*
X11111Y5325D01*
X11108Y5326D01*
X11105Y5326D01*
X11102Y5328D01*
X11099Y5329D01*
X11096Y5330D01*
X11093Y5332D01*
X11091Y5334D01*
X11088Y5336D01*
X11086Y5338D01*
X11084Y5341D01*
X11082Y5343D01*
X11080Y5346D01*
X11078Y5349D01*
X11077Y5352D01*
X11075Y5355D01*
X11074Y5358D01*
X11073Y5361D01*
X11073Y5364D01*
X11072Y5367D01*
X11072Y5370D01*
X11072Y5374D01*
X11122Y5524D02*
X11119Y5524D01*
X11115Y5524D01*
X11112Y5523D01*
X11109Y5522D01*
X11106Y5521D01*
X11103Y5520D01*
X11100Y5519D01*
X11097Y5517D01*
X11094Y5516D01*
X11092Y5514D01*
X11089Y5512D01*
X11087Y5509D01*
X11084Y5507D01*
X11082Y5504D01*
X11080Y5502D01*
X11079Y5499D01*
X11077Y5496D01*
X11076Y5493D01*
X11075Y5490D01*
X11074Y5487D01*
X11073Y5484D01*
X11072Y5481D01*
X11072Y5477D01*
X11072Y5474D01*
D24*
X10587Y7749D02*
D03*
X12372Y8164D02*
D03*
X12457Y8079D02*
D03*
X11117Y8139D02*
D03*
X10587Y7549D02*
D03*
X11947Y8824D02*
D03*
X11208Y8116D02*
D03*
X11822Y8824D02*
D03*
X12197Y9374D02*
D03*
X11872Y8599D02*
D03*
X11117Y8219D02*
D03*
X12114Y8752D02*
D03*
X10522Y7364D02*
D03*
X11352Y8799D02*
D03*
X12357Y8399D02*
D03*
X12272Y8724D02*
D03*
X10779Y9174D02*
D03*
X10644Y9521D02*
D03*
X11847Y8924D02*
D03*
X11922Y9299D02*
D03*
X11047Y8804D02*
D03*
X11837Y8759D02*
D03*
X11997Y9349D02*
D03*
X10097Y7924D02*
D03*
X12272Y8820D02*
D03*
Y9317D02*
D03*
X11432Y8464D02*
D03*
X11522Y8722D02*
D03*
X11847Y9103D02*
D03*
X11727Y9649D02*
D03*
X11372Y8149D02*
D03*
X12322Y8774D02*
D03*
X10902Y8934D02*
D03*
X11107Y9164D02*
D03*
X12022Y9049D02*
D03*
X11457Y9379D02*
D03*
X12545Y7227D02*
D03*
X10457Y8679D02*
D03*
X10731Y9724D02*
D03*
X10993Y9781D02*
D03*
X11937Y8059D02*
D03*
X11847Y7749D02*
D03*
X11557Y7486D02*
D03*
X11017Y8224D02*
D03*
D29*
X10917Y7409D02*
D03*
X11157Y7309D02*
D03*
Y7409D02*
D03*
X10677Y7309D02*
D03*
Y7409D02*
D03*
X10917Y7309D02*
D03*
D32*
X12697Y8799D02*
D03*
X10537Y7939D02*
D03*
X10637D02*
D03*
X12697Y9499D02*
D03*
Y9199D02*
D03*
Y9299D02*
D03*
Y9099D02*
D03*
Y8999D02*
D03*
Y8899D02*
D03*
Y8699D02*
D03*
Y8599D02*
D03*
Y8499D02*
D03*
Y9399D02*
D03*
X12377Y7379D02*
D03*
Y7479D02*
D03*
Y7579D02*
D03*
Y7679D02*
D03*
Y7779D02*
D03*
Y7279D02*
D03*
Y7179D02*
D03*
X12697D02*
D03*
Y7279D02*
D03*
Y7379D02*
D03*
Y7479D02*
D03*
Y7579D02*
D03*
Y7679D02*
D03*
Y7779D02*
D03*
X11637Y7939D02*
D03*
X11537D02*
D03*
X11437D02*
D03*
X11337D02*
D03*
X11237D02*
D03*
X11137D02*
D03*
X11037D02*
D03*
X10937D02*
D03*
X10837D02*
D03*
X10737D02*
D03*
X10437D02*
D03*
X10337D02*
D03*
X10237D02*
D03*
Y8539D02*
D03*
X10337D02*
D03*
X10437D02*
D03*
X10537D02*
D03*
X10637D02*
D03*
X10737D02*
D03*
X10837D02*
D03*
X10937D02*
D03*
X11037D02*
D03*
X11137D02*
D03*
X11237D02*
D03*
X11337D02*
D03*
X11437D02*
D03*
X11537D02*
D03*
X11637D02*
D03*
X11737D02*
D03*
X11837D02*
D03*
X11937D02*
D03*
X12037D02*
D03*
X12137D02*
D03*
X11257Y7679D02*
D03*
Y7579D02*
D03*
X11177Y9739D02*
D03*
X11277D02*
D03*
X11377D02*
D03*
X11477D02*
D03*
X11577D02*
D03*
X11677D02*
D03*
X11777D02*
D03*
X11877D02*
D03*
X11977D02*
D03*
X12077D02*
D03*
X12177D02*
D03*
X12277D02*
D03*
X12377D02*
D03*
X12037Y7939D02*
D03*
X11937D02*
D03*
X11837D02*
D03*
X11737D02*
D03*
D33*
X10217Y7119D02*
D03*
X10417D02*
D03*
D35*
X12401Y9375D02*
D03*
X12301Y9575D02*
D03*
X12501D02*
D03*
X11417Y7639D02*
D03*
X12017D02*
D03*
X11417Y7339D02*
D03*
X12177Y7139D02*
D03*
X11777D02*
D03*
X11917D02*
D03*
X11517D02*
D03*
D37*
X10877Y7195D02*
D03*
X10757D02*
D03*
X10997D02*
D03*
X11129Y7163D02*
D03*
X10625D02*
D03*
X9977Y7879D02*
D03*
Y7979D02*
D03*
Y8339D02*
D03*
Y8439D02*
D03*
Y8539D02*
D03*
Y8079D02*
D03*
D46*
X10257Y7719D02*
D03*
X10397Y7539D02*
D03*
X10137D02*
D03*
D54*
X10517Y8209D02*
D03*
X11657Y7439D02*
D03*
X11757Y7529D02*
D03*
X11657D02*
D03*
X10517Y8299D02*
D03*
X11757Y7439D02*
D03*
D57*
X12537Y8799D02*
D03*
Y8399D02*
D03*
X12447D02*
D03*
Y8799D02*
D03*
X10587Y7699D02*
D03*
X10677Y7499D02*
D03*
X10587D02*
D03*
X10677Y7599D02*
D03*
X10587D02*
D03*
X10677Y7699D02*
D03*
X10177Y7299D02*
D03*
X10087D02*
D03*
X10277D02*
D03*
X10367D02*
D03*
X12447Y9099D02*
D03*
X12537D02*
D03*
X12447Y8699D02*
D03*
X12537D02*
D03*
X12242Y7379D02*
D03*
X12152D02*
D03*
X12242Y7479D02*
D03*
X12152D02*
D03*
X12242Y7579D02*
D03*
X12152D02*
D03*
X12242Y7679D02*
D03*
X12152D02*
D03*
Y7779D02*
D03*
X12242D02*
D03*
X11017Y7629D02*
D03*
X11107D02*
D03*
D58*
X10872Y9499D02*
D03*
X11337Y9254D02*
D03*
X10982Y9499D02*
D03*
X11117D02*
D03*
X11222D02*
D03*
X11357D02*
D03*
X11337Y8954D02*
D03*
Y9119D02*
D03*
X10737Y9499D02*
D03*
X11202Y8954D02*
D03*
X12697Y8399D02*
D03*
X12377Y7879D02*
D03*
X12697D02*
D03*
X12137Y7939D02*
D03*
X12477Y9739D02*
D03*
D59*
X12017Y8759D02*
D03*
X12202D02*
D03*
D63*
X12017Y7339D02*
D03*
D71*
X10857Y7679D02*
D03*
Y7579D02*
D03*
D73*
X12177Y6959D02*
D03*
X11777D02*
D03*
X11917D02*
D03*
X11517D02*
D03*
M02*
