%FSLAX43Y43*%
%MOMM*%
G71*
G01*
G75*
%ADD10C,0.254*%
%ADD11C,0.203*%
%ADD12C,0.305*%
%ADD13C,0.508*%
%ADD14C,0.762*%
%ADD15C,0.381*%
%ADD16C,1.016*%
%ADD17C,0.229*%
%ADD18C,1.270*%
%ADD19R,1.270X1.270*%
%ADD20C,1.575*%
%ADD21C,1.905*%
%ADD22C,1.778*%
%ADD23P,1.575X8X0*%
%ADD24C,3.556*%
%ADD25R,1.575X1.575*%
%ADD26C,3.810*%
%ADD27C,0.200*%
%ADD28C,1.473*%
%ADD29R,1.473X1.473*%
%ADD30C,2.108*%
%ADD31C,1.981*%
%ADD32P,1.778X8X0*%
%ADD33C,3.759*%
%ADD34R,1.778X1.778*%
%ADD35C,4.013*%
D17*
X282917Y137106D02*
X282808Y136998D01*
X282917Y136889D01*
X283025Y136998D01*
X282917Y137106D01*
X285159Y138630D02*
X285050Y138848D01*
X284832Y139065D01*
X284614Y139174D01*
X284179D01*
X283961Y139065D01*
X283744Y138848D01*
X283635Y138630D01*
X283526Y138304D01*
Y137759D01*
X283635Y137433D01*
X283744Y137215D01*
X283961Y136998D01*
X284179Y136889D01*
X284614D01*
X284832Y136998D01*
X285050Y137215D01*
X285159Y137433D01*
Y137759D01*
X284614D02*
X285159D01*
X285681Y139174D02*
Y136889D01*
Y139174D02*
X286660D01*
X286987Y139065D01*
X287096Y138957D01*
X287205Y138739D01*
Y138521D01*
X287096Y138304D01*
X286987Y138195D01*
X286660Y138086D01*
X285681D02*
X286660D01*
X286987Y137977D01*
X287096Y137868D01*
X287205Y137651D01*
Y137324D01*
X287096Y137106D01*
X286987Y136998D01*
X286660Y136889D01*
X285681D01*
X289240Y138848D02*
X289022Y139065D01*
X288696Y139174D01*
X288260D01*
X287934Y139065D01*
X287716Y138848D01*
Y138630D01*
X287825Y138412D01*
X287934Y138304D01*
X288152Y138195D01*
X288805Y137977D01*
X289022Y137868D01*
X289131Y137759D01*
X289240Y137542D01*
Y137215D01*
X289022Y136998D01*
X288696Y136889D01*
X288260D01*
X287934Y136998D01*
X287716Y137215D01*
D22*
X216098Y248570D02*
D03*
X226258D02*
D03*
X216082Y253627D02*
D03*
X226242D02*
D03*
Y246007D02*
D03*
X216082D02*
D03*
Y240927D02*
D03*
X226242D02*
D03*
Y243467D02*
D03*
X216082D02*
D03*
X261183Y206660D02*
D03*
X251023D02*
D03*
X261183Y211740D02*
D03*
X251023D02*
D03*
Y204120D02*
D03*
X261183D02*
D03*
X226258Y238410D02*
D03*
X216098D02*
D03*
X251026Y237756D02*
D03*
Y227596D02*
D03*
X253566D02*
D03*
Y237756D02*
D03*
X200842Y213622D02*
D03*
X190682D02*
D03*
Y216162D02*
D03*
X200842D02*
D03*
X226258Y251110D02*
D03*
X216098D02*
D03*
X253543Y251107D02*
D03*
Y240947D02*
D03*
X251003D02*
D03*
Y251107D02*
D03*
X190682Y219337D02*
D03*
X200842D02*
D03*
Y225687D02*
D03*
X190682D02*
D03*
Y222512D02*
D03*
X200842D02*
D03*
X251023Y218090D02*
D03*
X261183D02*
D03*
X190682Y228862D02*
D03*
X200842D02*
D03*
X251023Y221265D02*
D03*
X261183D02*
D03*
Y214915D02*
D03*
X251023D02*
D03*
Y224440D02*
D03*
X261183D02*
D03*
X226893Y207295D02*
D03*
Y204755D02*
D03*
Y202215D02*
D03*
Y199675D02*
D03*
X219273D02*
D03*
Y202215D02*
D03*
Y204755D02*
D03*
X204033Y221900D02*
D03*
Y219360D02*
D03*
Y216820D02*
D03*
X211653D02*
D03*
Y219360D02*
D03*
Y221900D02*
D03*
Y224440D02*
D03*
X259278Y194595D02*
D03*
Y192055D02*
D03*
Y189515D02*
D03*
Y186975D02*
D03*
X251658D02*
D03*
Y189515D02*
D03*
Y192055D02*
D03*
X207208Y204755D02*
D03*
Y202215D02*
D03*
Y199675D02*
D03*
Y197135D02*
D03*
Y194595D02*
D03*
Y192055D02*
D03*
X214828D02*
D03*
Y194595D02*
D03*
Y197135D02*
D03*
Y199675D02*
D03*
Y202215D02*
D03*
Y204755D02*
D03*
Y207295D02*
D03*
X224991Y218071D02*
D03*
X217371D02*
D03*
X224991Y233311D02*
D03*
X190698Y194595D02*
D03*
Y192055D02*
D03*
X198318D02*
D03*
Y194595D02*
D03*
Y204755D02*
D03*
Y197135D02*
D03*
Y202215D02*
D03*
Y199675D02*
D03*
X190698Y197135D02*
D03*
Y207295D02*
D03*
Y199675D02*
D03*
Y202215D02*
D03*
Y204755D02*
D03*
X198318Y207295D02*
D03*
Y209835D02*
D03*
X231341Y223786D02*
D03*
X246581Y228866D02*
D03*
Y231406D02*
D03*
Y233946D02*
D03*
Y246646D02*
D03*
Y249186D02*
D03*
X231341Y236486D02*
D03*
X246581Y208546D02*
D03*
Y206006D02*
D03*
X231341D02*
D03*
Y221246D02*
D03*
X246581Y226326D02*
D03*
X231341Y208546D02*
D03*
Y203466D02*
D03*
Y233946D02*
D03*
Y239026D02*
D03*
Y241566D02*
D03*
Y244106D02*
D03*
Y246646D02*
D03*
Y211086D02*
D03*
Y213626D02*
D03*
X246581Y223786D02*
D03*
Y221246D02*
D03*
Y218706D02*
D03*
Y216166D02*
D03*
Y203466D02*
D03*
Y200926D02*
D03*
X231341D02*
D03*
Y226326D02*
D03*
Y231406D02*
D03*
Y228866D02*
D03*
Y218706D02*
D03*
X246581Y236486D02*
D03*
Y239026D02*
D03*
Y213626D02*
D03*
Y241566D02*
D03*
Y244106D02*
D03*
Y211086D02*
D03*
X231341Y216166D02*
D03*
X212551Y186952D02*
D03*
X207014D02*
D03*
X204246D02*
D03*
X211180Y184412D02*
D03*
X208411D02*
D03*
X205643D02*
D03*
X202874D02*
D03*
X209783Y186952D02*
D03*
X231322Y193302D02*
D03*
X241482D02*
D03*
X231338Y190785D02*
D03*
X241498D02*
D03*
X241482Y195842D02*
D03*
X231322D02*
D03*
X228163Y195865D02*
D03*
X218003D02*
D03*
X228163Y193325D02*
D03*
X218003D02*
D03*
X228147Y190762D02*
D03*
X217987D02*
D03*
X251007Y209177D02*
D03*
X261167D02*
D03*
X186880Y190774D02*
D03*
Y193314D02*
D03*
X202120Y204109D02*
D03*
Y201569D02*
D03*
X186880Y199029D02*
D03*
Y196489D02*
D03*
X202120Y207284D02*
D03*
Y209824D02*
D03*
X186880Y204744D02*
D03*
Y202204D02*
D03*
X257376Y255536D02*
D03*
Y258076D02*
D03*
X226896Y186321D02*
D03*
Y183781D02*
D03*
X242136D02*
D03*
Y186321D02*
D03*
X221170Y211729D02*
D03*
X224980D02*
D03*
X257365Y199029D02*
D03*
X253555D02*
D03*
X209105Y211729D02*
D03*
X212915D02*
D03*
X252285Y254274D02*
D03*
Y258084D02*
D03*
X247205D02*
D03*
Y254274D02*
D03*
X236410Y183154D02*
D03*
Y186964D02*
D03*
X231965D02*
D03*
Y183154D02*
D03*
X242125Y254274D02*
D03*
Y258084D02*
D03*
X205930Y228874D02*
D03*
X209740D02*
D03*
X202108Y193957D02*
D03*
Y196497D02*
D03*
X209105Y233954D02*
D03*
X206565D02*
D03*
X214193Y256825D02*
D03*
X211653D02*
D03*
X245308Y194595D02*
D03*
X247848D02*
D03*
X245292Y190127D02*
D03*
X247832D02*
D03*
D28*
X265631Y212356D02*
D03*
Y214896D02*
D03*
Y217436D02*
D03*
Y219976D02*
D03*
Y222516D02*
D03*
X186256Y220611D02*
D03*
Y218071D02*
D03*
Y215531D02*
D03*
Y212991D02*
D03*
Y210451D02*
D03*
X226258Y258095D02*
D03*
X239577Y177427D02*
D03*
X223718Y258095D02*
D03*
X265608Y207927D02*
D03*
Y205387D02*
D03*
Y202847D02*
D03*
Y200307D02*
D03*
Y197767D02*
D03*
Y195227D02*
D03*
Y192687D02*
D03*
Y190147D02*
D03*
Y187607D02*
D03*
X186256Y247916D02*
D03*
Y245376D02*
D03*
Y242836D02*
D03*
Y240296D02*
D03*
Y237756D02*
D03*
Y235216D02*
D03*
Y232676D02*
D03*
Y230136D02*
D03*
Y227596D02*
D03*
D29*
X265631Y225056D02*
D03*
X186256Y223151D02*
D03*
X242117Y177427D02*
D03*
X221178Y258095D02*
D03*
X265608Y185067D02*
D03*
X186256Y250456D02*
D03*
D30*
X200203Y254282D02*
D03*
Y233784D02*
D03*
X230706Y179336D02*
D03*
X233246D02*
D03*
X228166D02*
D03*
D31*
X237747Y253282D02*
D03*
X231247D02*
D03*
X252928Y183565D02*
D03*
X255976D02*
D03*
X249880D02*
D03*
X246528Y182765D02*
D03*
X259328D02*
D03*
X258011Y238391D02*
D03*
X263091Y244741D02*
D03*
Y237121D02*
D03*
Y234581D02*
D03*
X258011Y230771D02*
D03*
Y248551D02*
D03*
X263091Y232041D02*
D03*
X258011Y233311D02*
D03*
Y246011D02*
D03*
X263091Y247281D02*
D03*
Y239661D02*
D03*
Y242201D02*
D03*
X258011Y240931D02*
D03*
Y243471D02*
D03*
Y235851D02*
D03*
X231247Y257782D02*
D03*
X237747D02*
D03*
D32*
X207208Y207295D02*
D03*
X219273D02*
D03*
X204033Y224440D02*
D03*
X251658Y194595D02*
D03*
D33*
X187050Y256814D02*
D03*
X264430D02*
D03*
Y179434D02*
D03*
X187050D02*
D03*
D34*
X217371Y233311D02*
D03*
X190698Y209835D02*
D03*
X231341Y249186D02*
D03*
X201477Y186952D02*
D03*
D35*
X219536Y185682D02*
D03*
X194492D02*
D03*
M02*
