%FSLAX43Y43*%
%MOMM*%
G71*
G01*
G75*
%ADD10C,0.254*%
%ADD11C,0.203*%
%ADD12C,0.305*%
%ADD13C,0.508*%
%ADD14C,0.762*%
%ADD15C,0.381*%
%ADD16C,1.016*%
%ADD17C,0.229*%
%ADD18C,1.270*%
%ADD19R,1.270X1.270*%
%ADD20C,1.575*%
%ADD21C,1.905*%
%ADD22C,1.778*%
%ADD23P,1.575X8X0*%
%ADD24C,3.556*%
%ADD25R,1.575X1.575*%
%ADD26C,3.810*%
%ADD27C,0.200*%
D10*
X202736Y236661D02*
X202982Y236721D01*
X203227Y236786D01*
X203471Y236856D01*
X203713Y236932D01*
X203953Y237014D01*
X204191Y237101D01*
X204427Y237193D01*
X204661Y237290D01*
X204893Y237393D01*
X205122Y237500D01*
X205349Y237613D01*
X205574Y237731D01*
X205796Y237854D01*
X206014Y237982D01*
X206230Y238115D01*
X206443Y238252D01*
X206653Y238395D01*
X206860Y238542D01*
X207063Y238693D01*
X207263Y238849D01*
X207459Y239010D01*
X207651Y239175D01*
X207840Y239344D01*
X208025Y239517D01*
X208206Y239695D01*
X208383Y239876D01*
X208556Y240062D01*
X208725Y240251D01*
X208889Y240444D01*
X209049Y240641D01*
X209205Y240841D01*
X209356Y241044D01*
X209502Y241251D01*
X209644Y241461D01*
X209781Y241675D01*
X209913Y241891D01*
X210041Y242110D01*
X210163Y242332D01*
X210281Y242557D01*
X210393Y242784D01*
X210500Y243014D01*
X210602Y243246D01*
X210699Y243480D01*
X210790Y243717D01*
X210876Y243955D01*
X210957Y244196D01*
X211033Y244438D01*
X211103Y244681D01*
X211167Y244926D01*
X211226Y245173D01*
X211279Y245421D01*
X211327Y245670D01*
X211369Y245920D01*
X211406Y246171D01*
X211437Y246422D01*
X211462Y246675D01*
X211482Y246927D01*
X211496Y247180D01*
X211504Y247434D01*
X211507Y247687D01*
X211504Y247941D01*
X211495Y248194D01*
X211481Y248447D01*
X211461Y248700D01*
X211435Y248952D01*
X211403Y249204D01*
X211366Y249455D01*
X211324Y249704D01*
X211275Y249953D01*
X211222Y250201D01*
X211162Y250448D01*
X211097Y250693D01*
X211027Y250936D01*
X210951Y251178D01*
X210870Y251418D01*
X210783Y251657D01*
X210692Y251893D01*
X210594Y252127D01*
X210492Y252359D01*
X210384Y252588D01*
X210272Y252816D01*
X210154Y253040D01*
X210031Y253262D01*
X209904Y253481D01*
X209771Y253697D01*
X209634Y253910D01*
X209491Y254120D01*
X209345Y254327D01*
X209193Y254530D01*
X209037Y254730D01*
X208877Y254926D01*
X208712Y255119D01*
X208543Y255308D01*
X208370Y255493D01*
X208193Y255674D01*
X208011Y255851D01*
X207826Y256024D01*
X207637Y256193D01*
X207444Y256358D01*
X207248Y256518D01*
X207048Y256674D01*
X206844Y256825D01*
X206637Y256972D01*
X206427Y257113D01*
X206214Y257251D01*
X205998Y257383D01*
X205779Y257511D01*
X205557Y257633D01*
X205332Y257751D01*
X205105Y257863D01*
X204875Y257971D01*
X204643Y258073D01*
X204409Y258170D01*
X204173Y258261D01*
X203934Y258348D01*
X203694Y258429D01*
X203452Y258504D01*
X203209Y258574D01*
X202963Y258639D01*
X202717Y258698D01*
X202469Y258752D01*
X202220Y258800D01*
X201970Y258842D01*
X201719Y258879D01*
X201468Y258910D01*
X201216Y258936D01*
X200963Y258956D01*
X200710Y258970D01*
X200456Y258978D01*
X200203Y258981D01*
X199950Y258978D01*
X199696Y258970D01*
X199443Y258956D01*
X199191Y258936D01*
X198939Y258910D01*
X198687Y258879D01*
X198436Y258842D01*
X198186Y258800D01*
X197938Y258752D01*
X197690Y258698D01*
X197443Y258639D01*
X197198Y258575D01*
X196955Y258505D01*
X196713Y258429D01*
X196473Y258348D01*
X196234Y258262D01*
X195998Y258170D01*
X195764Y258073D01*
X195532Y257971D01*
X195302Y257864D01*
X195075Y257751D01*
X194851Y257634D01*
X194629Y257511D01*
X194410Y257384D01*
X194194Y257252D01*
X193981Y257114D01*
X193771Y256973D01*
X193564Y256826D01*
X193360Y256675D01*
X193160Y256519D01*
X192964Y256359D01*
X192771Y256195D01*
X192582Y256026D01*
X192397Y255853D01*
X192215Y255676D01*
X192038Y255495D01*
X191865Y255310D01*
X191696Y255121D01*
X191531Y254928D01*
X191371Y254732D01*
X191215Y254532D01*
X191063Y254329D01*
X190917Y254122D01*
X190774Y253912D01*
X190637Y253700D01*
X190504Y253484D01*
X190377Y253265D01*
X190254Y253043D01*
X190136Y252819D01*
X190023Y252592D01*
X189916Y252362D01*
X189813Y252130D01*
X189716Y251896D01*
X189624Y251660D01*
X189538Y251422D01*
X189456Y251182D01*
X189380Y250940D01*
X189310Y250697D01*
X189245Y250452D01*
X189186Y250205D01*
X189132Y249958D01*
X189083Y249709D01*
X189041Y249459D01*
X189004Y249208D01*
X188972Y248957D01*
X188946Y248705D01*
X188926Y248452D01*
X188911Y248199D01*
X188903Y247946D01*
X188899Y247692D01*
X188902Y247439D01*
X188910Y247186D01*
X188924Y246932D01*
X188944Y246680D01*
X188969Y246428D01*
X189000Y246176D01*
X189036Y245925D01*
X189078Y245675D01*
X189126Y245426D01*
X189179Y245179D01*
X189238Y244932D01*
X189302Y244687D01*
X189372Y244443D01*
X189447Y244201D01*
X189528Y243961D01*
X189614Y243723D01*
X189705Y243486D01*
X189802Y243252D01*
X189904Y243020D01*
X190011Y242790D01*
X190123Y242563D01*
X190240Y242338D01*
X190362Y242116D01*
X190489Y241897D01*
X190621Y241681D01*
X190758Y241467D01*
X190900Y241257D01*
X191046Y241050D01*
X191197Y240846D01*
X191353Y240646D01*
X191512Y240450D01*
X191677Y240257D01*
X191845Y240067D01*
X192018Y239882D01*
X192195Y239700D01*
X192376Y239523D01*
X192560Y239349D01*
X192749Y239180D01*
X192941Y239015D01*
X193137Y238854D01*
X193337Y238698D01*
X193540Y238547D01*
X193746Y238399D01*
X193956Y238257D01*
X194169Y238119D01*
X194385Y237986D01*
X194603Y237858D01*
X194825Y237735D01*
X195049Y237617D01*
X195276Y237504D01*
X195505Y237396D01*
X195737Y237294D01*
X195971Y237196D01*
X196207Y237104D01*
X196445Y237017D01*
X196685Y236935D01*
X196927Y236859D01*
X197170Y236788D01*
X197415Y236723D01*
X197661Y236663D01*
X236380Y257020D02*
X236273Y257242D01*
X236033Y257297D01*
X235840Y257143D01*
Y256897D01*
X236033Y256743D01*
X236273Y256798D01*
X236380Y257020D01*
Y253972D02*
X236273Y254194D01*
X236033Y254249D01*
X235840Y254095D01*
Y253849D01*
X236033Y253695D01*
X236273Y253750D01*
X236380Y253972D01*
X233205Y257020D02*
X233098Y257242D01*
X232858Y257297D01*
X232665Y257143D01*
Y256897D01*
X232858Y256743D01*
X233098Y256798D01*
X233205Y257020D01*
Y253972D02*
X233098Y254194D01*
X232858Y254249D01*
X232665Y254095D01*
Y253849D01*
X232858Y253695D01*
X233098Y253750D01*
X233205Y253972D01*
X235312Y255496D02*
X235268Y255749D01*
X235139Y255972D01*
X234942Y256138D01*
X234700Y256226D01*
X234443D01*
X234202Y256138D01*
X234005Y255972D01*
X233876Y255749D01*
X233831Y255496D01*
X233876Y255243D01*
X234005Y255020D01*
X234202Y254855D01*
X234443Y254767D01*
X234700D01*
X234942Y254855D01*
X235139Y255020D01*
X235268Y255243D01*
X235312Y255496D01*
X216101Y235902D02*
X215844Y235876D01*
X215596Y235801D01*
X215368Y235679D01*
X215167Y235515D01*
X215003Y235315D01*
X214881Y235086D01*
X214806Y234839D01*
X214781Y234581D01*
X193873Y211105D02*
X193921Y210862D01*
X194059Y210656D01*
X194265Y210519D01*
X194508Y210470D01*
X194751Y210519D01*
X194957Y210656D01*
X195094Y210862D01*
X195143Y211105D01*
X238326Y250456D02*
X238375Y250213D01*
X238512Y250007D01*
X238718Y249869D01*
X238961Y249821D01*
X239204Y249869D01*
X239410Y250007D01*
X239548Y250213D01*
X239596Y250456D01*
X188785Y192044D02*
X188768Y192298D01*
X188717Y192547D01*
X188634Y192788D01*
X188519Y193015D01*
X188375Y193224D01*
X188204Y193413D01*
X188010Y193577D01*
X187795Y193714D01*
X187564Y193822D01*
X187321Y193897D01*
X187070Y193939D01*
X186816Y193948D01*
X186563Y193922D01*
X186315Y193863D01*
X186078Y193772D01*
X185855Y193650D01*
X185650Y193499D01*
X185467Y193322D01*
X185309Y193122D01*
X185180Y192903D01*
X185080Y192669D01*
X185013Y192423D01*
X184979Y192171D01*
Y191917D01*
X185013Y191664D01*
X185080Y191419D01*
X185180Y191185D01*
X185309Y190966D01*
X185467Y190766D01*
X185650Y190589D01*
X185855Y190438D01*
X186078Y190316D01*
X186315Y190224D01*
X186563Y190165D01*
X186816Y190140D01*
X187070Y190148D01*
X187321Y190191D01*
X187564Y190266D01*
X187795Y190373D01*
X188010Y190510D01*
X188204Y190674D01*
X188375Y190863D01*
X188519Y191073D01*
X188634Y191300D01*
X188717Y191541D01*
X188768Y191790D01*
X188785Y192044D01*
X204025Y202839D02*
X204008Y203093D01*
X203957Y203342D01*
X203874Y203583D01*
X203759Y203810D01*
X203615Y204019D01*
X203444Y204208D01*
X203250Y204372D01*
X203035Y204509D01*
X202804Y204617D01*
X202561Y204692D01*
X202310Y204734D01*
X202056Y204743D01*
X201803Y204717D01*
X201555Y204658D01*
X201318Y204567D01*
X201095Y204445D01*
X200890Y204294D01*
X200707Y204117D01*
X200549Y203917D01*
X200420Y203698D01*
X200320Y203464D01*
X200253Y203218D01*
X200219Y202966D01*
Y202712D01*
X200253Y202459D01*
X200320Y202214D01*
X200420Y201980D01*
X200549Y201761D01*
X200707Y201561D01*
X200890Y201384D01*
X201095Y201233D01*
X201318Y201111D01*
X201555Y201019D01*
X201803Y200960D01*
X202056Y200935D01*
X202310Y200943D01*
X202561Y200986D01*
X202804Y201061D01*
X203035Y201168D01*
X203250Y201305D01*
X203444Y201469D01*
X203615Y201658D01*
X203759Y201868D01*
X203874Y202095D01*
X203957Y202336D01*
X204008Y202585D01*
X204025Y202839D01*
X188785Y197759D02*
X188768Y198013D01*
X188717Y198262D01*
X188634Y198503D01*
X188519Y198730D01*
X188375Y198939D01*
X188204Y199128D01*
X188010Y199292D01*
X187795Y199429D01*
X187564Y199537D01*
X187321Y199612D01*
X187070Y199654D01*
X186816Y199663D01*
X186563Y199637D01*
X186315Y199578D01*
X186078Y199487D01*
X185855Y199365D01*
X185650Y199214D01*
X185467Y199037D01*
X185309Y198837D01*
X185180Y198618D01*
X185080Y198384D01*
X185013Y198138D01*
X184979Y197886D01*
Y197632D01*
X185013Y197379D01*
X185080Y197134D01*
X185180Y196900D01*
X185309Y196681D01*
X185467Y196481D01*
X185650Y196304D01*
X185855Y196153D01*
X186078Y196031D01*
X186315Y195939D01*
X186563Y195880D01*
X186816Y195855D01*
X187070Y195863D01*
X187321Y195906D01*
X187564Y195981D01*
X187795Y196088D01*
X188010Y196225D01*
X188204Y196389D01*
X188375Y196578D01*
X188519Y196788D01*
X188634Y197015D01*
X188717Y197256D01*
X188768Y197505D01*
X188785Y197759D01*
X204025Y208554D02*
X204008Y208808D01*
X203957Y209057D01*
X203874Y209298D01*
X203759Y209525D01*
X203615Y209734D01*
X203444Y209923D01*
X203250Y210087D01*
X203035Y210224D01*
X202804Y210332D01*
X202561Y210407D01*
X202310Y210449D01*
X202056Y210458D01*
X201803Y210432D01*
X201555Y210373D01*
X201318Y210282D01*
X201095Y210160D01*
X200890Y210009D01*
X200707Y209832D01*
X200549Y209632D01*
X200420Y209413D01*
X200320Y209179D01*
X200253Y208933D01*
X200219Y208681D01*
Y208427D01*
X200253Y208174D01*
X200320Y207929D01*
X200420Y207695D01*
X200549Y207476D01*
X200707Y207276D01*
X200890Y207099D01*
X201095Y206948D01*
X201318Y206826D01*
X201555Y206734D01*
X201803Y206675D01*
X202056Y206650D01*
X202310Y206658D01*
X202561Y206701D01*
X202804Y206776D01*
X203035Y206883D01*
X203250Y207020D01*
X203444Y207184D01*
X203615Y207373D01*
X203759Y207583D01*
X203874Y207810D01*
X203957Y208051D01*
X204008Y208300D01*
X204025Y208554D01*
X188785Y203474D02*
X188768Y203728D01*
X188717Y203977D01*
X188634Y204218D01*
X188519Y204445D01*
X188375Y204654D01*
X188204Y204843D01*
X188010Y205007D01*
X187795Y205144D01*
X187564Y205252D01*
X187321Y205327D01*
X187070Y205369D01*
X186816Y205378D01*
X186563Y205352D01*
X186315Y205293D01*
X186078Y205202D01*
X185855Y205080D01*
X185650Y204929D01*
X185467Y204752D01*
X185309Y204552D01*
X185180Y204333D01*
X185080Y204099D01*
X185013Y203853D01*
X184979Y203601D01*
Y203347D01*
X185013Y203094D01*
X185080Y202849D01*
X185180Y202615D01*
X185309Y202396D01*
X185467Y202196D01*
X185650Y202019D01*
X185855Y201868D01*
X186078Y201746D01*
X186315Y201654D01*
X186563Y201595D01*
X186816Y201570D01*
X187070Y201578D01*
X187321Y201621D01*
X187564Y201696D01*
X187795Y201803D01*
X188010Y201940D01*
X188204Y202104D01*
X188375Y202293D01*
X188519Y202503D01*
X188634Y202730D01*
X188717Y202971D01*
X188768Y203220D01*
X188785Y203474D01*
X259916Y256806D02*
X259904Y257059D01*
X259866Y257309D01*
X259804Y257555D01*
X259717Y257793D01*
X259607Y258021D01*
X259475Y258237D01*
X259322Y258439D01*
X259150Y258624D01*
X258960Y258792D01*
X258754Y258940D01*
X258535Y259066D01*
X258304Y259170D01*
X258064Y259251D01*
X257817Y259307D01*
X257566Y259339D01*
X257313Y259345D01*
X257061Y259326D01*
X256811Y259282D01*
X256567Y259214D01*
X256332Y259121D01*
X256106Y259006D01*
X255894Y258868D01*
X255696Y258710D01*
X255514Y258534D01*
X255352Y258340D01*
X255209Y258130D01*
X255088Y257908D01*
X254990Y257675D01*
X254915Y257433D01*
X254865Y257185D01*
X254840Y256933D01*
Y256679D01*
X254865Y256427D01*
X254915Y256179D01*
X254990Y255937D01*
X255088Y255704D01*
X255209Y255482D01*
X255352Y255272D01*
X255514Y255078D01*
X255696Y254902D01*
X255894Y254744D01*
X256106Y254606D01*
X256332Y254491D01*
X256567Y254398D01*
X256811Y254330D01*
X257061Y254286D01*
X257313Y254267D01*
X257566Y254273D01*
X257817Y254305D01*
X258064Y254361D01*
X258304Y254442D01*
X258535Y254546D01*
X258754Y254672D01*
X258960Y254820D01*
X259150Y254988D01*
X259322Y255173D01*
X259475Y255375D01*
X259607Y255591D01*
X259717Y255819D01*
X259804Y256057D01*
X259866Y256303D01*
X259904Y256553D01*
X259916Y256806D01*
X229436Y185051D02*
X229424Y185304D01*
X229386Y185554D01*
X229324Y185800D01*
X229237Y186038D01*
X229127Y186266D01*
X228995Y186482D01*
X228842Y186684D01*
X228670Y186869D01*
X228480Y187037D01*
X228274Y187185D01*
X228055Y187311D01*
X227824Y187415D01*
X227584Y187496D01*
X227337Y187552D01*
X227086Y187584D01*
X226833Y187590D01*
X226581Y187571D01*
X226331Y187527D01*
X226087Y187459D01*
X225852Y187366D01*
X225626Y187251D01*
X225414Y187113D01*
X225216Y186955D01*
X225034Y186779D01*
X224872Y186585D01*
X224729Y186375D01*
X224608Y186153D01*
X224510Y185920D01*
X224435Y185678D01*
X224385Y185430D01*
X224360Y185178D01*
Y184924D01*
X224385Y184672D01*
X224435Y184424D01*
X224510Y184182D01*
X224608Y183949D01*
X224729Y183727D01*
X224872Y183517D01*
X225034Y183323D01*
X225216Y183147D01*
X225414Y182989D01*
X225626Y182851D01*
X225852Y182736D01*
X226087Y182643D01*
X226331Y182575D01*
X226581Y182531D01*
X226833Y182512D01*
X227086Y182518D01*
X227337Y182550D01*
X227584Y182606D01*
X227824Y182687D01*
X228055Y182791D01*
X228274Y182917D01*
X228480Y183065D01*
X228670Y183233D01*
X228842Y183418D01*
X228995Y183620D01*
X229127Y183836D01*
X229237Y184064D01*
X229324Y184302D01*
X229386Y184548D01*
X229424Y184798D01*
X229436Y185051D01*
X244676D02*
X244664Y185304D01*
X244626Y185554D01*
X244564Y185800D01*
X244477Y186038D01*
X244367Y186266D01*
X244235Y186482D01*
X244082Y186684D01*
X243910Y186869D01*
X243720Y187037D01*
X243514Y187185D01*
X243295Y187311D01*
X243064Y187415D01*
X242824Y187496D01*
X242577Y187552D01*
X242326Y187584D01*
X242073Y187590D01*
X241821Y187571D01*
X241571Y187527D01*
X241327Y187459D01*
X241092Y187366D01*
X240866Y187251D01*
X240654Y187113D01*
X240456Y186955D01*
X240274Y186779D01*
X240112Y186585D01*
X239969Y186375D01*
X239848Y186153D01*
X239750Y185920D01*
X239675Y185678D01*
X239625Y185430D01*
X239600Y185178D01*
Y184924D01*
X239625Y184672D01*
X239675Y184424D01*
X239750Y184182D01*
X239848Y183949D01*
X239969Y183727D01*
X240112Y183517D01*
X240274Y183323D01*
X240456Y183147D01*
X240654Y182989D01*
X240866Y182851D01*
X241092Y182736D01*
X241327Y182643D01*
X241571Y182575D01*
X241821Y182531D01*
X242073Y182512D01*
X242326Y182518D01*
X242577Y182550D01*
X242824Y182606D01*
X243064Y182687D01*
X243295Y182791D01*
X243514Y182917D01*
X243720Y183065D01*
X243910Y183233D01*
X244082Y183418D01*
X244235Y183620D01*
X244367Y183836D01*
X244477Y184064D01*
X244564Y184302D01*
X244626Y184548D01*
X244664Y184798D01*
X244676Y185051D01*
X209867Y233954D02*
X209851Y234208D01*
X209803Y234459D01*
X209724Y234702D01*
X209615Y234933D01*
X209479Y235148D01*
X209316Y235345D01*
X209130Y235520D01*
X208924Y235669D01*
X208700Y235792D01*
X208463Y235886D01*
X208216Y235950D01*
X207962Y235982D01*
X207707D01*
X207454Y235950D01*
X207207Y235886D01*
X206970Y235792D01*
X206746Y235669D01*
X206540Y235520D01*
X206354Y235345D01*
X206191Y235148D01*
X206054Y234933D01*
X205945Y234702D01*
X205867Y234459D01*
X205819Y234208D01*
X205803Y233954D01*
X205819Y233699D01*
X205867Y233448D01*
X205945Y233206D01*
X206054Y232975D01*
X206191Y232759D01*
X206354Y232563D01*
X206540Y232388D01*
X206746Y232238D01*
X206970Y232115D01*
X207207Y232021D01*
X207454Y231958D01*
X207707Y231926D01*
X207962D01*
X208216Y231958D01*
X208463Y232021D01*
X208700Y232115D01*
X208924Y232238D01*
X209130Y232388D01*
X209316Y232563D01*
X209479Y232759D01*
X209615Y232975D01*
X209724Y233206D01*
X209803Y233448D01*
X209851Y233699D01*
X209867Y233954D01*
X214758Y257437D02*
X214659Y257677D01*
X214530Y257902D01*
X214371Y258108D01*
X214186Y258290D01*
X213979Y258446D01*
X213752Y258573D01*
X213511Y258668D01*
X213259Y258730D01*
X213001Y258758D01*
X212742Y258751D01*
X212485Y258710D01*
X212237Y258634D01*
X212001Y258526D01*
X211782Y258388D01*
X211583Y258221D01*
X211408Y258029D01*
X211261Y257815D01*
X211143Y257584D01*
X211057Y257339D01*
X211006Y257084D01*
X210988Y256825D01*
X211005Y256571D01*
X211055Y256320D01*
X211138Y256079D01*
X211252Y255850D01*
X211395Y255639D01*
X211565Y255448D01*
X211758Y255281D01*
X211972Y255141D01*
X212202Y255030D01*
X212445Y254951D01*
X212696Y254904D01*
X212951Y254891D01*
X213205Y254912D01*
X213455Y254966D01*
X213695Y255052D01*
X213922Y255169D01*
X214132Y255315D01*
X214320Y255488D01*
X214484Y255684D01*
X214621Y255899D01*
X214728Y256131D01*
X244643Y194595D02*
X244660Y194341D01*
X244710Y194090D01*
X244793Y193849D01*
X244907Y193620D01*
X245050Y193409D01*
X245220Y193218D01*
X245413Y193051D01*
X245627Y192911D01*
X245857Y192800D01*
X246100Y192721D01*
X246351Y192674D01*
X246606Y192661D01*
X246860Y192682D01*
X247110Y192736D01*
X247350Y192822D01*
X247577Y192939D01*
X247787Y193085D01*
X247975Y193258D01*
X248139Y193454D01*
X248276Y193669D01*
X248383Y193901D01*
X248413Y195207D02*
X248314Y195447D01*
X248185Y195672D01*
X248026Y195878D01*
X247841Y196060D01*
X247634Y196216D01*
X247407Y196343D01*
X247166Y196438D01*
X246914Y196500D01*
X246656Y196528D01*
X246396Y196521D01*
X246140Y196480D01*
X245892Y196404D01*
X245656Y196296D01*
X245437Y196158D01*
X245238Y195991D01*
X245063Y195799D01*
X244916Y195585D01*
X244798Y195354D01*
X244712Y195109D01*
X244661Y194854D01*
X244643Y194595D01*
X244727Y189516D02*
X244825Y189275D01*
X244955Y189050D01*
X245114Y188845D01*
X245298Y188663D01*
X245506Y188507D01*
X245732Y188380D01*
X245974Y188284D01*
X246226Y188222D01*
X246484Y188194D01*
X246743Y188201D01*
X246999Y188243D01*
X247248Y188318D01*
X247484Y188426D01*
X247703Y188565D01*
X247902Y188732D01*
X248077Y188924D01*
X248224Y189137D01*
X248342Y189369D01*
X248427Y189614D01*
X248479Y189868D01*
X248496Y190127D01*
X248480Y190382D01*
X248429Y190632D01*
X248346Y190874D01*
X248232Y191103D01*
X248089Y191314D01*
X247920Y191505D01*
X247726Y191672D01*
X247513Y191812D01*
X247283Y191922D01*
X247040Y192002D01*
X246789Y192048D01*
X246534Y192061D01*
X246279Y192041D01*
X246030Y191987D01*
X245789Y191901D01*
X245562Y191783D01*
X245353Y191637D01*
X245165Y191465D01*
X245001Y191269D01*
X244864Y191053D01*
X244757Y190822D01*
X264361Y223786D02*
X266901D01*
X264361Y226326D02*
X266901D01*
Y211086D02*
Y226326D01*
X264361Y211086D02*
X266901D01*
X264361D02*
Y226326D01*
X184986Y209181D02*
Y224421D01*
Y209181D02*
X187526D01*
Y224421D01*
X184986D02*
X187526D01*
X184986Y221881D02*
X187526D01*
X197663Y232768D02*
X200203D01*
X202743D01*
X197661Y236663D02*
X197663Y232768D01*
X202736Y236661D02*
X202743Y232768D01*
X232263Y252647D02*
X236731D01*
X232263Y258417D02*
X236731D01*
X232263Y252647D02*
Y258417D01*
X236731Y252647D02*
Y258417D01*
X216101Y235851D02*
X227531D01*
X214831Y215531D02*
X227531D01*
X214831D02*
Y234581D01*
X227531Y215531D02*
Y235851D01*
X191968Y211105D02*
X193873D01*
X195143D02*
X197048D01*
Y190785D02*
Y211105D01*
X191968Y190785D02*
X197048D01*
X191968D02*
Y211105D01*
X232611Y250456D02*
X238326D01*
X239596D02*
X245311D01*
Y199656D02*
Y250456D01*
X232611Y199656D02*
X245311D01*
X232611D02*
Y250456D01*
X240847Y176157D02*
Y178697D01*
X243387Y176157D02*
Y178697D01*
X238307Y176157D02*
X243387D01*
X238307D02*
Y178697D01*
X243387D01*
X219908Y256825D02*
X227528D01*
Y259365D01*
X219908D02*
X227528D01*
X219908Y256825D02*
Y259365D01*
X222448Y256825D02*
Y259365D01*
X264338Y186337D02*
X266878D01*
X264338Y183797D02*
X266878D01*
X264338D02*
Y209197D01*
X266878D01*
Y183797D02*
Y209197D01*
X184986Y226326D02*
Y251726D01*
Y226326D02*
X187526D01*
Y251726D01*
X184986D02*
X187526D01*
X184986Y249186D02*
X187526D01*
X191317Y176157D02*
X222711D01*
X191317D02*
Y188857D01*
X186372Y189504D02*
X187388D01*
X186880Y188996D02*
Y190012D01*
X202120Y199791D02*
Y200807D01*
X201612Y200299D02*
X202628D01*
X186372D02*
X187388D01*
X186880Y199791D02*
Y200807D01*
X202120Y210586D02*
Y211602D01*
X201612Y211094D02*
X202628D01*
X186372Y206014D02*
X187388D01*
X186880Y205506D02*
Y206522D01*
X256868Y253250D02*
X257884D01*
X257376Y252742D02*
Y253758D01*
X226896Y180987D02*
Y182003D01*
X226388Y181495D02*
X227404D01*
X241628D02*
X242644D01*
X242136Y180987D02*
Y182003D01*
X214758Y256161D02*
Y257437D01*
X248413Y193931D02*
Y195207D01*
X244727Y189516D02*
Y190792D01*
X205337Y231156D02*
X205168Y231326D01*
X204829D01*
X204660Y231156D01*
Y230479D01*
X204829Y230310D01*
X205168D01*
X205337Y230479D01*
X206353Y231326D02*
X205675D01*
Y230818D01*
X206014Y230987D01*
X206183D01*
X206353Y230818D01*
Y230479D01*
X206183Y230310D01*
X205845D01*
X205675Y230479D01*
X210375Y234334D02*
Y234165D01*
X210713Y233827D01*
X211052Y234165D01*
Y234334D01*
X210713Y233827D02*
Y233319D01*
X211390D02*
X211729D01*
X211560D01*
Y234334D01*
X211390Y234165D01*
X261175Y201913D02*
Y202928D01*
X261683D01*
X261852Y202759D01*
Y202421D01*
X261683Y202251D01*
X261175D01*
X261513D02*
X261852Y201913D01*
X262190D02*
X262529D01*
X262360D01*
Y202928D01*
X262190Y202759D01*
X263037Y202928D02*
X263714D01*
Y202759D01*
X263037Y202082D01*
Y201913D01*
X212280Y253004D02*
Y254019D01*
X212788D01*
X212957Y253850D01*
Y253512D01*
X212788Y253342D01*
X212280D01*
X212618D02*
X212957Y253004D01*
X213973D02*
X213295D01*
X213973Y253681D01*
Y253850D01*
X213803Y254019D01*
X213465D01*
X213295Y253850D01*
X212280Y247924D02*
Y248939D01*
X212788D01*
X212957Y248770D01*
Y248432D01*
X212788Y248262D01*
X212280D01*
X212618D02*
X212957Y247924D01*
X213295Y248770D02*
X213465Y248939D01*
X213803D01*
X213973Y248770D01*
Y248601D01*
X213803Y248432D01*
X213634D01*
X213803D01*
X213973Y248262D01*
Y248093D01*
X213803Y247924D01*
X213465D01*
X213295Y248093D01*
X218672Y257829D02*
X218333D01*
X218503D01*
Y256983D01*
X218333Y256814D01*
X218164D01*
X217995Y256983D01*
X219010Y256814D02*
X219349D01*
X219180D01*
Y257829D01*
X219010Y257660D01*
X232854Y251733D02*
Y250887D01*
X233023Y250718D01*
X233362D01*
X233531Y250887D01*
Y251733D01*
X234547Y250718D02*
X233869D01*
X234547Y251395D01*
Y251564D01*
X234377Y251733D01*
X234039D01*
X233869Y251564D01*
X212280Y240304D02*
Y241319D01*
X212788D01*
X212957Y241150D01*
Y240812D01*
X212788Y240642D01*
X212280D01*
X212618D02*
X212957Y240304D01*
X213295Y240473D02*
X213465Y240304D01*
X213803D01*
X213973Y240473D01*
Y241150D01*
X213803Y241319D01*
X213465D01*
X213295Y241150D01*
Y240981D01*
X213465Y240812D01*
X213973D01*
X212280Y245384D02*
Y246399D01*
X212788D01*
X212957Y246230D01*
Y245892D01*
X212788Y245722D01*
X212280D01*
X212618D02*
X212957Y245384D01*
X213803D02*
Y246399D01*
X213295Y245892D01*
X213973D01*
X241532Y252580D02*
X241363Y252749D01*
X241024D01*
X240855Y252580D01*
Y251903D01*
X241024Y251734D01*
X241363D01*
X241532Y251903D01*
X241870Y251734D02*
X242209D01*
X242040D01*
Y252749D01*
X241870Y252580D01*
X261810Y209824D02*
Y210839D01*
X262318D01*
X262487Y210670D01*
Y210332D01*
X262318Y210162D01*
X261810D01*
X262148D02*
X262487Y209824D01*
X262825D02*
X263164D01*
X262995D01*
Y210839D01*
X262825Y210670D01*
X264349Y210839D02*
X264010Y210670D01*
X263672Y210332D01*
Y209993D01*
X263841Y209824D01*
X264180D01*
X264349Y209993D01*
Y210162D01*
X264180Y210332D01*
X263672D01*
X212280Y242844D02*
Y243859D01*
X212788D01*
X212957Y243690D01*
Y243352D01*
X212788Y243182D01*
X212280D01*
X212618D02*
X212957Y242844D01*
X213295Y243859D02*
X213973D01*
Y243690D01*
X213295Y243013D01*
Y242844D01*
X229637Y187006D02*
X229468Y186837D01*
Y186498D01*
X229637Y186329D01*
X230314D01*
X230484Y186498D01*
Y186837D01*
X230314Y187006D01*
X230484Y187344D02*
Y187683D01*
Y187514D01*
X229468D01*
X229637Y187344D01*
X229468Y188868D02*
X229637Y188529D01*
X229976Y188191D01*
X230314D01*
X230484Y188360D01*
Y188699D01*
X230314Y188868D01*
X230145D01*
X229976Y188699D01*
Y188191D01*
X249745Y242844D02*
X248729D01*
Y243352D01*
X248898Y243521D01*
X249237D01*
X249406Y243352D01*
Y242844D01*
Y243182D02*
X249745Y243521D01*
X248729Y244537D02*
Y243859D01*
X249237D01*
X249068Y244198D01*
Y244367D01*
X249237Y244537D01*
X249575D01*
X249745Y244367D01*
Y244029D01*
X249575Y243859D01*
X256095Y242844D02*
X255079D01*
Y243352D01*
X255248Y243521D01*
X255587D01*
X255756Y243352D01*
Y242844D01*
Y243182D02*
X256095Y243521D01*
X255079Y244537D02*
X255248Y244198D01*
X255587Y243859D01*
X255925D01*
X256095Y244029D01*
Y244367D01*
X255925Y244537D01*
X255756D01*
X255587Y244367D01*
Y243859D01*
X267270Y251734D02*
X266424D01*
X266255Y251565D01*
Y251226D01*
X266424Y251057D01*
X267270D01*
X266255Y250718D02*
Y250380D01*
Y250549D01*
X267270D01*
X267101Y250718D01*
X192637Y189884D02*
X192298D01*
X192468D01*
Y189038D01*
X192298Y188869D01*
X192129D01*
X191960Y189038D01*
X193653Y189884D02*
X193314Y189715D01*
X192975Y189377D01*
Y189038D01*
X193145Y188869D01*
X193483D01*
X193653Y189038D01*
Y189207D01*
X193483Y189377D01*
X192975D01*
X241532Y188713D02*
X241363Y188882D01*
X241024D01*
X240855Y188713D01*
Y188036D01*
X241024Y187867D01*
X241363D01*
X241532Y188036D01*
X241870Y187867D02*
X242209D01*
X242040D01*
Y188882D01*
X241870Y188713D01*
X243394Y188882D02*
X242717D01*
Y188374D01*
X243055Y188544D01*
X243225D01*
X243394Y188374D01*
Y188036D01*
X243225Y187867D01*
X242886D01*
X242717Y188036D01*
X234293Y187006D02*
X234124Y186837D01*
Y186498D01*
X234293Y186329D01*
X234970D01*
X235140Y186498D01*
Y186837D01*
X234970Y187006D01*
X235140Y187344D02*
Y187683D01*
Y187514D01*
X234124D01*
X234293Y187344D01*
X234124Y188191D02*
Y188868D01*
X234293D01*
X234970Y188191D01*
X235140D01*
X225657Y188445D02*
X225488Y188614D01*
X225149D01*
X224980Y188445D01*
Y187768D01*
X225149Y187599D01*
X225488D01*
X225657Y187768D01*
X225995Y187599D02*
X226334D01*
X226165D01*
Y188614D01*
X225995Y188445D01*
X226842D02*
X227011Y188614D01*
X227350D01*
X227519Y188445D01*
Y188276D01*
X227350Y188107D01*
X227519Y187937D01*
Y187768D01*
X227350Y187599D01*
X227011D01*
X226842Y187768D01*
Y187937D01*
X227011Y188107D01*
X226842Y188276D01*
Y188445D01*
X227011Y188107D02*
X227350D01*
X261599Y212859D02*
Y213875D01*
X262107D01*
X262276Y213706D01*
Y213367D01*
X262107Y213198D01*
X261599D01*
X261937D02*
X262276Y212859D01*
X262614D02*
X262953D01*
X262784D01*
Y213875D01*
X262614Y213706D01*
X263969Y212859D02*
Y213875D01*
X263461Y213367D01*
X264138D01*
X230737Y255755D02*
X230568Y255924D01*
X230229D01*
X230060Y255755D01*
Y255586D01*
X230229Y255417D01*
X230568D01*
X230737Y255247D01*
Y255078D01*
X230568Y254909D01*
X230229D01*
X230060Y255078D01*
X231075Y254909D02*
X231414D01*
X231245D01*
Y255924D01*
X231075Y255755D01*
X259947Y184635D02*
X259778Y184804D01*
X259439D01*
X259270Y184635D01*
Y184466D01*
X259439Y184297D01*
X259778D01*
X259947Y184127D01*
Y183958D01*
X259778Y183789D01*
X259439D01*
X259270Y183958D01*
X260963Y183789D02*
X260285D01*
X260963Y184466D01*
Y184635D01*
X260793Y184804D01*
X260455D01*
X260285Y184635D01*
X201527Y198848D02*
X201358Y199017D01*
X201019D01*
X200850Y198848D01*
Y198170D01*
X201019Y198001D01*
X201358D01*
X201527Y198170D01*
X201865Y198001D02*
X202204D01*
X202035D01*
Y199017D01*
X201865Y198848D01*
X202712D02*
X202881Y199017D01*
X203220D01*
X203389Y198848D01*
Y198678D01*
X203220Y198509D01*
X203050D01*
X203220D01*
X203389Y198340D01*
Y198170D01*
X203220Y198001D01*
X202881D01*
X202712Y198170D01*
X212280Y250464D02*
Y251479D01*
X212788D01*
X212957Y251310D01*
Y250972D01*
X212788Y250802D01*
X212280D01*
X212618D02*
X212957Y250464D01*
X213295D02*
X213634D01*
X213465D01*
Y251479D01*
X213295Y251310D01*
X246612Y252580D02*
X246443Y252749D01*
X246104D01*
X245935Y252580D01*
Y251903D01*
X246104Y251734D01*
X246443D01*
X246612Y251903D01*
X247628Y251734D02*
X246950D01*
X247628Y252411D01*
Y252580D01*
X247458Y252749D01*
X247120D01*
X246950Y252580D01*
X261810Y207284D02*
Y208299D01*
X262318D01*
X262487Y208130D01*
Y207792D01*
X262318Y207622D01*
X261810D01*
X262148D02*
X262487Y207284D01*
X262825D02*
X263164D01*
X262995D01*
Y208299D01*
X262825Y208130D01*
X264349Y208299D02*
X263672D01*
Y207792D01*
X264010Y207961D01*
X264180D01*
X264349Y207792D01*
Y207453D01*
X264180Y207284D01*
X263841D01*
X263672Y207453D01*
X188192Y201145D02*
X188023Y201314D01*
X187684D01*
X187515Y201145D01*
Y200468D01*
X187684Y200299D01*
X188023D01*
X188192Y200468D01*
X188530D02*
X188700Y200299D01*
X189038D01*
X189208Y200468D01*
Y201145D01*
X189038Y201314D01*
X188700D01*
X188530Y201145D01*
Y200976D01*
X188700Y200807D01*
X189208D01*
X202120Y214904D02*
Y215919D01*
X202628D01*
X202797Y215750D01*
Y215412D01*
X202628Y215242D01*
X202120D01*
X202458D02*
X202797Y214904D01*
X203135D02*
X203474D01*
X203305D01*
Y215919D01*
X203135Y215750D01*
X204659Y214904D02*
X203982D01*
X204659Y215581D01*
Y215750D01*
X204490Y215919D01*
X204151D01*
X203982Y215750D01*
X202120Y212364D02*
Y213379D01*
X202628D01*
X202797Y213210D01*
Y212872D01*
X202628Y212702D01*
X202120D01*
X202458D02*
X202797Y212364D01*
X203135D02*
X203474D01*
X203305D01*
Y213379D01*
X203135Y213210D01*
X203982D02*
X204151Y213379D01*
X204490D01*
X204659Y213210D01*
Y213041D01*
X204490Y212872D01*
X204320D01*
X204490D01*
X204659Y212702D01*
Y212533D01*
X204490Y212364D01*
X204151D01*
X203982Y212533D01*
X204702Y210670D02*
X204533Y210839D01*
X204194D01*
X204025Y210670D01*
Y209993D01*
X204194Y209824D01*
X204533D01*
X204702Y209993D01*
X205718Y210839D02*
X205379Y210670D01*
X205040Y210332D01*
Y209993D01*
X205210Y209824D01*
X205548D01*
X205718Y209993D01*
Y210162D01*
X205548Y210332D01*
X205040D01*
X188192Y195430D02*
X188023Y195599D01*
X187684D01*
X187515Y195430D01*
Y194753D01*
X187684Y194584D01*
X188023D01*
X188192Y194753D01*
X188530Y194584D02*
X188869D01*
X188700D01*
Y195599D01*
X188530Y195430D01*
X189377Y194584D02*
X189715D01*
X189546D01*
Y195599D01*
X189377Y195430D01*
X204067Y205426D02*
X203898Y205595D01*
X203559D01*
X203390Y205426D01*
Y204749D01*
X203559Y204580D01*
X203898D01*
X204067Y204749D01*
X204405Y204580D02*
X204744D01*
X204575D01*
Y205595D01*
X204405Y205426D01*
X205252D02*
X205421Y205595D01*
X205760D01*
X205929Y205426D01*
Y204749D01*
X205760Y204580D01*
X205421D01*
X205252Y204749D01*
Y205426D01*
X188827Y190350D02*
X188658Y190519D01*
X188319D01*
X188150Y190350D01*
Y189673D01*
X188319Y189504D01*
X188658D01*
X188827Y189673D01*
X189165Y189504D02*
X189504D01*
X189335D01*
Y190519D01*
X189165Y190350D01*
X190520Y189504D02*
Y190519D01*
X190012Y190012D01*
X190689D01*
X259947Y254485D02*
X259778Y254654D01*
X259439D01*
X259270Y254485D01*
Y253808D01*
X259439Y253639D01*
X259778D01*
X259947Y253808D01*
X260793Y253639D02*
Y254654D01*
X260285Y254147D01*
X260963D01*
X251692Y252580D02*
X251523Y252749D01*
X251184D01*
X251015Y252580D01*
Y251903D01*
X251184Y251734D01*
X251523D01*
X251692Y251903D01*
X252030Y252580D02*
X252200Y252749D01*
X252538D01*
X252708Y252580D01*
Y252411D01*
X252538Y252242D01*
X252369D01*
X252538D01*
X252708Y252072D01*
Y251903D01*
X252538Y251734D01*
X252200D01*
X252030Y251903D01*
X256095Y229509D02*
X255079D01*
Y230017D01*
X255248Y230186D01*
X255587D01*
X255756Y230017D01*
Y229509D01*
Y229847D02*
X256095Y230186D01*
Y230524D02*
Y230863D01*
Y230694D01*
X255079D01*
X255248Y230524D01*
X256095Y231371D02*
Y231709D01*
Y231540D01*
X255079D01*
X255248Y231371D01*
X249745Y229509D02*
X248729D01*
Y230017D01*
X248898Y230186D01*
X249237D01*
X249406Y230017D01*
Y229509D01*
Y229847D02*
X249745Y230186D01*
Y230524D02*
Y230863D01*
Y230694D01*
X248729D01*
X248898Y230524D01*
Y231371D02*
X248729Y231540D01*
Y231879D01*
X248898Y232048D01*
X249575D01*
X249745Y231879D01*
Y231540D01*
X249575Y231371D01*
X248898D01*
X191960Y212109D02*
Y211263D01*
X192129Y211094D01*
X192468D01*
X192637Y211263D01*
Y212109D01*
X193653D02*
X192975D01*
Y211602D01*
X193314Y211771D01*
X193483D01*
X193653Y211602D01*
Y211263D01*
X193483Y211094D01*
X193145D01*
X192975Y211263D01*
X191325Y259099D02*
Y258084D01*
X191833D01*
X192002Y258253D01*
Y258422D01*
X191833Y258592D01*
X191325D01*
X191833D01*
X192002Y258761D01*
Y258930D01*
X191833Y259099D01*
X191325D01*
X192340D02*
X193018D01*
X192679D01*
Y258084D01*
X193356D02*
X193695D01*
X193525D01*
Y259099D01*
X193356Y258930D01*
X208512Y213845D02*
X208343Y214014D01*
X208004D01*
X207835Y213845D01*
Y213168D01*
X208004Y212999D01*
X208343D01*
X208512Y213168D01*
X208850Y214014D02*
X209528D01*
Y213845D01*
X208850Y213168D01*
Y212999D01*
X252998Y201337D02*
X252829Y201506D01*
X252490D01*
X252321Y201337D01*
Y200660D01*
X252490Y200490D01*
X252829D01*
X252998Y200660D01*
X253337Y200490D02*
X253675D01*
X253506D01*
Y201506D01*
X253337Y201337D01*
X254860Y200490D02*
X254183D01*
X254860Y201168D01*
Y201337D01*
X254691Y201506D01*
X254352D01*
X254183Y201337D01*
X261810Y226079D02*
Y225064D01*
X262318D01*
X262487Y225233D01*
Y225910D01*
X262318Y226079D01*
X261810D01*
X262825Y225910D02*
X262995Y226079D01*
X263333D01*
X263503Y225910D01*
Y225741D01*
X263333Y225572D01*
X263164D01*
X263333D01*
X263503Y225402D01*
Y225233D01*
X263333Y225064D01*
X262995D01*
X262825Y225233D01*
X261810Y216554D02*
Y215539D01*
X262318D01*
X262487Y215708D01*
Y216385D01*
X262318Y216554D01*
X261810D01*
X262825Y216385D02*
X262995Y216554D01*
X263333D01*
X263503Y216385D01*
Y216216D01*
X263333Y216047D01*
X263503Y215877D01*
Y215708D01*
X263333Y215539D01*
X262995D01*
X262825Y215708D01*
Y215877D01*
X262995Y216047D01*
X262825Y216216D01*
Y216385D01*
X262995Y216047D02*
X263333D01*
X261810Y222904D02*
Y221889D01*
X262318D01*
X262487Y222058D01*
Y222735D01*
X262318Y222904D01*
X261810D01*
X263503D02*
X262825D01*
Y222397D01*
X263164Y222566D01*
X263333D01*
X263503Y222397D01*
Y222058D01*
X263333Y221889D01*
X262995D01*
X262825Y222058D01*
X188150Y229254D02*
Y228239D01*
X188658D01*
X188827Y228408D01*
Y229085D01*
X188658Y229254D01*
X188150D01*
X189165Y228239D02*
X189504D01*
X189335D01*
Y229254D01*
X189165Y229085D01*
X261810Y219729D02*
Y218714D01*
X262318D01*
X262487Y218883D01*
Y219560D01*
X262318Y219729D01*
X261810D01*
X263503D02*
X263164Y219560D01*
X262825Y219222D01*
Y218883D01*
X262995Y218714D01*
X263333D01*
X263503Y218883D01*
Y219052D01*
X263333Y219222D01*
X262825D01*
X188150Y223539D02*
Y222524D01*
X188658D01*
X188827Y222693D01*
Y223370D01*
X188658Y223539D01*
X188150D01*
X189673Y222524D02*
Y223539D01*
X189165Y223032D01*
X189843D01*
X188150Y226714D02*
Y225699D01*
X188658D01*
X188827Y225868D01*
Y226545D01*
X188658Y226714D01*
X188150D01*
X189843Y225699D02*
X189165D01*
X189843Y226376D01*
Y226545D01*
X189673Y226714D01*
X189335D01*
X189165Y226545D01*
X188150Y219729D02*
Y218714D01*
X188658D01*
X188827Y218883D01*
Y219560D01*
X188658Y219729D01*
X188150D01*
X189165D02*
X189843D01*
Y219560D01*
X189165Y218883D01*
Y218714D01*
X266635Y227562D02*
Y227900D01*
Y227731D01*
X265789D01*
X265620Y227900D01*
Y228070D01*
X265789Y228239D01*
X266466Y227223D02*
X266635Y227054D01*
Y226715D01*
X266466Y226546D01*
X266297D01*
X266128Y226715D01*
Y226885D01*
Y226715D01*
X265958Y226546D01*
X265789D01*
X265620Y226715D01*
Y227054D01*
X265789Y227223D01*
X189165Y211052D02*
Y211390D01*
Y211221D01*
X188319D01*
X188150Y211390D01*
Y211560D01*
X188319Y211729D01*
X188150Y210205D02*
X189165D01*
X188658Y210713D01*
Y210036D01*
X238992Y179814D02*
X238653D01*
X238823D01*
Y178968D01*
X238653Y178799D01*
X238484D01*
X238315Y178968D01*
X239330Y179814D02*
X240008D01*
Y179645D01*
X239330Y178968D01*
Y178799D01*
X189165Y239627D02*
Y239965D01*
Y239796D01*
X188319D01*
X188150Y239965D01*
Y240135D01*
X188319Y240304D01*
X188150Y238611D02*
Y239288D01*
X188827Y238611D01*
X188996D01*
X189165Y238780D01*
Y239119D01*
X188996Y239288D01*
X262699Y184466D02*
Y184127D01*
Y184297D01*
X263546D01*
X263715Y184127D01*
Y183958D01*
X263546Y183789D01*
X262699Y185482D02*
Y184804D01*
X263207D01*
X263038Y185143D01*
Y185312D01*
X263207Y185482D01*
X263546D01*
X263715Y185312D01*
Y184974D01*
X263546Y184804D01*
X215328Y215284D02*
X214989D01*
X214820Y215115D01*
Y214438D01*
X214989Y214269D01*
X215328D01*
X215497Y214438D01*
Y215115D01*
X215328Y215284D01*
X216513Y215115D02*
X216343Y215284D01*
X216005D01*
X215835Y215115D01*
Y214946D01*
X216005Y214777D01*
X216343D01*
X216513Y214607D01*
Y214438D01*
X216343Y214269D01*
X216005D01*
X215835Y214438D01*
X217528Y215115D02*
X217359Y215284D01*
X217020D01*
X216851Y215115D01*
Y214438D01*
X217020Y214269D01*
X217359D01*
X217528Y214438D01*
X217867Y214269D02*
X218205D01*
X218036D01*
Y215284D01*
X217867Y215115D01*
X212280Y237764D02*
Y238779D01*
X212788D01*
X212957Y238610D01*
Y238272D01*
X212788Y238102D01*
X212280D01*
X212618D02*
X212957Y237764D01*
X213295Y238610D02*
X213465Y238779D01*
X213803D01*
X213973Y238610D01*
Y238441D01*
X213803Y238272D01*
X213973Y238102D01*
Y237933D01*
X213803Y237764D01*
X213465D01*
X213295Y237933D01*
Y238102D01*
X213465Y238272D01*
X213295Y238441D01*
Y238610D01*
X213465Y238272D02*
X213803D01*
X223372Y177427D02*
Y176580D01*
X223541Y176411D01*
X223880D01*
X224049Y176580D01*
Y177427D01*
X224387Y177258D02*
X224557Y177427D01*
X224895D01*
X225065Y177258D01*
Y177088D01*
X224895Y176919D01*
X225065Y176750D01*
Y176580D01*
X224895Y176411D01*
X224557D01*
X224387Y176580D01*
Y176750D01*
X224557Y176919D01*
X224387Y177088D01*
Y177258D01*
X224557Y176919D02*
X224895D01*
X208470Y209569D02*
Y208723D01*
X208639Y208554D01*
X208978D01*
X209147Y208723D01*
Y209569D01*
X210163D02*
X209824Y209400D01*
X209485Y209062D01*
Y208723D01*
X209655Y208554D01*
X209993D01*
X210163Y208723D01*
Y208892D01*
X209993Y209062D01*
X209485D01*
X252920Y196869D02*
Y196023D01*
X253089Y195854D01*
X253428D01*
X253597Y196023D01*
Y196869D01*
X253935D02*
X254613D01*
Y196700D01*
X253935Y196023D01*
Y195854D01*
X205295Y226931D02*
Y226085D01*
X205464Y225916D01*
X205803D01*
X205972Y226085D01*
Y226931D01*
X206310Y226762D02*
X206480Y226931D01*
X206818D01*
X206988Y226762D01*
Y226593D01*
X206818Y226424D01*
X206649D01*
X206818D01*
X206988Y226254D01*
Y226085D01*
X206818Y225916D01*
X206480D01*
X206310Y226085D01*
X247205Y187979D02*
Y186964D01*
X247882D01*
X248220Y187979D02*
Y186964D01*
X248728D01*
X248898Y187133D01*
Y187810D01*
X248728Y187979D01*
X248220D01*
X249913Y186964D02*
X249236D01*
X249913Y187641D01*
Y187810D01*
X249744Y187979D01*
X249405D01*
X249236Y187810D01*
X247205Y197504D02*
Y196489D01*
X247882D01*
X248220Y197504D02*
Y196489D01*
X248728D01*
X248898Y196658D01*
Y197335D01*
X248728Y197504D01*
X248220D01*
X249236Y197335D02*
X249405Y197504D01*
X249744D01*
X249913Y197335D01*
Y197166D01*
X249744Y196997D01*
X249575D01*
X249744D01*
X249913Y196827D01*
Y196658D01*
X249744Y196489D01*
X249405D01*
X249236Y196658D01*
X208470Y259099D02*
Y258084D01*
X209147D01*
X209485Y259099D02*
Y258084D01*
X209993D01*
X210163Y258253D01*
Y258930D01*
X209993Y259099D01*
X209485D01*
X210501Y258084D02*
X210840D01*
X210670D01*
Y259099D01*
X210501Y258930D01*
X228155Y193949D02*
Y194964D01*
X228663D01*
X228832Y194795D01*
Y194457D01*
X228663Y194287D01*
X228155D01*
X228493D02*
X228832Y193949D01*
X229170D02*
X229509D01*
X229340D01*
Y194964D01*
X229170Y194795D01*
X230017Y194118D02*
X230186Y193949D01*
X230525D01*
X230694Y194118D01*
Y194795D01*
X230525Y194964D01*
X230186D01*
X230017Y194795D01*
Y194626D01*
X230186Y194457D01*
X230694D01*
X228155Y191409D02*
Y192424D01*
X228663D01*
X228832Y192255D01*
Y191917D01*
X228663Y191747D01*
X228155D01*
X228493D02*
X228832Y191409D01*
X229848D02*
X229170D01*
X229848Y192086D01*
Y192255D01*
X229678Y192424D01*
X229340D01*
X229170Y192255D01*
X230186D02*
X230355Y192424D01*
X230694D01*
X230863Y192255D01*
Y192086D01*
X230694Y191917D01*
X230525D01*
X230694D01*
X230863Y191747D01*
Y191578D01*
X230694Y191409D01*
X230355D01*
X230186Y191578D01*
X228155Y196489D02*
Y197504D01*
X228663D01*
X228832Y197335D01*
Y196997D01*
X228663Y196827D01*
X228155D01*
X228493D02*
X228832Y196489D01*
X229170D02*
X229509D01*
X229340D01*
Y197504D01*
X229170Y197335D01*
X230017D02*
X230186Y197504D01*
X230525D01*
X230694Y197335D01*
Y197166D01*
X230525Y196997D01*
X230694Y196827D01*
Y196658D01*
X230525Y196489D01*
X230186D01*
X230017Y196658D01*
Y196827D01*
X230186Y196997D01*
X230017Y197166D01*
Y197335D01*
X230186Y196997D02*
X230525D01*
X241490Y193949D02*
Y194964D01*
X241998D01*
X242167Y194795D01*
Y194457D01*
X241998Y194287D01*
X241490D01*
X241828D02*
X242167Y193949D01*
X243183D02*
X242505D01*
X243183Y194626D01*
Y194795D01*
X243013Y194964D01*
X242675D01*
X242505Y194795D01*
X244198Y193949D02*
X243521D01*
X244198Y194626D01*
Y194795D01*
X244029Y194964D01*
X243690D01*
X243521Y194795D01*
X242125Y191409D02*
Y192424D01*
X242633D01*
X242802Y192255D01*
Y191917D01*
X242633Y191747D01*
X242125D01*
X242463D02*
X242802Y191409D01*
X243818D02*
X243140D01*
X243818Y192086D01*
Y192255D01*
X243648Y192424D01*
X243310D01*
X243140Y192255D01*
X244156Y191409D02*
X244495D01*
X244325D01*
Y192424D01*
X244156Y192255D01*
X242125Y196489D02*
Y197504D01*
X242633D01*
X242802Y197335D01*
Y196997D01*
X242633Y196827D01*
X242125D01*
X242463D02*
X242802Y196489D01*
X243818D02*
X243140D01*
X243818Y197166D01*
Y197335D01*
X243648Y197504D01*
X243310D01*
X243140Y197335D01*
X244156D02*
X244325Y197504D01*
X244664D01*
X244833Y197335D01*
Y196658D01*
X244664Y196489D01*
X244325D01*
X244156Y196658D01*
Y197335D01*
X220535Y209569D02*
Y208723D01*
X220704Y208554D01*
X221043D01*
X221212Y208723D01*
Y209569D01*
X222058Y208554D02*
Y209569D01*
X221550Y209062D01*
X222228D01*
X220577Y213845D02*
X220408Y214014D01*
X220069D01*
X219900Y213845D01*
Y213168D01*
X220069Y212999D01*
X220408D01*
X220577Y213168D01*
X220915Y213845D02*
X221085Y214014D01*
X221423D01*
X221593Y213845D01*
Y213676D01*
X221423Y213507D01*
X221593Y213337D01*
Y213168D01*
X221423Y212999D01*
X221085D01*
X220915Y213168D01*
Y213337D01*
X221085Y213507D01*
X220915Y213676D01*
Y213845D01*
X221085Y213507D02*
X221423D01*
X184551Y201569D02*
X184720Y201400D01*
Y201061D01*
X184551Y200892D01*
X183874D01*
X183705Y201061D01*
Y201400D01*
X183874Y201569D01*
X184551D01*
X183874Y200553D02*
X183705Y200384D01*
Y200045D01*
X183874Y199876D01*
X184551D01*
X184720Y200045D01*
Y200384D01*
X184551Y200553D01*
X184382D01*
X184213Y200384D01*
Y199876D01*
X183705Y199537D02*
X184382Y198860D01*
X184551Y198522D02*
X184720Y198353D01*
Y198014D01*
X184551Y197845D01*
X183874D01*
X183705Y198014D01*
Y198353D01*
X183874Y198522D01*
X184551D01*
X184720Y197506D02*
Y196829D01*
X184551D01*
X183874Y197506D01*
X183705D01*
Y207284D02*
X184720D01*
X184382Y206945D01*
X184720Y206607D01*
X183705D01*
Y206268D02*
X184382D01*
X184720Y205930D01*
X184382Y205591D01*
X183705D01*
X184213D01*
Y206268D01*
X184551Y204575D02*
X184720Y204745D01*
Y205083D01*
X184551Y205252D01*
X184382D01*
X184213Y205083D01*
Y204745D01*
X184043Y204575D01*
X183874D01*
X183705Y204745D01*
Y205083D01*
X183874Y205252D01*
X184551Y203560D02*
X184720Y203729D01*
Y204068D01*
X184551Y204237D01*
X183874D01*
X183705Y204068D01*
Y203729D01*
X183874Y203560D01*
X184720Y193949D02*
X183705D01*
Y193441D01*
X183874Y193272D01*
X184043D01*
X184213Y193441D01*
Y193949D01*
Y193441D01*
X184382Y193272D01*
X184551D01*
X184720Y193441D01*
Y193949D01*
Y192425D02*
Y192764D01*
X184551Y192933D01*
X183874D01*
X183705Y192764D01*
Y192425D01*
X183874Y192256D01*
X184551D01*
X184720Y192425D01*
X184551Y191240D02*
X184720Y191410D01*
Y191748D01*
X184551Y191917D01*
X183874D01*
X183705Y191748D01*
Y191410D01*
X183874Y191240D01*
X184720Y190902D02*
X183705D01*
Y190394D01*
X183874Y190225D01*
X184043D01*
X184213Y190394D01*
Y190902D01*
Y190394D01*
X184382Y190225D01*
X184551D01*
X184720Y190394D01*
Y190902D01*
Y189378D02*
Y189717D01*
X184551Y189886D01*
X183874D01*
X183705Y189717D01*
Y189378D01*
X183874Y189209D01*
X184551D01*
X184720Y189378D01*
X183705Y188870D02*
X184382D01*
X184720Y188532D01*
X184382Y188193D01*
X183705D01*
X184213D01*
Y188870D01*
X183705Y187855D02*
X184720D01*
Y187347D01*
X184551Y187178D01*
X184213D01*
X184043Y187347D01*
Y187855D01*
Y187516D02*
X183705Y187178D01*
X184720Y186839D02*
X183705D01*
Y186331D01*
X183874Y186162D01*
X184551D01*
X184720Y186331D01*
Y186839D01*
X184551Y185823D02*
X184720Y185654D01*
Y185316D01*
X184551Y185146D01*
X184382D01*
X184213Y185316D01*
Y185485D01*
Y185316D01*
X184043Y185146D01*
X183874D01*
X183705Y185316D01*
Y185654D01*
X183874Y185823D01*
X200203Y251488D02*
Y252503D01*
Y235486D02*
Y236501D01*
X199696Y235993D02*
X200711D01*
D11*
X191317Y188857D02*
X222711D01*
Y176157D02*
Y188857D01*
D12*
X224226Y248570D02*
X225242D01*
X217114D02*
X218130D01*
Y247554D02*
X224226D01*
Y249586D01*
X218130D02*
X224226D01*
X218130Y247554D02*
Y249586D01*
X224210Y252611D02*
Y254643D01*
X218114Y252611D02*
X224210D01*
X218114D02*
Y254643D01*
X224210D01*
Y253627D02*
X225226D01*
X217098D02*
X218114D01*
X217098Y246007D02*
X218114D01*
X224210D02*
X225226D01*
X218114Y247023D02*
X224210D01*
X218114Y244991D02*
Y247023D01*
Y244991D02*
X224210D01*
Y247023D01*
Y239911D02*
Y241943D01*
X218114Y239911D02*
X224210D01*
X218114D02*
Y241943D01*
X224210D01*
Y240927D02*
X225226D01*
X217098D02*
X218114D01*
X217098Y243467D02*
X218114D01*
X224210D02*
X225226D01*
X218114Y244483D02*
X224210D01*
X218114Y242451D02*
Y244483D01*
Y242451D02*
X224210D01*
Y244483D01*
X253055Y205644D02*
Y207676D01*
X259151D01*
Y205644D02*
Y207676D01*
X253055Y205644D02*
X259151D01*
X252039Y206660D02*
X253055D01*
X259151D02*
X260167D01*
X253055Y210724D02*
Y212756D01*
X259151D01*
Y210724D02*
Y212756D01*
X253055Y210724D02*
X259151D01*
X252039Y211740D02*
X253055D01*
X259151D02*
X260167D01*
X259151Y204120D02*
X260167D01*
X252039D02*
X253055D01*
Y203104D02*
X259151D01*
Y205136D01*
X253055D02*
X259151D01*
X253055Y203104D02*
Y205136D01*
X218130Y237394D02*
Y239426D01*
X224226D01*
Y237394D02*
Y239426D01*
X218130Y237394D02*
X224226D01*
X217114Y238410D02*
X218130D01*
X224226D02*
X225242D01*
X251026Y228612D02*
Y229628D01*
Y235724D02*
Y236740D01*
X250010Y229628D02*
Y235724D01*
Y229628D02*
X252042D01*
Y235724D01*
X250010D02*
X252042D01*
X252550D02*
X254582D01*
Y229628D02*
Y235724D01*
X252550Y229628D02*
X254582D01*
X252550D02*
Y235724D01*
X253566D02*
Y236740D01*
Y228612D02*
Y229628D01*
X191698Y213622D02*
X192714D01*
X198810D02*
X199826D01*
X192714Y214638D02*
X198810D01*
X192714Y212606D02*
Y214638D01*
Y212606D02*
X198810D01*
Y214638D01*
Y215146D02*
Y217178D01*
X192714Y215146D02*
X198810D01*
X192714D02*
Y217178D01*
X198810D01*
Y216162D02*
X199826D01*
X191698D02*
X192714D01*
X218130Y250094D02*
Y252126D01*
X224226D01*
Y250094D02*
Y252126D01*
X218130Y250094D02*
X224226D01*
X217114Y251110D02*
X218130D01*
X224226D02*
X225242D01*
X252527Y242979D02*
X254559D01*
X252527D02*
Y249075D01*
X254559D01*
Y242979D02*
Y249075D01*
X253543Y241963D02*
Y242979D01*
Y249075D02*
Y250091D01*
X251003Y249075D02*
Y250091D01*
Y241963D02*
Y242979D01*
X252019D02*
Y249075D01*
X249987D02*
X252019D01*
X249987Y242979D02*
Y249075D01*
Y242979D02*
X252019D01*
X191698Y219337D02*
X192460D01*
X199064D02*
X199826D01*
X193730Y218067D02*
Y220607D01*
X192460Y218067D02*
X199064D01*
X192460D02*
Y220607D01*
X199064D01*
Y218067D02*
Y220607D01*
Y224417D02*
Y226957D01*
X192460D02*
X199064D01*
X192460Y224417D02*
Y226957D01*
Y224417D02*
X199064D01*
X193730D02*
Y226957D01*
X199064Y225687D02*
X199826D01*
X191698D02*
X192460D01*
X191698Y222512D02*
X192460D01*
X199064D02*
X199826D01*
X193730Y221242D02*
Y223782D01*
X192460Y221242D02*
X199064D01*
X192460D02*
Y223782D01*
X199064D01*
Y221242D02*
Y223782D01*
X252801Y216820D02*
Y219360D01*
Y216820D02*
X259405D01*
Y219360D01*
X252801D02*
X259405D01*
X258135Y216820D02*
Y219360D01*
X252039Y218090D02*
X252801D01*
X259405D02*
X260167D01*
X191698Y228862D02*
X192460D01*
X199064D02*
X199826D01*
X193730Y227592D02*
Y230132D01*
X192460Y227592D02*
X199064D01*
X192460D02*
Y230132D01*
X199064D01*
Y227592D02*
Y230132D01*
X252801Y219995D02*
Y222535D01*
Y219995D02*
X259405D01*
Y222535D01*
X252801D02*
X259405D01*
X258135Y219995D02*
Y222535D01*
X252039Y221265D02*
X252801D01*
X259405D02*
X260167D01*
X259405Y214915D02*
X260167D01*
X252039D02*
X252801D01*
X258135Y213645D02*
Y216185D01*
X252801D02*
X259405D01*
Y213645D02*
Y216185D01*
X252801Y213645D02*
X259405D01*
X252801D02*
Y216185D01*
Y223170D02*
Y225710D01*
Y223170D02*
X259405D01*
Y225710D01*
X252801D02*
X259405D01*
X258135Y223170D02*
Y225710D01*
X252039Y224440D02*
X252801D01*
X259405D02*
X260167D01*
X239450Y192286D02*
Y194318D01*
X233354Y192286D02*
X239450D01*
X233354D02*
Y194318D01*
X239450D01*
Y193302D02*
X240466D01*
X232338D02*
X233354D01*
X239466Y190785D02*
X240482D01*
X232354D02*
X233370D01*
Y189769D02*
X239466D01*
Y191801D01*
X233370D02*
X239466D01*
X233370Y189769D02*
Y191801D01*
X232338Y195842D02*
X233354D01*
X239450D02*
X240466D01*
X233354Y196858D02*
X239450D01*
X233354Y194826D02*
Y196858D01*
Y194826D02*
X239450D01*
Y196858D01*
X220035Y194849D02*
Y196881D01*
X226131D01*
Y194849D02*
Y196881D01*
X220035Y194849D02*
X226131D01*
X219019Y195865D02*
X220035D01*
X226131D02*
X227147D01*
X220035Y192309D02*
Y194341D01*
X226131D01*
Y192309D02*
Y194341D01*
X220035Y192309D02*
X226131D01*
X219019Y193325D02*
X220035D01*
X226131D02*
X227147D01*
X219003Y190762D02*
X220019D01*
X226115D02*
X227131D01*
X220019Y191778D02*
X226115D01*
X220019Y189746D02*
Y191778D01*
Y189746D02*
X226115D01*
Y191778D01*
X259135Y208161D02*
Y210193D01*
X253039Y208161D02*
X259135D01*
X253039D02*
Y210193D01*
X259135D01*
Y209177D02*
X260151D01*
X252023D02*
X253039D01*
X219900Y210459D02*
Y212999D01*
X226250D01*
Y210459D02*
Y212999D01*
X219900Y210459D02*
X226250D01*
X252285Y197759D02*
X258635D01*
Y200299D01*
X252285D02*
X258635D01*
X252285Y197759D02*
Y200299D01*
X207835Y210459D02*
Y212999D01*
X214185D01*
Y210459D02*
Y212999D01*
X207835Y210459D02*
X214185D01*
X251015Y253004D02*
Y259354D01*
Y253004D02*
X253555D01*
Y259354D01*
X251015D02*
X253555D01*
X245935D02*
X248475D01*
Y253004D02*
Y259354D01*
X245935Y253004D02*
X248475D01*
X245935D02*
Y259354D01*
X235140Y181884D02*
Y188234D01*
Y181884D02*
X237680D01*
Y188234D01*
X235140D02*
X237680D01*
X230695D02*
X233235D01*
Y181884D02*
Y188234D01*
X230695Y181884D02*
X233235D01*
X230695D02*
Y188234D01*
X240855Y253004D02*
Y259354D01*
Y253004D02*
X243395D01*
Y259354D01*
X240855D02*
X243395D01*
X204660Y227604D02*
Y230144D01*
X211010D01*
Y227604D02*
Y230144D01*
X204660Y227604D02*
X211010D01*
X200838Y192687D02*
Y197767D01*
Y192687D02*
X203378D01*
Y197767D01*
X200838D02*
X203378D01*
D13*
X246228Y176265D02*
X259628D01*
X246228D02*
Y183065D01*
X259628Y176265D02*
Y183065D01*
X251228Y171865D02*
X254628D01*
X251228D02*
Y176265D01*
X254628Y171865D02*
Y176265D01*
X246228Y181765D02*
X259628D01*
D17*
X282917Y137106D02*
X282808Y136998D01*
X282917Y136889D01*
X283025Y136998D01*
X282917Y137106D01*
X285159Y138630D02*
X285050Y138848D01*
X284832Y139065D01*
X284614Y139174D01*
X284179D01*
X283961Y139065D01*
X283744Y138848D01*
X283635Y138630D01*
X283526Y138304D01*
Y137759D01*
X283635Y137433D01*
X283744Y137215D01*
X283961Y136998D01*
X284179Y136889D01*
X284614D01*
X284832Y136998D01*
X285050Y137215D01*
X285159Y137433D01*
Y137759D01*
X284614D02*
X285159D01*
X286443Y139174D02*
Y136889D01*
X285681Y139174D02*
X287205D01*
X288130D02*
X287912Y139065D01*
X287694Y138848D01*
X287586Y138630D01*
X287477Y138304D01*
Y137759D01*
X287586Y137433D01*
X287694Y137215D01*
X287912Y136998D01*
X288130Y136889D01*
X288565D01*
X288783Y136998D01*
X289000Y137215D01*
X289109Y137433D01*
X289218Y137759D01*
Y138304D01*
X289109Y138630D01*
X289000Y138848D01*
X288783Y139065D01*
X288565Y139174D01*
X288130D01*
D27*
X222448Y208565D02*
X222496Y208322D01*
X222634Y208116D01*
X222840Y207979D01*
X223083Y207930D01*
X223326Y207979D01*
X223532Y208116D01*
X223669Y208322D01*
X223718Y208565D01*
X207208Y225710D02*
X207256Y225467D01*
X207394Y225261D01*
X207600Y225124D01*
X207843Y225075D01*
X208086Y225124D01*
X208292Y225261D01*
X208429Y225467D01*
X208478Y225710D01*
X254833Y195865D02*
X254881Y195622D01*
X255019Y195416D01*
X255225Y195279D01*
X255468Y195230D01*
X255711Y195279D01*
X255917Y195416D01*
X256054Y195622D01*
X256103Y195865D01*
X210383Y208565D02*
X210431Y208322D01*
X210569Y208116D01*
X210775Y207979D01*
X211018Y207930D01*
X211261Y207979D01*
X211467Y208116D01*
X211604Y208322D01*
X211653Y208565D01*
X220543Y198405D02*
Y208565D01*
Y198405D02*
X225623D01*
Y208565D01*
X223718D02*
X225623D01*
X220543D02*
X222448D01*
X205303Y225710D02*
X207208D01*
X208478D02*
X210383D01*
Y215550D02*
Y225710D01*
X205303Y215550D02*
X210383D01*
X205303D02*
Y225710D01*
X252928Y185705D02*
Y195865D01*
Y185705D02*
X258008D01*
Y195865D01*
X256103D02*
X258008D01*
X252928D02*
X254833D01*
X208478Y208565D02*
X210383D01*
X211653D02*
X213558D01*
Y190785D02*
Y208565D01*
X208478Y190785D02*
X213558D01*
X208478D02*
Y208565D01*
X229013Y176161D02*
Y176373D01*
Y176584D02*
Y176796D01*
Y177008D02*
Y177219D01*
X232400Y177008D02*
Y177219D01*
Y176584D02*
Y176796D01*
Y176161D02*
Y176373D01*
X235998Y176161D02*
Y177219D01*
X225415D02*
X226050Y180818D01*
X235363D01*
X235998Y177219D01*
X225415D02*
X235998D01*
X225415Y176161D02*
Y177219D01*
Y176161D02*
X235998D01*
X267536Y229501D02*
Y249821D01*
X265631Y229501D02*
X267536D01*
X265631Y247916D02*
X267536D01*
X265631Y231406D02*
X267536D01*
X261590Y249825D02*
X265208Y249821D01*
X261590Y229501D02*
Y249821D01*
Y229501D02*
X265631D01*
Y249821D01*
X265208D02*
X267536D01*
X260320Y248551D02*
X261590D01*
X260320Y246011D02*
X261590D01*
X260320Y243471D02*
X261590D01*
X260320Y240931D02*
X261590D01*
X260320Y238391D02*
X261590D01*
X260320Y235851D02*
X261590D01*
X260320Y233311D02*
X261590D01*
X260320Y230771D02*
X261590D01*
X260955Y247281D02*
X261590D01*
X260955Y244741D02*
X261590D01*
X260955Y242201D02*
X261590D01*
X260955Y239661D02*
X261590D01*
X260955Y237121D02*
X261590D01*
X260955Y234581D02*
X261590D01*
X260955Y232041D02*
X261590D01*
M02*
